<?xml version="1.0" encoding="utf-8"?>
<!-- Generator: Adobe Illustrator 21.0.0, SVG Export Plug-In . SVG Version: 6.00 Build 0)  -->
<svg version="1.2" baseProfile="tiny" id="Layer_1" xmlns="http://www.w3.org/2000/svg" xmlns:xlink="http://www.w3.org/1999/xlink"
	 x="0px" y="0px" viewBox="0 0 144 112.4" xml:space="preserve">
<g>
	<g>
		<g>
			<path fill="#026937" d="M62,3.5c0.7-0.4,1.4-0.8,2.1-1.1c1-0.5,2.1-0.7,3.3-0.7c0.4,0,0.9,0,1.3,0.1c0.2,0,0.3,0,0.5,0.1
				c0,0,0,0,0,0c1.9,0.3,3.7,1.3,5.2,2.6c2.4,1.9,4.6,4.9,6.6,8.7h1.2V1h-0.9c-0.4,1-0.8,1.7-1.3,1.9C79.9,3,79.8,3,79.7,3
				c-0.7,0-1.5-0.5-2.8-1c-3.2-1.3-6.4-2-10-2c-0.1,0-0.1,0-0.2,0c-5.1,0-10,1.9-13.4,5.1c-3.9,3.7-6.1,8.9-6.1,14.6
				c0,5.7,2.2,10.8,6.1,14.5c1.5,1.4,3.2,2.6,5.2,3.4c-3.2-3.7-5.3-9.3-5.3-15.7C53.4,13.7,57,6.6,62,3.5z"/>
			<path fill="#F7A800" d="M82.9,30.1l-0.7-0.5c-1.6,2.2-3.6,3.9-5.9,5c-0.8,0.4-1.7,0.7-2.5,1c-0.7,0.2-1.4,0.3-2.1,0.4
				c-0.8,0.1-1.6,0.2-2.4,0.2c-3.4,0-6.4-1.1-8.4-2.9c-2.5-2.2-4.4-5.5-5.3-9.4c1.2,8.8,5.9,15.6,13,15.3c0,0,0.1,0,0.1,0
				c1.7,0,3.9-0.4,6.5-1.8c3-1.5,5.7-3.9,7.9-7.1C83,30.2,83,30.2,82.9,30.1L82.9,30.1z"/>
		</g>
		<path fill="#026937" d="M121.7,30.1l-0.7-0.5c-2.2,3-5.1,5-8.4,6c-0.7,0.2-1.4,0.3-2.1,0.4c-0.8,0.1-1.6,0.2-2.4,0.2
			c-3.4,0-6.4-1.1-8.4-2.9c-3.5-3-5.9-8.4-5.9-14.5c0-7.8,3.8-14.4,9.1-16.5c1-0.5,2.1-0.7,3.3-0.7c0.4,0,0.9,0,1.3,0.1
			c0.2,0,0.3,0,0.5,0.1c0,0,0,0,0,0c1.9,0.3,3.7,1.3,5.2,2.6c2.4,1.9,4.6,4.9,6.6,8.7h1.2V1h-0.9c-0.4,1-0.8,1.7-1.3,1.9
			C118.7,3,118.6,3,118.5,3c-0.7,0-1.5-0.5-2.8-1c-3.2-1.3-6.4-2-10-2c-0.1,0-0.1,0-0.2,0c-5.1,0-10,1.9-13.4,5.1
			c-3.9,3.7-6.1,8.9-6.1,14.6c0,5.7,2.2,10.8,6.1,14.5c3,2.8,7.1,4.6,11.6,5h0c0.6,0.1,1.2,0.1,1.8,0.1c6.6,0,12.2-3.1,16.2-9.1
			C121.8,30.2,121.8,30.2,121.7,30.1L121.7,30.1z"/>
		<path fill="#026937" d="M35.8,11c0-7.8-0.2-9.6-6.5-9.6V0h18v1.4c-0.1,0-0.2,0-0.4,0c-5.7,0-5.8,1.4-5.8,6.5c0,0.2,0,0.4,0,0.6
			v13.8c0,6-0.6,9.9-4.5,13.7c-2.2,2.2-4.9,3.2-8.1,3.2c-4.2,0-6.4-1.5-6.4-4c0-1.6,1.3-2.8,2.9-2.8c2,0,2.7,1.3,3.7,2.4
			c1.1,1.2,2,1.6,3.3,1.6c2.8-0.1,3.5-2.1,3.8-6V11z"/>
	</g>
	<g>
		<path fill="#026937" d="M11.7,111.9l0.4-1c0.2,0.2,0.5,0.3,0.8,0.4c0.3,0.1,0.6,0.2,0.9,0.2c0.5,0,0.8-0.1,1.1-0.4
			c0.3-0.2,0.4-0.5,0.4-0.9c0-0.3-0.1-0.5-0.2-0.8c-0.2-0.2-0.5-0.5-1.2-0.8l-0.7-0.3c-0.6-0.3-1-0.6-1.2-0.9
			c-0.2-0.4-0.3-0.8-0.3-1.3c0-0.6,0.2-1.1,0.7-1.5c0.5-0.4,1-0.6,1.7-0.6c0.9,0,1.6,0.1,2,0.4l-0.3,1c-0.2-0.1-0.4-0.2-0.7-0.3
			c-0.3-0.1-0.6-0.2-0.9-0.2c-0.4,0-0.7,0.1-0.9,0.3c-0.2,0.2-0.3,0.5-0.3,0.8c0,0.2,0,0.4,0.1,0.6c0.1,0.2,0.2,0.3,0.3,0.4
			c0.1,0.1,0.4,0.3,0.9,0.5l0.7,0.3c0.6,0.3,1,0.6,1.2,0.9c0.2,0.4,0.4,0.8,0.4,1.4c0,0.6-0.3,1.1-0.8,1.6c-0.5,0.4-1.2,0.6-2.1,0.6
			C12.9,112.4,12.2,112.3,11.7,111.9z"/>
		<path fill="#026937" d="M48.9,104.2h1.2v5.6c0,0.5,0.2,0.9,0.5,1.2c0.3,0.3,0.8,0.5,1.3,0.5c0.6,0,1-0.2,1.4-0.5
			c0.3-0.3,0.5-0.7,0.5-1.3v-5.5h1.2v5.7c0,0.8-0.3,1.5-0.8,1.9c-0.5,0.5-1.3,0.7-2.2,0.7c-1,0-1.7-0.2-2.2-0.7
			c-0.5-0.5-0.8-1.1-0.8-1.9V104.2z"/>
		<path fill="#026937" d="M93.3,112.4l-4.4-5.9v5.8h-1.1v-8.1h0.5l4.3,5.6v-5.6h1.1v8.2H93.3z"/>
		<path fill="#026937" d="M129.7,108.7v3.6h-1.2v-3.6l-2.8-4.5h1.2l2.1,3.6l2.1-3.6h1.2L129.7,108.7z"/>
	</g>
	<g>
		<path fill="#026937" d="M22.4,59c1.9,0,3.1-1.8,3.1-4.5v-5.6c0-0.8,0.4-0.9,0.7-0.9c0.2,0,0.3-0.1,0.3-0.2c0-0.1,0-0.3-0.4-0.3
			c-0.2,0-0.3,0-0.5,0c-0.3,0-0.6,0-1.1,0c-0.4,0-0.6,0-0.9,0c-0.3,0-0.5,0-0.8,0c-0.1,0-0.3,0-0.3,0.2c0,0.2,0.2,0.2,0.5,0.3
			c0.5,0.1,1.1,0.2,1.1,1.3v6.5c0,1.3-0.5,2.3-1.1,2.3c-0.2,0-0.5-0.3-0.7-0.5c-0.2-0.2-0.3-0.3-0.5-0.3c-0.3,0-0.6,0.6-0.6,0.8
			C21.2,58.6,22,59,22.4,59z"/>
		<path fill="#026937" d="M35.1,55l0.5,1.3c0,0.1,0.1,0.2,0.1,0.3c0.2,0.4,0.4,0.9,0.4,1.2c0,0.3-0.3,0.4-0.5,0.5
			c-0.2,0.1-0.4,0.1-0.4,0.4c0,0.2,0.3,0.2,0.4,0.2c0.2,0,0.4,0,0.6,0c0.2,0,0.4,0,0.6,0c0.3,0,0.7,0,1,0c0.3,0,0.7,0,1,0
			c0.1,0,0.3,0,0.3-0.2c0-0.2-0.2-0.3-0.5-0.3c-0.3-0.1-0.7-0.1-0.9-0.5c-0.3-0.4-0.4-0.9-0.6-1.3c-0.1-0.2-0.1-0.3-0.2-0.5
			l-3.3-8.2c0,0,0-0.1,0-0.1c-0.1-0.3-0.2-0.5-0.4-0.5c-0.2,0-0.2,0.1-0.7,1.1c-0.1,0.3-0.3,0.7-0.6,1.2l-3.8,8.1
			c-0.2,0.5-0.6,0.6-0.8,0.7c-0.2,0.1-0.3,0.1-0.3,0.3c0,0.1,0.1,0.2,0.2,0.2c0.2,0,0.4,0,0.6,0c0.2,0,0.4,0,0.6,0
			c0.2,0,0.4,0,0.7,0c0.2,0,0.4,0,0.7,0c0.1,0,0.1,0,0.2,0c0.1,0,0.3,0,0.3-0.3c0-0.2-0.2-0.2-0.4-0.3c-0.3-0.1-0.7-0.1-0.7-0.8
			c0-0.2,0.1-0.4,0.1-0.5l1-2.2c0.1-0.3,0.4-0.3,0.7-0.3h3.5C34.9,54.5,35,54.7,35.1,55z M31.1,53.7c-0.1,0-0.2,0-0.2,0
			c0,0,0-0.1,0-0.2l1.8-3.9c0.1-0.1,0.1-0.1,0.1-0.1c0,0,0,0,0.1,0.1l1.6,3.8c0,0.1,0.1,0.2,0,0.2c0,0-0.1,0.1-0.2,0.1H31.1z"/>
		<path fill="#026937" d="M41,57.1c-0.1,1-0.5,1.1-0.8,1.2c-0.2,0.1-0.4,0.1-0.4,0.3c0,0.2,0.1,0.2,0.2,0.2c0.1,0,0.2,0,0.3,0
			c0.2,0,0.5,0,1,0c0.3,0,0.7,0,1,0c0.2,0,0.4,0,0.4,0c0.2,0,0.5,0,0.5-0.2c0-0.2-0.2-0.3-0.4-0.4c-0.4-0.1-1-0.3-1-1.6l0.2-5.6
			c0-0.1,0.1-0.2,0.1-0.2c0,0,0.1,0,0.1,0.1l3.4,7.1c0,0,0,0,0,0.1c0.1,0.2,0.2,0.4,0.3,0.4c0.1,0,0.3-0.3,0.5-0.7
			c0-0.1,0.1-0.1,0.1-0.2l3.3-6.7c0.2-0.4,0.3-0.4,0.4-0.4c0,0,0.1,0.1,0.1,0.6l0.2,6.2c0,0.7-0.3,0.8-0.6,0.9
			c-0.2,0.1-0.4,0.1-0.4,0.4c0,0.1,0.1,0.2,0.2,0.2c0.2,0,0.4,0,0.6,0c0.3,0,0.5,0,0.8,0c0.4,0,0.7,0,1,0c0.2,0,0.4,0,0.5,0
			c0.2,0,0.4,0,0.4-0.2c0-0.3-0.2-0.3-0.5-0.4c-0.3-0.1-0.8-0.2-0.8-0.9l-0.2-7.9c0-1.2,0.5-1.3,0.8-1.4c0.2,0,0.4-0.1,0.4-0.3
			c0-0.1-0.1-0.2-0.2-0.2c-0.1,0-0.2,0-0.3,0c-0.1,0-0.3,0-0.4,0c0,0-0.1,0-0.3,0c-0.2,0-0.4,0-0.5,0c0,0,0,0,0,0h0
			c-0.2,0-0.3,0.2-0.4,0.4c0,0,0,0.1-0.1,0.1l-3.8,7.6l0,0.1c-0.2,0.4-0.4,0.7-0.4,0.8c-0.1,0-0.1-0.1-0.3-0.4L42.3,48
			c0,0,0-0.1,0-0.1c-0.1-0.2-0.1-0.4-0.3-0.4c-0.1,0-0.3,0-0.4,0c-0.1,0-0.3,0-0.4,0c-0.2,0-0.3,0-0.4,0c-0.1,0-0.3,0-0.4,0
			c-0.2,0-0.3,0.1-0.3,0.2c0,0.2,0.1,0.2,0.3,0.3c0.4,0.1,1.2,0.4,1.2,3.1c0,1.2-0.1,2.4-0.2,4C41.1,55.7,41.1,56.4,41,57.1z"/>
		<path fill="#026937" d="M54.6,48C54.6,48.1,54.6,48.1,54.6,48c0.9,0.1,0.9,0.9,0.9,1.6v7.3c0,0.8,0,1.2-0.4,1.3
			c-0.2,0.1-0.3,0.1-0.4,0.2c-0.2,0.1-0.3,0.1-0.3,0.3c0,0.2,0.2,0.2,0.3,0.2c0.4,0,0.8,0,1.2,0c0.3,0,0.5,0,0.8,0
			c0.7,0,1.4,0,2.1,0c0.5,0,1,0,1.6,0l0.2,0c0.6,0,0.9,0,1.4-0.6c0.5-0.6,0.8-1.1,0.8-1.6c0-0.1,0-0.2-0.2-0.2
			c-0.1,0-0.1,0.1-0.2,0.2c-0.3,0.4-1.3,1.5-4.2,1.5c-0.6,0-0.9-0.1-1-0.2c-0.2-0.2-0.2-0.4-0.1-0.8c0-0.1,0-0.1,0-0.2V54
			c0,0,0-0.1,0-0.1c0-0.1,0-0.3,0.1-0.3c0,0,0.1-0.1,0.2-0.1h2.4c0.8,0,0.9,0.5,1,0.9c0,0.3,0.1,0.5,0.3,0.5c0.1,0,0.2-0.1,0.2-0.3
			c0-0.2,0-0.4,0-0.6c0-0.2,0-0.4,0-0.6c0-0.2,0-0.5,0-0.8c0-0.3,0-0.6,0-0.8c0-0.2-0.1-0.4-0.2-0.4c-0.2,0-0.2,0.2-0.3,0.4
			c-0.1,0.4-0.3,0.9-1.3,0.9h-1.7c-0.3,0-0.5,0-0.5-0.1c0,0,0-0.2,0-0.4v-3.1c0-0.4,0-0.7,0.1-0.8c0.1-0.1,0.4-0.1,0.9-0.1l0.4,0
			c0.1,0,0.2,0,0.3,0c0.1,0,0.3,0,0.4,0c0.4,0,1.7,0,2,0.4c0.1,0.1,0.1,0.4,0.1,0.6c0,0.3,0,0.6,0.3,0.6c0.2,0,0.4-0.2,0.4-2
			c0-0.1,0-0.4-0.2-0.4c-0.3,0-0.9,0-1.4,0c-0.4,0-0.8,0-0.9,0c-0.2,0-0.4,0-0.8,0c-0.7,0-1.7,0-3.8,0c-0.4,0-0.6,0-0.6,0.2
			C54.1,48,54.4,48,54.6,48z"/>
		<path fill="#026937" d="M63.8,58.1c0.1,0.3,1.6,0.9,2.8,0.9c3.4,0,4.6-1.8,4.6-3.4c0-2.5-2-3-3.7-3.5c-1.5-0.4-2.7-0.8-2.7-2.1
			c0-1.4,1.3-2,2.5-2c1.5,0,2.5,0.7,3,2c0.1,0.2,0.2,0.5,0.4,0.5c0.1,0,0.1,0,0.2-0.1c0-0.1,0.1-0.1,0.1-0.2L70.6,48
			c0-0.2-0.1-0.3-0.2-0.3c-0.1,0-0.2,0.1-0.2,0.1c0,0-0.1,0.1-0.1,0.1c0,0-0.1,0-0.2-0.1c-0.3-0.2-1-0.5-2.5-0.5
			c-1.8,0-3.6,0.9-3.6,3.1c0,2.3,1.9,2.8,3.6,3.3c1.5,0.4,2.8,0.8,2.8,2.2c0,1.7-1.5,2.5-2.9,2.5c-2.2,0-3.1-1.7-3.3-2.4
			c0-0.1,0-0.1,0-0.1c-0.1-0.2-0.1-0.4-0.3-0.4c-0.1,0-0.1,0-0.2,0.1c-0.1,0.1-0.1,0.3-0.1,0.5L63.8,58.1z"/>
		<path fill="#026937" d="M72.3,50c0.2,0,0.3-0.2,0.3-0.3c0,0,0,0,0-0.1l0-0.1c0.3-0.8,0.3-1,1.2-1h2.6c0.1,0,0.1,0.2,0.1,0.6
			c0,0,0,0.1,0,0.1v8.3c0,0.5-0.4,0.7-0.8,0.8c-0.2,0.1-0.5,0.2-0.5,0.3c0,0.2,0.1,0.3,0.2,0.3c0,0,0,0,0.1,0c0.2,0,0.6-0.1,2.1-0.1
			c0.2,0,0.5,0,0.7,0c0.2,0,0.4,0,0.6,0c0.1,0,0.1,0,0.1-0.1c0.1-0.1,0.1-0.1,0.1-0.2c0-0.2-0.2-0.3-0.5-0.3c-0.4-0.1-0.8-0.2-0.8-1
			v-8.1c0-0.1,0-0.2,0-0.2c0-0.3,0-0.4,0-0.5c0,0,0.1,0,0.3,0l2.5,0c1,0,1,0.4,1,0.8c0,0.2,0,0.4,0.3,0.4c0.1,0,0.1,0,0.2-0.1
			c0.1-0.1,0.1-0.2,0.1-0.3L82.3,48c0-0.4-0.1-0.5-0.5-0.5c-0.1,0-0.2,0-0.5,0c-0.7,0-2,0.1-4.2,0.1c-1.2,0-2,0-2.8,0
			c-0.6,0-1.2,0-1.7,0c-0.3,0-0.3,0.4-0.3,0.6c0,0,0,0.1,0,0.1l-0.2,1.6C72.1,49.8,72.1,50,72.3,50z"/>
		<path fill="#026937" d="M88.8,59c3.6,0,6.1-2.4,6.1-6c0-1.6-0.6-3.1-1.7-4.1c-1.1-1-2.5-1.6-4.1-1.6c-3.4,0-5.9,2.5-5.9,5.8
			C83.1,56.7,85.4,59,88.8,59z M84.4,52.7c0-2.3,1.3-4.7,4.2-4.7c3.1,0,5,2.9,5,5.7c0,2.8-1.7,4.8-4.1,4.8
			C86.2,58.4,84.4,55.5,84.4,52.7z"/>
		<path fill="#026937" d="M99.7,58.2c0.3,0.7,0.4,1,0.6,1c0.2,0,0.3-0.1,0.5-0.4l1.8-4.4c0-0.1,0.1-0.1,0.1-0.1c0,0,0,0,0.1,0.1
			l1.8,4.2c0.2,0.5,0.3,0.6,0.5,0.6c0.3,0,0.4-0.3,0.5-0.6l4.1-9.7c0.3-0.8,0.6-0.9,0.7-1c0.1,0,0.2-0.1,0.2-0.2
			c0-0.2-0.1-0.2-0.2-0.2c-0.2,0-0.4,0-0.6,0c-0.2,0-0.5,0-0.7,0c-0.2,0-0.4,0-0.6,0c-0.2,0-0.4,0-0.6,0c-0.1,0-0.2,0.1-0.2,0.3
			c0,0.2,0.2,0.2,0.4,0.3c0.3,0.1,0.6,0.2,0.6,0.6c0,0.2,0,0.3-0.1,0.5l-2.9,7.1l0,0c-0.1,0.3-0.2,0.5-0.3,0.5
			c-0.1,0-0.2-0.3-0.3-0.5l-1.3-3.3c-0.1-0.2-0.2-0.6-0.2-0.7c0-0.1,0-0.3,0.1-0.6l1.1-2.6c0.4-1,0.8-1.2,0.9-1.3
			c0.1-0.1,0.2-0.1,0.2-0.3c0-0.1-0.1-0.2-0.2-0.2c-0.1,0-0.2,0-0.3,0c-0.2,0-0.4,0-0.8,0c-0.2,0-0.3,0-0.5,0c-0.2,0-0.3,0-0.5,0
			c-0.1,0-0.4,0-0.4,0.2c0,0.2,0.2,0.3,0.4,0.3c0.3,0.1,0.5,0.2,0.5,0.6c0,0.1-0.1,0.4-0.1,0.6l-0.8,1.9c0,0.1-0.1,0.3-0.2,0.3
			c0-0.1-0.1-0.2-0.2-0.4l-0.8-2.1c-0.1-0.2-0.1-0.3-0.1-0.5c0-0.3,0.2-0.4,0.4-0.5c0.1-0.1,0.3-0.1,0.3-0.3c0-0.1-0.1-0.2-0.2-0.2
			c-0.1,0-0.3,0-0.5,0c-0.3,0-0.6,0-1.1,0c-0.1,0-0.3,0-0.5,0c-0.4,0-0.8,0-1.1,0c-0.1,0-0.3,0-0.3,0.2c0,0.3,0.3,0.3,0.5,0.4
			c0.4,0.1,0.8,0.1,1,0.7l1.6,3.8l0,0.1c0.1,0.2,0.1,0.3,0.1,0.4c0,0.1-0.1,0.3-0.2,0.6l-1.2,2.8c-0.1,0.2-0.1,0.3-0.2,0.3
			c0,0-0.1-0.1-0.2-0.4l-3-7.5c-0.1-0.1-0.1-0.3-0.1-0.4c0-0.3,0.2-0.4,0.4-0.5c0.1-0.1,0.3-0.1,0.3-0.3c0-0.2-0.1-0.2-0.2-0.2
			c-0.2,0-0.4,0-0.6,0c-0.2,0-0.4,0-0.6,0c-0.2,0-0.5,0-0.7,0c-0.2,0-0.5,0-0.7,0c-0.2,0-0.4,0.1-0.4,0.3c0,0.2,0.1,0.2,0.3,0.3
			c0.3,0.1,0.6,0.2,0.8,0.8l3.5,8.7C99.6,57.8,99.7,58,99.7,58.2z"/>
		<path fill="#026937" d="M115,58.9c0.1,0,0.2,0,0.2-0.3c0-0.2-0.2-0.2-0.5-0.3c-0.4-0.1-1-0.2-1-1v-6.5c0-0.1,0-0.3,0.1-0.3
			c0,0,0.1,0,0.3,0.2c0,0,0,0,0,0l6.9,7.7c0.3,0.3,0.5,0.5,0.6,0.5c0.2,0,0.2-0.3,0.2-0.7V49c0-0.7,0.3-0.8,0.6-1
			c0.2-0.1,0.3-0.1,0.3-0.3c0-0.1-0.1-0.2-0.2-0.2c-0.2,0-0.4,0-0.7,0c-0.3,0-0.6,0-0.9,0c-0.3,0-0.5,0-0.7,0c-0.2,0-0.5,0-0.7,0
			c-0.1,0-0.2,0.1-0.2,0.2c0,0.2,0.2,0.3,0.5,0.3c0.5,0.1,1.3,0.3,1.3,1.7v6.7c0,0.1,0,0.1,0,0.1c0,0-0.1-0.1-0.1-0.1l-7.6-8.5
			c0,0,0-0.1-0.1-0.1c-0.1-0.1-0.2-0.3-0.4-0.3c-0.1,0-0.3,0-0.4,0c-0.1,0-0.2,0-0.4,0c-0.1,0-0.2,0-0.4,0c-0.1,0-0.3,0-0.4,0
			c-0.1,0-0.3,0.1-0.3,0.2c0,0.2,0.2,0.3,0.5,0.3c0.6,0.1,1.5,0.4,1.5,2.7v5.9c0,1.4-0.6,1.6-1,1.7c-0.2,0.1-0.4,0.1-0.4,0.3
			c0,0.1,0,0.2,0.3,0.2c0,0,0.1,0,0.3,0c0.3,0,0.8,0,1.2,0c0.5,0,0.8,0,1.1,0C114.6,58.9,114.8,58.9,115,58.9z"/>
		<path fill="#026937" d="M30.7,71.8c-0.1,0-0.2,0.1-0.3,0.2c-0.2,0.6-1.6,2-3.8,2c-2.7,0-4.1-2.5-4.1-4.9c0-2.8,1.5-4.4,4-4.4
			c1.6,0,2.7,0.7,3.7,2.4c0,0,0,0.1,0,0.1c0.1,0.2,0.2,0.4,0.3,0.4c0.1,0,0.1,0,0.1-0.1c0.1-0.1,0.1-0.3,0-0.7c0-0.2,0-0.3,0-0.5
			l0-0.2c0-0.8,0-1-0.2-1c-0.1,0-0.2,0-0.2,0.1c0,0-0.1,0.1-0.1,0.1c-0.1,0-0.2-0.1-0.4-0.2c-0.5-0.3-1.5-0.9-3.4-0.9
			c-2.9,0-5.2,2.3-5.2,5.4c0,2.9,2.1,5,5,5c3.1,0,4.2-1,4.3-1.2l0.3-1.4c0-0.1,0-0.1,0-0.2C30.8,71.8,30.7,71.8,30.7,71.8z"/>
		<path fill="#026937" d="M43.2,69.3c0-2.9-2.2-5.1-5.2-5.1c-3,0-5.3,2.2-5.3,5.1c0,3.1,2,5.2,5,5.2C41,74.6,43.2,72.4,43.2,69.3z
			 M42.1,69.8c0,2.5-1.5,4.2-3.7,4.2c-2.9,0-4.5-2.6-4.5-5.1c0-2,1.2-4.2,3.7-4.2C40.4,64.8,42.1,67.3,42.1,69.8z"/>
		<path fill="#026937" d="M56.2,74.4c0.2,0,0.3,0,0.4,0c0.2,0,0.4,0,0.4-0.2c0-0.2-0.2-0.3-0.4-0.3c-0.3-0.1-0.7-0.2-0.7-0.8l-0.2-7
			c0-1.1,0.4-1.2,0.7-1.2c0.2,0,0.3-0.1,0.3-0.3c0-0.1-0.1-0.2-0.2-0.2c-0.1,0-0.2,0-0.3,0c-0.1,0-0.2,0-0.4,0c0,0-0.1,0-0.2,0
			c-0.2,0-0.3,0-0.4,0h0h0c-0.2,0-0.3,0.2-0.4,0.4c0,0,0,0.1-0.1,0.1l-3.4,6.8l0,0c-0.2,0.3-0.3,0.7-0.4,0.7c-0.1,0-0.1-0.1-0.2-0.3
			l-3.4-7.3c0,0,0-0.1,0-0.1c-0.1-0.1-0.1-0.3-0.3-0.3c-0.1,0-0.3,0-0.4,0c-0.1,0-0.3,0-0.4,0c-0.1,0-0.3,0-0.4,0
			c-0.1,0-0.3,0-0.4,0c-0.2,0-0.3,0.1-0.3,0.2c0,0.2,0.1,0.2,0.3,0.3c0.4,0.1,1.1,0.4,1.1,2.7c0,1.1-0.1,2.2-0.2,3.6
			c0,0.5-0.1,1.1-0.1,1.8c-0.1,0.9-0.4,1-0.7,1.1c-0.2,0-0.3,0.1-0.3,0.3c0,0.1,0.1,0.2,0.2,0.2c0.1,0,0.2,0,0.3,0
			c0.2,0,0.5,0,0.9,0c0.3,0,0.6,0,0.9,0c0.2,0,0.3,0,0.4,0c0.2,0,0.4,0,0.4-0.2c0-0.2-0.2-0.3-0.4-0.3c-0.4-0.1-0.9-0.2-0.9-1.4
			l0.2-5c0-0.1,0-0.2,0-0.2c0,0,0.1,0,0.1,0.1l3,6.3c0,0,0,0,0,0.1c0.1,0.1,0.2,0.4,0.3,0.4c0.1,0,0.2-0.2,0.4-0.6
			c0-0.1,0.1-0.1,0.1-0.1l2.9-6c0.2-0.4,0.3-0.4,0.3-0.4c0,0,0.1,0.1,0.1,0.5l0.1,5.5c0,0.6-0.3,0.7-0.5,0.8
			c-0.2,0.1-0.3,0.1-0.3,0.3c0,0.1,0.1,0.2,0.2,0.2c0.2,0,0.4,0,0.6,0c0.2,0,0.5,0,0.7,0C55.6,74.4,55.9,74.4,56.2,74.4z"/>
		<path fill="#026937" d="M70.5,74.5c0.2,0,0.4,0,0.4-0.2c0-0.2-0.2-0.3-0.4-0.3c-0.3-0.1-0.7-0.2-0.7-0.8l-0.2-7
			c0-1.1,0.4-1.2,0.7-1.2c0.2,0,0.3-0.1,0.3-0.3c0-0.1-0.1-0.2-0.2-0.2c-0.1,0-0.2,0-0.3,0c-0.1,0-0.2,0-0.4,0c0,0-0.1,0-0.2,0
			c-0.2,0-0.3,0-0.4,0h0h0c-0.2,0-0.3,0.2-0.4,0.4c0,0,0,0.1-0.1,0.1l-3.4,6.8l0,0C65.2,72,65,72.3,65,72.3c-0.1,0-0.1-0.1-0.2-0.3
			l-3.4-7.3c0,0,0-0.1,0-0.1c-0.1-0.1-0.1-0.3-0.3-0.3c-0.1,0-0.3,0-0.4,0c-0.1,0-0.3,0-0.4,0c-0.1,0-0.3,0-0.4,0
			c-0.1,0-0.3,0-0.4,0c-0.2,0-0.3,0.1-0.3,0.2c0,0.2,0.1,0.2,0.3,0.3c0.4,0.1,1.1,0.4,1.1,2.7c0,1.1-0.1,2.2-0.2,3.6
			c0,0.5-0.1,1.1-0.1,1.8c-0.1,0.9-0.4,1-0.7,1.1c-0.2,0-0.3,0.1-0.3,0.3c0,0.1,0.1,0.2,0.2,0.2c0.1,0,0.2,0,0.3,0
			c0.2,0,0.5,0,0.9,0c0.3,0,0.6,0,0.9,0c0.2,0,0.3,0,0.4,0c0.2,0,0.4,0,0.4-0.2c0-0.2-0.2-0.3-0.4-0.3c-0.4-0.1-0.9-0.2-0.9-1.4
			l0.2-5c0-0.1,0-0.2,0-0.2c0,0,0.1,0,0.1,0.1l3,6.3c0,0,0,0,0,0.1c0.1,0.1,0.2,0.4,0.3,0.4c0.1,0,0.2-0.2,0.4-0.6
			c0-0.1,0.1-0.1,0.1-0.1l2.9-6c0.2-0.4,0.3-0.4,0.3-0.4c0,0,0.1,0.1,0.1,0.5l0.1,5.5c0,0.6-0.3,0.7-0.5,0.8
			c-0.2,0.1-0.3,0.1-0.3,0.3c0,0.1,0.1,0.2,0.2,0.2c0.2,0,0.4,0,0.6,0c0.2,0,0.5,0,0.7,0c0.3,0,0.6,0,0.9,0
			C70.3,74.4,70.4,74.5,70.5,74.5z"/>
		<path fill="#026937" d="M83,64.3c-0.1,0-0.3,0-0.4,0c-0.1,0-0.3,0-0.4,0c-0.3,0-0.6,0-0.8,0c-0.3,0-0.6,0-0.8,0
			c-0.1,0-0.2,0.1-0.2,0.2c0,0.2,0.2,0.3,0.5,0.4c0.4,0.1,0.9,0.2,0.9,1v4.6c0,2.2-1.1,3.4-3.2,3.4c-2.1,0-3.3-1.2-3.3-3.2v-5.1
			c0-0.6,0.3-0.7,0.6-0.7c0.2,0,0.4-0.1,0.4-0.3c0-0.1-0.1-0.2-0.4-0.2c0,0-0.1,0-0.1,0h0c-0.2,0-0.4,0-0.7,0c-0.2,0-0.5,0-0.7,0
			c-0.2,0-0.4,0-0.6,0c-0.2,0-0.4,0-0.5,0c-0.1,0-0.4,0-0.4,0.2c0,0.2,0.2,0.3,0.5,0.4c0.3,0.1,0.7,0.2,0.7,0.6v4.8
			c0,1.9,0.5,4.3,4.5,4.3c1.3,0,2.3-0.3,3-1c1-1.1,1-2.6,1-3.1v-4.5c0-0.8,0.3-1,0.6-1.1c0.1-0.1,0.3-0.1,0.3-0.3
			C83.3,64.4,83.1,64.3,83,64.3z"/>
		<path fill="#026937" d="M95.2,64.3c-0.2,0-0.4,0-0.6,0c-0.3,0-0.6,0-0.8,0c-0.2,0-0.5,0-0.7,0c-0.2,0-0.4,0-0.6,0
			c-0.1,0-0.2,0.1-0.2,0.2c0,0.2,0.2,0.3,0.5,0.3c0.5,0.1,1.1,0.3,1.1,1.5v5.9c0,0,0,0.1,0,0.1c0,0-0.1-0.1-0.1-0.1l-6.8-7.5
			c0,0,0,0-0.1-0.1c-0.1-0.1-0.2-0.3-0.4-0.3c-0.1,0-0.2,0-0.3,0c-0.1,0-0.2,0-0.3,0c-0.1,0-0.2,0-0.3,0c-0.1,0-0.2,0-0.3,0
			c-0.1,0-0.3,0.1-0.3,0.2c0,0.2,0.2,0.2,0.4,0.3c0.5,0.1,1.3,0.3,1.3,2.4v5.2c0,1.3-0.5,1.4-0.9,1.5c-0.2,0.1-0.4,0.1-0.4,0.3
			c0,0.1,0,0.2,0.2,0.2c0,0,0.1,0,0.3,0c0.3,0,0.7,0,1.1,0c0.4,0,0.7,0,1,0c0.2,0,0.3,0,0.5,0c0.1,0,0.2,0,0.2-0.2
			c0-0.2-0.2-0.2-0.4-0.2c-0.4-0.1-0.8-0.1-0.8-0.9v-5.8c0-0.3,0-0.3,0-0.3c0,0,0.1,0,0.2,0.2c0,0,0,0,0,0l6.1,6.9
			c0.3,0.3,0.4,0.4,0.6,0.4c0.2,0,0.2-0.2,0.2-0.7v-8.2c0-0.6,0.3-0.7,0.5-0.8c0.2-0.1,0.3-0.1,0.3-0.3
			C95.4,64.4,95.3,64.3,95.2,64.3z"/>
		<path fill="#026937" d="M100.7,74.4c0.2,0,0.4,0,0.5,0c0.2,0,0.3,0,0.3-0.2c0-0.2-0.2-0.3-0.5-0.3c-0.4-0.1-0.8-0.2-0.8-0.7v-7.6
			c0-0.6,0.4-0.7,0.7-0.8c0.2,0,0.3-0.1,0.3-0.3c0-0.2-0.1-0.2-0.3-0.2c-0.2,0-0.4,0-0.7,0c-0.2,0-0.4,0-0.7,0c-0.3,0-0.5,0-0.8,0
			c-0.3,0-0.5,0-0.8,0c-0.1,0-0.2,0.1-0.2,0.2c0,0.2,0.2,0.2,0.4,0.2c0.3,0.1,0.8,0.2,0.8,0.8v7.3c0,0.9-0.4,1-0.8,1.1
			C98.2,74,98,74,98,74.2c0,0.2,0.1,0.3,0.4,0.3c0.1,0,0.1,0,0.2,0c0.2,0,0.5,0,1.1,0C100.1,74.4,100.4,74.4,100.7,74.4z"/>
		<path fill="#026937" d="M112.7,64.8c0-0.4-0.1-0.5-0.5-0.5c-0.1,0-0.2,0-0.4,0c-0.6,0-1.8,0-3.7,0c-1,0-1.8,0-2.5,0
			c-0.6,0-1,0-1.5,0c-0.3,0-0.3,0.3-0.3,0.5c0,0,0,0,0,0.1l-0.2,1.4c0,0.1,0.1,0.2,0.2,0.2c0.2,0,0.2-0.2,0.3-0.3c0,0,0,0,0-0.1
			l0-0.1c0.2-0.7,0.3-0.9,1.1-0.9h2.3c0.1,0,0.1,0.1,0.1,0.5c0,0,0,0.1,0,0.1v7.4c0,0.5-0.4,0.6-0.7,0.7c-0.2,0.1-0.4,0.1-0.4,0.3
			c0,0.2,0.1,0.2,0.2,0.2c0,0,0,0,0.1,0c0.2,0,0.6-0.1,1.9-0.1c0.2,0,0.4,0,0.6,0c0.2,0,0.4,0,0.5,0c0.1,0,0.1,0,0.1,0
			c0.1-0.1,0-0.1,0-0.2c0-0.2-0.2-0.3-0.4-0.3c-0.3-0.1-0.7-0.2-0.7-0.9v-7.2c0-0.1,0-0.1,0-0.2c0-0.2,0-0.4,0-0.4c0,0,0.1,0,0.3,0
			h2.2c0.9,0,0.9,0.4,0.9,0.7c0,0.2,0,0.4,0.3,0.4c0.1,0,0.1,0,0.2-0.1c0.1-0.1,0.1-0.2,0.1-0.3L112.7,64.8z"/>
		<path fill="#026937" d="M117.8,69.1c0.1,0.2,0.3,0.4,0.3,0.6v3.4c0,0.6-0.4,0.7-0.7,0.7c-0.2,0-0.4,0.1-0.4,0.3
			c0,0.2,0.2,0.2,0.3,0.2c0,0,0.1,0,0.2,0c0.2,0,0.6,0,1.1,0c0.3,0,0.7,0,1.1,0c0.2,0,0.4,0,0.5,0c0.2,0,0.4,0,0.4-0.2
			c0-0.2-0.2-0.3-0.4-0.3c-0.3-0.1-0.8-0.2-0.8-1v-3.5c0-0.1,0-0.2,0.2-0.4c0-0.1,0.1-0.1,0.2-0.2l2-3.1c0-0.1,0.1-0.1,0.1-0.2
			c0.2-0.3,0.3-0.6,0.6-0.8c0,0,0.1,0,0.1,0c0.1-0.1,0.3-0.1,0.3-0.3c0-0.1-0.1-0.2-0.2-0.2c-0.2,0-0.4,0-0.6,0c-0.2,0-0.4,0-0.6,0
			c-0.2,0-0.3,0-0.5,0c-0.2,0-0.3,0-0.5,0c-0.1,0-0.4,0-0.4,0.3c0,0.2,0.2,0.2,0.4,0.3c0.4,0.1,0.6,0.1,0.6,0.5
			c0,0.3-0.1,0.5-0.2,0.7c0,0,0,0,0,0.1l-1.5,2.4c-0.1,0.2-0.2,0.3-0.2,0.3c-0.1,0-0.1-0.1-0.2-0.2l-1.7-2.7l0,0
			c-0.1-0.1-0.2-0.3-0.2-0.5c0-0.2,0.2-0.3,0.4-0.4c0.2-0.1,0.3-0.1,0.3-0.3c0-0.1-0.1-0.2-0.3-0.2c-0.1,0-0.1,0-0.2,0
			c-0.2,0-0.5,0-0.8,0c-0.6,0-0.9,0-1.2,0c-0.2,0-0.3,0-0.4,0c-0.1,0-0.2,0.1-0.2,0.3c0,0.1,0.1,0.2,0.3,0.2
			c0.2,0.1,0.5,0.1,0.8,0.5L117.8,69.1L117.8,69.1z"/>
		<path fill="#026937" d="M29.5,86.2c-0.1,0-0.2,0.1-0.2,0.2c-0.2,0.5-1.4,1.8-3.3,1.8c-2.3,0-3.6-2.1-3.6-4.3
			c0-2.5,1.3-3.9,3.5-3.9c1.4,0,2.3,0.6,3.2,2.1c0,0,0,0.1,0,0.1c0.1,0.1,0.1,0.4,0.3,0.4c0,0,0.1,0,0.1,0c0.1-0.1,0.1-0.3,0-0.6
			c0-0.1,0-0.3,0-0.5l0-0.1c0-0.7,0-0.9-0.2-0.9c-0.1,0-0.1,0-0.2,0.1c0,0-0.1,0-0.1,0c-0.1,0-0.2-0.1-0.4-0.2
			c-0.4-0.3-1.3-0.8-3-0.8c-2.6,0-4.5,2-4.5,4.7c0,2.6,1.8,4.4,4.4,4.4c2.7,0,3.7-0.9,3.7-1l0.3-1.2c0,0,0-0.1,0-0.1
			C29.6,86.2,29.5,86.2,29.5,86.2z"/>
		<path fill="#026937" d="M42.4,79.6c-2.6,0-4.6,1.9-4.6,4.5c0,2.7,1.8,4.6,4.4,4.6c2.8,0,4.7-1.9,4.7-4.6
			C47,81.5,45,79.6,42.4,79.6z M46,84.5c0,2.2-1.3,3.7-3.2,3.7c-2.5,0-3.9-2.3-3.9-4.5c0-1.7,1-3.6,3.2-3.6
			C44.5,80.1,46,82.3,46,84.5z"/>
		<path fill="#026937" d="M61.5,86.7c-0.1,0-0.1,0.1-0.2,0.1c-0.3,0.3-1,1.1-3.3,1.1c-0.4,0-0.7,0-0.8-0.2c-0.1-0.1-0.1-0.3-0.1-0.6
			c0-0.1,0-0.1,0-0.2v-6c0-0.7,0.4-0.8,0.6-0.8c0.1,0,0.3-0.1,0.3-0.2c0-0.2-0.1-0.2-0.3-0.2c-0.1,0-0.1,0-0.2,0c-0.2,0-0.5,0-0.9,0
			c-0.4,0-0.6,0-0.9,0c-0.1,0-0.3,0-0.4,0c-0.1,0-0.3,0-0.3,0.2c0,0.1,0.2,0.2,0.4,0.3c0.3,0.1,0.7,0.2,0.7,0.6V87
			c0,0.6,0,0.9-0.3,1c-0.1,0.1-0.2,0.1-0.3,0.1c-0.2,0.1-0.2,0.1-0.3,0.2c0,0.1,0.1,0.2,0.2,0.2c0.3,0,0.6,0,0.9,0
			c0.2,0,0.4,0,0.6,0c0.5,0,1.1,0,1.6,0c0.4,0,0.8,0,1.2,0H60c0.5,0,0.7,0,1.1-0.4c0.4-0.5,0.6-0.9,0.6-1.2
			C61.7,86.8,61.7,86.7,61.5,86.7z"/>
		<path fill="#026937" d="M76.1,86.7c-0.1,0-0.1,0.1-0.2,0.1c-0.3,0.3-1,1.1-3.3,1.1c-0.4,0-0.7,0-0.8-0.2c-0.1-0.1-0.1-0.3-0.1-0.6
			c0-0.1,0-0.1,0-0.2v-6c0-0.7,0.4-0.8,0.6-0.8c0.1,0,0.3-0.1,0.3-0.2c0-0.2-0.1-0.2-0.3-0.2c-0.1,0-0.1,0-0.2,0c-0.2,0-0.5,0-0.9,0
			c-0.4,0-0.6,0-0.9,0c-0.1,0-0.3,0-0.4,0c-0.1,0-0.3,0-0.3,0.2c0,0.1,0.2,0.2,0.4,0.3c0.3,0.1,0.7,0.2,0.7,0.6V87
			c0,0.6,0,0.9-0.3,1c-0.1,0.1-0.2,0.1-0.3,0.1c-0.2,0.1-0.2,0.1-0.3,0.2c0,0.1,0.1,0.2,0.2,0.2c0.3,0,0.6,0,0.9,0
			c0.2,0,0.4,0,0.6,0c0.5,0,1.1,0,1.6,0c0.4,0,0.8,0,1.2,0h0.2c0.5,0,0.7,0,1.1-0.4c0.4-0.5,0.6-0.9,0.6-1.2
			C76.3,86.8,76.2,86.7,76.1,86.7z"/>
		<path fill="#026937" d="M90.7,86.7c-0.1,0-0.1,0.1-0.2,0.1c-0.3,0.3-1,1.1-3.3,1.1c-0.4,0-0.7,0-0.8-0.2c-0.1-0.1-0.1-0.3-0.1-0.6
			c0-0.1,0-0.1,0-0.2v-2.3c0,0,0,0,0-0.1c0-0.1,0-0.2,0-0.2c0,0,0.1,0,0.1,0h1.8c0.6,0,0.7,0.4,0.7,0.7c0,0.2,0.1,0.4,0.3,0.4
			c0.1,0,0.2,0,0.2-0.2c0-0.2,0-0.3,0-0.5c0-0.2,0-0.3,0-0.5c0-0.2,0-0.4,0-0.6c0-0.2,0-0.4,0-0.7c0-0.1-0.1-0.3-0.2-0.3
			c-0.1,0-0.2,0.1-0.2,0.3c-0.1,0.3-0.2,0.7-1,0.7h-1.3c-0.2,0-0.3,0-0.4,0c0,0,0-0.1,0-0.3V81c0-0.3,0-0.5,0.1-0.6
			c0.1-0.1,0.3-0.1,0.7-0.1h0.3c0.1,0,0.1,0,0.2,0c0.1,0,0.2,0,0.3,0c0.3,0,1.3,0,1.5,0.3c0.1,0.1,0.1,0.3,0.1,0.4
			c0,0.2,0,0.5,0.2,0.5c0.1,0,0.3-0.2,0.3-1.5c0-0.1,0-0.3-0.2-0.3c-0.2,0-0.7,0-1.1,0c-0.3,0-0.6,0-0.7,0c-0.2,0-0.3,0-0.6,0
			c-0.5,0-1.3,0-2.9,0c-0.3,0-0.5,0-0.5,0.2c0,0.2,0.2,0.2,0.4,0.2c0,0,0,0,0.1,0c0.6,0.1,0.6,0.7,0.6,1.2V87c0,0.6,0,0.9-0.3,1
			c-0.1,0.1-0.2,0.1-0.3,0.1c-0.2,0.1-0.2,0.1-0.3,0.2c0,0.1,0.1,0.2,0.2,0.2c0.3,0,0.6,0,0.9,0c0.2,0,0.4,0,0.6,0
			c0.5,0,1.1,0,1.6,0c0.4,0,0.8,0,1.2,0h0.2c0.5,0,0.7,0,1.1-0.4c0.4-0.5,0.6-0.9,0.6-1.2C90.9,86.8,90.9,86.7,90.7,86.7z"/>
		<path fill="#026937" d="M107.7,83.8C107.7,83.8,107.6,83.8,107.7,83.8c-0.1,0-0.1,0-0.2,0h-2.2c-0.1,0-0.3,0-0.3,0.2
			c0,0.2,0.2,0.2,0.5,0.2c0.4,0.1,0.6,0.1,0.6,0.4v1.9c0,1.1-1.5,1.6-2.5,1.6c-2.5,0-3.6-2.2-3.6-4.2c0-1.9,1-3.9,3.3-3.9
			c2.2,0,3,1.3,3.4,2c0.2,0.3,0.3,0.4,0.4,0.4c0.1,0,0.2-0.1,0.2-0.3l-0.1-1.6c0,0,0,0,0-0.1c0-0.1,0-0.2-0.1-0.2
			c0,0-0.1-0.1-0.1-0.1c-0.1,0-0.2,0.1-0.2,0.1c0,0.1-0.1,0.1-0.1,0.1c-0.1,0-0.2-0.1-0.4-0.2c-0.5-0.3-1.2-0.7-2.7-0.7
			c-2.7,0-4.7,1.9-4.7,4.6c0,2.8,1.7,4.5,4.5,4.5c1.5,0,2.1-0.4,2.8-0.7c0.3-0.2,0.6-0.4,1.1-0.5l0,0v-2.6c0-0.5,0.2-0.6,0.4-0.6
			c0.1,0,0.2-0.1,0.2-0.2C107.9,83.9,107.9,83.8,107.7,83.8z"/>
		<path fill="#026937" d="M122.7,86.7c-0.1,0-0.1,0.1-0.2,0.1c-0.3,0.3-1,1.1-3.3,1.1c-0.4,0-0.7,0-0.8-0.2
			c-0.1-0.1-0.1-0.3-0.1-0.6c0-0.1,0-0.1,0-0.2v-2.3l0-0.1c0-0.1,0-0.2,0-0.2c0,0,0.1,0,0.1,0h1.8c0.6,0,0.7,0.4,0.7,0.7
			c0,0.2,0.1,0.4,0.3,0.4c0.1,0,0.2-0.1,0.2-0.2c0-0.2,0-0.3,0-0.5c0-0.2,0-0.3,0-0.5c0-0.2,0-0.4,0-0.6c0-0.2,0-0.4,0-0.7
			c0-0.1-0.1-0.3-0.2-0.3c-0.1,0-0.2,0.1-0.2,0.3c-0.1,0.3-0.2,0.7-1,0.7h-1.3c-0.2,0-0.3,0-0.4,0c0,0,0-0.1,0-0.3V81
			c0-0.3,0-0.5,0.1-0.6c0.1-0.1,0.3-0.1,0.7-0.1h0.3c0.1,0,0.1,0,0.2,0c0.1,0,0.2,0,0.3,0c0.3,0,1.3,0,1.5,0.3
			c0.1,0.1,0.1,0.3,0.1,0.4c0,0.2,0,0.5,0.2,0.5c0.1,0,0.3-0.2,0.3-1.5c0-0.1,0-0.3-0.2-0.3c-0.2,0-0.7,0-1.1,0c-0.3,0-0.6,0-0.7,0
			c-0.2,0-0.3,0-0.6,0c-0.5,0-1.3,0-2.9,0c-0.3,0-0.5,0-0.5,0.2c0,0.2,0.2,0.2,0.4,0.2c0,0,0,0,0.1,0c0.6,0.1,0.6,0.7,0.6,1.2V87
			c0,0.6,0,0.9-0.3,1c-0.1,0.1-0.2,0.1-0.3,0.1c-0.2,0.1-0.2,0.1-0.3,0.2c0,0.1,0.1,0.2,0.2,0.2c0.3,0,0.6,0,0.9,0
			c0.2,0,0.4,0,0.6,0c0.5,0,1.1,0,1.6,0c0.4,0,0.8,0,1.2,0h0.2c0.5,0,0.7,0,1.1-0.4c0.4-0.5,0.6-0.9,0.6-1.2
			C122.8,86.8,122.8,86.7,122.7,86.7z"/>
	</g>
	<path fill="#F7A800" d="M72.2,95.3c-0.1,0-0.1,0-0.2,0c-0.1,0-0.1,0-0.2,0v0c-24.6,0.1-49.1,1.5-70.9,4.3L0,99.4
		C19.9,95.2,45.9,93,71.8,93v0c0.1,0,0.1,0,0.2,0c0.1,0,0.1,0,0.2,0v0c26,0,51.9,2.2,71.8,6.5l-0.9,0.2
		C121.3,96.8,96.8,95.4,72.2,95.3L72.2,95.3z"/>
</g>
</svg>
