<?xml version="1.0" encoding="utf-8"?>
<!-- Generator: Adobe Illustrator 21.0.0, SVG Export Plug-In . SVG Version: 6.00 Build 0)  -->
<svg version="1.2" baseProfile="tiny" id="Layer_1" xmlns="http://www.w3.org/2000/svg" xmlns:xlink="http://www.w3.org/1999/xlink"
	 x="0px" y="0px" viewBox="0 0 436 302" xml:space="preserve">
<g>
	<path fill="none" d="M38.8,200.1c-15.6,0-27.6,14.5-27.6,33.3c0,18.5,12.1,33.1,27.6,33.1c15.4,0,27.6-14.5,27.6-33.1
		C66.4,214.7,54.3,200.1,38.8,200.1z"/>
	<path fill="none" d="M408.4,288.2h-1.7l0,4.1c0,0.5,0.4,0.9,0.9,0.9h0.6c1.5,0,2.6-0.2,2.6-2.7
		C410.7,288.5,409.7,288.2,408.4,288.2z"/>
	<path fill="#006330" d="M410.8,294.9c1.5-0.6,2.6-1.9,2.6-4.4c0-4.3-3.2-4.4-4.9-4.4h-3.2c-0.7,0-1.4,0.6-1.4,1.3v13.4
		c0,0.7,0.6,1.3,1.4,1.3c0.7,0,1.3-0.6,1.3-1.3v-5.4h1c0.3,0,0.6,0.1,0.8,0.4l3,5.8c0.2,0.4,0.8,0.6,1.1,0.6c0.8,0,1.3-0.6,1.3-1.3
		c0-0.2-0.1-0.4-0.1-0.5C412.6,298.5,411.7,296.6,410.8,294.9z M408.1,293.2h-0.6c-0.5,0-0.9-0.4-0.9-0.9l0-4.1h1.7
		c1.3,0,2.3,0.3,2.3,2.2C410.6,293,409.6,293.2,408.1,293.2z"/>
	<path fill="#006330" d="M77.7,233.5c0-23.3-17-41.5-38.7-41.5c-21.1,0-37.8,17-38.9,39.2v4.6c1.1,21.5,18,38.5,38.8,38.5
		C60.5,274.4,77.7,256.4,77.7,233.5z M38.8,266.4c-15.4,0-27.6-14.6-27.6-33.1c0-18.8,12-33.3,27.6-33.3c15.4,0,27.6,14.6,27.6,33.3
		C66.4,252,54.3,266.4,38.8,266.4z"/>
</g>
<path fill="#006330" d="M127.7,213.2c-3-8.3-10.3-13.2-20.1-13.2c-9,0-15.9,5.7-15.9,13.2c0,5.2,1.8,8.2,6.7,10.8
	c1.8,0.9,5.6,2.5,13.2,5.2C127,235,133,241,133,251c0,13.8-11.3,23.4-27.3,23.4c-6.5,0-10.7-1.1-19.2-4.8c-0.8-0.4-1.4-0.5-2-0.5
	c-1.3,0-2.4,1.2-2.7,3v-19c4.6,8.8,12.4,13.3,22.9,13.3c10.3,0,17.5-5.5,17.5-13.4c0-3.8-1.5-7.2-4.3-9.3c-2.6-2-6.3-3.7-16-7.1
	c-15.1-5.3-21-11.5-21-22.2c0-12.8,11.3-22.3,26.6-22.3c4.5,0,7.4,0.6,12.6,2.9c2.8,1.1,4.2,1.5,5,1.5c1.3,0,2-0.7,2.7-2.4V213.2"/>
<path fill="#006330" d="M179.7,193.6h6.8l20.4,66.9l14.4-60.6c0.2-0.8,0.4-1.7,0.4-2.3c0-2-0.7-3.1-3-4h15c-2.7,1.3-3.8,2.7-4.8,6.8
	l-17.2,73h-11.5l-18.6-61.2l-19.1,61.2h-11.3l-17.3-73c-1-4.4-1.7-5.3-4.4-6.8h17.5c-1.9,0.6-2.6,1.4-2.6,3c0,0.7,0.2,2.1,0.5,3.3
	l14.3,59.9L179.7,193.6"/>
<path fill="#006330" d="M245.4,265.4h30.9c4.4,0,5.7-0.8,7.2-4.6v12.1h-52.1c2.5-0.8,3.2-2,3.2-5.7v-67.9c0-3.7-0.8-5-3.2-5.6h50.2
	v11.9c-1.1-3.4-2.4-4.4-6.3-4.4h-29.9v27h27.2c3.2,0,4.4-0.8,5.5-3.7v14.7c-0.8-2.7-2.4-3.6-5.9-3.6h-26.7V265.4"/>
<path fill="#006330" d="M346.6,215.6c-4.6-10.5-11.8-15.6-22-15.6c-16,0-28,14.2-28,33.5s11.3,32.9,27.2,32.9
	c5.1,0,9.6-1.2,14.4-3.6v-18.8c0-3.8-0.9-5-4.8-6.1h19.5c-3.3,0.9-3.9,1.9-3.9,6.1v22.6c-8.2,5.2-16.9,7.7-26.4,7.7
	c-22.1,0-37.3-16.4-37.3-40.3c0-24.1,16.2-42,37.9-42c6.5,0,9.5,0.8,18.1,4.8c1.3,0.6,2,0.8,2.6,0.8c1.1,0,1.9-0.6,2.7-2V215.6"/>
<path fill="#006330" d="M435.1,233.5c0,22.8-17.2,40.9-38.8,40.9c-21.5,0-38.8-18.2-38.8-40.7c0-23.4,17.1-41.6,39-41.6
	C418.1,192.1,435.1,210.3,435.1,233.5 M368.7,233.3c0,18.5,12.1,33.1,27.6,33.1c15.4,0,27.6-14.5,27.6-33.1
	c0-18.6-12.1-33.3-27.6-33.3C380.7,200.1,368.7,214.5,368.7,233.3z"/>
<path fill="#006330" d="M9.8,302c-1.1,0-3-0.4-3.9-1c-0.4-0.2-0.7-0.6-0.7-1.1c0-0.7,0.6-1.2,1.3-1.2c0.2,0,0.4,0,0.5,0.1
	c0.9,0.4,1.8,0.7,2.8,0.7c1.3,0,2.1-0.7,2.1-2c0-3.2-6.4-2.8-6.4-7.5c0-2.7,2.2-4.3,4.8-4.3c1.1,0,2.2,0.3,3.2,0.8
	c0.5,0.2,0.9,0.6,0.9,1.2c0,0.7-0.6,1.2-1.3,1.2c-0.2,0-0.4,0-0.6-0.1c-0.8-0.3-1.5-0.6-2.3-0.6c-1.1,0-1.9,0.5-1.9,1.7
	c0,2.9,6.3,2.6,6.3,7.5C14.8,300.3,12.6,302,9.8,302"/>
<path fill="#006330" d="M28.9,288.4h-2.4v12.2c0,0.7-0.6,1.3-1.3,1.3c-0.7,0-1.3-0.5-1.3-1.3v-11.3c0-0.5-0.4-0.9-0.9-0.9h-1.6
	c-0.7,0-1.3-0.5-1.3-1.2s0.6-1.2,1.3-1.2h7.6c0.7,0,1.3,0.5,1.3,1.2S29.6,288.4,28.9,288.4"/>
<path fill="#006330" d="M44.6,302c-0.9,0-1.3-0.7-1.5-1.3l-0.5-1.4c-0.1-0.4-0.3-0.8-0.8-0.8h-3.5l-0.8,2.2
	c-0.1,0.6-0.6,1.3-1.5,1.3c-0.9,0-1.6-0.7-1.4-1.6l4.2-13.7c0.2-0.7,0.9-0.9,1.4-0.9c0.5,0,1.3,0.2,1.5,0.9l4.2,13.7
	C46.2,301.2,45.5,302,44.6,302 M40.4,289.6c0-0.1-0.1-0.1-0.1-0.1c-0.1,0-0.1,0-0.1,0.1l-1.2,5c-0.3,1.2,0,1.4,0.4,1.4l2.6,0
	L40.4,289.6z"/>
<path fill="#006330" d="M58.4,288.4H56v12.2c0,0.7-0.6,1.3-1.3,1.3c-0.7,0-1.3-0.5-1.3-1.3v-11.3c0-0.5-0.4-0.9-0.9-0.9h-1.6
	c-0.7,0-1.3-0.5-1.3-1.2s0.6-1.2,1.3-1.2h7.6c0.7,0,1.3,0.5,1.3,1.2S59.1,288.4,58.4,288.4"/>
<path fill="#006330" d="M73.3,301.7h-5.7c-0.7,0-1.4-0.6-1.4-1.3v-13.2c0-0.7,0.6-1.3,1.4-1.3h5.7c0.7,0,1.3,0.5,1.3,1.2
	c0,0.7-0.6,1.2-1.3,1.2h-4.4v3c0,0.5,0.4,0.9,0.9,0.9h2.5c0.7,0,1.3,0.5,1.3,1.2c0,0.7-0.6,1.2-1.3,1.2h-3.4v3.7
	c0,0.5,0.4,0.9,0.9,0.9h3.5c0.7,0,1.3,0.5,1.3,1.2C74.6,301.2,74,301.7,73.3,301.7"/>
<path fill="#006330" d="M97.2,302c-3.6,0-4.9-1.9-4.9-4.8v-10.2c0-0.7,0.6-1.3,1.3-1.3c0.8,0,1.4,0.6,1.4,1.3v10.2
	c0,1.6,0.5,2.4,2.3,2.4c1.8,0,2.5-0.7,2.5-2.4v-10.2c0-0.7,0.6-1.3,1.3-1.3c0.7,0,1.3,0.5,1.3,1.3v10.2
	C102.5,300.1,100.8,302,97.2,302"/>
<path fill="#006330" d="M119.6,301.7h-0.8c-0.5,0-1-0.2-1.2-0.7l-4.1-8.7c-0.1-0.1-0.1-0.2-0.2-0.2c-0.1,0-0.2,0.1-0.2,0.2v8.2
	c0,0.7-0.6,1.3-1.4,1.3c-0.7,0-1.3-0.5-1.3-1.3v-13.4c0-0.7,0.6-1.3,1.4-1.3h0.8c0.5,0,1,0.2,1.2,0.7l4.1,8.7
	c0.1,0.1,0.1,0.2,0.2,0.2c0.1,0,0.2-0.1,0.2-0.2V287c0-0.7,0.6-1.3,1.3-1.3c0.7,0,1.3,0.5,1.3,1.3v13.4
	C121,301.1,120.4,301.7,119.6,301.7"/>
<path fill="#006330" d="M134.3,301.7h-5.1c-0.7,0-1.2-0.5-1.2-1.1c0-0.7,0.5-1.1,1.2-1.1h1.2v-10.3c0-0.4-0.4-0.8-0.8-0.8h-0.4
	c-0.7,0-1.2-0.5-1.2-1.2c0-0.6,0.5-1.1,1.2-1.1h5.1c0.7,0,1.2,0.5,1.2,1.1c0,0.6-0.5,1.1-1.2,1.1h-1.2v10.3c0,0.5,0.3,0.8,0.8,0.8
	h0.4c0.6,0,1.2,0.5,1.2,1.1C135.5,301.2,135,301.7,134.3,301.7"/>
<path fill="#006330" d="M148.2,301.1c-0.2,0.6-1,0.9-1.5,0.9c-0.5,0-1.3-0.2-1.4-0.9l-4.2-13.7c-0.3-0.8,0.5-1.6,1.4-1.6
	c0.9,0,1.3,0.7,1.5,1.3l2.7,10.3c0,0.1,0.1,0.1,0.1,0.1c0.1,0,0.1-0.1,0.1-0.1l2.6-10.3c0.2-0.6,0.6-1.2,1.5-1.2
	c0.9,0,1.6,0.7,1.4,1.6L148.2,301.1"/>
<path fill="#006330" d="M166,301.7h-5.7c-0.7,0-1.4-0.6-1.4-1.3v-13.2c0-0.7,0.6-1.3,1.4-1.3h5.7c0.7,0,1.3,0.5,1.3,1.2
	c0,0.7-0.6,1.2-1.3,1.2h-4.4v3c0,0.5,0.4,0.9,0.9,0.9h2.5c0.7,0,1.3,0.5,1.3,1.2c0,0.7-0.6,1.2-1.3,1.2h-3.4v3.7
	c0,0.5,0.4,0.9,0.9,0.9h3.5c0.7,0,1.3,0.5,1.3,1.2C167.3,301.2,166.7,301.7,166,301.7"/>
<path fill="#006330" d="M182.3,302c-0.4,0-0.9-0.1-1.1-0.6l-3-5.8c-0.1-0.2-0.5-0.4-0.8-0.4h-1v5.4c0,0.7-0.6,1.3-1.4,1.3
	s-1.4-0.5-1.4-1.3v-13.4c0-0.7,0.6-1.3,1.4-1.3h3.2c1.7,0,4.9,0.1,4.9,4.4c0,2.5-1.1,3.8-2.6,4.4c0.9,1.8,1.8,3.6,2.9,5.4
	c0,0.1,0.1,0.2,0.1,0.5C183.6,301.3,183.1,302,182.3,302 M178.2,288.2h-1.7l0,4.1c0,0.5,0.4,0.9,0.9,0.9h0.5c1.5,0,2.6-0.2,2.6-2.7
	C180.5,288.4,179.5,288.2,178.2,288.2z"/>
<path fill="#006330" d="M194,302c-1.1,0-3-0.4-3.9-1c-0.4-0.2-0.7-0.6-0.7-1.1c0-0.7,0.6-1.2,1.3-1.2c0.2,0,0.4,0,0.5,0.1
	c0.9,0.4,1.8,0.7,2.8,0.7c1.3,0,2.1-0.7,2.1-2c0-3.2-6.4-2.8-6.4-7.5c0-2.7,2.2-4.3,4.8-4.3c1.1,0,2.2,0.3,3.2,0.8
	c0.5,0.2,0.9,0.6,0.9,1.2c0,0.7-0.6,1.2-1.3,1.2c-0.2,0-0.4,0-0.6-0.1c-0.8-0.3-1.5-0.6-2.3-0.6c-1.1,0-1.9,0.5-1.9,1.7
	c0,2.9,6.3,2.6,6.3,7.5C199,300.3,196.8,302,194,302"/>
<path fill="#006330" d="M211.1,301.7H206c-0.7,0-1.2-0.5-1.2-1.1c0-0.7,0.5-1.1,1.2-1.1h1.2v-10.3c0-0.4-0.4-0.8-0.8-0.8H206
	c-0.7,0-1.2-0.5-1.2-1.2c0-0.6,0.5-1.1,1.2-1.1h5.1c0.7,0,1.2,0.5,1.2,1.1c0,0.6-0.5,1.1-1.2,1.1h-1.2v10.3c0,0.5,0.3,0.8,0.8,0.8
	h0.4c0.6,0,1.2,0.5,1.2,1.1C212.3,301.2,211.8,301.7,211.1,301.7"/>
<path fill="#006330" d="M226.7,288.4h-2.4v12.2c0,0.7-0.6,1.3-1.3,1.3c-0.7,0-1.3-0.5-1.3-1.3v-11.3c0-0.5-0.4-0.9-0.9-0.9h-1.6
	c-0.7,0-1.3-0.5-1.3-1.2s0.6-1.2,1.3-1.2h7.6c0.7,0,1.3,0.5,1.3,1.2S227.4,288.4,226.7,288.4"/>
<path fill="#006330" d="M243.9,287.7l-3.9,7.3c-0.1,0.1-0.1,0.2-0.1,0.4v5.3c0,0.7-0.6,1.3-1.4,1.3c-0.7,0-1.3-0.5-1.3-1.3v-5.5
	l-3.9-7.4c-0.1-0.2-0.2-0.4-0.2-0.6c0-0.7,0.6-1.3,1.3-1.3c0.5,0,1,0.3,1.2,0.7l2.4,4.6c0.1,0.2,0.2,0.4,0.5,0.4
	c0.2,0,0.4-0.2,0.5-0.4l2.5-4.6c0.2-0.4,0.7-0.7,1.2-0.7c0.7,0,1.3,0.5,1.3,1.3C244,287.3,244,287.5,243.9,287.7"/>
<path fill="#006330" d="M267.4,302c-4.7,0-5.3-5.4-5.3-8c0-2.8,0.6-8.3,5.3-8.3c4.8,0,5.3,5.6,5.3,8.3
	C272.7,296.6,272.1,302,267.4,302 M267.4,287.9c-2.5,0-2.5,4.6-2.5,6.1c0,1.3,0.1,5.8,2.5,5.8c2.5,0,2.4-4.5,2.4-5.8
	C269.8,292.5,269.9,287.9,267.4,287.9z"/>
<path fill="#006330" d="M286.7,288.4h-4.4v3c0,0.5,0.4,0.9,0.9,0.9h2.5c0.7,0,1.3,0.5,1.3,1.2c0,0.7-0.6,1.2-1.3,1.2h-3.4v5.9
	c0,0.7-0.6,1.3-1.3,1.3c-0.8,0-1.4-0.6-1.4-1.3v-13.4c0-0.7,0.6-1.3,1.4-1.3h5.7c0.7,0,1.3,0.5,1.3,1.2
	C288,287.8,287.4,288.4,286.7,288.4"/>
<path fill="#006330" d="M315,301.7h-0.8c-0.5,0-1-0.2-1.2-0.7l-4.1-8.7c-0.1-0.1-0.1-0.2-0.2-0.2c-0.1,0-0.2,0.1-0.2,0.2v8.2
	c0,0.7-0.6,1.3-1.3,1.3c-0.7,0-1.4-0.5-1.4-1.3v-13.4c0-0.7,0.6-1.3,1.4-1.3h0.8c0.5,0,1,0.2,1.2,0.7l4.1,8.7
	c0.1,0.1,0.1,0.2,0.2,0.2c0.1,0,0.2-0.1,0.2-0.2V287c0-0.7,0.6-1.3,1.4-1.3c0.7,0,1.3,0.5,1.3,1.3v13.4
	C316.3,301.1,315.7,301.7,315,301.7"/>
<path fill="#006330" d="M331.3,301.7h-5.7c-0.7,0-1.4-0.6-1.4-1.3v-13.2c0-0.7,0.6-1.3,1.4-1.3h5.7c0.7,0,1.3,0.5,1.3,1.2
	c0,0.7-0.6,1.2-1.3,1.2h-4.4v3c0,0.5,0.4,0.9,0.9,0.9h2.5c0.7,0,1.3,0.5,1.3,1.2c0,0.7-0.6,1.2-1.3,1.2h-3.4v3.7
	c0,0.5,0.4,0.9,0.9,0.9h3.5c0.7,0,1.3,0.5,1.3,1.2C332.6,301.2,332.1,301.7,331.3,301.7"/>
<path fill="#006330" d="M350.5,301c-0.2,0.7-1,0.9-1.5,0.9s-1.3-0.2-1.5-0.9l-1.8-8.3c0-0.1-0.1-0.1-0.1-0.1c-0.1,0-0.1,0.1-0.1,0.1
	l-1.8,8.3c-0.1,0.7-1,0.9-1.5,0.9c-0.5,0-1.3-0.2-1.5-0.9l-3.1-13.7c-0.2-0.9,0.8-1.5,1.5-1.5c0.8,0,1.4,0.7,1.5,1.3l1.5,8.7
	c0,0.1,0.1,0.1,0.1,0.1c0.1,0,0.1-0.1,0.1-0.1l1.8-8.7c0.1-0.6,0.4-1.3,1.5-1.3c1,0,1.4,0.6,1.5,1.3l1.8,8.7c0,0.1,0,0.1,0.1,0.1
	c0.1,0,0.1-0.1,0.1-0.1l1.5-8.7c0.1-0.6,0.6-1.3,1.5-1.3c0.7,0,1.7,0.6,1.5,1.5L350.5,301"/>
<path fill="#006330" d="M381,287.7l-3.9,7.3c-0.1,0.1-0.1,0.2-0.1,0.4v5.3c0,0.7-0.6,1.3-1.4,1.3c-0.7,0-1.3-0.5-1.3-1.3v-5.5
	l-3.9-7.4c-0.1-0.2-0.2-0.4-0.2-0.6c0-0.7,0.6-1.3,1.3-1.3c0.5,0,1,0.3,1.2,0.7l2.4,4.6c0.1,0.2,0.3,0.4,0.5,0.4
	c0.2,0,0.4-0.2,0.5-0.4l2.5-4.6c0.2-0.4,0.7-0.7,1.2-0.7c0.7,0,1.3,0.5,1.3,1.3C381.2,287.3,381.1,287.5,381,287.7"/>
<path fill="#006330" d="M391.7,302c-4.7,0-5.3-5.4-5.3-8c0-2.8,0.6-8.3,5.3-8.3c4.8,0,5.3,5.6,5.3,8.3
	C397,296.6,396.5,302,391.7,302 M391.7,287.9c-2.5,0-2.5,4.6-2.5,6.1c0,1.3,0.1,5.8,2.5,5.8c2.5,0,2.4-4.5,2.4-5.8
	C394.2,292.5,394.3,287.9,391.7,287.9z"/>
<path fill="#006330" d="M429.2,301.9c-0.5,0-0.8-0.2-1.1-0.5l-4.5-5.9h-0.1v5.2c0,0.7-0.6,1.3-1.3,1.3c-0.8,0-1.4-0.6-1.4-1.3v-13.5
	c0-0.7,0.6-1.3,1.4-1.3c0.8,0,1.3,0.6,1.3,1.3v3.5c0,0.4,0.4,0.8,0.8,0.8l3.4-4.6c0.3-0.3,0.7-0.4,1-0.4c0.7,0,1.3,0.5,1.3,1.2
	c0,0.2,0,0.4-0.2,0.6l-3.8,5.1c-0.1,0.2-0.2,0.3-0.2,0.6c0,0.1,0,0.2,0.1,0.3l4.5,5.7c0.2,0.2,0.3,0.5,0.3,0.6
	C430.5,301.3,430,301.9,429.2,301.9"/>
<path fill="#006330" d="M214.7,27.2c0,0-11.8,3.5-11.8,21.1l7.5,3.5l9.3-1.4C219.6,50.4,219.6,33.5,214.7,27.2"/>
<path fill="#006330" d="M216.5,27.9c0,0,10.7,1.8,13.9,19.7c0.2,0.9-1-0.3-0.9,0.7C229.6,48.3,226.9,33.5,216.5,27.9"/>
<polyline fill="#006330" points="194.5,51.9 209,55 209,70.6 184.1,90.1 184.1,75.3 179.3,75.3 194.5,51.9 "/>
<path fill="#006330" d="M229.7,55.8c0,0-22.5,8.8,2.8,21.8C232.4,77.6,217.3,67.2,229.7,55.8"/>
<path fill="#006330" d="M231.1,61.3c0,0-3.8,6.3,1.4,9.4C232.4,70.6,223.7,66.5,231.1,61.3"/>
<polyline fill="#006330" points="216.2,0.3 214.1,7.1 214.1,27.6 215.9,27.9 "/>
<path fill="#006330" d="M213.2,27.8c0,0-0.7-5.4,1.7-5.4c1.7,0,0.8,0,0.8,0s1.9,0.5,1.5,5.4C217.3,27.9,215.6,29.2,213.2,27.8"/>
<path fill="#006330" d="M215.1,21c0.9,0,1.6-0.8,1.6-1.8c0-1-0.7-1.8-1.6-1.8c-0.9,0-1.6,0.8-1.6,1.8C213.5,20.2,214.2,21,215.1,21"
	/>
<path fill="#006330" d="M228.8,109c0,0,6.9-3.6,13.3,4.7l-0.2,42.9C241.9,156.6,242.3,106.7,228.8,109"/>
<polyline fill="#006330" points="171.7,102.4 173.1,107.5 180,110.1 180,172.7 215.7,151.4 215.7,88.7 257.6,107.8 262.5,99.7 
	214.8,79.1 214.8,76.2 264.7,97.4 265.2,94 214.6,72.8 212,72.8 171.7,102.4 "/>
<polyline fill="#006330" points="172.7,180 176.6,183.6 179.6,187.4 213.2,172.7 217.1,171.4 217.1,159.9 263.1,176.8 264.2,173.2 
	216.9,157.6 213.5,157.6 172.7,180 "/>
<polyline fill="#006330" points="217.2,54.7 217.3,55.3 231.6,53 247.9,72.3 247.9,67.4 231.9,52.3 217.2,54.7 "/>
</svg>
