<?xml version="1.0" encoding="utf-8"?>
<!-- Generator: Adobe Illustrator 24.0.1, SVG Export Plug-In . SVG Version: 6.00 Build 0)  -->
<svg version="1.1" id="Layer_1" xmlns="http://www.w3.org/2000/svg" xmlns:xlink="http://www.w3.org/1999/xlink" x="0px" y="0px"
	 viewBox="0 0 1920 1080" style="enable-background:new 0 0 1920 1080;" xml:space="preserve">
<style type="text/css">
	.st0{fill:#C9FF00;}
	.st1{fill:#FFFFFF;}
</style>
<g>
	<g>
		<path class="st0" d="M430.23,680.67V498.74c0-54.58,26.33-83.31,74.21-83.31c50.27,0,73.73,26.81,73.73,82.35v48.36h-30.16v-47.4
			c0-38.78-11.49-57.45-43.57-57.45c-31.6,0-44.53,21.07-44.53,58.41v179.06c0,37.82,12.93,56.98,44.53,56.98
			c31.12,0,43.57-18.67,43.57-56.5v-57.45h30.64v59.37c0,56.02-26.81,82.35-74.21,82.35C456.08,763.5,430.23,737.65,430.23,680.67z"
			/>
		<path class="st0" d="M612.64,680.2V499.22c0-54.1,27.77-83.79,75.65-83.79s75.65,29.21,75.65,83.79V680.2
			c0,56.49-27.77,83.31-76.13,83.31C640.41,763.5,612.64,737.17,612.64,680.2z M733.77,678.28V500.18
			c0-37.35-13.88-58.41-45.96-58.41c-31.6,0-45.48,21.07-45.48,58.41v178.11c0,38.3,14.36,57.45,45.96,57.45
			C719.41,735.73,733.77,716.58,733.77,678.28z"/>
		<path class="st0" d="M829.29,759.19H802V418.78h26.33l62.24,173.32l61.28-173.32h26.33v340.41H950.9V542.31l7.18-89.05
			l-12.93,54.58l-50.27,137.41h-9.58L833.6,506.4l-13.41-55.54l9.1,91.45V759.19z"/>
		<g>
			<path class="st0" d="M1137.33,657.86h-121.61V317.44h118.26v26.81h-90.01v126.4h79.48v27.29h-79.48v132.62h93.36V657.86z"/>
			<path class="st0" d="M1170.71,317.44h59.85c51.23,0,84.74,23.94,84.74,84.26v171.88c0,59.85-33.51,84.26-84.74,84.26h-59.85
				V317.44z M1199.43,342.82v288.7h30.16c34.47,0,55.54-17.71,55.54-59.85V403.15c0-42.61-21.07-60.33-55.54-60.33H1199.43z"/>
			<path class="st0" d="M1396.12,657.86V538.16l-61.28-220.72h30.64l40.7,151.29l5.27,39.74l5.27-39.74l41.65-151.29H1489
				l-63.2,219.76v120.65H1396.12z"/>
		</g>
	</g>
	<g>
		<g>
			<path class="st1" d="M451.16,396.3h-12.1v-73.74h12.1l29.37,49.33l2.48,6.21l-0.62-6.72v-48.81h12.1v73.74H482.8l-29.89-49.95
				l-2.48-6.41l0.72,6.93V396.3z"/>
			<path class="st1" d="M556.95,380.27h-27.3l-5.07,16.03h-13.03l24.92-73.74h13.13l25.54,73.74h-12.93L556.95,380.27z
				 M533.06,369.31h20.37l-9.62-29.47l-0.72-5.07l-0.83,5.07L533.06,369.31z"/>
			<path class="st1" d="M608.97,333.94v62.36h-13.03v-62.36h-18.82v-11.38h51.4v11.38H608.97z"/>
			<path class="st1" d="M646.19,396.3v-11.89h12.82v-50.36h-12.82v-11.48h37.75v11.48h-12.72v50.36h12.72v11.89H646.19z"/>
			<path class="st1" d="M699.24,365.17v-10.96c0-21.41,11.69-32.89,29.58-32.89c17.79,0,29.58,11.38,29.58,32.89v10.96
				c0,22.03-11.48,32.58-29.68,32.58C709.9,397.75,699.24,387.51,699.24,365.17z M745.16,364.65v-9.82
				c0-14.38-5.38-22.03-16.44-22.03c-11.07,0-16.24,7.96-16.24,21.92v9.93c0,13.96,5.17,21.3,16.34,21.3
				C739.78,385.96,745.16,378.61,745.16,364.65z"/>
			<path class="st1" d="M791.69,396.3h-12.1v-73.74h12.1l29.37,49.33l2.48,6.21l-0.62-6.72v-48.81h12.1v73.74h-11.69l-29.89-49.95
				l-2.48-6.41l0.72,6.93V396.3z"/>
			<path class="st1" d="M897.49,380.27h-27.3l-5.07,16.03h-13.03l24.92-73.74h13.13l25.54,73.74h-12.93L897.49,380.27z
				 M873.6,369.31h20.37l-9.62-29.47l-0.72-5.07l-0.83,5.07L873.6,369.31z"/>
			<path class="st1" d="M932.64,396.3v-73.74h12.93v61.74h32.89v12H932.64z"/>
		</g>
		<g>
			<path class="st1" d="M1015.76,728.26v-11.28c0-21.21,10.97-32.8,29.8-32.8c17.48,0,27.31,8.9,28.87,26.8v1.14h-13.35v-1.03
				c-0.83-10.14-5.38-15.42-15.52-15.42c-11.17,0-16.76,7.55-16.76,22.04v9.93c0,13.35,5.69,20.8,16.86,20.8
				c10.24,0,14.59-5.59,15.42-15.83v-1.55h13.66v1.66c-1.45,17.69-10.24,27.94-29.59,27.94
				C1026.31,760.64,1015.76,749.47,1015.76,728.26z"/>
			<path class="st1" d="M1143.44,759.19h-48.73v-73.77h47.18v11.07h-34.66v19.76h29.49v11.28h-29.49v20.18h36.21V759.19z"/>
			<path class="st1" d="M1174.69,759.19h-12.1v-73.77h12.1l29.38,49.35l2.48,6.21l-0.62-6.73v-48.84h12.11v73.77h-11.69l-29.9-49.97
				l-2.48-6.41l0.72,6.93V759.19z"/>
			<path class="st1" d="M1269.16,696.81v62.39h-13.04v-62.39h-18.83v-11.38h51.42v11.38H1269.16z"/>
			<path class="st1" d="M1356.59,759.19h-48.73v-73.77h47.18v11.07h-34.66v19.76h29.49v11.28h-29.49v20.18h36.21V759.19z"/>
			<path class="st1" d="M1388.47,731.78v27.42h-12.73v-73.77h26.8c18.73,0,26.49,8.17,26.49,21.21v1.66c0,9.42-4.24,14.9-11.9,17.59
				c7.14,2.28,10.35,7.24,10.35,17.07v12.21c0,1.76,0.62,3.21,1.76,4.04h-13.66c-0.93-0.72-1.45-2.48-1.45-4.24v-11.69
				c0-8.17-3.21-11.48-12.52-11.48H1388.47z M1388.47,696.39v24.31h13.66c8.79,0,13.76-4.14,13.76-11.8v-1.34
				c0-7.14-4.14-11.17-13.66-11.17H1388.47z"/>
		</g>
	</g>
</g>
</svg>
