<svg id="Layer_1" data-name="Layer 1" xmlns="http://www.w3.org/2000/svg" viewBox="0 0 607 474"><defs><style>.cls-1,.cls-17,.cls-18,.cls-2,.cls-4,.cls-8{fill:#4d4d4d;}.cls-2,.cls-8{font-size:12px;}.cls-18,.cls-2,.cls-8{font-family:HelveticaNeue, Helvetica Neue;}.cls-3{letter-spacing:-0.02em;}.cls-17,.cls-4{font-size:14px;}.cls-4{font-family:HelveticaNeue-Bold, Helvetica Neue;font-weight:700;}.cls-5{letter-spacing:-0.06em;}.cls-6{letter-spacing:0em;}.cls-7{letter-spacing:-0.04em;}.cls-8{letter-spacing:-0.09em;}.cls-9{letter-spacing:0em;}.cls-10{letter-spacing:-0.02em;}.cls-11{letter-spacing:-0.11em;}.cls-12,.cls-13,.cls-14,.cls-15,.cls-20{fill:none;stroke:#999;stroke-miterlimit:10;}.cls-13{stroke-dasharray:4.32 4.32;}.cls-14{stroke-dasharray:4.68 4.68;}.cls-15{stroke-dasharray:4.54 4.54;}.cls-16{fill:#b9df95;}.cls-17{font-family:HelveticaNeue-Light, Helvetica Neue;}.cls-18{font-size:10px;}.cls-19{letter-spacing:-0.05em;}.cls-20{stroke-dasharray:4.5 4.5;}</style></defs><title>find</title><path class="cls-1" d="M252,314a39,39,0,1,1-39,39,39,39,0,0,1,39-39m0-1a40,40,0,1,0,40,40,40,40,0,0,0-40-40Z"/><text class="cls-2" transform="translate(232.12 348.24)">Artistic <tspan x="-9.34" y="14.4">Exp</tspan><tspan class="cls-3" x="11.33" y="14.4">r</tspan><tspan x="15.11" y="14.4">ession</tspan></text><text class="cls-4" transform="matrix(0.25, -0.97, 0.97, 0.25, 207.23, 346.94)">C</text><text class="cls-4" transform="matrix(0.41, -0.91, 0.91, 0.41, 209.88, 337.32)">r</text><text class="cls-4" transform="matrix(0.53, -0.85, 0.85, 0.53, 211.75, 332.81)">e</text><text class="cls-4" transform="matrix(0.66, -0.75, 0.75, 0.66, 215.76, 326.28)">a</text><text class="cls-4" transform="translate(220.93 320.56) rotate(-40.64)">t</text><text class="cls-4" transform="translate(224.52 317.51) rotate(-35.45)">i</text><text class="cls-4" transform="translate(227.17 315.46) rotate(-28.8)">v</text><text class="cls-4" transform="matrix(0.93, -0.38, 0.38, 0.93, 233.36, 312.17)">i</text><text class="cls-4" transform="translate(236.47 310.86) rotate(-17)">t</text><text class="cls-4" transform="translate(240.89 309.41) rotate(-9.71)">y</text><path class="cls-1" d="M72,121a35,35,0,1,1-35,35,35,35,0,0,1,35-35m0-1a36,36,0,1,0,36,36,36,36,0,0,0-36-36Z"/><text class="cls-2" transform="translate(51.91 160.13)">Finance</text><text class="cls-4" transform="matrix(0.45, -0.89, 0.89, 0.45, 29.12, 141.36)">M</text><text class="cls-4" transform="matrix(0.64, -0.77, 0.77, 0.64, 34.78, 130.61)">o</text><text class="cls-4" transform="translate(39.98 124.32) rotate(-40.04)">n</text><text class="cls-4" transform="translate(46.03 119.21) rotate(-30.06)">e</text><text class="cls-4" transform="translate(52.65 115.38) rotate(-20.75)">y</text><path class="cls-1" d="M95,291a39,39,0,1,1-39,39,39,39,0,0,1,39-39m0-1a40,40,0,1,0,40,40,40,40,0,0,0-40-40Z"/><text class="cls-2" transform="translate(59.91 333.13)">Social Norms</text><text class="cls-4" transform="translate(51.7 317.16) rotate(-66.8)">C</text><text class="cls-4" transform="matrix(0.57, -0.82, 0.82, 0.57, 55.66, 308.07)">u</text><text class="cls-4" transform="translate(60.29 301.54) rotate(-48.37)">l</text><text class="cls-4" transform="matrix(0.73, -0.68, 0.68, 0.73, 62.52, 298.97)">t</text><text class="cls-4" transform="translate(65.79 295.71) rotate(-35.14)">u</text><text class="cls-4" transform="translate(72.34 291.19) rotate(-26.75)">r</text><text class="cls-4" transform="matrix(0.95, -0.32, 0.32, 0.95, 76.64, 288.88)">e</text><path class="cls-1" d="M185,198a43,43,0,1,1-43,43,43,43,0,0,1,43-43m0-1a44,44,0,1,0,44,44,44,44,0,0,0-44-44Z"/><text class="cls-2" transform="translate(162.86 228.97)"><tspan class="cls-5">V<tspan class="cls-6" x="6.67" y="0">oting / </tspan></tspan><tspan x="-0.55" y="14.4">Political </tspan><tspan x="-11.78" y="28.8">Engagement</tspan></text><text class="cls-4" transform="translate(136.68 228.34) rotate(-69.73)">A</text><text class="cls-4" transform="translate(139.9 219.73) rotate(-60.08)">c</text><text class="cls-4" transform="translate(143.83 213.06) rotate(-53)">t</text><text class="cls-4" transform="matrix(0.66, -0.75, 0.75, 0.66, 146.69, 209.29)">i</text><text class="cls-4" transform="translate(148.86 206.7) rotate(-42.33)">v</text><text class="cls-4" transform="translate(154.11 202.02) rotate(-36.32)">i</text><text class="cls-4" transform="translate(156.73 199.95) rotate(-30.2)">s</text><text class="cls-4" transform="matrix(0.95, -0.33, 0.33, 0.95, 162.74, 196.12)">m</text><path class="cls-1" d="M224,31a62,62,0,1,1-62,62,62.07,62.07,0,0,1,62-62m0-1a63,63,0,1,0,63,63,63,63,0,0,0-63-63Z"/><text class="cls-2" transform="translate(207.17 60.37)"><tspan class="cls-7">W</tspan><tspan x="10.67" y="0">ater</tspan></text><text class="cls-8" transform="translate(198.08 105.6)">T<tspan class="cls-9" x="5.78" y="0">ransport</tspan></text><text class="cls-2" transform="translate(207.05 128.95)">Power</text><text class="cls-2" transform="translate(206.93 83.41)">Natu<tspan class="cls-10" x="25.56" y="0">r</tspan><tspan x="29.34" y="0">e</tspan></text><text class="cls-4" transform="translate(153.74 75.58) rotate(-72.4)">E</text><text class="cls-4" transform="translate(156.42 67.17) rotate(-65.73)">n</text><text class="cls-4" transform="matrix(0.5, -0.86, 0.86, 0.5, 159.74, 59.84)">v</text><text class="cls-4" transform="matrix(0.56, -0.83, 0.83, 0.56, 163.36, 53.74)">i</text><text class="cls-4" transform="matrix(0.61, -0.79, 0.79, 0.61, 165.29, 50.86)">r</text><text class="cls-4" transform="matrix(0.68, -0.73, 0.73, 0.68, 168.28, 46.86)">o</text><text class="cls-4" transform="matrix(0.76, -0.65, 0.65, 0.76, 173.94, 40.78)">n</text><text class="cls-4" transform="translate(179.88 35.46) rotate(-32.45)">m</text><text class="cls-4" transform="matrix(0.91, -0.41, 0.41, 0.91, 190.38, 28.95)">e</text><text class="cls-4" transform="translate(197.46 25.71) rotate(-18.16)">n</text><text class="cls-4" transform="translate(205.21 23.26) rotate(-13.54)">t</text><path class="cls-1" d="M324,158a62,62,0,1,1-62,62,62.07,62.07,0,0,1,62-62m0-1a63,63,0,1,0,63,63,63,63,0,0,0-63-63Z"/><text class="cls-2" transform="translate(271.83 242.84)">Please &amp; Thank <tspan class="cls-11" x="86.24" y="0">Y</tspan><tspan x="92.69" y="0">ou</tspan></text><text class="cls-2" transform="translate(284.92 220.79)">Personal Ethics</text><text class="cls-2" transform="translate(300.42 197.42)">Pa<tspan class="cls-3" x="14.22" y="0">r</tspan><tspan x="18" y="0">enting</tspan></text><text class="cls-4" transform="translate(251.91 213.96) rotate(-80.27)">C</text><text class="cls-4" transform="matrix(0.29, -0.96, 0.96, 0.29, 253.65, 204.02)">o</text><text class="cls-4" transform="translate(255.9 196.09) rotate(-64.83)">m</text><text class="cls-4" transform="translate(261.11 184.94) rotate(-55.15)">m</text><text class="cls-4" transform="matrix(0.68, -0.73, 0.73, 0.68, 268.28, 174.87)">u</text><text class="cls-4" transform="translate(273.74 168.97) rotate(-40.75)">n</text><text class="cls-4" transform="matrix(0.81, -0.59, 0.59, 0.81, 279.95, 163.73)">i</text><text class="cls-4" transform="matrix(0.85, -0.52, 0.52, 0.85, 282.65, 161.64)">c</text><text class="cls-4" transform="matrix(0.9, -0.43, 0.43, 0.9, 289.26, 157.55)">a</text><text class="cls-4" transform="translate(296.38 154.23) rotate(-20.44)">t</text><text class="cls-4" transform="matrix(0.96, -0.3, 0.3, 0.96, 300.85, 152.58)">i</text><text class="cls-4" transform="translate(304.1 151.39) rotate(-11.68)">o</text><text class="cls-4" transform="matrix(0.99, -0.11, 0.11, 0.99, 312.19, 149.65)">n</text><path class="cls-1" d="M427,286a62,62,0,1,1-62,62,62.07,62.07,0,0,1,62-62m0-1a63,63,0,1,0,63,63,63,63,0,0,0-63-63Z"/><text class="cls-2" transform="translate(403.28 372.01)">Over Eat</text><text class="cls-2" transform="translate(394.58 351.31)">Food Usage</text><text class="cls-2" transform="translate(412.55 331.06)">Diet</text><text class="cls-4" transform="matrix(0.6, -0.8, 0.8, 0.6, 366.51, 309.34)">F</text><text class="cls-4" transform="matrix(0.68, -0.73, 0.73, 0.68, 371.28, 302.86)">o</text><text class="cls-4" transform="translate(376.92 296.78) rotate(-40.44)">o</text><text class="cls-4" transform="translate(383.22 291.39) rotate(-33.84)">d</text><path class="cls-1" d="M525,159a62,62,0,1,1-62,62,62.07,62.07,0,0,1,62-62m0-1a63,63,0,1,0,63,63,63,63,0,0,0-63-63Z"/><text class="cls-2" transform="translate(511.13 259.55)">Sleep</text><text class="cls-2" transform="translate(506.21 188.97)">Fitness</text><text class="cls-2" transform="translate(503.38 226.4)">Alcohol <tspan x="-14.46" y="14.4">Consumption</tspan></text><text class="cls-2" transform="translate(506.54 208.65)">Postu<tspan class="cls-10" x="31.12" y="0">r</tspan><tspan x="34.9" y="0">e</tspan></text><text class="cls-4" transform="matrix(0.56, -0.83, 0.83, 0.56, 462.07, 185.19)">H</text><text class="cls-4" transform="matrix(0.65, -0.76, 0.76, 0.65, 467.72, 176.83)">e</text><text class="cls-4" transform="translate(472.8 170.93) rotate(-43.05)">a</text><text class="cls-4" transform="translate(478.6 165.62) rotate(-38.55)">l</text><text class="cls-4" transform="matrix(0.82, -0.58, 0.58, 0.82, 481.29, 163.45)">t</text><text class="cls-4" transform="translate(485.1 160.65) rotate(-30.15)">h</text><path class="cls-1" d="M413,44a62,62,0,1,1-62,62,62.07,62.07,0,0,1,62-62m0-1a63,63,0,1,0,63,63,63,63,0,0,0-63-63Z"/><text class="cls-2" transform="translate(358.79 117.38)">Sc<tspan class="cls-3" x="14.22" y="0">r</tspan><tspan x="18" y="0">een Time for Kids</tspan></text><text class="cls-2" transform="translate(365.84 96.98)">TV Binge <tspan class="cls-7" x="51.78" y="0">W</tspan><tspan x="62.45" y="0">atching</tspan></text><text class="cls-4" transform="matrix(0.58, -0.81, 0.81, 0.58, 350.55, 69.17)">M</text><text class="cls-4" transform="translate(357.86 59.19) rotate(-46.52)">e</text><text class="cls-4" transform="matrix(0.76, -0.64, 0.64, 0.76, 363.2, 53.52)">d</text><text class="cls-4" transform="translate(369.65 48.2) rotate(-35.45)">i</text><text class="cls-4" transform="translate(372.39 46.14) rotate(-30.95)">a</text><line class="cls-12" x1="470" y1="302" x2="471.42" y2="299.94"/><line class="cls-13" x1="473.87" y1="296.39" x2="487.35" y2="276.84"/><line class="cls-12" x1="488.58" y1="275.06" x2="490" y2="273"/><line class="cls-12" x1="105" y1="142" x2="107.36" y2="141.16"/><line class="cls-14" x1="111.76" y1="139.6" x2="162.44" y2="121.62"/><line class="cls-12" x1="164.64" y1="120.84" x2="167" y2="120"/><line class="cls-12" x1="198" y1="199" x2="198.49" y2="196.55"/><line class="cls-15" x1="199.38" y1="192.09" x2="206.06" y2="158.68"/><line class="cls-12" x1="206.51" y1="156.45" x2="207" y2="154"/><circle class="cls-16" cx="261" cy="140" r="11.5"/><text class="cls-17" transform="translate(257.41 145.1)">3</text><circle class="cls-16" cx="275.5" cy="384.5" r="11.5"/><text class="cls-17" transform="translate(271.91 389.6)">2</text><circle class="cls-16" cx="350.5" cy="276.5" r="11.5"/><text class="cls-17" transform="translate(346.91 281.6)">1</text><circle class="cls-16" cx="211.5" cy="276.5" r="11.5"/><text class="cls-17" transform="translate(207.91 281.6)">3</text><circle class="cls-16" cx="71.5" cy="429.5" r="11.5"/><text class="cls-17" transform="translate(67.91 434.6)">#</text><text class="cls-18" transform="translate(89.91 434.13)">Number of <tspan class="cls-19" x="50.2" y="0">V</tspan><tspan x="55.76" y="0">otes</tspan></text><line class="cls-12" x1="63" y1="457" x2="65.5" y2="456.93"/><line class="cls-20" x1="70" y1="456.81" x2="76.75" y2="456.63"/><line class="cls-12" x1="79" y1="456.57" x2="81.5" y2="456.5"/><text class="cls-18" transform="translate(89.91 458.13)">Potential Relation</text></svg>