<?xml version="1.0" encoding="utf-8"?>
<!-- Generator: Adobe Illustrator 21.0.0, SVG Export Plug-In . SVG Version: 6.00 Build 0)  -->
<svg version="1.1" id="Layer_1" xmlns="http://www.w3.org/2000/svg" xmlns:xlink="http://www.w3.org/1999/xlink" x="0px" y="0px"
	 viewBox="0 0 699.4 595.5" style="enable-background:new 0 0 699.4 595.5;" xml:space="preserve">
<style type="text/css">
	.st0{fill:none;}
	.st1{fill:#B5BE7F;}
	.st2{opacity:0.64;}
	.st3{fill:#F4EB97;}
	.st4{fill:#BADB95;}
	.st5{fill:#8ED4DF;}
	.st6{fill:#A5D6AD;}
	.st7{fill:#EFCB93;}
	.st8{fill:none;stroke:#6D6E71;stroke-width:0.25;stroke-miterlimit:10;}
	.st9{fill:#FFFFFF;}
	.st10{fill:#A7A9AC;}
	.st11{fill:#414042;}
	.st12{font-family:'HelveticaNeue-Medium';}
	.st13{font-size:12px;}
	.st14{letter-spacing:-1;}
	.st15{fill:#231F20;}
	.st16{font-family:'HelveticaNeue';}
	.st17{font-size:14.81px;}
	.st18{font-family:'HelveticaNeue-Bold';}
	.st19{font-size:10.6px;}
	.st20{font-size:10.5708px;}
	.st21{font-size:10.5857px;}
	.st22{font-size:10.5618px;}
	.st23{font-size:10.6021px;}
	.st24{font-size:10.5586px;}
	.st25{font-size:10.5431px;}
	.st26{font-size:10.5671px;}
	.st27{font-size:10px;}
	.st28{font-size:10.024px;}
	.st29{font-size:9.9825px;}
	.st30{font-size:10.0045px;}
	.st31{font-size:10.0319px;}
	.st32{font-size:9.9609px;}
	.st33{font-size:9.996px;}
	.st34{font-size:9.9539px;}
	.st35{font-size:9.9569px;}
	.st36{font-size:10.6492px;}
	.st37{font-size:10.5713px;}
	.st38{font-size:10.6365px;}
	.st39{font-size:10.5687px;}
	.st40{font-size:10.6132px;}
	.st41{font-size:10.5841px;}
	.st42{font-size:10.592px;}
	.st43{font-size:10.5729px;}
	.st44{font-size:10.5851px;}
	.st45{font-size:9.9905px;}
	.st46{font-size:10.0419px;}
	.st47{font-size:9.9765px;}
	.st48{font-size:9.986px;}
	.st49{font-size:10.018px;}
	.st50{font-size:10.0225px;}
	.st51{font-size:10.0464px;}
	.st52{font-size:9.993px;}
	.st53{font-size:10.017px;}
	.st54{font-size:9.9985px;}
	.st55{font-size:10.0424px;}
	.st56{font-size:9.9624px;}
	.st57{font-size:9.9639px;}
	.st58{font-size:10.0658px;}
	.st59{font-size:9.985px;}
	.st60{font-size:9.9725px;}
	.st61{font-size:10.0125px;}
	.st62{font-size:10.0499px;}
	.st63{font-size:10.0409px;}
	.st64{font-size:10.0005px;}
	.st65{font-size:9.9489px;}
	.st66{font-size:9.981px;}
	.st67{font-size:10.0439px;}
	.st68{font-size:9.9705px;}
	.st69{font-size:9.9479px;}
	.st70{font-size:10.0265px;}
	.st71{font-size:10.0603px;}
	.st72{font-size:9.9865px;}
	.st73{font-size:10.013px;}
	.st74{font-size:10.002px;}
	.st75{font-size:10.0305px;}
	.st76{font-size:9.969px;}
	.st77{font-size:10.009px;}
	.st78{clip-path:url(#SVGID_2_);}
	.st79{fill:none;stroke:#808285;stroke-width:0.75;stroke-miterlimit:10;}
	.st80{clip-path:url(#SVGID_4_);}
	.st81{fill:none;stroke:#BCBEC0;stroke-width:0.5;stroke-miterlimit:10;}
	.st82{fill:none;stroke:#BCBEC0;stroke-width:0.25;stroke-miterlimit:10;}
	.st83{font-family:'HelveticaNeue-Light';}
	.st84{font-size:8px;}
	.st85{font-size:7.988px;}
	.st86{font-size:7.9988px;}
	.st87{font-size:8.018px;}
</style>
<title>opportunity</title>
<line class="st0" x1="787.8" y1="97.4" x2="787.8" y2="554.3"/>
<path class="st1" d="M936.1,375.4"/>
<g class="st2">
	<path class="st3" d="M499.2,83.8c-87.9-67.1-209.7-67.1-297.6,0l148.8,204.8L499.2,83.8z"/>
	<path class="st4" d="M588.3,365.9c7.8-25,11.7-51.1,11.7-77.3c0-83.9-39.6-158.3-100.8-204.8L350.4,288.6L588.3,365.9z"/>
	<path class="st5" d="M112.5,365.9c32,103.1,126.4,177.8,237.9,177.8V288.6L112.5,365.9z"/>
	<path class="st6" d="M588.3,365.9l-237.9-77.3v255.1C461.8,543.7,556.2,469,588.3,365.9z"/>
	<path class="st7" d="M201.6,83.8c-61.2,46.5-100.8,120.9-100.8,204.8c0,26.2,3.9,52.3,11.7,77.3l237.9-77.3L201.6,83.8z"/>
</g>
<path class="st8" d="M499.2,83.8c-87.9-67.1-209.7-67.1-297.6,0l148.8,204.8L499.2,83.8z"/>
<path class="st8" d="M588.3,365.9c7.8-25,11.7-51.1,11.7-77.3c0-83.9-39.6-158.3-100.8-204.8L350.4,288.6L588.3,365.9z"/>
<path class="st8" d="M112.5,365.9c32,103.1,126.4,177.8,237.9,177.8V288.6L112.5,365.9z"/>
<path class="st8" d="M588.3,365.9l-237.9-77.3v255.1C461.8,543.7,556.2,469,588.3,365.9z"/>
<path class="st8" d="M201.6,83.8c-61.2,46.5-100.8,120.9-100.8,204.8c0,26.2,3.9,52.3,11.7,77.3l237.9-77.3L201.6,83.8z"/>
<circle class="st9" cx="350.4" cy="288.6" r="25.5"/>
<circle class="st10" cx="350.4" cy="280.3" r="9.3"/>
<path class="st10" d="M362.8,304.1c0-6.8-5.5-12.4-12.4-12.4c-6.8,0-12.4,5.5-12.4,12.4c0,0,3.9,2,12.4,2
	C354.6,306.1,358.8,305.5,362.8,304.1z"/>
<text transform="matrix(1 0 0 1 0 166.1104)" class="st11 st12 st13">Community Building</text>
<text transform="matrix(1 0 0 1 596.19 166.1104)" class="st11 st12 st13">Ecological Design </text>
<text transform="matrix(1 0 0 1 596.19 180.5104)" class="st11 st12 st13">and Observation</text>
<text transform="matrix(1 0 0 1 35.28 496.9104)" class="st11 st12 st13">App</text>
<text transform="matrix(1 0 0 1 57.95 496.9104)" class="st11 st12 st13">r</text>
<text transform="matrix(1 0 0 1 61.96 496.9104)" class="st11 st12 st13">opriate </text>
<text transform="matrix(1 0 0 1 104.2 496.9104)" class="st11 st12 st13 st14">T</text>
<text transform="matrix(1 0 0 1 109.98 496.9104)" class="st11 st12 st13">echnology</text>
<text transform="matrix(1 0 0 1 530.27 500.9104)" class="st11 st12 st13">Holistic Health</text>
<text transform="matrix(1 0 0 1 209.39 21.1805)" class="st11 st12 st13">Communication Skills and Stakeholder Engagement</text>
<text transform="matrix(1 0 0 1 53.8 588.3404)" class="st15 st16 st17 st14">T</text>
<text transform="matrix(1 0 0 1 60.66 588.3404)" class="st15 st16 st17">a</text>
<text transform="matrix(1 0 0 1 68.61 588.3404)" class="st15 st16 st17">r</text>
<text transform="matrix(1 0 0 1 73.13 588.3404)" class="st15 st16 st17">get Population: </text>
<text transform="matrix(1 0 0 1 177.67 588.3404)" class="st15 st16 st17 st14">Y</text>
<text transform="matrix(1 0 0 1 185.63 588.3404)" class="st15 st16 st17">oung Adults 18-34 who live in Urban Community Ga</text>
<text transform="matrix(1 0 0 1 530.29 588.3404)" class="st15 st16 st17">r</text>
<text transform="matrix(1 0 0 1 534.96 588.3404)" class="st15 st16 st17">den Contexts</text>
<text transform="matrix(0.7723 0.6353 -0.6353 0.7723 397.39 227.4606)" class="st11 st18 st19">L</text>
<text transform="matrix(0.722 0.6919 -0.6919 0.722 402.019 231.2604)" class="st11 st18 st20">e</text>
<text transform="matrix(0.6676 0.7445 -0.7445 0.6676 406.2303 235.2805)" class="st11 st18 st19">a</text>
<text transform="matrix(0.6195 0.785 -0.785 0.6195 410.1204 239.6504)" class="st11 st18 st19">r</text>
<text transform="matrix(0.5708 0.8211 -0.8211 0.5708 412.6687 242.8203)" class="st11 st18 st21">n</text>
<text transform="matrix(0.4647 0.8855 -0.8855 0.4647 417.5299 250.1104)" class="st11 st18 st19">A</text>
<text transform="matrix(0.3888 0.9213 -0.9213 0.3888 420.7602 256.2805)" class="st11 st18 st19">b</text>
<text transform="matrix(0.3148 0.9492 -0.9492 0.3148 423.1802 261.9804)" class="st11 st18 st19">o</text>
<text transform="matrix(0.2404 0.9707 -0.9707 0.2404 425.1305 267.8404)" class="st11 st18 st19">u</text>
<text transform="matrix(0.1807 0.9835 -0.9835 0.1807 426.5502 273.7101)" class="st11 st18 st22">t</text>
<text transform="matrix(7.915507e-02 0.9969 -0.9969 7.915507e-02 427.65 279.9305)" class="st11 st18 st19">P</text>
<text transform="matrix(1.999600e-02 0.9998 -0.9998 1.999600e-02 428.1304 286.7616)" class="st11 st18 st23">l</text>
<text transform="matrix(-3.542275e-02 0.9994 -0.9994 -3.542275e-02 428.2291 289.2904)" class="st11 st18 st19">a</text>
<text transform="matrix(-0.1104 0.9939 -0.9939 -0.1104 428.0396 295.0704)" class="st11 st18 st24">n</text>
<text transform="matrix(-0.1709 0.9853 -0.9853 -0.1709 427.3301 301.1007)" class="st11 st18 st25">t</text>
<text transform="matrix(-0.2307 0.973 -0.973 -0.2307 426.7596 304.5505)" class="st11 st18 st26">s</text>
<text transform="matrix(-7.758904e-02 -0.997 0.997 -7.758904e-02 232.63 302.4398)" class="st15 st16 st27">C</text>
<text transform="matrix(-2.495562e-02 -0.9997 0.9997 -2.495562e-02 232.1 295.43)" class="st15 st16 st27">o</text>
<text transform="matrix(3.315521e-02 -0.9995 0.9995 3.315521e-02 231.92 289.9008)" class="st15 st16 st27">m</text>
<text transform="matrix(0.1028 -0.9947 0.9947 0.1028 232.18 281.5903)" class="st15 st16 st27">m</text>
<text transform="matrix(0.1595 -0.9872 0.9872 0.1595 233.07 273.3301)" class="st15 st16 st27">u</text>
<text transform="matrix(0.2045 -0.9789 0.9789 0.2045 233.9301 267.9808)" class="st15 st16 st27">n</text>
<text transform="matrix(0.2353 -0.9719 0.9719 0.2353 235.07 262.6904)" class="st15 st16 st27">i</text>
<text transform="matrix(0.2568 -0.9665 0.9665 0.2568 235.5701 260.5802)" class="st15 st16 st27">t</text>
<text transform="matrix(0.2889 -0.9574 0.9574 0.2889 236.33 257.6608)" class="st15 st16 st27">y</text>
<text transform="matrix(0.3404 -0.9403 0.9403 0.3404 238.6201 250.4208)" class="st15 st16 st27">I</text>
<text transform="matrix(0.3717 -0.9284 0.9284 0.3717 239.44 248.0801)" class="st15 st16 st27">n</text>
<text transform="matrix(0.4118 -0.9113 0.9113 0.4118 241.45 243.0704)" class="st15 st16 st27">v</text>
<text transform="matrix(0.4518 -0.8921 0.8921 0.4518 243.43 238.6505)" class="st15 st16 st27">o</text>
<text transform="matrix(0.4789 -0.8779 0.8779 0.4789 245.9993 233.6413)" class="st15 st16 st28">l</text>
<text transform="matrix(0.5068 -0.8621 0.8621 0.5068 246.9899 231.79)" class="st15 st16 st27">v</text>
<text transform="matrix(0.5432 -0.8396 0.8396 0.5432 249.44 227.6105)" class="st15 st16 st27">e</text>
<text transform="matrix(0.5903 -0.8072 0.8072 0.5903 252.2001 223.2401)" class="st15 st16 st27">m</text>
<text transform="matrix(0.6353 -0.7723 0.7723 0.6353 257.15 216.5409)" class="st15 st16 st27">e</text>
<text transform="matrix(0.6712 -0.7413 0.7413 0.6712 260.4593 212.511)" class="st15 st16 st29">n</text>
<text transform="matrix(0.6947 -0.7193 0.7193 0.6947 264.11 208.4803)" class="st15 st16 st27">t</text>
<text transform="matrix(-2.998651e-02 -0.9996 0.9996 -2.998651e-02 189.7599 297.8402)" class="st15 st16 st30">S</text>
<text transform="matrix(6.457721e-03 -1 1 6.457721e-03 189.57 291.4104)" class="st15 st16 st27">u</text>
<text transform="matrix(4.152684e-02 -0.9991 0.9991 4.152684e-02 189.5999 285.9204)" class="st15 st16 st27">p</text>
<text transform="matrix(7.974522e-02 -0.9968 0.9968 7.974522e-02 189.8506 280.0497)" class="st15 st16 st31">p</text>
<text transform="matrix(0.1104 -0.9939 0.9939 0.1104 190.3001 274.2206)" class="st15 st16 st32">o</text>
<text transform="matrix(0.1407 -0.99 0.99 0.1407 190.96 268.5609)" class="st15 st16 st27">r</text>
<text transform="matrix(0.1602 -0.9871 0.9871 0.1602 191.42 265.3101)" class="st15 st16 st27">t</text>
<text transform="matrix(0.2198 -0.9755 0.9755 0.2198 192.9299 256.8204)" class="st15 st16 st27">L</text>
<text transform="matrix(0.2536 -0.9673 0.9673 0.2536 194.1401 251.4604)" class="st15 st16 st27">o</text>
<text transform="matrix(0.2864 -0.9581 0.9581 0.2864 195.58 245.9601)" class="st15 st16 st27">c</text>
<text transform="matrix(0.3178 -0.9482 0.9482 0.3178 197.1001 240.8902)" class="st15 st16 st27">a</text>
<text transform="matrix(0.3401 -0.9404 0.9404 0.3401 198.8095 235.8405)" class="st15 st16 st33">l</text>
<text transform="matrix(0.3818 -0.9243 0.9243 0.3818 200.4904 231.2301)" class="st15 st16 st34">P</text>
<text transform="matrix(0.4086 -0.9127 0.9127 0.4086 202.96 225.2802)" class="st15 st16 st27">r</text>
<text transform="matrix(0.4329 -0.9015 0.9015 0.4329 204.2101 222.4505)" class="st15 st16 st27">o</text>
<text transform="matrix(0.4652 -0.8852 0.8852 0.4652 206.6601 217.3307)" class="st15 st16 st27">d</text>
<text transform="matrix(0.4965 -0.868 0.868 0.4965 209.3999 212.1305)" class="st15 st16 st27">u</text>
<text transform="matrix(0.5256 -0.8507 0.8507 0.5256 212.1301 207.3501)" class="st15 st16 st27">c</text>
<text transform="matrix(0.5524 -0.8336 0.8336 0.5524 214.9201 202.8398)" class="st15 st16 st35">e</text>
<text transform="matrix(0.99 -0.1407 0.1407 0.99 358.8799 374.6404)" class="st11 st18 st19">E</text>
<text transform="matrix(0.9758 -0.2188 0.2188 0.9758 366 373.6005)" class="st11 st18 st19">a</text>
<text transform="matrix(0.9611 -0.2763 0.2763 0.9611 372.13 372.1905)" class="st11 st18 st19">t</text>
<text transform="matrix(0.9257 -0.3782 0.3782 0.9257 378.9404 370.1712)" class="st11 st18 st36">O</text>
<text transform="matrix(0.8924 -0.4512 0.4512 0.8924 386.7995 366.8597)" class="st11 st18 st37">r</text>
<text transform="matrix(0.867 -0.4983 0.4983 0.867 390.4502 365.0804)" class="st11 st18 st38">g</text>
<text transform="matrix(0.8238 -0.5668 0.5668 0.8238 396.29 361.6703)" class="st11 st18 st19">a</text>
<text transform="matrix(0.7781 -0.6281 0.6281 0.7781 401.55 358.0504)" class="st11 st18 st19">n</text>
<text transform="matrix(0.7419 -0.6706 0.6706 0.7419 406.5899 353.9104)" class="st11 st18 st19">i</text>
<text transform="matrix(0.7021 -0.7121 0.7121 0.7021 408.7802 351.9797)" class="st11 st18 st39">c</text>
<text transform="matrix(0.6222 -0.7828 0.7828 0.6222 415.321 345.1308)" class="st11 st18 st22">F</text>
<text transform="matrix(0.5593 -0.829 0.829 0.5593 419.3997 339.9705)" class="st11 st18 st40">o</text>
<text transform="matrix(0.4907 -0.8713 0.8713 0.4907 423.1795 334.3199)" class="st11 st18 st41">o</text>
<text transform="matrix(0.4202 -0.9074 0.9074 0.4202 426.5 328.4005)" class="st11 st18 st19">d</text>
<text transform="matrix(-1.884847e-02 -0.9998 0.9998 -1.884847e-02 272.6 295.7898)" class="st15 st18 st19">M</text>
<text transform="matrix(7.793712e-02 -0.997 0.997 7.793712e-02 272.49 286.5401)" class="st15 st18 st19">a</text>
<text transform="matrix(0.1523 -0.9883 0.9883 0.1523 272.9299 280.7601)" class="st15 st18 st19">k</text>
<text transform="matrix(0.2256 -0.9742 0.9742 0.2256 273.8 275.0206)" class="st15 st18 st19">e</text>
<text transform="matrix(0.333 -0.9429 0.9429 0.333 275.88 266.6501)" class="st15 st18 st19">F</text>
<text transform="matrix(0.3903 -0.9207 0.9207 0.3903 277.9198 260.9504)" class="st15 st18 st42">r</text>
<text transform="matrix(0.4311 -0.9023 0.9023 0.4311 279.4901 257.31)" class="st15 st18 st43">i</text>
<text transform="matrix(0.4781 -0.8783 0.8783 0.4781 280.5299 255.0106)" class="st15 st18 st19">e</text>
<text transform="matrix(0.5408 -0.8412 0.8412 0.5408 283.2901 249.9099)" class="st15 st18 st44">n</text>
<text transform="matrix(0.6064 -0.7952 0.7952 0.6064 286.5301 244.8707)" class="st15 st18 st19">d</text>
<text transform="matrix(0.6639 -0.7478 0.7478 0.6639 290.2899 239.9505)" class="st15 st18 st19">s</text>
<text transform="matrix(0.7696 0.6385 -0.6385 0.7696 424.9597 197.5504)" class="st11 st16 st27">I</text>
<text transform="matrix(0.7507 0.6606 -0.6606 0.7507 426.8703 199.1001)" class="st11 st16 st45">d</text>
<text transform="matrix(0.717 0.6971 -0.6971 0.717 431.1801 202.9401)" class="st11 st16 st46">e</text>
<text transform="matrix(0.6816 0.7317 -0.7317 0.6816 434.9104 206.5804)" class="st11 st16 st47">n</text>
<text transform="matrix(0.6606 0.7507 -0.7507 0.6606 438.6202 210.5601)" class="st11 st16 st45">t</text>
<text transform="matrix(0.6408 0.7677 -0.7677 0.6408 440.6297 212.8806)" class="st11 st16 st27">i</text>
<text transform="matrix(0.6244 0.7811 -0.7811 0.6244 442.0096 214.5204)" class="st11 st16 st27">f</text>
<text transform="matrix(0.5987 0.8009 -0.8009 0.5987 443.8 216.7305)" class="st11 st16 st27">y</text>
<text transform="matrix(0.5408 0.8412 -0.8412 0.5408 448.2602 222.7709)" class="st11 st16 st48">N</text>
<text transform="matrix(0.4949 0.869 -0.869 0.4949 452.0402 228.7106)" class="st11 st16 st27">a</text>
<text transform="matrix(0.4642 0.8857 -0.8857 0.4642 454.6205 233.2803)" class="st11 st16 st27">t</text>
<text transform="matrix(0.4392 0.8984 -0.8984 0.4392 456.05 236.0209)" class="st11 st16 st49">i</text>
<text transform="matrix(0.4191 0.908 -0.908 0.4191 457.0002 237.9007)" class="st11 st16 st50">v</text>
<text transform="matrix(0.3782 0.9257 -0.9257 0.3782 459.0293 242.2912)" class="st11 st16 st51">e</text>
<text transform="matrix(0.3102 0.9507 -0.9507 0.3102 461.9499 249.6407)" class="st11 st16 st52">&amp;</text>
<text transform="matrix(0.2496 0.9684 -0.9684 0.2496 464.5902 258.1102)" class="st11 st16 st53">I</text>
<text transform="matrix(0.2219 0.9751 -0.9751 0.2219 465.2404 260.4705)" class="st11 st16 st27">n</text>
<text transform="matrix(0.1791 0.9838 -0.9838 0.1791 466.4396 265.7605)" class="st11 st16 st27">v</text>
<text transform="matrix(0.1369 0.9906 -0.9906 0.1369 467.3197 270.5304)" class="st11 st16 st27">a</text>
<text transform="matrix(9.497701e-02 0.9955 -0.9955 9.497701e-02 468.0304 275.6905)" class="st11 st16 st27">s</text>
<text transform="matrix(6.557733e-02 0.9978 -0.9978 6.557733e-02 468.4805 280.5605)" class="st11 st16 st27">i</text>
<text transform="matrix(3.646923e-02 0.9993 -0.9993 3.646923e-02 468.6399 282.6704)" class="st11 st16 st27">v</text>
<text transform="matrix(-2.006997e-02 0.9998 -0.9998 -2.006997e-02 468.8607 287.4704)" class="st11 st16 st27">e</text>
<text transform="matrix(-7.567481e-02 0.9971 -0.9971 -7.567481e-02 468.7103 295.4205)" class="st11 st16 st27">P</text>
<text transform="matrix(-0.1104 0.9939 -0.9939 -0.1104 468.1909 301.7606)" class="st11 st16 st32">l</text>
<text transform="matrix(-0.14 0.9901 -0.9901 -0.14 467.9807 303.8701)" class="st11 st16 st54">a</text>
<text transform="matrix(-0.1862 0.9825 -0.9825 -0.1862 467.2498 309.0105)" class="st11 st16 st27">n</text>
<text transform="matrix(-0.2214 0.9752 -0.9752 -0.2214 466.2191 314.3604)" class="st11 st16 st27">t</text>
<text transform="matrix(-0.2496 0.9684 -0.9684 -0.2496 465.5712 317.3109)" class="st11 st16 st53">s</text>
<text transform="matrix(0.9862 -0.1656 0.1656 0.9862 368.08 413.9505)" class="st15 st16 st27">S</text>
<text transform="matrix(0.9766 -0.2152 0.2152 0.9766 374.6299 412.8404)" class="st15 st16 st27">p</text>
<text transform="matrix(0.9659 -0.2589 0.2589 0.9659 380.5896 411.5103)" class="st15 st16 st55">e</text>
<text transform="matrix(0.9536 -0.3011 0.3011 0.9536 385.9392 410.0696)" class="st15 st16 st56">n</text>
<text transform="matrix(0.9375 -0.3479 0.3479 0.9375 391.3901 408.3405)" class="st15 st16 st27">d</text>
<text transform="matrix(0.908 -0.4191 0.4191 0.908 399.8195 405.1306)" class="st15 st16 st50">M</text>
<text transform="matrix(0.8784 -0.4779 0.4779 0.8784 407.88 401.3005)" class="st15 st16 st27">o</text>
<text transform="matrix(0.8599 -0.5105 0.5105 0.8599 413.02 398.4703)" class="st15 st16 st27">r</text>
<text transform="matrix(0.8418 -0.5398 0.5398 0.8418 415.85 396.8103)" class="st15 st16 st27">e</text>
<text transform="matrix(0.8027 -0.5964 0.5964 0.8027 422.87 392.1904)" class="st15 st16 st27">T</text>
<text transform="matrix(0.7828 -0.6222 0.6222 0.7828 427.5504 388.6814)" class="st15 st16 st57">i</text>
<text transform="matrix(0.7547 -0.6561 0.6561 0.7547 429.45 387.2505)" class="st15 st16 st27">m</text>
<text transform="matrix(0.717 -0.6971 0.6971 0.717 436.0096 381.4899)" class="st15 st16 st46">e</text>
<text transform="matrix(0.6816 -0.7317 0.7317 0.6816 441.8896 375.5906)" class="st15 st16 st47">i</text>
<text transform="matrix(0.6557 -0.755 0.755 0.6557 443.489 373.8911)" class="st15 st16 st58">n</text>
<text transform="matrix(0.5971 -0.8022 0.8022 0.5971 449.0699 367.3406)" class="st15 st16 st27">N</text>
<text transform="matrix(0.5548 -0.832 0.832 0.5548 453.4701 361.38)" class="st15 st16 st27">a</text>
<text transform="matrix(0.5291 -0.8486 0.8486 0.5291 456.51 356.7803)" class="st15 st16 st53">t</text>
<text transform="matrix(0.4907 -0.8713 0.8713 0.4907 458.2497 354.0004)" class="st15 st16 st59">u</text>
<text transform="matrix(0.4622 -0.8868 0.8868 0.4622 461.0301 349.0703)" class="st15 st16 st27">r</text>
<text transform="matrix(0.4313 -0.9022 0.9022 0.4313 462.56 346.1703)" class="st15 st16 st27">e</text>
<text transform="matrix(0.7755 0.6314 -0.6314 0.7755 448.9398 162.5905)" class="st11 st16 st27">C</text>
<text transform="matrix(0.7498 0.6617 -0.6617 0.7498 454.4799 167.1305)" class="st11 st16 st27">o</text>
<text transform="matrix(0.722 0.6919 -0.6919 0.722 458.7496 170.8494)" class="st11 st16 st60">m</text>
<text transform="matrix(0.6889 0.7249 -0.7249 0.6889 464.8104 176.7204)" class="st11 st16 st27">p</text>
<text transform="matrix(0.6606 0.7507 -0.7507 0.6606 468.8605 180.9905)" class="st11 st16 st45">o</text>
<text transform="matrix(0.6392 0.769 -0.769 0.6392 472.6194 185.2399)" class="st11 st16 st61">s</text>
<text transform="matrix(0.6181 0.7861 -0.7861 0.6181 475.7695 189.0705)" class="st11 st16 st27">t</text>
<text transform="matrix(0.5822 0.8131 -0.8131 0.5822 479.3504 193.6704)" class="st11 st16 st56">F</text>
<text transform="matrix(0.5538 0.8326 -0.8326 0.5538 482.6798 198.3104)" class="st11 st16 st27">o</text>
<text transform="matrix(0.5243 0.8515 -0.8515 0.5243 485.81 203.0104)" class="st11 st16 st27">o</text>
<text transform="matrix(0.4933 0.8698 -0.8698 0.4933 488.8 207.8503)" class="st11 st16 st27">d</text>
<text transform="matrix(0.4368 0.8996 -0.8996 0.4368 493.01 215.3505)" class="st11 st16 st27">W</text>
<text transform="matrix(0.3978 0.9175 -0.9175 0.3978 496.8203 223.2705)" class="st11 st16 st27">a</text>
<text transform="matrix(0.3683 0.9297 -0.9297 0.3683 498.9397 228.1503)" class="st11 st16 st27">s</text>
<text transform="matrix(0.3446 0.9387 -0.9387 0.3446 500.75 232.7706)" class="st11 st16 st27">t</text>
<text transform="matrix(0.3198 0.9475 -0.9475 0.3198 501.8297 235.6705)" class="st11 st16 st27">e</text>
<text transform="matrix(0.9299 -0.3678 0.3678 0.9299 424.33 486.1404)" class="st15 st16 st27">U</text>
<text transform="matrix(0.9187 -0.3949 0.3949 0.9187 431.1201 483.4404)" class="st15 st16 st27">s</text>
<text transform="matrix(0.9085 -0.4179 0.4179 0.9085 435.8 481.4203)" class="st15 st16 st27">e</text>
<text transform="matrix(0.8909 -0.4541 0.4541 0.8909 443.3 477.9106)" class="st15 st16 st27">o</text>
<text transform="matrix(0.8811 -0.4729 0.4729 0.8811 448.4799 475.2505)" class="st15 st16 st27">f</text>
<text transform="matrix(0.8601 -0.5101 0.5101 0.8601 453.6495 472.4604)" class="st15 st16 st54">H</text>
<text transform="matrix(0.8466 -0.5323 0.5323 0.8466 459.9601 468.7403)" class="st15 st16 st27">a</text>
<text transform="matrix(0.835 -0.5502 0.5502 0.835 464.57 465.8307)" class="st15 st16 st27">r</text>
<text transform="matrix(0.8189 -0.574 0.574 0.8189 467.46 463.9607)" class="st15 st16 st27">m</text>
<text transform="matrix(0.8024 -0.5968 0.5968 0.8024 474.5001 458.9805)" class="st15 st16 st27">f</text>
<text transform="matrix(0.7898 -0.6133 0.6133 0.7898 476.9299 457.1905)" class="st15 st16 st27">u</text>
<text transform="matrix(0.778 -0.6282 0.6282 0.778 481.3799 453.7107)" class="st15 st16 st27">l</text>
<text transform="matrix(0.7557 -0.6549 0.6549 0.7557 485.35 450.4906)" class="st15 st16 st27">P</text>
<text transform="matrix(0.7363 -0.6766 0.6766 0.7363 490.3305 446.1707)" class="st15 st16 st62">e</text>
<text transform="matrix(0.7191 -0.6949 0.6949 0.7191 494.35 442.4606)" class="st15 st16 st27">s</text>
<text transform="matrix(0.7071 -0.7071 0.7071 0.7071 497.9904 438.9308)" class="st15 st16 st63">t</text>
<text transform="matrix(0.6958 -0.7182 0.7182 0.6958 500.24 436.6709)" class="st15 st16 st27">i</text>
<text transform="matrix(0.6816 -0.7317 0.7317 0.6816 501.8301 435.0503)" class="st15 st16 st47">c</text>
<text transform="matrix(0.6687 -0.7435 0.7435 0.6687 505.54 431.05)" class="st15 st16 st27">i</text>
<text transform="matrix(0.65 -0.76 0.76 0.65 507.0893 429.36)" class="st15 st16 st64">d</text>
<text transform="matrix(0.6332 -0.774 0.774 0.6332 511.0102 424.8102)" class="st15 st16 st65">e</text>
<text transform="matrix(0.6112 -0.7915 0.7915 0.6112 514.4794 420.5597)" class="st15 st16 st66">s</text>
<text transform="matrix(0.5593 0.829 -0.829 0.5593 157.0288 416.2605)" class="st15 st16 st61">P</text>
<text transform="matrix(0.5775 0.8164 -0.8164 0.5775 160.7098 421.6903)" class="st15 st16 st67">r</text>
<text transform="matrix(0.5924 0.8056 -0.8056 0.5924 162.5596 424.3305)" class="st15 st16 st27">o</text>
<text transform="matrix(0.6081 0.7939 -0.7939 0.6081 166.0197 429.0105)" class="st15 st16 st27">t</text>
<text transform="matrix(0.6227 0.7825 -0.7825 0.6227 167.9599 431.5505)" class="st15 st16 st27">e</text>
<text transform="matrix(0.641 0.7675 -0.7675 0.641 171.3596 435.8304)" class="st15 st16 st27">c</text>
<text transform="matrix(0.6557 0.755 -0.755 0.6557 174.861 439.9994)" class="st15 st16 st58">t</text>
<text transform="matrix(0.6816 0.7317 -0.7317 0.6816 178.8399 444.57)" class="st15 st16 st47">G</text>
<text transform="matrix(0.7021 0.7121 -0.7121 0.7021 184.09 450.1797)" class="st15 st16 st68">a</text>
<text transform="matrix(0.7161 0.698 -0.698 0.7161 187.9201 454.0505)" class="st15 st16 st27">r</text>
<text transform="matrix(0.7297 0.6838 -0.6838 0.7297 190.2201 456.3005)" class="st15 st16 st27">d</text>
<text transform="matrix(0.7465 0.6654 -0.6654 0.7465 194.6099 460.4105)" class="st15 st16 st27">e</text>
<text transform="matrix(0.7623 0.6472 -0.6472 0.7623 198.6798 464.0404)" class="st15 st16 st27">n</text>
<text transform="matrix(0.7822 0.6231 -0.6231 0.7822 205.1702 469.4605)" class="st15 st16 st27">f</text>
<text transform="matrix(0.7908 0.6121 -0.6121 0.7908 207.5301 471.3504)" class="st15 st16 st27">r</text>
<text transform="matrix(0.8024 0.5968 -0.5968 0.8024 210.0602 473.3203)" class="st15 st16 st27">o</text>
<text transform="matrix(0.8209 0.5711 -0.5711 0.8209 214.7398 476.8306)" class="st15 st16 st27">m</text>
<text transform="matrix(0.8486 0.5291 -0.5291 0.8486 224.22 483.3406)" class="st15 st16 st53">W</text>
<text transform="matrix(0.8645 0.5026 -0.5026 0.8645 231.7003 487.9605)" class="st15 st16 st69">e</text>
<text transform="matrix(0.8763 0.4818 -0.4818 0.8763 236.4201 490.7004)" class="st15 st16 st27">a</text>
<text transform="matrix(0.8852 0.4653 -0.4653 0.8852 241.1802 493.3105)" class="st15 st16 st27">t</text>
<text transform="matrix(0.8939 0.4482 -0.4482 0.8939 244.0302 494.8205)" class="st15 st16 st27">h</text>
<text transform="matrix(0.9044 0.4267 -0.4267 0.9044 249.0698 497.3404)" class="st15 st16 st27">e</text>
<text transform="matrix(0.9117 0.4108 -0.4108 0.9117 254.0095 499.6601)" class="st15 st16 st66">r</text>
<text transform="matrix(0.6283 0.7779 -0.7779 0.6283 200.2312 405.8997)" class="st15 st16 st70">U</text>
<text transform="matrix(0.6516 0.7586 -0.7586 0.6516 204.8298 411.5905)" class="st15 st16 st27">s</text>
<text transform="matrix(0.6725 0.7401 -0.7401 0.6725 208.1504 415.4605)" class="st15 st16 st27">e</text>
<text transform="matrix(0.7062 0.708 -0.708 0.7062 213.7897 421.5805)" class="st15 st16 st27">P</text>
<text transform="matrix(0.7248 0.689 -0.689 0.7248 218.4604 426.2304)" class="st15 st16 st27">r</text>
<text transform="matrix(0.7413 0.6712 -0.6712 0.7413 220.7701 428.4504)" class="st15 st16 st29">o</text>
<text transform="matrix(0.7614 0.6483 -0.6483 0.7614 225.1199 432.3904)" class="st15 st16 st27">p</text>
<text transform="matrix(0.7809 0.6247 -0.6247 0.7809 229.7299 436.3105)" class="st15 st16 st27">e</text>
<text transform="matrix(0.7952 0.6063 -0.6063 0.7952 234.0005 439.7113)" class="st15 st16 st71">r</text>
<text transform="matrix(0.8211 0.5708 -0.5708 0.8211 238.9896 443.4703)" class="st15 st16 st72">T</text>
<text transform="matrix(0.8327 0.5537 -0.5537 0.8327 242.8401 446.1906)" class="st15 st16 st27">o</text>
<text transform="matrix(0.8494 0.5277 -0.5277 0.8494 247.7 449.4205)" class="st15 st16 st27">o</text>
<text transform="matrix(0.8601 0.5101 -0.5101 0.8601 252.65 452.4698)" class="st15 st16 st54">l</text>
<text transform="matrix(0.8704 0.4923 -0.4923 0.8704 254.6201 453.6505)" class="st15 st16 st27">s</text>
<text transform="matrix(4.675778e-02 -0.9989 0.9989 4.675778e-02 126.46 282.5301)" class="st15 st16 st27">P</text>
<text transform="matrix(6.801531e-02 -0.9977 0.9977 6.801531e-02 126.77 276.1605)" class="st15 st16 st27">r</text>
<text transform="matrix(8.715574e-02 -0.9962 0.9962 8.715574e-02 126.9701 273.0603)" class="st15 st16 st27">o</text>
<text transform="matrix(0.1104 -0.9939 0.9939 0.1104 127.4696 267.4193)" class="st15 st16 st32">t</text>
<text transform="matrix(0.1203 -0.9927 0.9927 0.1203 127.7907 264.3502)" class="st15 st16 st60">e</text>
<text transform="matrix(0.1498 -0.9887 0.9887 0.1498 128.4499 259.1201)" class="st15 st16 st73">c</text>
<text transform="matrix(0.1664 -0.9861 0.9861 0.1664 129.2501 253.8701)" class="st15 st16 st27">t</text>
<text transform="matrix(0.2 -0.9798 0.9798 0.2 130.22 248.1496)" class="st15 st16 st74">G</text>
<text transform="matrix(0.2292 -0.9734 0.9734 0.2292 131.7399 240.8102)" class="st15 st16 st27">a</text>
<text transform="matrix(0.2496 -0.9684 0.9684 0.2496 132.9695 235.6505)" class="st15 st16 st53">r</text>
<text transform="matrix(0.2707 -0.9627 0.9627 0.2707 133.7106 232.6702)" class="st15 st16 st60">d</text>
<text transform="matrix(0.29 -0.957 0.957 0.29 135.27 227.0403)" class="st15 st16 st27">e</text>
<text transform="matrix(0.313 -0.9498 0.9498 0.313 136.8001 221.9808)" class="st15 st16 st27">n</text>
<text transform="matrix(0.3489 -0.9371 0.9371 0.3489 139.4196 214.1909)" class="st15 st16 st75">F</text>
<text transform="matrix(0.3665 -0.9304 0.9304 0.3665 141.4001 208.8701)" class="st15 st16 st27">r</text>
<text transform="matrix(0.3818 -0.9243 0.9243 0.3818 142.5104 206.0202)" class="st15 st16 st34">o</text>
<text transform="matrix(0.4131 -0.9107 0.9107 0.4131 144.66 200.8001)" class="st15 st16 st27">m</text>
<text transform="matrix(0.4582 -0.8889 0.8889 0.4582 149.31 190.7008)" class="st15 st16 st27">M</text>
<text transform="matrix(0.4796 -0.8775 0.8775 0.4796 153.3101 183.0301)" class="st15 st16 st27">i</text>
<text transform="matrix(0.4935 -0.8698 0.8698 0.4935 154.3201 181.1506)" class="st15 st16 st27">s</text>
<text transform="matrix(0.5101 -0.8601 0.8601 0.5101 156.7491 176.8714)" class="st15 st16 st54">u</text>
<text transform="matrix(0.5336 -0.8457 0.8457 0.5336 159.57 172.1508)" class="st15 st16 st27">s</text>
<text transform="matrix(0.5524 -0.8336 0.8336 0.5524 162.1899 168.0001)" class="st15 st16 st35">e</text>
<text transform="matrix(0.5888 0.8083 -0.8083 0.5888 529.3805 154.8505)" class="st11 st16 st27">B</text>
<text transform="matrix(0.567 0.8237 -0.8237 0.567 533.3497 160.3004)" class="st11 st16 st27">e</text>
<text transform="matrix(0.5515 0.8342 -0.8342 0.5515 536.3499 164.6804)" class="st11 st16 st27">t</text>
<text transform="matrix(0.5408 0.8412 -0.8412 0.5408 538.0605 167.2607)" class="st11 st16 st48">t</text>
<text transform="matrix(0.5243 0.8515 -0.8515 0.5243 539.7299 169.8505)" class="st11 st16 st27">e</text>
<text transform="matrix(0.5101 0.8601 -0.8601 0.5101 542.5106 174.37)" class="st11 st16 st54">r</text>
<text transform="matrix(0.4805 0.877 -0.877 0.4805 545.5303 179.5604)" class="st11 st16 st27">L</text>
<text transform="matrix(0.4596 0.8881 -0.8881 0.4596 548.1595 184.3505)" class="st11 st16 st27">a</text>
<text transform="matrix(0.4392 0.8984 -0.8984 0.4392 550.5794 189.0303)" class="st11 st16 st49">y</text>
<text transform="matrix(0.4182 0.9084 -0.9084 0.4182 552.7501 193.4505)" class="st11 st16 st27">o</text>
<text transform="matrix(0.3955 0.9184 -0.9184 0.3955 555.1195 198.6005)" class="st11 st16 st27">u</text>
<text transform="matrix(0.378 0.9258 -0.9258 0.378 557.2704 203.6305)" class="st11 st16 st27">t</text>
<text transform="matrix(0.3486 0.9373 -0.9373 0.3486 559.4595 209.0303)" class="st11 st16 st27">o</text>
<text transform="matrix(0.3305 0.9438 -0.9438 0.3305 561.4204 214.3604)" class="st11 st16 st27">f</text>
<text transform="matrix(0.3062 0.952 -0.952 0.3062 563.2599 219.7005)" class="st11 st16 st27">t</text>
<text transform="matrix(0.2879 0.9577 -0.9577 0.2879 564.2195 222.6404)" class="st11 st16 st27">h</text>
<text transform="matrix(0.2649 0.9643 -0.9643 0.2649 565.7898 227.8704)" class="st11 st16 st27">e</text>
<text transform="matrix(0.2307 0.973 -0.973 0.2307 567.8798 235.5902)" class="st11 st16 st76">G</text>
<text transform="matrix(0.2 0.9798 -0.9798 0.2 569.5507 242.8903)" class="st11 st16 st74">a</text>
<text transform="matrix(0.1807 0.9835 -0.9835 0.1807 570.5894 248.0999)" class="st11 st16 st57">r</text>
<text transform="matrix(0.1592 0.9872 -0.9872 0.1592 571.1603 251.1104)" class="st11 st16 st27">d</text>
<text transform="matrix(0.1343 0.9909 -0.9909 0.1343 572.09 256.9004)" class="st11 st16 st27">e</text>
<text transform="matrix(0.1104 0.9939 -0.9939 0.1104 572.7997 262.1205)" class="st11 st16 st27">n</text>
<text transform="matrix(0.2012 0.9795 -0.9795 0.2012 548.2604 245.0804)" class="st11 st16 st27">U</text>
<text transform="matrix(0.1723 0.985 -0.985 0.1723 549.68 252.0604)" class="st11 st16 st27">s</text>
<text transform="matrix(0.1552 0.9879 -0.9879 0.1552 550.5197 256.9205)" class="st11 st16 st27">i</text>
<text transform="matrix(0.1368 0.9906 -0.9906 0.1368 550.86 259.0205)" class="st11 st16 st27">n</text>
<text transform="matrix(0.1097 0.994 -0.994 0.1097 551.6205 264.4505)" class="st11 st16 st27">g</text>
<text transform="matrix(6.522893e-02 0.9979 -0.9979 6.522893e-02 552.4893 272.7705)" class="st11 st16 st27">C</text>
<text transform="matrix(2.998651e-02 0.9996 -0.9996 2.998651e-02 552.9501 279.8505)" class="st11 st16 st30">o</text>
<text transform="matrix(0 1 -1 0 553.1699 285.4904)" class="st11 st16 st27">m</text>
<text transform="matrix(-3.507396e-02 0.9994 -0.9994 -3.507396e-02 553.1394 293.8705)" class="st11 st16 st27">p</text>
<text transform="matrix(-6.331303e-02 0.998 -0.998 -6.331303e-02 552.9396 299.7205)" class="st11 st16 st27">o</text>
<text transform="matrix(-8.924203e-02 0.996 -0.996 -8.924203e-02 552.5799 305.3404)" class="st11 st16 st27">s</text>
<text transform="matrix(-0.1089 0.9941 -0.9941 -0.1089 552.1298 310.2505)" class="st11 st16 st27">t</text>
<text transform="matrix(-0.1498 0.9887 -0.9887 -0.1498 551.4794 316.0107)" class="st11 st16 st73">S</text>
<text transform="matrix(-0.1745 0.9847 -0.9847 -0.1745 550.5498 322.3205)" class="st11 st16 st27">o</text>
<text transform="matrix(-0.1935 0.9811 -0.9811 -0.1935 549.5408 327.9005)" class="st11 st16 st27">i</text>
<text transform="matrix(-0.2 0.9798 -0.9798 -0.2 549.1205 330.0509)" class="st11 st16 st74">l</text>
<text transform="matrix(0.5524 0.8336 -0.8336 0.5524 500.7703 185.6901)" class="st15 st16 st35">P</text>
<text transform="matrix(0.5291 0.8486 -0.8486 0.5291 504.3005 191.0502)" class="st15 st16 st53">l</text>
<text transform="matrix(0.5165 0.8563 -0.8563 0.5165 505.4503 192.8404)" class="st15 st16 st27">a</text>
<text transform="matrix(0.4907 0.8713 -0.8713 0.4907 508.1802 197.3604)" class="st15 st16 st59">n</text>
<text transform="matrix(0.4709 0.8822 -0.8822 0.4709 510.8497 202.1305)" class="st15 st16 st27">t</text>
<text transform="matrix(0.4582 0.8889 -0.8889 0.4582 512.3003 204.8503)" class="st15 st16 st27">i</text>
<text transform="matrix(0.4396 0.8982 -0.8982 0.4396 513.31 206.7705)" class="st15 st16 st27">n</text>
<text transform="matrix(0.4123 0.911 -0.911 0.4123 515.72 211.6804)" class="st15 st16 st27">g</text>
<text transform="matrix(0.3697 0.9292 -0.9292 0.3697 519.1108 219.3096)" class="st15 st16 st77">V</text>
<text transform="matrix(0.3401 0.9404 -0.9404 0.3401 521.1299 224.3704)" class="st15 st16 st33">a</text>
<text transform="matrix(0.3218 0.9468 -0.9468 0.3218 522.9297 229.3305)" class="st15 st16 st27">r</text>
<text transform="matrix(0.3102 0.9507 -0.9507 0.3102 523.9801 232.4409)" class="st15 st16 st52">i</text>
<text transform="matrix(0.2882 0.9576 -0.9576 0.2882 524.6601 234.4905)" class="st15 st16 st27">e</text>
<text transform="matrix(0.2662 0.9639 -0.9639 0.2662 526.1696 239.5404)" class="st15 st16 st27">t</text>
<text transform="matrix(0.2496 0.9684 -0.9684 0.2496 527.0006 242.5404)" class="st15 st16 st53">i</text>
<text transform="matrix(0.2326 0.9726 -0.9726 0.2326 527.55 244.6205)" class="st15 st16 st27">e</text>
<text transform="matrix(0.2095 0.9778 -0.9778 0.2095 528.7802 249.7302)" class="st15 st16 st50">s</text>
<text transform="matrix(0.1623 0.9867 -0.9867 0.1623 530.2904 257.2004)" class="st15 st16 st27">o</text>
<text transform="matrix(0.14 0.9901 -0.9901 0.14 531.2011 262.7802)" class="st15 st16 st54">f</text>
<text transform="matrix(9.879869e-02 0.9951 -0.9951 9.879869e-02 531.9604 268.3305)" class="st15 st16 st27">P</text>
<text transform="matrix(7.974522e-02 0.9968 -0.9968 7.974522e-02 532.5684 274.7004)" class="st15 st16 st31">l</text>
<text transform="matrix(5.495021e-02 0.9985 -0.9985 5.495021e-02 532.7396 276.8404)" class="st15 st16 st27">a</text>
<text transform="matrix(2.998651e-02 0.9996 -0.9996 2.998651e-02 533.0396 282.0901)" class="st15 st16 st30">n</text>
<text transform="matrix(0 1 -1 0 533.1602 287.5705)" class="st15 st16 st27">t</text>
<text transform="matrix(-2.006997e-02 0.9998 -0.9998 -2.006997e-02 533.1791 290.6305)" class="st15 st16 st27">s</text>
<g>
	<defs>
		<path id="SVGID_1_" d="M350.4,289.6L482.5,72.2c3,1.8,5.9,3.7,8.8,5.6c2.9,1.9,5.7,3.9,8.5,5.9L350.4,289.6z"/>
	</defs>
	<clipPath id="SVGID_2_">
		<use xlink:href="#SVGID_1_"  style="overflow:visible;"/>
	</clipPath>
	<g class="st78">
		
			<ellipse transform="matrix(0.9955 -9.480333e-02 9.480333e-02 0.9955 -25.8791 34.5179)" class="st79" cx="350.3" cy="289.6" rx="81.6" ry="81.6"/>
		
			<ellipse transform="matrix(0.9955 -9.480333e-02 9.480333e-02 0.9955 -25.8791 34.5179)" class="st79" cx="350.3" cy="289.6" rx="122" ry="122"/>
		
			<ellipse transform="matrix(0.9955 -9.480333e-02 9.480333e-02 0.9955 -25.8791 34.5179)" class="st79" cx="350.3" cy="289.6" rx="162.7" ry="162.7"/>
		
			<ellipse transform="matrix(0.9955 -9.480333e-02 9.480333e-02 0.9955 -25.8791 34.5179)" class="st79" cx="350.3" cy="289.6" rx="206.4" ry="206.4"/>
	</g>
</g>
<g>
	<defs>
		<path id="SVGID_3_" d="M350.4,289.6L490.7,77.4c1.5,1,3.1,2,4.6,3.1c1.5,1,3,2.1,4.5,3.2L350.4,289.6z"/>
	</defs>
	<clipPath id="SVGID_4_">
		<use xlink:href="#SVGID_3_"  style="overflow:visible;"/>
	</clipPath>
	<g class="st80">
		
			<ellipse transform="matrix(0.9955 -9.480333e-02 9.480333e-02 0.9955 -25.8791 34.5179)" class="st79" cx="350.3" cy="289.6" rx="81.6" ry="81.6"/>
		
			<ellipse transform="matrix(0.9955 -9.480333e-02 9.480333e-02 0.9955 -25.8791 34.5179)" class="st79" cx="350.3" cy="289.6" rx="122" ry="122"/>
		
			<ellipse transform="matrix(0.9955 -9.480333e-02 9.480333e-02 0.9955 -25.8791 34.5179)" class="st79" cx="350.3" cy="289.6" rx="162.7" ry="162.7"/>
		
			<ellipse transform="matrix(0.9955 -9.480333e-02 9.480333e-02 0.9955 -25.8791 34.5179)" class="st81" cx="350.3" cy="289.6" rx="186.3" ry="186.4"/>
		
			<ellipse transform="matrix(0.9955 -9.480333e-02 9.480333e-02 0.9955 -25.8791 34.5179)" class="st79" cx="350.3" cy="289.6" rx="206.4" ry="206.4"/>
		
			<ellipse transform="matrix(0.9955 -9.480333e-02 9.480333e-02 0.9955 -25.7833 34.5033)" class="st81" cx="350.2" cy="288.6" rx="228.4" ry="228.3"/>
		
			<ellipse transform="matrix(0.9955 -9.480333e-02 9.480333e-02 0.9955 -25.8791 34.5179)" class="st81" cx="350.3" cy="289.6" rx="143.5" ry="143.5"/>
		
			<ellipse transform="matrix(0.9955 -9.480333e-02 9.480333e-02 0.9955 -25.8791 34.5179)" class="st81" cx="350.3" cy="289.6" rx="101.4" ry="101.4"/>
	</g>
</g>
<line class="st82" x1="350.4" y1="289.6" x2="525.1" y2="47.8"/>
<text transform="matrix(0.5697 -0.8218 0.8218 0.5697 509.8999 84.7507)" class="st11 st83 st84">Potential Appeal </text>
<text transform="matrix(0.5697 -0.8218 0.8218 0.5697 517.7898 90.2194)" class="st11 st83 st84">to </text>
<text transform="matrix(0.5697 -0.8218 0.8218 0.5697 522.9399 82.7897)" class="st11 st83 st84">T</text>
<text transform="matrix(0.5697 -0.8218 0.8218 0.5697 524.968 79.864)" class="st11 st83 st84">arget Audience</text>
<text transform="matrix(0.8811 0.473 -0.473 0.8811 455.3501 89.5205)" class="st11 st83 st84">L</text>
<text transform="matrix(0.8713 0.4907 -0.4907 0.8713 459.0803 91.52)" class="st11 st83 st85">o</text>
<text transform="matrix(0.8601 0.5101 -0.5101 0.8601 462.8907 93.65)" class="st11 st83 st86">w</text>
<text transform="matrix(0.9375 0.3479 -0.3479 0.9375 375.65 214.4905)" class="st11 st83 st84">H</text>
<text transform="matrix(0.9216 0.3882 -0.3882 0.9216 380.8 216.4504)" class="st11 st83 st84">i</text>
<text transform="matrix(0.908 0.4191 -0.4191 0.908 382.1003 216.9605)" class="st11 st83 st87">g</text>
<text transform="matrix(0.8834 0.4685 -0.4685 0.8834 385.9801 218.7704)" class="st11 st83 st84">h</text>
</svg>
