<?xml version="1.0" encoding="utf-8"?>
<!-- Generator: Adobe Illustrator 21.0.0, SVG Export Plug-In . SVG Version: 6.00 Build 0)  -->
<svg version="1.1" id="Layer_1" xmlns="http://www.w3.org/2000/svg" xmlns:xlink="http://www.w3.org/1999/xlink" x="0px" y="0px"
	 viewBox="0 0 1182.8 342.1" style="enable-background:new 0 0 1182.8 342.1;" xml:space="preserve">
<style type="text/css">
	.st0{opacity:0.5;fill:#EDCA92;enable-background:new    ;}
	.st1{opacity:0.5;fill:#B9DF95;enable-background:new    ;}
	.st2{opacity:0.5;fill:#8ED5E0;enable-background:new    ;}
	.st3{opacity:0.5;}
	.st4{fill:#EDCA92;}
	.st5{fill:#8ED5E0;}
	.st6{fill:#B9DF95;}
	.st7{fill:none;stroke:#404041;stroke-width:0.25;stroke-miterlimit:10;}
	.st8{fill:none;stroke:#808184;stroke-width:0.3713;stroke-miterlimit:10;}
	.st9{fill:none;stroke:#808184;stroke-width:0.3713;stroke-miterlimit:10;stroke-dasharray:8.8515,8.8515;}
	.st10{fill:#A6A8AB;}
	.st11{fill:none;stroke:#D0D2D3;stroke-width:0.7426;stroke-miterlimit:10;}
	.st12{fill:none;stroke:#D0D2D3;stroke-width:0.7426;stroke-miterlimit:10;stroke-dasharray:8.8571,8.8571;}
	.st13{fill:none;stroke:#D0D2D3;stroke-width:0.7426;stroke-miterlimit:10;stroke-dasharray:8.9594,8.9594;}
	.st14{fill:none;stroke:#D0D2D3;stroke-width:0.7426;stroke-miterlimit:10;stroke-dasharray:8.8084,8.8084;}
	.st15{fill:none;stroke:#D0D2D3;stroke-width:0.7426;stroke-miterlimit:10;stroke-dasharray:8.9503,8.9503;}
	.st16{fill:#D0D2D3;}
	.st17{fill:#F7EB99;}
	.st18{fill:#58595B;}
	.st19{font-family:'HelveticaNeue-Thin';}
	.st20{font-size:28.77px;}
	.st21{font-family:'HelveticaNeue-Medium';}
	.st22{font-size:12px;}
</style>
<path class="st0" d="M307.2,70.7c-47.7,0-71.4,39.1-95.2,78.3h-0.1c23.8,39.2,47.6,78.3,95.3,78.3c47.7,0,71.5-39.2,95.3-78.3
	C378.7,109.9,354.9,70.7,307.2,70.7z"/>
<path class="st1" d="M685.6,66.4c-47.4,0-71.2,41.3-94.9,82.6c23.7,41.3,47.5,82.6,94.9,82.6s71.2-41.3,94.9-82.6
	C756.8,107.7,733,66.4,685.6,66.4z"/>
<path class="st1" d="M875.3,94.8c-47.4,0-71.2,28.2-94.9,56.4c23.7,28.2,47.5,56.4,94.9,56.4s71.2-28.2,94.9-56.4
	C946.5,123,922.7,94.8,875.3,94.8z"/>
<path class="st1" d="M1065.2,116c-47.5,0-71.2,17.6-94.9,35.2c23.7,17.6,47.4,35.2,94.9,35.2c47.4,0,71.2-17.6,94.9-35.2
	C1136.4,133.6,1112.6,116,1065.2,116z"/>
<path class="st2" d="M115.9,93c-47.4,0-71.2,28-94.9,56c23.7,28,47.5,56,94.9,56c47.4,0,71.2-28,94.9-56
	C187.1,121,163.3,93,115.9,93z"/>
<g class="st3">
	<path class="st4" d="M400.9,150.7l0.1,0C401,150.7,401,150.7,400.9,150.7C400.9,150.7,400.9,150.7,400.9,150.7z"/>
	<path class="st4" d="M590.7,150.6l-4.2,0c0,0,0,0,0,0H590.7C567,128.8,543.2,107,495.8,107c-47.3,0-71.1,21.7-94.8,43.6h4.1
		c0,0,0,0.1,0,0.1l-4.1,0c23.7,21.9,47.5,43.6,94.8,43.6C543.2,194.3,567,172.4,590.7,150.6z"/>
	<path class="st4" d="M400.9,150.6C400.9,150.6,400.9,150.6,400.9,150.6c0.1,0,0.1,0,0.1,0H400.9z"/>
</g>
<title>process</title>
<polygon class="st5" points="204.6,32 21.9,32 21.9,20.2 204.6,20.2 211.9,26.1 "/>
<polygon class="st4" points="583.3,32 211.9,32 211.9,20.2 583.3,20.2 590.6,26.1 "/>
<polygon class="st6" points="1153.3,32 591.7,32 591.7,20.2 1153.3,20.2 1161.2,26.1 "/>
<line class="st7" x1="22.2" y1="342.1" x2="22.2" y2="0"/>
<line class="st7" x1="211.9" y1="342.1" x2="211.9" y2="0"/>
<line class="st7" x1="591.4" y1="342.1" x2="591.4" y2="0"/>
<line class="st7" x1="1161.2" y1="342.1" x2="1161.2" y2="0"/>
<path class="st8" d="M1160.1,151.2"/>
<path class="st9" d="M1160.1,151.2l-27.6,96.9c-7,24.6-24.1,45.1-47.1,56.3c-26.8,13-61.7,20.5-98.9,20.5H187.9
	c-23.8,0-46.6-3.1-67-8.7c-43.4-11.9-76.2-47.6-85-91.7l-15-75.5"/>
<line class="st8" x1="23.9" y1="228.6" x2="22.2" y2="225.4"/>
<polygon class="st10" points="365.7,324.9 377.2,319.1 377.2,330.7 "/>
<polygon class="st10" points="792.3,324.9 803.8,319.1 803.8,330.7 "/>
<g>
	<g>
		<path class="st11" d="M211.9,158.6c0,0,0.1,1.6,0.7,4.4"/>
		<path class="st12" d="M215.2,171.5C228,205,290.5,292.4,595.1,292.4c283.9,0,356.5-102.9,371.7-133"/>
		<path class="st11" d="M968.6,155.4c1.2-2.7,1.6-4.1,1.6-4.1"/>
	</g>
</g>
<g>
	<g>
		<path class="st11" d="M211.9,158.6c0,0,0.3,1.6,1,4.3"/>
		<path class="st13" d="M215.9,171.4c11.1,27.3,51.4,88.7,188.1,88.7c129.5,0,172.6-76.9,183.5-102.7"/>
		<path class="st11" d="M589.2,153.2c1-2.7,1.4-4.2,1.4-4.2"/>
	</g>
</g>
<g>
	<g>
		<path class="st11" d="M210.9,153.9c0,0,0,1.6,0.4,4.4"/>
		<path class="st14" d="M213.3,166.9c9.5,31.3,56.3,108.2,286.5,108.2c235.3,0,273.3-88.7,279.5-117.3"/>
		<path class="st11" d="M780.1,153.4c0.4-2.8,0.4-4.4,0.4-4.4"/>
	</g>
</g>
<g>
	<g>
		<path class="st11" d="M211.9,158.6c0,0,0,1.6,0.5,4.4"/>
		<path class="st15" d="M214.9,171.6c13,36.8,84.5,139.1,475.5,139.1c291.1,0,433.4-123.2,463.6-153.1"/>
		<path class="st11" d="M1157.1,154.5c2-2.1,3-3.3,3-3.3"/>
	</g>
</g>
<polygon class="st16" points="395.4,260.1 406.9,254.3 406.9,265.9 "/>
<polygon class="st16" points="486.7,275.1 498.2,269.3 498.2,280.9 "/>
<polygon class="st16" points="595.1,292.4 606.6,286.6 606.6,298.2 "/>
<polygon class="st16" points="678.8,311.5 690.3,305.7 690.3,317.3 "/>
<circle class="st17" cx="20.9" cy="148.8" r="21.8"/>
<circle class="st17" cx="210.9" cy="149" r="21.8"/>
<circle class="st17" cx="590.4" cy="148.8" r="21.8"/>
<circle class="st17" cx="780.5" cy="149" r="10.9"/>
<circle class="st17" cx="970.6" cy="148.8" r="21.8"/>
<circle class="st17" cx="1160.2" cy="149" r="21.8"/>
<circle class="st17" cx="400.6" cy="149" r="10.9"/>
<text transform="matrix(1 0 0 1 12.1349 158.5979)" class="st18 st19 st20">1</text>
<text transform="matrix(1 0 0 1 202.765 158.8779)" class="st18 st19 st20">2</text>
<text transform="matrix(1 0 0 1 582.3149 159.8779)" class="st18 st19 st20">3</text>
<text transform="matrix(1 0 0 1 961.3849 158.8779)" class="st18 st19 st20">4</text>
<text transform="matrix(1 0 0 1 1152.425 159.8779)" class="st18 st19 st20">5</text>
<text transform="matrix(1 0 0 1 29.36 13.23)" class="st18 st21 st22">P</text>
<text transform="matrix(1 0 0 1 37.36 13.23)" class="st18 st21 st22">r</text>
<text transform="matrix(1 0 0 1 41.37 13.23)" class="st18 st21 st22">oblem Finding</text>
<text transform="matrix(1 0 0 1 218.31 13.23)" class="st18 st21 st22">P</text>
<text transform="matrix(1 0 0 1 226.31 13.23)" class="st18 st21 st22">r</text>
<text transform="matrix(1 0 0 1 230.32 13.23)" class="st18 st21 st22">oblem Understanding</text>
<text transform="matrix(1 0 0 1 596.07 13.23)" class="st18 st21 st22">P</text>
<text transform="matrix(1 0 0 1 604.07 13.23)" class="st18 st21 st22">r</text>
<text transform="matrix(1 0 0 1 608.08 13.23)" class="st18 st21 st22">oblem Solving</text>
</svg>
