<svg id="Layer_1" data-name="Layer 1" xmlns="http://www.w3.org/2000/svg" viewBox="0 0 1182.81 342.09"><defs><style>.cls-1,.cls-4{fill:#edca92;}.cls-1,.cls-10,.cls-2{opacity:0.5;}.cls-2,.cls-5,.cls-6{fill:#b9df95;}.cls-10,.cls-3{fill:#8ed5e0;}.cls-6{stroke:#404041;stroke-width:0.25px;}.cls-11,.cls-6,.cls-7,.cls-8{stroke-miterlimit:10;}.cls-11,.cls-7,.cls-8{fill:none;}.cls-7,.cls-8{stroke:#808184;stroke-width:0.5px;}.cls-8{stroke-dasharray:11.92 11.92;}.cls-9{fill:#a6a8ab;}.cls-11{stroke:#d0d2d3;}.cls-12{fill:#d0d2d3;}.cls-13{fill:#f7eb99;}.cls-14{font-size:28.77px;}.cls-14,.cls-15,.cls-18{fill:#58595b;}.cls-14,.cls-18{font-family:HelveticaNeue-Thin, Helvetica Neue;}.cls-15{font-size:12px;font-family:HelveticaNeue-Medium, Helvetica Neue;}.cls-16{letter-spacing:-0.02em;}.cls-17{letter-spacing:0em;}.cls-18{font-size:11.03px;}</style></defs><title>process</title><path class="cls-1" d="M401.47,126.31c-23.73,28-47.47,56-94.94,56s-71.21-28-94.94-56m189.88,0c-23.73-28-47.47-56-94.93-56s-71.21,28-94.94,56"/><path class="cls-1" d="M591.57,122.65c-23.73,28-47.47,56-94.94,56s-71.21-28-94.94-56m189.88,0c-23.73-28-47.47-56-94.93-56s-71.21,28-94.94,56"/><path class="cls-2" d="M781.32,122.82c-23.73,28-47.47,56-94.94,56s-71.21-28-94.94-56m189.88,0c-23.73-28-47.47-56-94.93-56s-71.21,28-94.94,56"/><path class="cls-2" d="M971.1,122.65c-23.73,28-47.47,56-94.94,56s-71.21-28-94.94-56m189.88,0c-23.73-28-47.47-56-94.93-56s-71.21,28-94.94,56"/><path class="cls-2" d="M1161,126.3c-23.73,28-47.47,56-94.94,56s-71.21-28-94.94-56m189.88,0c-23.73-28-47.47-56-94.93-56s-71.21,28-94.94,56"/><polygon class="cls-3" points="204.65 31.97 21.94 31.97 21.94 20.23 204.65 20.23 211.9 26.1 204.65 31.97"/><polygon class="cls-4" points="583.29 31.97 211.9 31.97 211.9 20.23 583.29 20.23 590.58 26.1 583.29 31.97"/><polygon class="cls-5" points="1153.26 31.97 591.73 31.97 591.73 20.23 1153.26 20.23 1161.2 26.1 1153.26 31.97"/><line class="cls-6" x1="22.2" y1="342.09" x2="22.2"/><line class="cls-6" x1="211.94" y1="342.09" x2="211.94"/><line class="cls-6" x1="591.43" y1="342.09" x2="591.43"/><line class="cls-6" x1="1161.25" y1="342.09" x2="1161.25"/><line class="cls-7" x1="1161.03" y1="122.82" x2="1159.16" y2="128.52"/><path class="cls-8" d="M1155.45,139.85l-30.17,92a150,150,0,0,1-138.79,93.11H187.94A150,150,0,0,1,44.26,218L25.63,155.88"/><line class="cls-7" x1="23.92" y1="150.17" x2="22.2" y2="144.43"/><polygon class="cls-9" points="365.72 324.92 377.21 319.14 377.21 330.71 365.72 324.92"/><polygon class="cls-9" points="792.28 324.92 803.78 319.14 803.78 330.71 792.28 324.92"/><path class="cls-10" d="M211.65,122.82c-23.73,28-47.47,56-94.94,56s-71.21-28-94.94-56m189.88,0c-23.73-28-47.47-56-94.93-56s-71.21,28-94.94,56"/><path class="cls-11" d="M213.8,122.21s79.28,143.65,381.28,143.65c264.93,0,382.08-143.49,382.08-143.49"/><path class="cls-11" d="M213.4,122.21S253,207.37,404,207.37c132.46,0,191-85.06,191-85.06"/><path class="cls-11" d="M213.8,122.21s59.46,112.33,286,112.33c198.7,0,286.57-112.21,286.57-112.21"/><path class="cls-11" d="M213.61,122.21s99.12,176.92,476.7,176.92c331.23,0,477.71-176.73,477.71-176.73"/><polygon class="cls-12" points="395.38 207.37 406.88 201.59 406.88 213.16 395.38 207.37"/><polygon class="cls-12" points="492.41 234.55 503.9 228.76 503.9 240.33 492.41 234.55"/><polygon class="cls-12" points="595.08 265.86 606.57 260.08 606.57 271.65 595.08 265.86"/><polygon class="cls-12" points="683.15 299.14 694.64 293.35 694.64 304.92 683.15 299.14"/><circle class="cls-13" cx="21.78" cy="122.65" r="21.78"/><circle class="cls-13" cx="211.73" cy="122.82" r="21.78"/><circle class="cls-13" cx="591.29" cy="122.65" r="21.78"/><circle class="cls-13" cx="781.4" cy="122.82" r="10.89"/><circle class="cls-13" cx="971.5" cy="122.65" r="21.78"/><circle class="cls-13" cx="1161.03" cy="122.82" r="21.78"/><circle class="cls-13" cx="401.51" cy="122.82" r="10.89"/><text class="cls-14" transform="translate(13 132.43)">1</text><text class="cls-14" transform="translate(203.63 132.71)">2</text><text class="cls-14" transform="translate(583.18 133.71)">3</text><text class="cls-14" transform="translate(962.25 132.71)">4</text><text class="cls-14" transform="translate(1153.29 133.71)">5</text><text class="cls-15" transform="translate(29.36 13.23)">P<tspan class="cls-16" x="8" y="0">r</tspan><tspan class="cls-17" x="12.01" y="0">oblem Finding</tspan></text><text class="cls-15" transform="translate(218.31 13.23)">P<tspan class="cls-16" x="8" y="0">r</tspan><tspan class="cls-17" x="12.01" y="0">oblem Understanding</tspan></text><text class="cls-15" transform="translate(596.07 13.23)">P<tspan class="cls-16" x="8" y="0">r</tspan><tspan class="cls-17" x="12.01" y="0">oblem Solving</tspan></text><text class="cls-18" transform="translate(393.89 126.3)">2.1</text><text class="cls-18" transform="translate(773.71 126.3)">3.1</text></svg>