<svg id="Layer_1" data-name="Layer 1" xmlns="http://www.w3.org/2000/svg" viewBox="0 0 900 900"><defs><style>.cls-1{fill:#fff;}.cls-2{fill:#8ed5e0;}.cls-3{fill:#f1f2f2;}.cls-4{fill:#c5e8f3;}.cls-5{fill:#a5d6ad;}.cls-6{fill:#c6e3c1;}.cls-7{fill:#badb95;}.cls-8{fill:#e1edbc;}.cls-9{fill:#f6ea98;}.cls-10{fill:#fff7bf;}.cls-11{fill:#edca92;}.cls-12{fill:#ffe6bf;}.cls-13,.cls-16{font-size:24.29px;fill:#333;}.cls-13{font-family:HelveticaNeue-Bold, Helvetica Neue;font-weight:700;}.cls-14{letter-spacing:-0.02em;}.cls-15{letter-spacing:-0.05em;}.cls-16{font-family:HelveticaNeue, Helvetica Neue;}.cls-17{letter-spacing:-0.11em;}.cls-18{letter-spacing:-0.07em;}</style></defs><title>understanding_1</title><rect class="cls-1" width="900" height="900"/><rect class="cls-2" x="261.2" y="698.79" width="46.43" height="267.95" transform="translate(-550.29 1111.44) rotate(-89.61)"/><polygon class="cls-3" points="345.13 677.32 418.55 810.47 150.61 808.63 93.16 675.58 345.13 677.32"/><polygon class="cls-4" points="150.61 808.63 150.29 855.05 92.84 722.01 93.16 675.58 150.61 808.63"/><rect class="cls-5" x="259.22" y="551.53" width="46.43" height="267.95" transform="translate(-401.35 972.08) rotate(-90.35)"/><polygon class="cls-3" points="341.13 529.28 416.26 661.48 148.32 663.1 89.15 530.81 341.13 529.28"/><polygon class="cls-6" points="148.32 663.1 148.6 709.52 89.43 577.24 89.15 530.81 148.32 663.1"/><rect class="cls-7" x="255.5" y="397.01" width="46.43" height="267.95" transform="translate(-253.6 807.15) rotate(-89.73)"/><polygon class="cls-3" points="339.1 375.41 412.79 508.42 144.85 507.13 87.12 374.21 339.1 375.41"/><polygon class="cls-8" points="144.85 507.13 144.63 553.56 86.9 420.63 87.12 374.21 144.85 507.13"/><rect class="cls-9" x="253.11" y="250.88" width="46.43" height="267.95" transform="translate(-108.05 661.84) rotate(-90.1)"/><polygon class="cls-3" points="335.69 228.89 410.25 361.4 142.31 361.87 83.71 229.33 335.69 228.89"/><polygon class="cls-10" points="142.31 361.87 142.39 408.3 83.79 275.75 83.71 229.33 142.31 361.87"/><rect class="cls-11" x="249.71" y="94.66" width="46.43" height="267.95" transform="translate(43.26 500.69) rotate(-89.78)"/><polygon class="cls-3" points="333.16 73 406.99 205.93 139.04 204.91 81.18 72.05 333.16 73"/><polygon class="cls-12" points="139.04 204.91 138.87 251.34 81 118.47 81.18 72.05 139.04 204.91"/><text class="cls-13" transform="translate(163.34 50.62)">Barriers to P<tspan class="cls-14" x="145.75" y="0">r</tspan><tspan x="154.77" y="0">o-Envi</tspan><tspan class="cls-14" x="228.54" y="0">r</tspan><tspan x="237.56" y="0">onmental Behavior Change</tspan></text><text class="cls-13" transform="translate(209.25 235.65)">Knowledge</text><text class="cls-13" transform="translate(231.93 391.81)">Emotion</text><text class="cls-13" transform="translate(199.47 695.22)">Responsibility</text><text class="cls-13" transform="translate(188.38 841.99)">Locus of Cont<tspan class="cls-14" x="162.88" y="0">r</tspan><tspan x="171.89" y="0">ol</tspan></text><text class="cls-13" transform="translate(243.2 541.26)"><tspan class="cls-15">V</tspan><tspan x="13.97" y="0">alues</tspan></text><rect class="cls-12" x="439.12" y="115.94" width="378.38" height="130.12"/><rect class="cls-10" x="439.12" y="270.82" width="378.38" height="130.12"/><rect class="cls-8" x="439.12" y="422.96" width="378.38" height="130.12"/><rect class="cls-6" x="439.12" y="577.09" width="378.38" height="130.12"/><rect class="cls-4" x="439.12" y="723.48" width="378.38" height="130.12"/><text class="cls-16" transform="translate(460.69 157.89)">Understanding envi<tspan class="cls-14" x="211.03" y="0">r</tspan><tspan x="218.68" y="0">onmental </tspan><tspan x="0" y="29.15">issues and p</tspan><tspan class="cls-14" x="137.25" y="29.15">r</tspan><tspan x="144.91" y="29.15">ocesses a</tspan><tspan class="cls-14" x="254.22" y="29.15">r</tspan><tspan x="261.87" y="29.15">e a </tspan><tspan x="0" y="58.3">critical to p</tspan><tspan class="cls-14" x="120.56" y="58.3">r</tspan><tspan x="128.21" y="58.3">omote change.</tspan></text><text class="cls-16" transform="translate(460.69 312.7)">Individuals must establish an <tspan x="0" y="29.15">emotional connection with the </tspan><tspan x="0" y="58.3">envi</tspan><tspan class="cls-14" x="44.09" y="58.3">r</tspan><tspan x="51.74" y="58.3">onment.</tspan></text><text class="cls-16" transform="translate(457.03 465.96)">Must establish a solid <tspan x="0" y="29.15">foundation for long term </tspan><tspan x="0" y="58.3">adoption.</tspan></text><text class="cls-16" transform="translate(457.03 619.17)"><tspan class="cls-17">T</tspan><tspan x="11.25" y="0">aking ca</tspan><tspan class="cls-14" x="102.59" y="0">r</tspan><tspan x="110.24" y="0">e of the envi</tspan><tspan class="cls-14" x="242.97" y="0">r</tspan><tspan x="250.63" y="0">onment </tspan><tspan x="0" y="29.15">must be seen as a personal </tspan><tspan class="cls-14" x="0" y="58.3">r</tspan><tspan x="7.65" y="58.3">esponsibilit</tspan><tspan class="cls-18" x="130.47" y="58.3">y</tspan><tspan x="140.82" y="58.3">.</tspan></text><text class="cls-16" transform="translate(457.03 780.86)">Individual must know their <tspan x="0" y="29.15">actions have a di</tspan><tspan class="cls-14" x="183.58" y="29.15">r</tspan><tspan x="191.23" y="29.15">ect impact. </tspan></text></svg>