<?xml version="1.0" encoding="utf-8"?>
<!-- Generator: Adobe Illustrator 21.0.0, SVG Export Plug-In . SVG Version: 6.00 Build 0)  -->
<svg version="1.2" baseProfile="tiny" id="Layer_1" xmlns="http://www.w3.org/2000/svg" xmlns:xlink="http://www.w3.org/1999/xlink"
	 x="0px" y="0px" viewBox="0 0 393 358.2" xml:space="preserve">
<title>understadning_3</title>
<polygon fill="none" stroke="#414042" stroke-miterlimit="10" points="187.6,98 281.6,260.7 93.7,260.7 "/>
<line fill="none" stroke="#D1D3D4" stroke-width="0.5" stroke-miterlimit="10" x1="187.6" y1="98" x2="187.6" y2="206.9"/>
<line fill="none" stroke="#D1D3D4" stroke-width="0.5" stroke-miterlimit="10" x1="187.6" y1="206.9" x2="280.7" y2="260.6"/>
<line fill="none" stroke="#D1D3D4" stroke-width="0.5" stroke-miterlimit="10" x1="187.6" y1="206.9" x2="93.7" y2="260.7"/>
<circle fill="#A5D6AD" cx="93.7" cy="260.6" r="16.6"/>
<circle fill="#8ED5E0" cx="187.6" cy="98" r="16.6"/>
<circle fill="#F6EA98" cx="280.7" cy="260.6" r="16.6"/>
<text transform="matrix(1 0 0 1 157.3299 76.825)" fill="#58595B" font-family="'HelveticaNeue-Light'" font-size="17px">S</text>
<text transform="matrix(1 0 0 1 168.0399 76.825)" fill="#58595B" font-family="'HelveticaNeue-Light'" font-size="17px">P</text>
<text transform="matrix(1 0 0 1 177.4899 76.825)" fill="#58595B" font-family="'HelveticaNeue-Light'" font-size="17px">A</text>
<text transform="matrix(1 0 0 1 187.0499 76.825)" fill="#58595B" font-family="'HelveticaNeue-Light'" font-size="17px">TIAL</text>
<text transform="matrix(1 0 0 1 297.2899 281.4149)" fill="#58595B" font-family="'HelveticaNeue-Light'" font-size="17px">TEMPORAL</text>
<text transform="matrix(1 0 0 1 10.2899 281.4149)" fill="#58595B" font-family="'HelveticaNeue-Light'" font-size="17px">SOCIAL</text>
</svg>
