<svg id="Layer_1" data-name="Layer 1" xmlns="http://www.w3.org/2000/svg" viewBox="0 0 900 900"><defs><style>.cls-1{fill:#6d6e71;}.cls-2{font-size:27px;font-family:HelveticaNeue-Bold, Helvetica Neue;font-weight:700;}.cls-13,.cls-2,.cls-6{fill:#333;}.cls-3{letter-spacing:-0.09em;}.cls-4{letter-spacing:-0.02em;}.cls-5{letter-spacing:0em;}.cls-13,.cls-6{font-size:24.29px;}.cls-6{font-family:HelveticaNeue-Medium, Helvetica Neue;}.cls-7{letter-spacing:-0.02em;}.cls-8{fill:#8ed5e0;}.cls-9{fill:#addfe6;}.cls-10{fill:#c5e8f3;}.cls-11{fill:#58595b;}.cls-12{fill:#a7a9ac;}.cls-13{font-family:HelveticaNeue, Helvetica Neue;}.cls-14{fill:#939598;}.cls-15{fill:#fff;}.cls-16{fill:#badb95;}.cls-17{fill:none;stroke:#a7a9ac;stroke-miterlimit:10;stroke-width:3px;stroke-dasharray:5 5;}.cls-18{fill:#f6ea98;}.cls-19{fill:#edca92;}</style></defs><title>understading_2</title><path class="cls-1" d="M246.9,620.62l-42,16.88a12.43,12.43,0,0,1-16.17-6.9l-36-102.19a12.43,12.43,0,0,1,6.9-16.17l42-16.88a12.43,12.43,0,0,1,16.17,6.9l36,102.19A12.43,12.43,0,0,1,246.9,620.62Z"/><text class="cls-2" transform="translate(192.75 86.25)"><tspan class="cls-3">T</tspan><tspan class="cls-4" x="14.01" y="0">r</tspan><tspan class="cls-5" x="24.03" y="0">ends in P</tspan><tspan class="cls-4" x="142.53" y="0">r</tspan><tspan x="152.55" y="0">o-Envi</tspan><tspan class="cls-4" x="234.55" y="0">r</tspan><tspan class="cls-5" x="244.56" y="0">onmental Education</tspan></text><text class="cls-6" transform="translate(152.7 315.59)">Community</text><text class="cls-6" transform="translate(540.14 315.59)">Urban Envi<tspan class="cls-7" x="122.85" y="0">r</tspan><tspan x="130.96" y="0">onments</tspan></text><text class="cls-6" transform="translate(134.4 685.59)">Digital Age</text><text class="cls-6" transform="translate(471.25 684.59)">Social and Ecological Connection</text><circle class="cls-8" cx="217.02" cy="193.93" r="19.63"/><path class="cls-8" d="M249.35,250.82c0,17.86-14.47,17.14-32.33,17.14s-32.33.72-32.33-17.14a32.33,32.33,0,1,1,64.66,0Z"/><circle class="cls-9" cx="282.27" cy="198.47" r="17.61"/><path class="cls-9" d="M311.27,249.5c0,16-13,15.37-29,15.37s-29,.64-29-15.37a29,29,0,1,1,58,0Z"/><circle class="cls-10" cx="151.77" cy="198.1" r="17.61"/><path class="cls-10" d="M180.77,249.13c0,16-13,15.37-29,15.37s-29,.64-29-15.37a29,29,0,0,1,58,0Z"/><polygon class="cls-11" points="247.12 598.93 189.7 621.98 158.06 530.72 215.48 507.67 247.12 598.93"/><circle class="cls-12" cx="220.96" cy="619.96" r="5.76"/><text class="cls-13" transform="translate(29.73 364.55)">Envi<tspan class="cls-7" x="45.89" y="0">r</tspan><tspan x="53.54" y="0">onmental education needs to </tspan><tspan x="0" y="29.15">involve everyone.</tspan></text><text class="cls-13" transform="translate(453.63 735.08)">Social, Cultural, and Economic factors <tspan x="0" y="29.15">impacts an individuals connection </tspan><tspan x="0" y="58.3">with the envi</tspan><tspan class="cls-7" x="136.77" y="58.3">r</tspan><tspan x="144.42" y="58.3">onment. Education must </tspan><tspan x="0" y="87.45">be tailo</tspan><tspan class="cls-7" x="79.63" y="87.45">r</tspan><tspan x="87.28" y="87.45">ed to incorporate these </tspan><tspan x="0" y="116.61">factors. </tspan></text><text class="cls-13" transform="translate(466.81 364.55)">Urban centers a<tspan class="cls-7" x="173.67" y="0">r</tspan><tspan x="181.32" y="0">e becoming mo</tspan><tspan class="cls-7" x="350.54" y="0">r</tspan><tspan x="358.19" y="0">e </tspan><tspan x="0" y="29.15">and mo</tspan><tspan class="cls-7" x="82.38" y="29.15">r</tspan><tspan x="90.03" y="29.15">e detached f</tspan><tspan class="cls-7" x="225.92" y="29.15">r</tspan><tspan x="233.57" y="29.15">om natu</tspan><tspan class="cls-7" x="322.7" y="29.15">r</tspan><tspan x="330.35" y="29.15">e. </tspan><tspan x="0" y="58.3">This is whe</tspan><tspan class="cls-7" x="121" y="58.3">r</tspan><tspan x="128.65" y="58.3">e education is needed </tspan><tspan x="0" y="87.45">the most.</tspan></text><text class="cls-13" transform="translate(36.16 731.54)">Utilize technology in novel ways <tspan x="0" y="29.15">to expose mo</tspan><tspan class="cls-7" x="148.94" y="29.15">r</tspan><tspan x="156.59" y="29.15">e people to </tspan><tspan x="0" y="58.3">envi</tspan><tspan class="cls-7" x="44.09" y="58.3">r</tspan><tspan x="51.74" y="58.3">onmental education.</tspan></text><path class="cls-12" d="M538.67,146.5h65.25a5,5,0,0,1,5,5V271.16a0,0,0,0,1,0,0H533.67a0,0,0,0,1,0,0V151.5A5,5,0,0,1,538.67,146.5Z"/><path class="cls-14" d="M615.56,208.83h65.25a5,5,0,0,1,5,5v57.33a0,0,0,0,1,0,0H610.56a0,0,0,0,1,0,0V213.83A5,5,0,0,1,615.56,208.83Z"/><path class="cls-12" d="M693,161.67h65.25a5,5,0,0,1,5,5V271.16a0,0,0,0,1,0,0H688a0,0,0,0,1,0,0V166.67A5,5,0,0,1,693,161.67Z"/><rect class="cls-15" x="539.84" y="154.09" width="18.76" height="18.76" rx="2" ry="2"/><rect class="cls-15" x="561.92" y="176.52" width="18.76" height="18.76" rx="2" ry="2"/><rect class="cls-15" x="585.39" y="176.52" width="18.76" height="18.76" rx="2" ry="2"/><rect class="cls-15" x="617.39" y="216.42" width="18.76" height="18.76" rx="2" ry="2"/><rect class="cls-15" x="642.99" y="216.42" width="18.76" height="18.76" rx="2" ry="2"/><rect class="cls-15" x="693.39" y="167.14" width="18.76" height="18.76" rx="2" ry="2"/><rect class="cls-15" x="716.28" y="167.14" width="18.76" height="18.76" rx="2" ry="2"/><rect class="cls-15" x="716.28" y="189.09" width="18.76" height="18.76" rx="2" ry="2"/><rect class="cls-15" x="737.77" y="210.12" width="18.76" height="18.76" rx="2" ry="2"/><circle class="cls-16" cx="535.51" cy="539.83" r="22.39"/><path class="cls-16" d="M572.39,604.71c0,20.37-16.51,19.55-36.87,19.55s-36.87.82-36.87-19.55a36.87,36.87,0,1,1,73.75,0Z"/><line class="cls-17" x1="593" y1="570.59" x2="721.25" y2="526.75"/><circle class="cls-12" cx="593.54" cy="570.41" r="11.28" transform="translate(-152.61 222.69) rotate(-18.88)"/><circle class="cls-12" cx="720.72" cy="526.93" r="11.28" transform="translate(-131.71 261.49) rotate(-18.88)"/><path class="cls-18" d="M776.45,536.3a14.84,14.84,0,0,0,13.08,8.17c8.26,0,14.95-7.09,14.95-15.84A16.15,16.15,0,0,0,798.56,516c7.53-.82,13.39-7.56,13.39-15.76,0-8.75-6.69-15.84-14.95-15.84a14.18,14.18,0,0,0-5.61,1.15c-.25-8.52-6.84-15.34-14.94-15.34-8.26,0-14.95,7.09-14.95,15.84q0,.49,0,1a14.19,14.19,0,0,0-5.95-1.3c-8.26,0-14.95,7.09-14.95,15.84,0,7.83,5.36,14.33,12.4,15.61a16.26,16.26,0,0,0-4.62,11.45c0,8.75,6.69,15.84,14.95,15.84A14.84,14.84,0,0,0,776.45,536.3Z"/><ellipse class="cls-19" cx="776.29" cy="508.93" rx="11.37" ry="12.05"/></svg>