<svg id="Layer_1" data-name="Layer 1" xmlns="http://www.w3.org/2000/svg" viewBox="0 0 801.76 622.79"><defs><style>.cls-1{fill:#8ed5e0;opacity:0.5;}.cls-2{fill:#badb95;}.cls-25,.cls-3{fill:#fff;}.cls-21,.cls-3{stroke:#231f20;}.cls-21,.cls-3,.cls-31,.cls-4{stroke-miterlimit:10;}.cls-4{fill:#f6ea98;stroke:#58595b;stroke-width:0.5px;}.cls-25,.cls-5{font-size:12px;}.cls-27,.cls-5{fill:#414042;}.cls-5{font-family:SourceSansPro-Regular, Source Sans Pro;}.cls-6{letter-spacing:-0.01em;}.cls-7{letter-spacing:-0.02em;}.cls-8{letter-spacing:0em;}.cls-9{letter-spacing:-0.01em;}.cls-10{letter-spacing:-0.02em;}.cls-11{letter-spacing:-0.01em;}.cls-12{letter-spacing:0.02em;}.cls-13{letter-spacing:-0.03em;}.cls-14{letter-spacing:-0.01em;}.cls-15{letter-spacing:-0.02em;}.cls-16{letter-spacing:-0.07em;}.cls-17{letter-spacing:-0.02em;}.cls-18{letter-spacing:0em;}.cls-19{letter-spacing:-0.03em;}.cls-20{letter-spacing:-0.02em;}.cls-21,.cls-31{fill:none;}.cls-22{letter-spacing:-0.01em;}.cls-23{letter-spacing:-0.02em;}.cls-24{letter-spacing:0em;}.cls-25{font-family:SourceSansPro-Semibold, Source Sans Pro;font-weight:700;}.cls-26{letter-spacing:-0.05em;}.cls-27{font-size:16px;font-family:SourceSansPro-LightIt, Source Sans Pro;font-style:italic;}.cls-28{letter-spacing:0em;}.cls-29{letter-spacing:-0.01em;}.cls-30{letter-spacing:-0.11em;}.cls-31{stroke:#414042;stroke-width:0.25px;}.cls-32{letter-spacing:-0.02em;}</style></defs><title>userflow</title><rect class="cls-1" x="578.24" y="207.75" width="142.33" height="211.54" rx="12" ry="12"/><rect class="cls-1" y="76.74" width="291.25" height="291.25" rx="12" ry="12"/><path class="cls-2" d="M698.31,376a93,93,0,0,1-51.65-83.3V263.25a66.64,66.64,0,0,0-66.51-62.58l-252.37.06A114.86,114.86,0,0,0,254,227.42a115.34,115.34,0,0,0-113.32-114,114.86,114.86,0,0,0,26.69-73.79V25.35h0A11.29,11.29,0,0,0,156,14.3a11.06,11.06,0,0,0-11.06,11V39.63a92.93,92.93,0,0,1-48.84,81.84A115.4,115.4,0,1,0,244.47,274.76a93,93,0,0,1,83.3-51.65h46.17l-.5,177v.35a75.49,75.49,0,0,0,75.46,75h14.28A92.93,92.93,0,0,1,545,524.36,115.4,115.4,0,1,0,698.31,376ZM224.1,265.45s0,0,0,0c-.26.62-.53,1.23-.81,1.84a93.26,93.26,0,1,1,.82-1.86Zm172.15-42.36,183.89,0a44.27,44.27,0,0,1,44.08,40.26c-54.6.39-89.41,24.57-121.31,48.38-30.48,22.76-59.27,44.25-106.9,44.41ZM639.78,574a93,93,0,0,1,0-184.29ZM537,479.83a114.86,114.86,0,0,0-73.79-26.69H448.9c-28.75,0-53.13-24.27-53.13-53h0l.12-21.71c55.13-.12,88.3-24.89,120.38-48.85,30.31-22.63,60.8-43.57,108-43.94v7.09A114.86,114.86,0,0,0,651,366.51,115.34,115.34,0,0,0,537,479.83Zm125.18,94.51v-185a92.42,92.42,0,0,1,26.85,7s0,0,0,0c.62.26,1.23.53,1.84.81a93,93,0,0,1-28.71,177.13Z"/><path class="cls-3" d="M646.65,263.26v4.06h.13C646.78,266,646.74,264.6,646.65,263.26Z"/><rect class="cls-4" x="209.57" y="206.37" width="71.39" height="71.39" rx="18.2" ry="18.2" transform="translate(243 -102.53) rotate(45)"/><rect class="cls-4" x="93.32" y="98.44" width="90.61" height="60.41" rx="12" ry="12"/><text class="cls-5" transform="translate(104.89 123.69)"><tspan class="cls-6">R</tspan><tspan x="6.79" y="0">e</tspan><tspan class="cls-7" x="12.74" y="0">c</tspan><tspan x="17.96" y="0">ei</tspan><tspan class="cls-8" x="26.87" y="0">v</tspan><tspan x="32.42" y="0">e Plant </tspan><tspan class="cls-6" x="16.28" y="14.4">t</tspan><tspan x="20.22" y="14.4">o Find</tspan></text><rect class="cls-4" x="7.18" y="259.86" width="90.61" height="60.41" rx="12" ry="12"/><text class="cls-5" transform="translate(18.74 286.97)">Identify Plant <tspan x="10.6" y="14.4">in Na</tspan><tspan class="cls-9" x="36.38" y="14.4">t</tspan><tspan x="40.37" y="14.4">u</tspan><tspan class="cls-6" x="46.9" y="14.4">r</tspan><tspan x="50.94" y="14.4">e</tspan></text><text class="cls-5" transform="translate(226.04 224.42)">Enough <tspan class="cls-10" x="-4.85" y="14.4">P</tspan><tspan x="1.71" y="14.4">oints </tspan><tspan class="cls-11" x="29.24" y="14.4">f</tspan><tspan x="32.62" y="14.4">or </tspan><tspan x="-0.37" y="28.8">Mys</tspan><tspan class="cls-6" x="18.92" y="28.8">t</tspan><tspan x="22.86" y="28.8">e</tspan><tspan class="cls-12" x="28.81" y="28.8">r</tspan><tspan x="33.2" y="28.8">y </tspan><tspan x="3.49" y="43.2">Plan</tspan><tspan class="cls-13" x="26.11" y="43.2">t</tspan><tspan x="29.85" y="43.2">?</tspan></text><rect class="cls-4" x="340.8" y="181.66" width="90.61" height="60.41" rx="12" ry="12"/><text class="cls-5" transform="translate(349.88 208.61)">Select Mys<tspan class="cls-6" x="52.56" y="0">t</tspan><tspan x="56.5" y="0">e</tspan><tspan class="cls-12" x="62.45" y="0">r</tspan><tspan x="66.84" y="0">y </tspan><tspan x="13.58" y="14.4">Plant S</tspan><tspan class="cls-14" x="49.03" y="14.4">e</tspan><tspan x="54.81" y="14.4">t</tspan></text><rect class="cls-4" x="476.34" y="181.66" width="90.61" height="60.41" rx="12" ry="12"/><text class="cls-5" transform="translate(487.9 208.61)">Invi<tspan class="cls-6" x="18.22" y="0">t</tspan><tspan x="22.15" y="0">e </tspan><tspan class="cls-15" x="30.53" y="0">F</tspan><tspan x="36.16" y="0">riends </tspan><tspan x="7.85" y="14.4">or Go Solo</tspan></text><rect class="cls-4" x="609.38" y="348.22" width="90.61" height="60.41" rx="12" ry="12"/><text class="cls-5" transform="translate(624.14 366.68)"><tspan class="cls-16">T</tspan><tspan x="5.5" y="0">a</tspan><tspan class="cls-17" x="11.64" y="0">k</tspan><tspan x="17.36" y="0">e Ca</tspan><tspan class="cls-6" x="38.68" y="0">r</tspan><tspan x="42.72" y="0">e of </tspan><tspan x="6.43" y="14.4">and G</tspan><tspan class="cls-6" x="35.56" y="14.4">r</tspan><tspan class="cls-8" x="39.61" y="14.4">o</tspan><tspan x="46.06" y="14.4">w </tspan><tspan x="-3.59" y="28.8">Mys</tspan><tspan class="cls-6" x="15.71" y="28.8">t</tspan><tspan x="19.64" y="28.8">e</tspan><tspan class="cls-12" x="25.6" y="28.8">r</tspan><tspan x="29.99" y="28.8">y Plant</tspan></text><rect class="cls-4" x="711.15" y="450.21" width="90.61" height="60.41" rx="12" ry="12"/><text class="cls-5" transform="translate(722.58 477.16)">Journal Plant <tspan x="15.35" y="14.4">G</tspan><tspan class="cls-6" x="22.7" y="14.4">r</tspan><tspan class="cls-8" x="26.74" y="14.4">o</tspan><tspan x="33.2" y="14.4">wth</tspan></text><rect class="cls-4" x="593.64" y="242.07" width="90.61" height="60.41" rx="12" ry="12"/><text class="cls-5" transform="translate(619.76 269.02)"><tspan class="cls-6">R</tspan><tspan x="6.79" y="0">e</tspan><tspan class="cls-7" x="12.74" y="0">c</tspan><tspan x="17.96" y="0">ei</tspan><tspan class="cls-8" x="26.87" y="0">v</tspan><tspan x="32.42" y="0">e </tspan><tspan x="-14.95" y="14.4">Mys</tspan><tspan class="cls-6" x="4.34" y="14.4">t</tspan><tspan x="8.28" y="14.4">e</tspan><tspan class="cls-12" x="14.23" y="14.4">r</tspan><tspan x="18.62" y="14.4">y Plant</tspan></text><rect class="cls-4" x="349" y="331.62" width="72.2" height="72.2" rx="18.2" ry="18.2" transform="translate(372.81 -164.6) rotate(45)"/><text class="cls-5" transform="translate(358.45 359.41)">Compl<tspan class="cls-14" x="32.96" y="0">e</tspan><tspan class="cls-11" x="38.75" y="0">t</tspan><tspan class="cls-18" x="42.68" y="0">ed </tspan><tspan x="8.06" y="14.4">Mys</tspan><tspan class="cls-6" x="27.35" y="14.4">t</tspan><tspan x="31.29" y="14.4">e</tspan><tspan class="cls-12" x="37.24" y="14.4">r</tspan><tspan x="41.63" y="14.4">y </tspan><tspan x="2.61" y="28.8">Plant S</tspan><tspan class="cls-14" x="38.06" y="28.8">e</tspan><tspan class="cls-19" x="43.84" y="28.8">t</tspan><tspan x="47.59" y="28.8">?</tspan></text><rect class="cls-4" x="618.59" y="542.46" width="72.2" height="72.2" rx="18.2" ry="18.2" transform="translate(600.86 -293.48) rotate(45)"/><text class="cls-5" transform="translate(636.47 567.5)">Enough <tspan class="cls-20" x="3.38" y="14.4">P</tspan><tspan x="9.95" y="14.4">oints </tspan><tspan class="cls-6" x="-8.96" y="28.8">t</tspan><tspan x="-5.02" y="28.8">o Identify?</tspan></text><line class="cls-21" x1="448.9" y1="464.54" x2="448.9" y2="464.54"/><line class="cls-3" x1="472" y1="310.49" x2="472" y2="310.49"/><line class="cls-3" x1="540.3" y1="335.62" x2="540.3" y2="335.62"/><text class="cls-5" transform="translate(6.73 95.62)">Continues <tspan class="cls-6" x="53.36" y="0">t</tspan><tspan x="57.3" y="0">o </tspan><tspan class="cls-22" x="66.23" y="0">L</tspan><tspan x="71.85" y="0">oop</tspan></text><text class="cls-5" transform="translate(653.67 222.59)"><tspan class="cls-16">T</tspan><tspan x="5.5" y="0">a</tspan><tspan class="cls-23" x="11.64" y="0">k</tspan><tspan class="cls-24" x="17.36" y="0">es Pla</tspan><tspan class="cls-7" x="46.82" y="0">c</tspan><tspan x="52.04" y="0">e </tspan><tspan x="-10.48" y="14.4">Outside Game</tspan></text><text class="cls-25" transform="translate(223.47 185.97)"><tspan class="cls-26">Y</tspan><tspan x="5.4" y="0">es</tspan></text><text class="cls-25" transform="translate(376.22 313.52)"><tspan class="cls-26">Y</tspan><tspan x="5.4" y="0">es</tspan></text><text class="cls-25" transform="translate(284.63 222.59)">No</text><text class="cls-25" transform="translate(434.47 363.35)">No</text><text class="cls-25" transform="translate(586.53 572.93)"><tspan class="cls-26">Y</tspan><tspan x="5.4" y="0">es</tspan></text><text class="cls-25" transform="translate(644.41 523.83)">No</text><text class="cls-25" transform="translate(475.98 470.94)"><tspan class="cls-26">Y</tspan><tspan x="5.4" y="0">es</tspan></text><rect class="cls-4" x="508" y="457.53" width="72.2" height="72.2" rx="18.2" ry="18.2" transform="translate(508.41 -240.15) rotate(45)"/><text class="cls-5" transform="translate(521.74 490.37)">Identifies <tspan x="-13.18" y="14.4">Mys</tspan><tspan class="cls-6" x="6.12" y="14.4">t</tspan><tspan x="10.06" y="14.4">e</tspan><tspan class="cls-12" x="16.01" y="14.4">r</tspan><tspan x="20.4" y="14.4">y Plan</tspan><tspan class="cls-19" x="51.05" y="14.4">t</tspan><tspan x="54.79" y="14.4">?</tspan></text><text class="cls-25" transform="translate(551.32 440.85)">No</text><text class="cls-27" transform="translate(182.88 13.28)">“I want <tspan class="cls-6" x="47.54" y="0">t</tspan><tspan class="cls-28" x="52.16" y="0">o c</tspan><tspan class="cls-29" x="70.13" y="0">r</tspan><tspan x="75.04" y="0">aft a ga</tspan><tspan class="cls-6" x="122.86" y="0">r</tspan><tspan class="cls-28" x="127.77" y="0">den and </tspan><tspan x="0" y="19.2">know mo</tspan><tspan class="cls-6" x="57.9" y="19.2">r</tspan><tspan x="62.82" y="19.2">e about g</tspan><tspan class="cls-6" x="122.72" y="19.2">r</tspan><tspan x="127.63" y="19.2">owing plants</tspan><tspan class="cls-30" x="209.36" y="19.2">.</tspan><tspan x="211.07" y="19.2">”</tspan></text><polyline class="cls-31" points="38.03 171.84 40.65 189.28 56.04 185.97"/><polyline class="cls-31" points="159.79 342.22 170.09 327.69 156.34 320.02"/><polyline class="cls-31" points="139.75 70.41 143.75 85.46 159.15 82.15"/><polyline class="cls-31" points="307.43 225.56 317.73 211.03 303.98 203.36"/><polyline class="cls-31" points="447 222.96 457.8 211.29 447 200.76"/><polyline class="cls-31" points="396.06 281.97 384.39 271.17 373.86 281.97"/><polyline class="cls-31" points="662.16 481.74 650.49 470.94 639.96 481.74"/><polyline class="cls-31" points="226.67 154.24 209.06 151.64 208.45 167.38"/><polyline class="cls-31" points="630.88 331.77 647.81 337.3 651.06 321.89"/><polyline class="cls-31" points="729.38 429.17 746.31 434.7 749.56 419.3"/><polyline class="cls-31" points="727.16 537.03 729.86 554.63 745.08 550.58"/><polyline class="cls-31" points="580.36 540.34 562.71 537.96 562.29 553.7"/><polyline class="cls-31" points="577.33 427 578 409.2 562.29 410.31"/><polyline class="cls-31" points="515.67 330.25 519.38 312.83 503.71 311.23"/><polyline class="cls-31" points="420.03 444.46 402.23 443.8 403.4 460.25"/><polyline class="cls-31" points="595.26 225.56 613 224.01 609.77 207.61"/><text class="cls-25" transform="translate(91.61 333.12)">Gain <tspan class="cls-32" x="26.09" y="0">P</tspan><tspan x="32.88" y="0">oints</tspan></text></svg>