<?xml version="1.0" encoding="utf-8"?>
<!-- Generator: Adobe Illustrator 21.1.0, SVG Export Plug-In . SVG Version: 6.00 Build 0)  -->
<svg version="1.2" baseProfile="tiny" id="Layer_1" xmlns="http://www.w3.org/2000/svg" xmlns:xlink="http://www.w3.org/1999/xlink"
	 x="0px" y="0px" viewBox="0 0 627.9 626.9" xml:space="preserve">
<title>cubes</title>
<g id="Layer_1_1_">
	<path stroke="#231F20" stroke-miterlimit="10" d="M318,76.7c-2.3,1.7-4.8,3.1-7.4,4.4c-1.9,1-3.7,2-5.5,3.2c-5.4,3-10.9,5.9-16.2,9
		c-2,1.2-3.9,2.7-5.8,4c-0.4,0.3-0.8,0.6-1.3,0.8c-3.2,0.5-6.5,1.1-9.8,1.4c-4.8,0.5-9.7,1.1-14.5,1.1c-3.4,0-6.7,0.7-10,1
		c-2.8,0.4-5.7,1-8.4,1.8c-4.8,1.2-9.5,2.5-14.5,2.7c-1.1,0.1-2.2,0.5-3.3,0.5c-2.3,0.1-4.7,0.1-7,0.2c-0.9,0-1.9,0.2-3,0.3
		c0.3,6.3,0.8,12.5,1.6,18.6c0.5,3.6,0.8,7.3,1.2,11c0.2,2,0.6,3.9,0.8,5.9c0.8,9.3,1.6,18.6,2.4,28c0.1,1.2-0.4,2.5,0.7,3.8
		c1.3-0.2,2.8-0.4,4.2-0.6c2.9-0.4,5.8-0.8,8.8-1.1c2.3-0.3,4.5-0.6,6.8-0.8c2.1-0.2,4.3-0.3,6.4-0.5c3.9-0.3,7.8-1,11.7-1
		c4.9,0,9.7-0.4,14.6-0.9s9.4-1.2,13.6-1.7c1.1-1.2,1.8-2,2.5-2.9c0.3-0.4,0.5-0.8,0.5-1.3c-0.1-4.4-0.2-8.7-0.4-13.1
		c-0.1-5.4-0.8-10.7-2-15.9c-0.2-0.9-0.4-1.7-0.4-2.6c-0.1-4.8-0.5-9.5-1.2-14.2c-0.4-3.4-0.7-6.9-1-10.3c0-0.8-0.2-1.5-0.6-2.2
		c-1.2-1.4-0.3-3.2-1-4.6c-0.1-0.2,0.4-1,0.7-1.1c0.5,0,0.9,0.2,1.2,0.6c0.2,0.6,0.4,1.3,0.4,1.9c0.6,3.2,1.2,6.4,1.7,9.6
		c0.3,2.3,0.4,4.7,0.7,7c0.8,7,0.9,14,2.5,20.9c0.9,3.6,0.6,7.6,0.8,11.4c0.2,4.5,0.5,8.9,0.8,13.8c1.3-0.7,2.4-1.2,3.3-1.8
		c5.1-3.5,10.3-7.1,15.4-10.7c2.7-1.9,5.5-3.7,8.3-5.5c0.5-0.3,0.9-0.7,1.4-1l12.4-8.5c0.2-0.5,0.3-1,0.5-1.6c0.1-0.5,0.1-1,0-1.5
		c-0.2-0.6-0.7-1.2,0.2-1.7c0.1,0,0.1-0.4,0-0.5c-1.5-2.5-0.8-5.3-0.9-7.9c-0.1-1.7,0.5-3.4,0-5.2c-0.1-0.7-0.1-1.5,0.1-2.2
		c0.4-2.2,0.5-4.4,0.2-6.6c-0.1-1.6,0-3.2,2.2-4c-0.2,3.7-0.4,7.3-0.6,10.8c0,0.3-0.2,0.6-0.2,0.9c0.7,4-0.2,8,0.3,12
		c0.2,1.7,0,3.4,0.8,5.1c3,0.3,6.1,0.3,9.1-0.2c3.6-0.7,7.3-0.9,11-1.4c3.1-0.4,6.3-1,9.4-1.5c2.8-0.4,5.5-0.8,8.3-1.2
		s5.8-1,8.7-1.6c1.9-0.5,3.9-0.8,5.9-1.1c2,0,4.1,0.1,6.1,0.4c0.9,0.1,1.7,0.1,2.6,0c2.3-0.5,4.5,1,4.9,3.3c0,0.1,0,0.3,0.1,0.4
		c0.3,3.6,0.5,7.2,0.9,10.8c0.1,1.1,0.4,2.2,0.6,3.3c0.1,0.5,0.2,1,0.3,1.5c0.4,3.5,0.8,7,1.1,10.5c0.3,2.9,0.5,5.7,0.9,8.6
		c0.4,3,1,6.1,1.5,8.9c4,1.2,7.9,0.4,11.7,0.3c2.2-0.1,4.4-0.7,6.6-0.9c2.8-0.2,5.5-0.8,8.3-0.1c1.2,0.2,2.4,0.2,3.5,0
		c1.9-0.3,3.8-0.1,5.5,0.7c1.6,0.6,2.7,2,2.7,3.7c0.4,3.8,0.8,7.6,1.2,11.3c0.1,0.7,0.3,1.3,0.3,2c0.2,1.5,0.3,3,0.3,4.5
		c0,3.6,0.3,7.3,0.7,10.9c1.1,0.1,2.3,0.1,3.4,0c3.6-0.6,7.3-0.8,11-0.5c0.5,0,1,0,1.5-0.1c2.7-0.3,5.4-0.6,8.1-0.8
		c4.1-0.1,8.2-0.5,12.3-1.1c3.8-0.6,7.8-0.7,11.7-1.1c3-0.3,6-0.6,9-0.8c1-0.1,2.1,0.1,3.1,0.1c3.4-0.2,6.8-0.5,10.2-0.6
		c0.9,0,1.8,0,2.6,0c1.4,0,2.8-0.1,4.2-0.2c2.9-0.2,5.8-0.3,8.8-0.5c0.8,0,1.6-0.1,2.4-0.2c0.4-0.1,0.9-0.2,1.3-0.2
		c3.4,0.7,6.8-0.3,10.2,0c2.4,0.2,4.8,0.4,7.2,0.7c1.8,0.1,3.5,0.9,4.8,2.1c0,0,0.1,0.2,0.2,0.1c3-0.5,2.9,2.3,3.7,3.8
		c1.7,3.5,2.9,7.2,3.6,11c0.1,0.4,0.2,1,0.4,1.1c1.7,0.5,1.1,1.7,0.6,2.5c-1.2,2.1-2.6,4.1-3.9,6.1c-1.6,2.5-3.4,4.9-4.8,7.5
		c-2,3.5-4.4,6.8-7,9.8c-1.6,1.9-2.9,4.2-4.4,6.2c-1.8,2.4-3.7,4.7-5.5,7.1c-0.1,0.2-0.4,0.3-0.5,0.5c-1.9,3.6-5,6.2-7.6,9.3
		c-2.8,3.5-5.5,7-8.3,10.5c-0.7,1.1-1.7,1.8-2.9,2.1c-1.1,0.4-2.1,1.1-2.8,2c-2.1,2.2-4.4,4.1-6.4,6.4c-1.4,1.7-3.5,2.9-5.2,4.4
		c-1.3,1.1-2.5,2.3-3.9,3.3c-2.9,2.1-5.8,4.3-8.8,6.2c-2.7,1.6-5.4,3-8.3,4.1c-1.9,0.8-2.6,1.6-2.6,3.7c0,2.4,0.6,4.8,0,7.2
		c-0.6,2.8-2,4.7-4.9,5.2c-3.2,0.7-6.5,1.2-9.8,1.4c-3.4,0-6.8,0.3-10.2,0.5c-0.6,0-1.2,0-1.8-0.1c-1.2,0-2.3-0.5-3.5-0.1
		c-1.1,0.3-2.3,0.4-3.5,0.5c-1.9,0.3-2.3,0-2.8-1.9c-0.5-2.4-1.5-4.6-0.8-7.2c-0.4-0.1-0.6-0.3-0.9-0.3c-2.5,0.4-4.9,0.8-7.4,1.1
		c-4.5,0.7-8.9,1.3-13.4,1.9c-3.7,0.5-7.4,1-11.1,1.5c-5.7,0.7-11.4,1.5-17.1,2.1c-2,0.2-4.1,0.3-6.1,0.5c-0.4,0-0.9,0-1.3,0.1
		c-2.6,0.9-5.4,0.8-8.1,1c-2.2,0.1-4,1.1-3.7,3.8c0.2,1.9,0.3,3.8,0.4,5.7c-0.1,3.3-0.3,6.6-0.5,9.9c-0.1,1.1-0.2,2.2-0.2,3.3
		c0.2,4.2,0,8.5,0.7,12.8c0.3,2-0.1,4.1,0,6.1c0.1,4.9,0.2,9.9,0.3,14.8c0,0.9,0.6,2.1-1,2.7c-0.8-0.8-1.5-1.6-0.9-3
		c0.1-0.3,0.2-0.6,0.2-0.9c-1.1-3.5-0.5-7-0.6-10.5c-0.1-4.4,0.2-8.8-0.2-13.2c-0.2-3.3-0.2-6.7,0.2-10c0.5-6,0.9-12-0.1-17.9
		c0,0-0.1-0.1-0.4-0.3c-2.2,1.6-4.5,3.3-6.7,4.9c-1.7,1.2-3.4,2.3-5.1,3.5l-9.1,6.2c-0.1,0.1-0.2,0.2-0.4,0.2
		c-2.6,0.6-3.2,2.2-2.9,4.8c0.4,3.3,0.2,6.6,0.4,9.9c0.2,3.8,0.6,7.5,0.8,11.2c0.1,1.4-0.1,2.8-0.2,4.2c-0.1,2.4-0.2,4.9-0.3,7.3
		c-0.1,1.6-0.2,3.2-0.2,4.9c0,3.2,0,6.3,0,9.5c0,0.2,0.2,0.4,0.4,0.6c8-4,15.8-8.7,23.1-13.9c0.3,1.3,0.2,2.1-0.5,2.8
		c-0.3,0.3-0.6,0.5-0.9,0.7c-3.9,2.4-7.7,4.8-11.6,7.1c-3.3,1.9-6.9,3.4-10,5.5c-2.5,1.7-5.1,1.8-7.9,2c-1.1,0.1-2.2,0.2-3.3,0.3
		c-3.9,0.3-7.8,0.5-11.7,0.8c-1.5,0.1-3.1,0.4-4.6,0.5c-2.5,0.1-5,0-7.5,0c-3.7,0.1-7.4,0.3-11,0.4c-2.1,0.1-4.2,0-6.6,0l0.4-1.9
		c16.7-0.4,33.2-1.3,50-2.5c0.1-2.6,0.2-5.2,0.2-7.9c0.1-6.1-0.1-12.2,0.4-18.2c0.3-3.4,0.1-6.9-0.6-10.3c-0.1-1.3-0.2-2.7-0.1-4
		c-0.1-2.9-0.1-5.8-0.3-8.8c-0.2-0.8-0.6-1.6-1-2.4l0.4-2c-1.3,0-2.4,0-3.5,0c-7.7,0.1-15.4,0.3-23.1,0.5c-3.2,0.1-6.4,0.5-9.6,0.7
		H311c-3.1,0.3-6.3,0.6-9.4,0.9c-1.5,0.1-3.1,0.4-4.6,0.5c-0.6,0-1.2-0.1-1.7-0.2c-0.1-0.8,0.4-1.6,1.3-1.7c0.1,0,0.1,0,0.2,0
		c1.1-0.1,2.2-0.1,3.3-0.3c2-0.2,3.9-0.5,5.9-0.7c2.5-0.2,5-0.5,7.5-0.6c5-0.3,10-0.6,15-0.7c6.4-0.2,12.8-0.3,19.2-0.4
		c0.9,0.2,1.7,0.4,2.5,0.9c8.3-4.9,16.4-11,24.5-17.1c0.3-0.2,0.4-0.7,0.8-1.4c-0.7-0.2-1.5-0.3-2.3-0.3c-2,0.2-3.9,0.5-5.9,0.7
		c-1.5,0.1-3.1,0.2-4.6,0.4l-11.5,1c-3,0.3-6,0.6-9,0.8c-4.7,0.3-9.4,0.6-14.1,0.8c-1.6,0-3.2,0.5-4.6,1.3c-3.4,2-7,3.7-10.5,5.6
		c-4.5,2.4-8.9,4.9-13.3,7.4c-0.7,0.5-1.5,0.9-2.3,1.2c-0.6,0.1-1.2,0.1-1.7,0c0.4-1.2,1.3-2.1,2.5-2.5c2.4-1.2,4.8-2.4,7.2-3.7
		c2-1.1,4-2.4,6.5-3.8c-1.4,0-2.3,0-3.2,0c-3.3,0.2-6.6,0.5-9.9,0.8c-3.1,0.2-6.3,0.3-9.4,0.4c-1,0-1.9-0.3-2.9-0.2
		c-2.1,0.1-4.1,0.3-6.2,0.4c-3.2,0.2-6.5,0.4-9.7,0.5c-0.8,0-1.6-0.1-2-1.2c0.3-0.1,0.6-0.4,0.9-0.5c5.2-0.4,10.5-0.8,15.7-1
		c2.3-0.1,4.6,0.1,6.8,0c5.2-0.2,10.5-0.6,15.7-0.9c2.6-0.1,5.2-0.2,7.7-0.6c1.3-0.4,2.6-1,3.8-1.7c1.8-0.9,3.5-2,5.3-2.8
		c1.4-0.6,2.8-0.8,4.3-0.8c3.3,0,6.6-0.3,9.9-0.5c1.3-0.1,2.6-0.2,4-0.3c5.4-0.5,10.8-1,16.1-1.4c1.7-0.1,3.4-0.2,5.1-0.3
		c2.1-0.2,4.2-0.5,6.4-0.6c1.9-0.1,3.8,0,5.7,0c0.1,0,0.2,0,0.2,0c2.2,2.5,4.9,0.9,7.2,0.7c4.8-0.2,9.5-1.1,14.2-1.6
		c1.2-0.1,2.5-0.2,3.7-0.5c5.4-1,10.8-1.2,16.2-1.8c2.9-0.3,5.8-1,8.7-1.4c5.4-0.8,10.8-1.4,16.1-2.2c4.6-0.7,9.2-1.5,13.9-2.4
		c5.1-0.9,10.1-1.9,15.2-2.9c3.3-0.7,6.5-1.8,9.9-2.4c5.3-1,9.6-4.1,14-6.8c2.3-1.6,4.5-3.3,6.6-5.1c2.2-1.8,4.5-3.5,6.7-5.4
		c1.6-1.5,3.1-3.2,4.7-4.7c1.9-1.8,3.8-3.4,5.9-5c2.1-1.5,4-3.3,5.6-5.3c2.6-3.2,5.1-6.4,7.8-9.6c2.3-2.9,4.8-5.5,7.1-8.5
		c2.4-3.1,4.4-6.4,6.7-9.6c0.8-1,1.6-2,2.5-3c2.7-3.1,5.2-6.4,7.3-9.9c2.1-3.5,4.4-6.9,6.6-10.4c0.5-0.7,0.9-1.5,1.4-2.4
		c-1.8-1-1.8-2.6-1.9-4.3c-0.1-2.1-0.8-4.2-1.8-6c-0.6-1.2-1.1-2.4-1.5-3.6c-0.3-0.5-0.6-1-1-1.5c-1.6,3.5-3.2,6.8-4.8,10
		c-1.8,3.8-3.6,7.7-5.7,11.3c-1.8,3.1-4,6-6,8.9c-1.4,2-2.8,4-4.1,6.1c-1.1,1.7-2.2,3.4-3.4,5.1c-0.3,0.3-0.6,0.6-1,0.8
		c-1.1,0.7-2.1,1.6-2.7,2.8c-0.3,0.5-0.7,1-1.1,1.4c-1.2,1.4-2.3,2.8-3.6,4.2c-0.8,0.9-1.8,1.7-2.7,2.6c-1.3,1.1-2.4,2.3-3.5,3.6
		c-1.2,1.6-2.6,3.2-4.2,4.5c-1.8,1.9-3.6,3.9-5.4,5.8c-2.1,2.1-3.9,4.3-5.7,6.7c-1.5,1.9-3.1,3.7-4.9,5.4c-1.7,1.8-3.3,3.7-5.1,5.4
		s-3.7,3.3-6.2,3.9c-0.3,0.1-0.5,0.3-0.8,0.5c-2.3,1.5-5,2.3-7.8,2.5c-0.5,0-1,0.5-1.5,0.6c-3.5,0.5-6.8,2.1-10.4,1.8
		c-0.7,0.1-1.3,0.2-1.9,0.4c-3.3,0.6-6.5,1.2-9.8,1.7c-2.8,0.4-5.7,0.6-8.6,1c-5.4,0.9-10.7,1.9-16.1,2.8c-1.6,0.3-3.2,0.2-4.9,0.3
		s-3.5,0.4-5.2,0.6s-3.2,0.4-4.8,0.5c-3.5,0.4-7,1.1-10.4,1.2c-2.8-0.1-5.6,0.1-8.3,0.6c-0.7,0-1.5-0.1-2.2-0.2c-2,0-3.9,0-6.1,0
		c0.3-0.4,0.5-0.9,0.8-0.9c1.4-0.5,2.8-0.8,4.3-0.8c2.2,0.3,4.5,0.2,6.8-0.3c0.1,0,0.1-0.1,0.2-0.1c5,0.4,10-0.9,15-1
		c1.4-0.1,2.8-0.2,4.1-0.5c3.5-0.4,7-0.8,10.5-1.3c1.8-0.2,3.7-0.5,5.5-0.8c4.7-0.8,9.5-1.6,14.2-2.4c2.4-0.4,4.8-0.8,7.2-1.1
		c4.2-0.6,8.5-1.1,12.7-1.6c1-0.1,1.9-0.3,2.8-0.5c3.3-0.8,6.7-1.4,9.9-2.4c2.1-0.6,4.1-1.6,6-2.8c4.4-3,7.9-6.7,11.3-10.6
		c3-3.4,5.7-7,8.8-10.3c2.5-2.6,5.2-5,7.6-7.6c2.8-3,5.4-6.3,8.2-9.3c2.2-2.4,4.6-4.5,6.7-6.9c1.4-1.7,2.8-3.5,4-5.3
		c3.3-4.7,6.7-9.4,9.9-14.2c1.1-1.8,2.1-3.6,3-5.5c0.6-1.2,1.2-2.4,1.8-3.6c1.2-2.3,2.4-4.5,3.5-6.8c0.8-2,1.6-4.1,2.1-6.3
		c0.4-1.2-0.3-2.5-1.5-2.9c-0.1,0-0.2-0.1-0.3-0.1c-0.8-0.3-1.7-0.5-2.6-0.6c-3-0.3-6-0.7-9-0.9c-1.7-0.1-3.3,0.2-5,0.3
		c-3.7,0.2-7.5,0.2-11.2,0.4c-4,0.2-8.1,0.6-12.1,0.9c-1.3,0.1-2.6,0.1-3.9,0.1c-2.4,0.1-4.9,0.2-7.3,0.3c-3.2,0.2-6.3,0.4-9.5,0.7
		c-4,0.3-8,0.7-12.1,1.1c-3.3,0.3-6.6,0.5-9.9,0.8c-2.7,0.2-5.4,0.4-8.1,0.6c-2.1,0.1-4.2,0.1-6.4,0.2c-1.3,0.1-2.6,0.2-3.9,0.4
		l-7.6,0.8c0.2,2.6,0.5,5.3,0.7,8.1s0.5,5.3,0.6,8c0.2,4.7,0.3,9.3,0.5,14c0.2,5.2,0.4,10.3,0.5,15.5c0,1.1,0.9,2.3-0.1,3.1
		c-0.8,0.6-2,0.4-2.9,0.8c-2.5,1-5,2.1-7.4,3.3c-3.3,1.9-6.7,3.6-10.1,5.4c-0.8,0.4-1.6,0.7-2.4,1.1c-1.6,1.1-3.4,2-5.3,2.8
		c-1.2,0.6-2.3,1.3-3.4,2.1c-0.9,0.5-1.8,1.1-2.8,1.7l-0.2,1.9c-0.3-0.1-0.5-0.1-0.6-0.2c-1-1.4-1-1.4-2.3-0.6
		c-2.2,1.4-4.3,2.8-6.9,3.3s-4.2,2.3-6.4,3.3c-1.7,0.7-3.2,1.9-4.8,2.7c-3.9,1.8-7.8,3.5-11.6,5.3c-2.5,1.1-4.9,2.3-7.3,3.6
		c-2.4,1.2-4.7,2.6-7.4,4l-0.6,1.7c-1.7,0.2-3.4,0.3-5,0.6c-4.2,0.6-8.4,1.4-12.6,1.7c-5.1,0.4-10,1.8-15,2.4c-2.3,0.3-4.7,0.5-7,1
		c-5.5,1.1-11,1.8-16.5,2.1c-2,0.2-3.9,0.6-5.9,0.9c-0.9,0.1-1.7,0.5-2.3,1.1c-0.5,0.6-1.1,0.5-2,0c-2.1-1.3-3.4-3.6-3.5-6.1
		c-0.2-1.8-0.2-3.5-0.4-5.3c-0.4-2.9-1.1-5.7-1.2-8.5c-0.2-4.8-1.6-9.4-2.1-14.1c-0.4-4.4-1.1-8.9-1.8-13.3c-0.6-4-1.3-8-1.8-11.9
		c-0.3-2.4-0.4-4.9-0.5-7.3c-0.1-1-0.2-2-0.2-2.8c-3.4,0.2-6.7,0.7-10,0.6c-3.4-0.1-6.5,1.9-9.9,1c-0.3,1.1-0.5,2-0.7,3
		c-0.1,0.4-0.1,0.9,0,1.3c1.1,4.8,1.7,9.6,1.8,14.5c0.1,2.6,0.5,5.1,0.9,7.7c0.2,1.7,0.6,3.3,0.7,5c0.1,0.9-0.1,1.7-0.5,2.5
		c-1.1,2.2-2.8,4.2-4.8,5.7c-3,2-5.7,4.4-8.7,6.5c-1.8,1.3-3.9,2.4-5.8,3.6c-0.7,0.5-1.4,1-2.1,1.5c-4.5,3-9.3,5.6-14.4,7.7
		c-0.6,0.2-1.2,0.6-1.8,0.9v3.4c-2.7,1.6-5.5,1.9-8.3,2.5c-4.9,1-9.8,2-14.7,3.1c-2.2,0.5-4.3,1-6.5,1.4c-0.8,0.1-1.6,0.1-2.4,0
		c-3.4,0-6.8,0.3-10.1,0.9c-2.7,0.6-5.6,0.4-8.3,0.9c-4,0.7-7.9,0.5-11.9,0.5c-1.5-0.1-2.9-0.3-4.4-0.6c-0.6-0.1-1.1-0.4-1.5-0.9
		c-1.1-1.6-2.6-2.9-3-5s-1-4.3-1.4-6.5c-0.6-2.8-1-5.6-1.5-8.5c-0.4-2.4-1.1-4.7-1-7.1c0-0.6-0.6-1.1-0.7-1.8
		c-0.3-1.3-0.4-2.6-0.6-3.9c-0.9-5.5-2-10.9-2.2-16.4c-0.1-3-0.3-6-0.5-9c0-0.6,0-1.3,0-2.1c-2.4-0.3-4.8-0.3-7.2,0
		c-2,0.1-3.9,0.5-5.9,0.7c-5.1,0.5-10.3,1.1-15.4,1.6l-1.8,0.2c-2.4,0.2-4.7,0.3-7.1,0.6c-3.3,0.4-6.6,1-9.8,1.2
		c-1.7,0.2-3.3,0-4.9-0.6c-0.9-0.6-2-0.8-3.1-0.5c-0.7-2-1.4-3.8-2-5.6c-0.6-2-1-4-1.4-6c-0.5-3.1-0.8-6.3-1.1-9.4
		c-0.2-2.2-1.3-3.2-3.3-2.3c-0.9,0.3-1.8,0.4-2.7,0.3c-2.2,0.1-4.4,0.2-6.6,0.3c-0.9,0-1.7-0.1-2.6-0.2c0.1-1.4,0.5-2,1.7-1.6
		c0.5,0.1,1,0.2,1.5,0.1c3.7-0.3,7.3-0.6,11.2-1c0.1-0.9,0.2-1.8,0.2-2.8c-0.3-3-0.6-6-0.9-8.9c-0.5-4.2-0.9-8.5-1.4-12.7
		c-0.2-1.9-0.3-3.8-0.5-5.7c-0.2-2.3-0.5-4.6-0.7-6.9c-0.2-2.1-0.4-4.2-0.6-6.3c-0.2-1.4-0.4-2.8-0.6-4.1c-0.4-1.8-0.6-3.6-0.7-5.4
		c-0.1-2.4-0.3-4.8-0.7-7.1c-0.5-4.7-1.1-9.4-1.7-14c-0.2-1.4-0.2-2.8-0.4-4.2c-0.4-3.4-0.4-6.9-1.2-10.2c-1-4.4-1-8.8-1.4-13.1
		c-0.3-2.9-0.7-5.9-1.1-8.8c-0.3-1.1-0.7-2.2-1.2-3.2c0.8-1,1.6-2.4,3.3-3.1s3.2-2.3,5-3.1c4.6-2.3,9.1-4.8,13.9-6.6
		c3.4-1.2,6.6-2.9,9.4-5.2c3-2.5,6.1-4.8,9.4-6.9c3.1-2,6.7-3.1,10.5-3.3c3.3-0.2,6.6-0.6,9.9-1.1c3.3-0.6,6.7-0.7,10.1-1.1l16-1.6
		c2.8-0.3,5.4-0.2,7.8,1.6c0.2,0.1,0.4,0.3,0.6,0.3c1.3,0,1.5,0.8,1.7,1.9c0.3,2.1,0.8,4.2,1.1,6.3c0.5,3.3,1,6.7,1.4,10
		c0.6,5.4,1.2,10.7,1.8,16.1c0.7,6,1.4,12,2.1,18c0.5,4.7,0.9,9.5,1.4,14.3c3.4-0.6,6.7-1.2,9.9-1.7c2-0.3,4.1-0.5,6.1-0.7
		c4.2-0.5,8.4-1.1,12.9-1.6c-0.4-4.1-0.9-7.9-1.3-11.7c-0.9-8.1-1.9-16.2-2.8-24.3c-0.2-2.1,0.1-4.2,0.1-6.4
		c-0.1-0.6-0.3-1.1-0.6-1.7c1.6-2.1,3.7-3.6,6.2-4.4c1.4-0.6,2.8-1.3,4.1-2.2c5.4-3.2,10.7-6.5,16.1-9.6c4.5-2.6,9.2-4.8,13.7-7.3
		c3.2-1.8,6.1-4,9.2-6c1.1-0.7,2.2-1.2,3.4-1.6c3.2-1.2,6.5-1.9,9.9-2.1c2.6-0.1,5.1-0.6,7.7-0.9c2.8-0.3,5.5-0.5,8.3-0.8
		c3.8-0.4,7.6-0.9,11.4-1.4c1.1-0.1,2.2-0.2,3.3-0.3c1.7-0.3,3.4-0.8,5.2-1c3-0.4,6.1-0.5,9.1-0.9c2.8-0.3,5.6-0.8,8.3-1.3
		c1-0.4,2.1,0.1,2.4,1.1c0,0,0,0.1,0,0.1c-0.6,0.3-1.2,0.6-1.9,0.7c-3.8,0.5-7.6,0.8-11.4,1.3c-5.2,0.7-10.5,1.5-15.7,2.1
		c-3.2,0.4-6.5,0.5-9.7,0.8c-1.4,0.1-2.8,0.2-4.1,0.4c-1.9,0.5-3.9,0.6-5.9,0.4c-0.5-0.1-1,0-1.5,0.1c-3.9,0.7-7.7,1.3-11.6,2.1
		c-1.6,0.3-3.1,0.8-4.5,1.6c-3.3,1.9-6.5,4.1-9.8,6c-2.9,1.7-5.8,3.2-8.7,4.8c-3.5,1.9-7,3.7-10.4,5.7c-3.9,2.2-7.7,4.6-11.6,7
		c-0.6,0.4-0.9,1.1-1.4,1.5s-1.2,1.1-1.7,1.1c-1.3-0.2-2.1,0.6-3.1,1.5c2.7-0.2,5.4-0.4,8-0.7c1.1-0.1,2.3-0.4,3.4-0.4
		c4.9-0.4,9.6-1.6,14.3-2.8c5.2-1.2,10.4-2.3,15.7-2.4c1.9,0,3.8-0.4,5.7-0.5c4.1-0.3,8.2-0.6,12.3-0.9c3.2-0.3,6.5-0.2,9.3-2.2
		c0.9-0.6,1.8-1.3,2.7-1.9c5.3-3.6,11.3-6,16.8-9.3c2.8-1.7,5.6-3.5,8.5-5c1.8-0.9,3.4-2.4,5.5-2.5L318,76.7z M287,168.9
		c1.2-0.1,2-0.2,2.8-0.4c4.2-0.8,8.5-1.8,12.7-2.5c3.5-0.6,6.8-1.9,10.3-2.2c6.6-0.6,13.1-1.5,19.7-1.9c4.6-0.3,9.1-1,13.7-1.5
		c1-0.1,2-0.6,3-0.6c2.1-0.1,4.3-0.2,6.4-0.2c0.7,0,1.3-0.3,1.7-0.8c0.9-1,1.9-1.9,3-2.7c4.1-3,8.3-5.9,12.4-8.9
		c2.7-1.9,5.2-4.1,7.9-6s5.4-3.6,8-5.4c1.6-1.1,3.2-2.2,4.8-3.2c0.4-0.2,0.8-0.3,1.2-0.3c0.2,0.9-0.3,1.7-1.1,2.1
		c-0.9,0.5-1.9,1.1-2.8,1.7c-2.4,1.8-4.7,3.7-7.2,5.4c-1.4,0.9-3.2,1.3-4.4,2.4c-3.1,3-6.7,5.2-10.1,7.7c-1.6,1.2-3.4,2.3-5,3.5
		c-1.4,0.8-2.7,1.7-3.9,2.8c-2,2.2-3.8,4.7-5.6,7.1c-0.2,0.3-0.1,0.8-0.1,1.2s0.2,0.7,0.1,0.8c-1.2,0.8-0.6,2-0.5,3
		c0.4,4.8,0.8,9.6,1.3,14.4c0.4,3.9,0.9,7.8,1.2,11.6c0.4,3.2,0.5,6.3,0.6,9.5c-0.1,2.3,0,4.6,0.2,6.9c0.4,4.9,0.3,9.7,0.2,14.5
		c0,1.4,0.3,2.8,0.9,4c16.1-7.7,31.6-16.7,46.2-27c-0.4-3.6-0.9-6.9-1.2-10.3s-0.3-6.9-0.5-10.4s-0.6-6.8-1-10.1
		c-0.6-4.8-1.2-9.5-1.8-14.3c-0.3-2.6-0.5-5.1-0.8-7.7c-0.2-1.4-0.4-2.8-0.6-4.1c-0.2-2-0.5-3.9-0.7-5.9c-0.3-1.3-0.4-2.6-0.4-3.9
		c0-1.3-0.1-2.6-0.4-3.8l-1.9,1.6l-0.4-0.2c0.2-0.6,0.3-1.2,0.5-1.8c0.7-1.8,0.4-2.4-1.4-2.4c-1.4-0.1-2.9-0.1-4.3-0.3
		c-4.1-0.5-8.1,0.6-12.1,0.8c-3.5,0.3-6.9,0.9-10.4,1.6c-4.6,0.7-9.1,1.5-13.7,2.2c-2.8,0.4-5.7,0.7-8.6,1s-5.9,0.7-8.8,1.2
		c-1.6,0.2-3.2,0.6-4.7,1.3c-1.8,1.1-3.6,2.2-5.3,3.5c-3.3,2.2-6.5,4.5-9.8,6.6c-1.4,0.9-2.9,1.7-4.3,2.7c-4.3,3-8.5,6.2-12.7,9.2
		c-1.7,1.2-3.5,2.5-5.3,3.6c-2,1.2-4.1,2.3-6.1,3.5C287.7,167.6,287.5,168.1,287,168.9L287,168.9z M355.9,231.4
		c-0.2-6.3-0.5-12.6-0.5-19c0-4-0.2-7.9-0.6-11.9c-0.6-4.6-0.8-9.2-1.2-13.8c-0.2-3-0.4-6-0.8-8.9c-0.6-3.7-0.4-7.5-0.6-11.2
		c-0.1-0.9,0.2-1.7,0.9-2.3c0.8-0.9,1.4-1.8,2-2.9c-1.9-0.2-3.9-0.1-5.8,0.2c-4.8,0.7-9.5,1.2-14.3,1.7c-1.7,0.2-3.4,0.2-5.1,0.4
		c-2.9,0.3-5.8,1.3-8.8,0.5c-0.2,0-0.4,0-0.6,0.1c-1.7,1-3.5,0.9-5.4,1c-3.1,0.2-6.2,0.2-9.2,1.6c-1,0.4-2,0.7-3,0.9
		c-4.9,1-9.9,1.9-14.8,2.8c-0.8,0.1-1.5,0.2-1.9-0.7c-0.5-1.1-1.1-0.6-1.8-0.3c0.2,1,0.4,1.8,0.4,2.7c0.2,2.2,0.2,4.4,0.5,6.6
		c0.7,7.3,1.7,14.5,1.9,21.8c0,1.8,0.3,3.7,0.2,5.5c-0.3,5.4-0.2,10.9,0.5,16.3c0.3,2.4,0.5,4.8,0.7,7.2c0.2,3.1,0.4,6.3,0.5,9.6
		c0.3,0.1,0.6,0.1,0.8,0.1c2.4-0.5,4.9-0.6,7.3-0.1c0.7,0.1,1.5,0,2.2-0.1c2.6-0.2,5.2-1,7.9-0.4c0.3,0.1,0.6,0.1,0.9,0
		c2.6-0.2,5.1-0.5,7.7-0.8c5-0.7,10.1-1.4,15.1-2.1c1.7-0.2,3.4-0.4,5.1-0.6c2.3-0.3,4.7-0.6,7-1c3.5-0.6,6.9-1.4,10.4-1.8
		C354.4,232.3,355.3,232,355.9,231.4L355.9,231.4z M215.4,174.4l-4.7,0.5c-0.8,0.1-1.6,0.2-2.4,0.3c-2.2,0.2-4.4,0.3-6.6,0.6
		c-3.6,0.6-7.2,1.4-10.8,1.9c-4,0.5-8.1,0.8-12.1,1.2c-3.6,0.3-7.3,0.5-10.9,1.1c-3,0.4-6,0.6-9,0.5c-3,0-5.9,0.7-8.6,2
		c0.2,3.4,0.5,6.8,0.7,10.1c0.4,5.4,0.9,10.7,1.3,16.1c0.2,2.8,0.2,5.6,0.4,8.3s0.6,5.4,0.9,8.1c0.6,4.7,1,9.4,0.9,14.1
		c0,3.2,0,6.5,0.1,9.7c0.1,0.7,0.2,1.5,0.4,2.2c1.9-0.2,3.5-0.5,5.1-0.6c4.1-0.3,8.2-1.5,12.4-1c0.7,0.1,1.3,0,2-0.1
		c4.3-0.6,8.6-1.2,12.9-1.8c6.5-0.9,12.9-2.2,19.5-2.5c2.7-0.1,5.4,0.2,8.2,0.2c2.2,0,4.5-0.3,6.6-0.5c0-1.7,0-3.2,0-4.7
		s0.1-2.9,0-4.4c-0.4-5.6-0.9-11.2-1.4-16.9c-0.1-1.2-0.1-2.5-0.2-3.7c-0.3-3.4-0.7-6.9-1-10.3c-0.4-6.6-1.1-13.2-2.2-19.8
		c0-0.2,0-0.4,0-0.7c-0.3-2.5-0.5-5-0.8-7.5C215.9,176.1,215.7,175.2,215.4,174.4L215.4,174.4z M289.4,241.2c0.2,2.5,0.3,4.8,0.5,7
		c0.4,3.7,0.7,7.3,1.2,11c0.4,2.8,1,5.5,1.4,8.3c0.9,5.6,1.7,11.2,2.5,16.8c0.5,3.6,1,7.1,1.5,10.7c0.3,2.4,0.4,4.8,0.6,7.2
		c0.2,2,0.3,4,2.1,5.6c1.2-0.3,2.5-0.4,3.7-0.5c5-0.2,9.8-1.7,14.9-1.8c4.2-0.1,8.4-1.1,12.6-1.9c5.6-1.1,11.3-2.3,17-2.8
		c4-0.4,8-1,12.1-1.6c1.3-0.2,2.5-0.6,3.8-0.9c-3.3-21.2-6.5-42.2-8.5-63.7c-0.8-0.1-1.5-0.1-2.3,0c-0.9,0.1-1.9,0.4-2.8,0.5
		c-1.7,0.2-3.5,0.1-5,0.6c-4.5,1.7-9.2,1.4-13.8,2.3c-2.9,0.6-5.8,0.6-8.8,1.1c-4.2,0.7-8.4,1.1-12.6,1.6c-1.1,0.2-2.2,0.2-3.3,0
		c-1.2-0.3-2.4-0.3-3.6,0c-2,0.3-4.1,0.5-6.1,0.3C294.2,241,291.7,241,289.4,241.2L289.4,241.2z M155.1,253
		c-0.1,0.2-0.2,0.5-0.2,0.8c0.2,5.1,0.4,10.2,0.5,15.3c0,0.2,0,0.4,0.1,0.6c1.1,6.4,2.2,12.9,3.4,19.3c1.1,6.1,2.2,12.2,3.6,18.2
		c0.9,3.9,2.8,5.9,7.1,5.9s8.9,0.4,13.2-0.8c0.7-0.1,1.3-0.1,2-0.1c1.5-0.1,3-0.1,4.4-0.2c2.4-0.5,4.8-0.8,7.2-1
		c4.4-0.2,8.8-0.7,13.1-1.6c2.7-0.5,5.3-1.3,8-1.8c3-0.6,6.1-1,9.1-1.6c1.3-0.2,2.5-0.8,3.5-1.7l-1.3-1.1c0.1-0.9,0.1-1.8,0.1-2.7
		c-0.6-3.3-1.4-6.6-2-10c-0.6-3.1-1.5-6.1-1.7-9.3c-0.3-3-0.4-5.9-0.4-8.9c0-1.8-0.2-3.6-0.4-5.3c0-0.6,0.3-1.4,0.1-2
		c-0.9-2.2-0.5-4.6-0.9-6.9c-0.6-3.6-1-7.3-1.5-11.2c-1.7,0-3.3,0-4.9,0s-3.2,0.2-4.9,0.2c-2.6,0.1-5.3-0.1-7.9,0.2
		c-1.4,0.1-2.7,0.4-3.8-0.3c-0.5,0.4-1.1,0.7-1.7,0.9c-4.9,0.9-9.9,1.2-14.8,2.1c-4.6,0.9-9.4,1.1-14.2,1.5c-2.3,0.2-4.7,0.4-7,0.6
		C160.3,252.3,157.7,252.7,155.1,253z M445.7,256.2c-0.1-1.2-0.2-2.7-0.3-4.1c-0.1-2.7-0.1-5.4-0.2-8.1c-0.1-3-0.1-6-0.1-9
		c-0.1-3.8-0.2-7.6-0.5-11.4c-0.4-5.2-1.1-10.4-1.5-15.6c-0.4-4.1-0.7-8.3-0.9-12.5c-0.3-3.6-0.9-7.2-1.9-10.6
		c-0.2-1.1-0.8-1.3-1.8-0.8s-2,1.4-3.1,2c-2.3,1.2-4.4,2.6-6.6,4c-1.9,1.5-4.2,2.2-6,3.9c-1.1,1-2.6,1.6-3.9,2.4
		c-1.6,1-3.1,2.2-4.7,3.3c-2.5,1.7-5.1,3.5-7.8,5.2c0.1,1.1,0.3,2.3,0.3,3.5c0.3,5,0.6,10,0.9,15c0.5,8.3,0.9,16.7,1.5,25
		c0.2,2.9,0.5,5.8,0.9,8.8c0.2,2.1,0.5,4.2,0.8,6.4c0.3,3.3,1,6.5,2.2,9.6c0.7-0.4,1.3-0.7,1.9-1c1.7-1,3.4-2,5.1-3s3.4-2,5.2-2.9
		c3.1-1.6,6.4-2.7,9.4-4.6C438,259.7,441.7,258.2,445.7,256.2z M365.1,296.6c1.9-1,3.5-1.8,5.1-2.6s2.9-1.8,4.4-2.5
		c3.6-1.8,7.4-3.4,11-5.1c2.8-1.3,5.5-2.8,8.3-4.1c3.3-1.6,6.6-3.2,9.9-4.8l7-3.4c-0.6-3.8-1.3-7.1-1.8-10.5
		c-0.7-5.5-1.2-11-1.7-16.5c-0.4-3.8-0.7-7.5-0.8-11.3c-0.1-2.3,0.3-4.6-0.1-7c-0.2-1.2-0.4-2.5-0.5-3.7c-0.1-1,0-2.1,0-3.1
		s0-1.8-0.1-2.7c-0.2-1-0.2-2-0.2-3.1c0.1-0.9,0.1-1.7-0.2-2.6c-0.3-2.4-0.5-4.7-0.8-7.5c-2.5,1.6-4.7,3-6.8,4.4
		c-3.5,2.4-7,4.9-10.6,7c-5.8,3.4-11.8,6.5-17.8,9.8c-3.3,1.8-6.6,3.5-10,5.3c-1,0.5-2.1,1.1-3.4,1.7c0.3,2.1,0.7,4.5,1,7
		c0.5,4,0.8,7.9,1.3,11.9c0.8,6.1,1.5,12.1,2.4,18.2c0.3,2,0.7,4.1,1,6.1c0.8,5.6,1.6,11.2,2.4,16.9
		C364.4,295.1,364.7,295.9,365.1,296.6L365.1,296.6z M175,89.6c-2,1.4-3.9,2.7-5.8,4c-0.9,0.6-1.9,1.2-2.8,1.8
		c-2.7,1.7-5.7,2.9-8.2,5.1c-0.5,0.4-1,0.7-1.5,0.9c-4.3,2.1-8.4,4.6-12.2,7.3c-1.8,1.3-2.3,2.6-1.8,4.6c0.7,3,1.3,6,1.7,9.1
		c0.3,1.7,0.2,3.5,0.4,5.3c0.4,4,0.9,7.9,1.3,11.9c0.1,1.4,0.2,2.8,0.3,4.2c0.2,2.9,0.6,5.8,0.8,8.8c0.2,5.7,0.2,11.4,0.3,17.1
		c0,0.6,0.1,1.2,0.3,1.7c0.3,1.1,0.6,2.3,0.9,3.4l0.5,2.1c0.3-0.1,0.7-0.3,1-0.5l5.8-4c1.4-1,2.9-1.9,4.3-2.9
		c1.1-0.8,2.1-1.8,3.2-2.6c2.8-2.1,5.6-4.3,8.5-6.3s5.9-4.1,9-6c1-0.6,1.6-1.2,1.5-2.4c-0.1-0.7,0-1.3-0.1-2
		c-0.3-4.6-0.6-9.1-1-13.7c-0.1-1.5-0.3-2.9-0.5-4.4c-0.2-1.7-0.6-3.5-0.8-5.2c-0.5-3.7-0.9-7.4-1.3-11.1c-0.3-2.3-0.7-4.6-0.8-6.9
		c-0.1-3-0.4-6-1-9C176.4,96.5,175.7,93.1,175,89.6z M224.1,248.6c0.3,1.7,0.7,3.4,0.9,5.2c0.4,3.8,0.7,7.6,0.9,11.4
		c0.3,4.2,0.4,8.4,0.7,12.6c0.2,2.3,0.6,4.5,1,6.8c0.5,2.7,1.1,5.3,1.6,8c0.6,2.8,1.3,5.6,2,8.6c1.4-0.7,2.6-1.2,3.8-1.8
		c3.5-1.8,7-3.5,10.4-5.4c2.8-1.6,5.4-3.6,8.1-5.3c4.5-2.9,9-5.7,12.6-9.8c1.4-1.4,2-3.3,1.7-5.2c-0.5-2.8-1-5.6-1.2-8.5
		c-0.4-4-0.4-8.1-0.8-12.1c-0.2-2.3-0.8-4.5-1.2-6.7c-0.2-1-0.3-2-0.4-3c-4.7,0.4-9.2,0.5-13.6,1.3c-4.6,0.8-9.4,0.3-14,1.5
		c-2.6,0.7-5.3,1.1-7.9,1.7C227.3,248.1,225.9,248.3,224.1,248.6L224.1,248.6z M224,246.6c1,0.1,2,0.1,3,0c2.5-0.5,5-1.2,7.5-1.8
		c2.8-0.8,5.6-1.2,8.5-1.1c1.3,0.1,2.7,0,4-0.2c4.2-0.5,8.5-1.1,12.7-1.6c3.7-0.4,7.3-0.7,11-1.1c3.1-0.3,6.1-0.7,9.2-1
		c2.4-0.2,4.8-0.5,7.2-0.7c-0.1-2.9-0.2-5.5-0.4-8c-0.1-2-0.3-4-0.5-5.9c-0.3-4.1-0.9-8.2-0.9-12.4c0-6.9,0.2-13.7-0.4-20.6
		c-0.1-1.5,0-3-0.2-4.5c-0.5-4.2-1-8.5-1.5-12.7c-0.2-1.9-0.4-3.7-0.6-5.4c-2.8,0.4-5.3,0.7-7.8,1c-1.4,0.2-2.8,0.2-4.1,0.3
		c-4.4,0.8-9,1.1-13.5,1c-1.8-0.1-3.7,0-5.5,0.2c-4.8,0.5-9.7,1-14.5,1.5c-5,0.5-10,1-15,1.6c-1.4,0.1-2.7,0.6-4.1,0.9
		c0.6,6.1,1.3,11.9,1.9,17.7s1,11.8,1.6,17.6s0.9,11.7,1.6,17.5S223.1,240.6,224,246.6L224,246.6z M215.5,172.6l-1.8-20.7
		c-0.5-0.1-1-0.1-1.6,0c-6,2-12.4,1.4-18.6,2.6c-2.5,0.5-5.1,0.8-7.6,1.2c-0.8,0.1-1.6,0.1-2.1,0.9c-0.3,0.3-0.8,0.5-1.2,0.4
		c-2.9-0.2-4.9,1.9-7.1,3.2c-2,1.1-3.6,3-5.4,4.4c-1,0.8-2.2,1.4-3.3,2.1c-3.2,2.2-6.4,4.5-9.5,6.8c-2.2,1.6-4.4,3.2-6.6,4.8
		c-0.7,0.3-0.9,1.1-0.6,1.8c0,0,0,0.1,0.1,0.1c1.3,0.5,2.4,0,3.6-0.4c1-0.4,2.1-0.7,3.2-0.8c4.1-0.3,8.2-0.4,12.3-1
		c1.2-0.1,2.4,0,3.5-0.2c2.5-0.3,4.9-0.7,7.4-1c3.1-0.3,6.1-0.5,9.2-0.9c2.8-0.4,5.6-0.9,8.4-1.4c1.9-0.5,3.7-0.8,5.6-0.9
		c2-0.1,3.9-0.2,5.9-0.6C211.4,173,213.3,172.9,215.5,172.6L215.5,172.6z M173,88.5c-1.6-0.6-3.4-0.9-5.1-0.8
		c-2.1,0.2-4.2,0.4-6.4,0.6c-2.7,0.2-5.4,0.2-8.1,0.5c-5,0.6-10,1.3-15,2c-1.4,0.2-2.7,0.4-4.1,0.6c-1.6,0.2-3.2,0.4-4.8,0.5
		c-4.5,0.3-8.1,2.4-11.6,5s-6.5,5.5-10.5,7.3c-2.9,1.3-5.6,3-8.6,4c-4.5,1.6-8.5,4-12.6,6.3c-0.5,0.4-1,0.9-1.5,1.4
		c3-0.4,5.6-0.7,8.1-1c1.8-0.2,3.6-0.4,5.5-0.6c4.8-0.4,9.7-0.8,14.5-1.2c2.3-0.2,4.5-0.8,6.8-1c3.3-0.4,6.6-0.7,9.8-1
		s6.6-0.9,9.9-1.2c1.1-0.1,2.1-0.5,2.9-1.2c2.1-1.6,4.4-3.2,6.7-4.6c3.1-1.9,6.3-3.7,9.4-5.6c4-2.4,7.9-4.7,11.8-7.2
		C171.2,90.4,172.7,90.3,173,88.5z M147.3,181.9c-0.1-0.9-0.4-1.5-0.3-1.9c0.4-1.1,0.4-2.3,0-3.5c-0.5-2-0.9-4-1.2-6
		c-0.3-3.1-0.3-6.3-0.3-9.4c0.1-6.3-0.7-12.6-1.1-18.9c-0.3-4.6-0.7-9.1-1.2-13.6c-0.4-4-1.1-8-1.7-12c-0.2-1.4-0.6-2.8-0.8-4
		c-0.9-0.1-1.8,0.1-2.1-0.2c-0.8-0.8-1.6-0.6-2.5-0.5c-4,0.4-8,0.8-12.1,1.3c-2.6,0.3-5.3,0.5-7.9,1c-6.3,1.3-12.8,1.5-19.2,2.1
		c-4.5,0.4-8.9,0.8-13.3,1.5c-1.2,0.2-1.4,0.7-1.3,1.9c0.4,3.4,0.8,6.9,1.2,10.3c0.2,1.7,0.2,3.5,0.4,5.2c0.8,6.6,2.2,13.2,2.7,19.9
		c0.2,3.4,0.7,6.9,1.1,10.3c0.6,4.8,1.1,9.7,1.7,14.5c0.3,2.7,0.7,5.5,1,8.4c1.2-0.1,2.2-0.2,3.1-0.3c3.6-0.6,7.2-1.2,10.9-1.8
		c1.8-0.1,3.6-0.5,5.3-1c1.1-0.4,2.3-0.6,3.4-0.6c3.1-0.4,6.2-0.7,9.2-1.1c1-0.1,2-0.1,3-0.2c3.3-0.3,6.6-0.7,9.9-0.9
		C139.3,182,143.2,182,147.3,181.9L147.3,181.9z M90.7,190.2c0.4,3.5,0.9,6.8,1.2,10.1c0.2,1.7,0.3,3.4,0.5,5
		c0.4,3.5,0.9,6.9,1.1,10.4c0.1,3.1,0.4,6.1,0.8,9.2c0.2,0.7,0.3,1.4,0.4,2.2c0,6.4,0.7,12.7,2,19c0.5,2.6,1.4,5.1,2.1,7.6
		c1.8-0.9,1.8-0.9,2.6,0.8c0.3,0.7,0.9,1.1,1.7,1.2c2.5,0.6,5,0,7.4-0.3c3.5-0.5,7-1.1,10.5-1.4c5.6-0.5,11.1-0.9,16.7-1.7
		c4.1-0.6,8.4-0.7,12.6-1c0.8-0.1,1.6-0.3,2.6-0.5c-0.4-1.6-0.5-3.2-0.6-4.8c0.6-6.4,0.4-12.8-0.5-19.2c-0.9-6.7-1.4-13.5-1.4-20.3
		c0-1.6-0.2-3.2-0.3-4.9c-0.3-3.7-0.7-7.5-1-11.2c-0.2-2-0.4-4.1-0.6-6.1c-0.1-0.4-0.3-0.8-0.5-1.1c-0.5,0.4-1.1,0.7-1.8,0.8
		c-1.8,0.3-3.7,0.4-5.5,0.4c-3.8-0.1-7.6,0-11.4,0.5c-4.4,0.6-8.9,0.9-13.4,1.4c-2.4,0.3-4.8,0.8-7.2,1.2c-2,0.3-3.9,0.7-5.9,1
		C98.9,189,95,189.6,90.7,190.2z M406.3,203c1.3-0.7,2.5-1.5,3.7-2.3c5.3-4.2,11.3-7.4,16.8-11.3c3.5-2.5,7.5-4.3,11.2-6.4
		c0.4-0.3,0.9-0.6,1.2-0.9c1.1-0.8,1.4-2.5,0.5-3.6c-0.3-0.4-0.7-0.7-1.2-0.9c-0.5-0.2-1-0.4-1.5-0.4c-3.7-0.1-7.4-0.3-11.1-0.3
		c-2.4,0-4.9,0.1-7.3,0.6c-3.9,0.8-7.8,0.3-11.8,0.6c-0.1,0-0.3,0-0.4-0.1c-2.2-0.3-2.6,0-2.2,2.1c0.5,3.9,0.8,7.9,0.9,11.8
		C405.4,195.4,405.9,199,406.3,203L406.3,203z M480.4,310.4c-10.7,2.9-21.5,4.5-32,6.8c-0.2,2-0.5,3.9-0.6,5.8
		c-0.1,1.7,0.3,2.1,1.9,2.1c1.8,0.1,3.7,0.2,5.5,0.2c5.2-0.1,10.4,0,15.6-0.7c2.5-0.3,5-0.8,7.5-1.4c1.2-0.3,2.2-1.3,2.5-2.6
		c1-3,0.1-6,0.2-9C481.1,311.3,480.7,310.9,480.4,310.4L480.4,310.4z"/>
	<path stroke="#231F20" stroke-miterlimit="10" d="M429.1,488.5c0-0.3,0.2-0.8,0-1c-0.4-0.4-0.9-0.9-1.4-1.2
		c0.9-1.4,2.1-2.6,3.5-3.4c3.2-2,6.4-4.2,9.6-6.4c0.3-0.2,0.7-0.4,1-0.5c2-1,4.1-1.6,5.9-3c0.9-0.6,2.3-0.5,3.4-0.8l13.5-3.2
		c0.4,0,0.8,0.1,1.2,0.2c-0.6,0.4-1.2,0.7-1.8,0.9c-4.2,1-8.5,2-12.7,3.1c-0.6,0.1-1.1,0.3-1.6,0.6c-4.6,2.6-9.2,5.2-13.8,8
		c-1.7,1.1-3.4,2.3-5,3.7c-0.4,0.4-0.8,0.9-1.1,1.4c2.3,0.4,3.5,2,4.8,3.8c5-3,10-5.8,16.1-5.6c-0.1,1.3-0.9,1.2-1.6,1.3
		c-3.4,0.6-6.7,1.8-9.6,3.7c0.7,0.1,1.4,0.3,2.1,0.3c1.6,0.1,3.2,0.1,4.8,0.2c0.9,0.1,1.7,0.3,2.5,0.6c1,0.3,2,0.3,2.9-0.2
		c2.1-0.8,4.2-1.4,6.3-1.9c1.8,1.1,3.1-0.3,4.3-1.2c3.8-2.6,8.1-4.4,12.6-5.2c2.1-0.4,4.2-1.1,6.3-0.8c0.7,0.1,1.6-0.2,2.2,1
		c-8.2,0.6-15.7,2.7-22.4,7.4l1.7,2.1c4.4-0.3,8.7-0.7,13,0.5c1.9,0.6,3,2.5,2.8,4.5c-0.2,1.4-0.6,2.8-1.3,4c-1.3,2.3-3,4.2-5.2,5.6
		c-0.5,0.3-1,0.7-1.4,1.1c-2.2,2.6-5.1,4.4-7.8,6.4c-3.5,2.6-6.9,5.3-10.3,8c-0.5,0.4-1,1-1.6,1.1c-1.1,0.1-2,1.1-1.9,2.2
		c0,0,0,0,0,0.1c0,1.4-0.9,1.8-1.9,2.1c-0.4,0.1-0.9,0.1-1.3,0.1c-3.6,0.3-3.7,0.3-4.5-3.4c-3.4-0.6-7-0.7-10.4-0.4
		c-1.7,0.1-3.3,0-5-0.2c-1.1-0.1-2.2-0.3-3.3-0.3c-3-0.2-6.1-0.2-9.1-0.6c-2-0.3-3.9-0.8-5.8-1.3c-0.3-0.1-0.7-0.2-1.1-0.2
		c-3.5-0.1-6.9-0.7-10.2-1.8c-0.3,0-0.5,0-0.8,0.1c0.1,1.9-1,3.6-2.7,4.4c-1.5,0.7-2.9,0-4.3-0.3c-0.3-0.1-0.6-0.8-0.6-1.3
		c0-1,0.2-2.1,0.4-3.1c0.2-1.3,0.1-1.7-1.1-1.8c-1.4-0.1-2.7-0.6-3.9-1.4c-1.3-1-2-3.4-1.2-4.7c0.4-0.6,1.2-0.9,2.1-1.5l-2.7-13.1
		c-2.5-0.2-5-0.5-7.5-0.5c-0.9,0.1-1.9,0.4-2.7,0.8c-0.7,0.2-1.3,0.5-2.4,1c1.8-2.6,3.7-3.4,6.4-3c1.8,0.1,3.6,0.1,5.5,0
		c1-3.2-0.6-6-0.6-9.2l5.9-1.1c-0.1-0.4-0.2-0.8-0.4-1.2s-0.4-0.6-0.3-0.8c1.1-2-0.3-3.7-0.9-5.4c-0.3-0.6-0.5-1.2-0.7-1.8
		c-0.3-1.4,0.2-1.9,1.7-2.2c1.5-0.2,3-0.6,4.5-1.2c1.9-0.8,4-1.3,6-1.4c1.6,0,3.2-0.3,4.8-0.5c0.6,0,1.2,0.1,1.8,0.2l-1.1,4.6
		c1.6,0,3.2,0,4.8,0c1,0,1.6-0.5,1.3-1.8c-0.2-1.5-0.2-3.1,0.1-4.6c0.1-1,0.4-2,0.9-2.9c0.6,1.4-0.6,3.2,1.1,4.5
		c3,0,5.5-2.2,8.6-2.5c0.8,1.2,0.6,2.5,0.7,3.8s0.2,2.5,0.3,3.8l1.5,0.1l0.8,4.2c2.5-1.3,4.8-2.5,7.1-3.8c0.7-0.4,1-1.1,0.9-1.8
		c-0.4-4.8-0.6-9.6-0.9-14.3c-0.3-4.4-0.3-8.9-1-13.2c-0.5-3.6-0.7-7.2-0.5-10.8c0.2-4.3,0.6-8.5,1.3-12.8c0.5-3,1.8-5.9,2.4-8.9
		c1.1-5.1,4-9.2,6.1-13.8c1-2.3,2.6-4.3,4.6-5.7c1.4-1,3-1.5,4.2-2.8c0.4-0.4,1.4-0.3,2.1-0.4c2.6-0.3,5.3-0.5,7.9-0.8
		c5-0.7,10-0.5,14.9-1.6c3.8-0.9,7.8-1,11.7-0.3c1.2,0.2,2.3,0.3,3.5,0.1c5-0.6,10,0.6,15-0.6c2.6-0.6,5.6-0.2,8.4-0.1
		c2.3,0,4.6,0.2,6.8,0.4c0.8,0.1,1.6,0.3,2.4,0.5c2,0.5,4,0.9,6,1.1c2.9,0.1,5.4,1.2,8.1,1.9c1.8,0.3,3.5,1.2,4.7,2.6
		c0.7,0.7,1.3,1.6,1.8,2.5c1.9,4,2.9,8.4,2.8,12.8c0,2.4,0.4,4.7,0.4,7c-0.1,4.8-0.5,9.5-1.1,14.3c-0.7,5.7-1.7,11.3-0.8,17.1
		c0.1,0.9,0.1,1.9,0,2.8c0,2.6,0,5.1,0,7.7c0,2.4,0,4.9,0.1,7.3c0.1,2.2,0.3,4.4,0.3,6.6c0,1.8-0.2,3.5-0.4,5.3
		c-0.2,2.1-0.4,4.2-0.6,6.4c-0.3,2.4,0.2,4.8,1.5,6.8c0.6,1,1.1,1.8-0.4,2.5c-0.6,0.5-0.9,1.1-0.9,1.9c0,4.2,0.1,8.4,0.2,12.6
		c0.2,6.7,0.4,13.3,0.6,20c0.2,5.3,0.3,10.5,0.5,15.8c0.1,4.5,0.2,8.9,0.4,13.4c0,0.4-0.1,0.8,0,1.1c0.7,1.4-0.1,2-1.3,2.5
		c-0.8-0.8-1.2-1.9-0.9-3c0.2-1.4,0.2-2.7,0-4.1c-0.1-3.8-0.1-7.5-0.2-11.3c0-1.6-0.3-3.2-0.4-4.8c-0.1-1,0-2,0-3
		c-0.1-4.1-0.3-8.2-0.4-12.3c0-1.3,0-2.5-0.1-3.8c-0.1-4.1-0.2-8.2-0.3-12.4c0-2.7,0-5.3-0.1-8c0-0.4-0.1-0.9-0.1-1.5
		c-2.6,1.1-4.4,3.5-7.3,3.5c-0.7,1.2-1.5,2.3-2.2,3.5c-0.2,0.3-0.2,0.7-0.1,1.1c1.1,4.6-0.7,8.1-3.9,11.3c-3,2.9-6.4,5.4-10.1,7.4
		c-0.1,0.1-0.3,0.2-0.4,0.3c0,4.8-0.1,9.6,0,14.3c0.2,6.8,0.8,13.7,1.1,20.5c0.2,3,0.2,6,0.3,9c0,1.3-1,1.5-2.1,1.9
		c-0.2-0.6-0.3-1.3-0.4-2c0.2-3.3,0.1-6.6-0.4-9.8c-0.2-1.3-0.2-2.7-0.2-4c-0.1-7.1-0.2-14.1-0.3-21.2c0-2.3,0-4.6,0-7.2
		c-1.3,0.5-2.4,0.8-3.4,1.3c-3.8,1.7-7.6,3.6-11.4,5.2c-1.1,0.3-1.8,1.4-1.7,2.5c0,0.8,0.1,1.6,0.2,2.4c1.3,6.3,1.4,12.7,2,19.1
		c0.3,2.8,0.1,5.6,0.3,8.4c0.3,3,0.8,6,1.2,9c0,0.3,0.1,0.6,0.1,1l-2.4,0.8c-0.2-1.2-0.3-2.2-0.4-3.2c-0.7-5.8-1.1-11.7-1.2-17.6
		c0-0.4,0-0.7-0.1-1.1c-0.9-3.3-0.6-6.7-1.1-10c-0.3-1.8-0.4-3.7-0.7-5.5l-0.5-4.3c-1.9,1.7-4.5,1.3-5.9,3.6
		c-0.3,0.5-1.4,0.6-2.2,0.8c-0.3,3.8,0.1,7.6,1,11.3c0.6,3.6,0.9,7.2,1,10.8c0.4,4.7,0.6,9.4,1,14.1c0.1,1,0.3,2.1,0.6,3.1l-1.9,1.3
		c-1.2-1.5-1.1-3.2-1.2-4.7c-0.4-4.6-0.5-9.2-0.7-13.9c-0.1-4.4-0.2-8.8-1.6-13.1c-0.1-0.8-0.2-1.6-0.1-2.4c-0.1-0.9-0.1-2-0.6-2.5
		c-1.1-1.1-1.1-2,0.3-3.1c-0.5-0.1-1-0.1-1.6-0.1c-3.3,0.3-6.6,0.7-9.9,0.9s-6.6,0.5-9.9,0.7c-0.1,0-0.3,0.1-0.4,0.1
		c-5.3-1.3-10.6-0.6-15.9-0.7c-2.8,0-5.6-0.2-8.4-0.4c-0.2,0-0.4,0-0.7,0c-3.6,0.1-7.1,0.3-10.7,0.4c-1.3,0-2.6,0.1-3.9,0.3
		c-3.9,0.8-7.8,0.3-11.7,0.5c-3.2,0.1-6.4,0-9.5,0.6c-2.4,0.3-4.8,0.2-7.1-0.6c-2.1-0.6-4.3-0.8-6.5-0.6c-0.4,0.1-0.9,0-1.3-0.1
		c-5.1-1.4-10.4-1-15.6-1.2c-2.6-0.1-5.2-0.6-7.8-0.7c-2.8-0.1-5.5,0-8.3,0c-1,0-2-0.1-2.9-0.2c-0.2-1.3,0.5-1.7,1.2-1.7
		c2.9,0.2,5.7-0.3,8.6,0.2c4.2,0.9,8.4,1.2,12.7,0.9c3.2-0.3,6.6,0.3,9.9,0.5c2.6,0.2,5.3,0.2,7.9,0.4c1,0,2,0.2,3,0.5
		c4.5,1.4,9,1.1,13.6,0.7c2-0.2,4-0.1,5.9-0.2c1.3,0,2.6-0.2,4-0.3l10.6-0.7c3.3-0.2,6.6-0.5,9.9-0.6c2.8-0.1,5.5,0.2,8.3,0.2
		c1,0,1.9,0,2.9,0.1c2,0.1,4,0.2,5.9,0.3c0.3,0,0.6,0,0.9,0c3.7-0.4,7.4,0.2,11,0s7.3-0.7,11-1c1.2-0.1,2.5-0.2,3.8-0.4
		c1.5-0.2,3-0.2,4.2-1.5c0.5-0.5,1.5-0.5,2.2-0.9c2.3-1,4.5-2.1,6.8-3.1c6.8-2.9,13.7-5.7,20-9.6c3.8-2.3,7.5-4.8,10.2-8.5
		c1.4-2.1,1.9-4.7,1.3-7.1c-0.5,0.2-1,0.5-1.5,0.8c-1,0.7-2,1.5-3.1,2.2c-2.4,1.6-4.8,3.1-7.2,4.7c-4.4,2.8-8.8,5.5-13.2,8.3
		c-2.5,1.6-4.9,3.5-7.5,5.1c-2.8,1.7-5.7,3-8.5,4.5c-0.3,0.2-0.7,0.3-1,0.3c-4,0.2-7.9,0.3-11.9,0.5c-0.5,0-1,0-1.5,0.2
		c-1.3,0.3-2.7,0.4-4.1,0.3c-3.8-0.1-7.5,0.1-11.2,0.1c-4.4,0-8.8,0.8-13.2,0.7c-4.1,0-8.2-0.3-12.3-0.5c-5.4-0.2-10.8-1-16.2-1.5
		c-2.6-0.2-5.3-0.3-7.9-0.5c-4-0.1-8-0.1-12-0.4c-6.1-0.5-12.2-0.8-18.4-0.8c-2.1-0.2-4.2-0.6-6.3-1.1c-0.4-0.1-0.7-0.1-1.1-0.2
		l-16.7-0.7c-0.3-0.9,0.2-1.3,1.1-1.3c4,0.2,7.9,0.5,11.9,0.7c0.9,0.1,1.9,0.2,2.8,0.3c3.8,0.2,7.5,0.1,11.3,0.6
		c6.2,0.9,12.5,0.6,18.6,1.3c1.8,0.1,3.6,0.1,5.5-0.1c4.5-0.2,9,0.2,13.4,1c1.2,0.2,2.5,0.2,3.8,0.3c4,0.3,8.1,0.7,12.1,0.8
		c4.7,0.2,9.5,0.2,14.2,0.1c2.9-0.1,5.9-0.5,8.8-0.8c0.8-0.1,1.6-0.1,2.5,0c6.1,0.1,12.2,0,18.3-0.4c1.8-0.1,3.5-0.1,5.3-0.2
		c2.4,0,4.8-0.7,6.9-2c2.4-1.5,5-2.8,7.4-4.3c3.4-2.1,6.6-4.4,10-6.6c2-1.3,4.1-2.6,6.1-3.9c4.6-3.1,9.2-6.2,13.7-9.3
		c0.6-0.4,1.1-1,1.6-1.5c2-2.2,1.8-4.2-0.7-5.6c-1.7-1-3.7-1.6-5.6-1.5c-3.3,0.1-6.5,0.1-9.8,0c-1.5,0-2.9-0.3-4.4-0.3
		c-4,0.1-8.1,0.4-12.1,0.6c-0.3,0-0.6,0-0.9-0.1c-3.3-1-6.8-0.3-10.1-0.5c-1.4,0-2.8,0.1-4-1.1c0.2-0.7,0.9-1.1,1.7-0.9
		c0,0,0,0,0.1,0c2.7,0.6,5.4,0.7,8.1,0.2c0.7-0.1,1.5,0,2.2,0.1c1.8,0.2,3.5,0.4,5.2,0.5s3.7,0,5.5-0.1c1.6-0.1,3.2-0.3,4.8-0.4
		c2.5,0,5,0.1,7.4,0.1s5-0.2,7.5-0.1c2.7,0.2,5.2,1.1,7.3,2.8c0.7,0.7,1.2,1.5,1.7,2.4c2.6-0.6,4.9-1.9,6.8-3.8
		c2.2-1.9,0.8-6.8-2-7.4c-1.8-0.4-3.6-0.5-5.5-0.5c-4.3-0.1-8.7,0.4-12.9,1.5c-1.6,0.4-3.1,1.5-4.6,2.5c-0.8,0.6-1.5,1.2-2.2,1.9
		c0-1-0.2-1.5,0-1.8c0.7-0.9,1.5-1.6,2.4-2.2c3.2-1.8,6.8-2.8,10.5-3c2.3-0.2,4.7-0.3,7-0.5c2-0.2,4,0,6,0.6
		c0.6,0.1,1.2,0.2,1.8,0.2c0.2-1.7,0.4-3.2,0.5-4.8c0.2-4.6,0.8-9.2,0.3-13.9c-0.4-4.3-0.2-8.7-0.2-13s0.2-8.4,0.2-12.6
		c0-2,0.2-3.9,0.6-5.9c0.5-3.4,0.7-6.9,1-10.4c0.2-2.5,0.5-5,0.5-7.4c0-1.7-0.2-3.4-0.3-5.1c-0.1-1.9-0.1-3.7-0.2-5.5
		c-0.3-3.5-1.3-6.9-2.9-10c-0.5-1.2-1.8-2.1-2.9-3c-1.4-1.1-3.2-1.8-5-2c-5.9-1-11.9-2.3-17.8-3c-3.8-0.4-7.5-0.4-11.3,0
		c-3.5,0.5-7,0.6-10.5,0.4c-1.1-0.1-2.2-0.1-3.3,0c-3.4,0.5-6.7-0.8-10.1-0.5c-2.1,0.1-4.1,0.4-6.1,0.9c-1.8,0.5-3.6,0.7-5.5,0.8
		c-2.5,0.1-5,0.5-7.5,0.7c-0.5,0-1,0-1.5,0.1c-2.6,0.2-5.3,0.3-8,0.6c-0.8,0.2-1.5,0.5-2.2,0.9c-3,1.6-5.6,3.5-6.9,6.8
		c-0.8,2-2.1,3.9-3,5.9c-0.9,2-1.7,4.1-2.3,6.1c-1.2,3.5-2.2,7-3,10.6c-0.6,3.3-0.9,6.7-1,10.1c-0.3,5.6-0.1,11.2,0.8,16.7
		c0.6,4.2,0.8,8.4,1.1,12.6c0.3,3.5,0.5,6.9,0.6,10.4c0,2.1,0.6,2.3,2.2,2.6c0.1,0,0.1,0,0.2,0c0.6,0,1.1,0.3,1,0.9
		c-0.2,0.4-0.6,0.7-1,0.8c-0.9-0.2-1.9,0.1-2.4,0.9c-0.4,0.6-1.1,0.8-1.6,0c-0.2-0.5-0.8-0.7-1.3-0.5c-0.1,0-0.1,0.1-0.2,0.1
		c-2,1.1-4,2.1-6,3.3c-0.6,0.3-0.5,0.9-0.4,1.6c0.4,1.5,0.6,3.1,1,5c1.8-0.6,3.8-0.5,5.6,0.3c0,0.5,0,1.1-0.1,1.7
		c-0.3-0.1-0.6-0.2-0.8-0.3c-0.2-0.1-0.3-0.3-0.5-0.4c-1.2-0.8-2.8-0.4-3.5,0.8c-0.3,0.5-0.5,1.2-0.4,1.8c0.1,1,0.1,1.9,0.2,2.9
		c0,0.7,0.4,1.1,1.1,1.1c1.5,0.1,2.9,0.1,4.4,0c1.3-0.1,2.4-0.9,2.8-2.1C433.3,491.2,432.2,489.2,429.1,488.5z M384.5,511.3
		c-0.4,2.6,0.2,3.7,2.3,4.5c3.2,1.4,6.7,2.2,10.2,2.6c0.7,0.1,1.3,0.2,2,0.3c3.9,0.8,7.8,1.6,11.7,2.3c2.6,0.5,5.3,0.7,7.9,1
		c3.4,0.3,6.9,0.6,10.3,0.8c2,0.1,4.1-0.2,6.1-0.2c4.1,0.1,8.2,0.3,12.3,0.3c1.5,0,2.9-0.6,4.1-1.5c3.7-2.9,7.4-5.6,11.1-8.4
		c3.1-2.4,6.1-5.1,9.2-7.5c1.9-1.5,3.4-3.5,4.3-5.8c1.2-2.6-0.1-5.3-2.9-5.5c-3.2-0.3-6.5-0.1-9.7-0.1c0.2,1.2,0.4,2.4,0.5,3.5
		c0.1,0.5,0.1,1.2-0.1,1.5c-1.2,1.2-2.2,2.9-4.2,2.8c-2.3,0-4.5-0.2-6.8-0.5c-2.6-0.4-3.9-1.9-4-4.5c0-1.1,0.1-2.2,0.2-3.4
		c-1.1-0.3-2.2-0.8-3.4-1c-0.9-0.2-1.9-0.3-2.8-0.3c-1.9-0.2-3.8-0.4-5.7-0.6c-0.7,0-1.4,0-2.1,0.1c-0.2,0.5-0.3,0.9-0.4,1.2
		c-1,3.4-3.8,5.6-7.5,5c-0.8-0.1-1.6,0-2.4,0.1c0.1,1,0.1,1.6,0.2,2.3s0,1.5,0,2.2c-0.1,2-0.9,2.8-2.9,3.1c-1.3,0.1-2.6,0.4-3.8,0.9
		c-3,1.5-6.5,2.2-9.1,4.5c-0.3,0.2-0.6,0.4-1,0.4c-2.8,0.3-5.7,0.6-8.5,0.8c-1.6,0.2-3.2,0.3-4.6,0.4c-0.2,0.2-0.3,0.3-0.3,0.3
		c-0.4,1.7-1.9,2.4-3.2,3.1c-0.7,0.2-1.4,0.1-2.1-0.2c-1.1-0.5-1-1.6-1-2.7C386.9,512.8,385.1,513.8,384.5,511.3z M383,487.4
		c0.2,8.1,2.6,15.6,4.1,23.5l10.3-0.7c3.5-0.2,7-0.3,10.6-1.2c-0.4-1.9-0.9-3.5-1-5.2c-0.8-6.1-2-12.1-3.6-18
		c-0.4-1.5-0.9-1.9-2.1-1.4c-3,1.4-6.4,0.6-9.5,1.5c-2.2,0.5-4.5,0.8-6.7,1C384.2,487.1,383.6,487.3,383,487.4z M419.5,477.9
		c-5.4,1.4-9.7,4.3-14.4,6.2c0.4,2.2,0.7,4.3,1.1,6.3c0.8,4.4,1.6,8.8,2.5,13.2c0.3,1.5,0.3,3.2,1.9,4.5c1.9-0.9,3.7-2,5.7-2.7
		s4.1-1.3,6.1-1.9c0.1-0.7,0.1-1.5,0.1-2.2c-0.1-2-0.2-4-1.9-5.5c-1.4-1.2-1.2-2.9-0.2-4.2c0.8-1.2,1.1-2.7,0.7-4.2
		c-0.1-0.8-0.3-1.6-0.4-2.4L419.5,477.9z M458.8,493.4c-1.9-2.5-2.9-2.8-5-1.8s-3.5,5-2.6,6.9c0.3,0.5,0.8,0.9,1.3,1
		c1.8,0.4,3.7,0.7,5.6,0.9c1.3,0.1,2.5-0.4,3.4-1.3c0.9-1,0.6-2,0.3-3.1c-0.1-0.4,0.1-0.9-0.1-1.3c-0.5-1.5-0.7-3.2-2.8-3.6
		L458.8,493.4z M387.5,484.4c0.4,0.2,0.7,0.6,1,0.5c3-0.3,6-0.6,9-0.9c0.2-2-1.6-2.5-2.2-3.7c1-2,2.7-0.3,3.9-0.9l1.6-6.8
		c-1.2-1-2.9-0.9-4,0.2c-1.2,1.4-1.9,3.1-2.1,4.9c-0.1,2-0.2,2.6-2.1,3.7C390.8,482.3,389.3,483.3,387.5,484.4L387.5,484.4z
		 M410,472.3c-0.1,0.8-0.1,1.6,0,2.4c0.6,1.7,0.5,3.6-0.4,5.3c0,0,0.1,0.2,0.2,0.3c0.2-0.1,0.5-0.2,0.5-0.4c0.6-1.7,2-2,3.5-2.1
		c0.6,0,1.2-0.1,1.8-0.2c1,0,1.8-0.8,1.8-1.8c0-0.1,0-0.1,0-0.2c0-1,0-2,0-3.1c0-0.8,0-1.5,0-2.5L410,472.3z M407.2,481.8l0.7-4.8
		l-5.6-0.2c-1,2-0.7,4-0.5,6L407.2,481.8z M386.6,475c-0.3,2.7,1.5,3.7,2.9,4.9c0.7-0.2,1.4-0.4,2.1-0.7c0.4-0.2,0.9-0.8,0.8-1.1
		c-0.2-1.6-0.6-3.1-1-4.8L386.6,475z M391.1,518.7c-0.2,0.7-0.4,1.5-0.5,2.2c0,0.5,0.2,1.2,0.5,1.3c0.6,0.3,1.2,0.3,1.8,0.2
		c1.3-0.5,1.2-1.5,0.7-2.6L391.1,518.7z M447.8,524.5c-1-0.1-2.1-0.1-3.1,0c-0.4,0.1-0.7,0.4-0.8,0.8c0,0.4,0.3,0.7,0.7,0.9
		c0.6,0.2,1.3,0.2,1.9,0C447,526.1,447.2,525.4,447.8,524.5L447.8,524.5z M399.4,480.9c-0.3,1.8-0.1,2,1.1,2L399.4,480.9z
		 M391,512.5c-0.9,0.6-1,1.1-0.4,1.6c0.2,0.1,0.6-0.1,0.9-0.1L391,512.5z"/>
	<path stroke="#231F20" stroke-miterlimit="10" d="M590.4,239.8c0.1,0.7,0.3,1,0.2,1.2c-0.2,0.5-0.6,1-1,1.5c-2.9,2.3-5,5.3-7.7,7.9
		s-5.3,4.7-7.7,7.3c-1,1.1-2.4,2.1-2.9,3.7c-0.4,0.8-0.9,1.5-1.7,2c-3.8,3-6.6,6.9-9.8,10.4c-1.2,1.3-2.6,2.3-3.9,3.5
		c-0.2,0.2-0.4,0.4-0.6,0.6c-2.2,3-4.8,5.7-7.7,8.1c-1.6,1.4-3,3.1-4.5,4.6c-1.8,1.7-3.6,3.3-5.4,5c-0.7,0.7-1.4,1.5-2.1,2.2
		c-2,1.8-3.9,3.6-5.9,5.5c-0.4,0.4-0.8,0.9-1.3,1.5c3.5-0.1,6.6-0.2,9.8-0.2c1.4,0,2.8,0.1,4.2,0c1.7-0.1,3.4-0.4,5.1-0.5
		c5.5-0.5,11-1,16.4-1.3s11.2-0.7,16.9-0.9c3.4-0.2,6.8,0.7,9.6,2.6c0.4,0.3,0.8,0.4,1.2,0.5c1.6,0.3,3.1,1.2,4.1,2.5
		c2.4,2.6,4.6,5.3,5.1,9c0.1,0.7,0.2,1.5,0.2,2.2c0,5.8,0.5,11.6,1.6,17.4c0.2,1.3,0,2.6,0.1,3.9c0.3,2.9,0.8,5.8,0.9,8.8
		c0.3,2.7,0.2,5.3-0.2,8c-0.3,1.5-0.2,3.1,0.1,4.6c1.2,4.9,1,9.9,0.8,14.9c-0.2,3.7-0.1,7.4-0.2,11c-0.1,2.5-0.5,4.9-0.7,7.4
		c0,0.3,0,0.6,0,0.9c0,2.3,0,4.7,0.1,7s0.4,4.9,0.5,7.4s0.1,4.9,0.1,7.3c0,1.2-0.2,2.5-0.1,3.7c0.1,0.6,0.5,1.2,1,1.5
		c3.2,0.9,3.4,3.6,3.9,6.1c0.3,1.4-0.2,2.9-0.3,4.3c-0.2,1.9-0.2,3.8-0.4,5.7s-0.5,3.9-0.8,5.9c-0.2,1.4-0.4,2.8-0.5,4.2
		c-0.3,3.1-0.6,6.2-0.8,9.2s-0.1,6.5-0.2,9.7c-0.1,3-0.4,6-0.5,9.1c0,2.9,0.2,5.7,0.3,8.6c0.1,3.1,0.1,6.2,0.3,9.3
		c0.4,5.2-2.1,8.7-6.3,11.5c-3.4,2.1-7,3.6-10.9,4.5c-2.6,0.6-5.3,0.6-7.9,0.1c-3.1-0.5-6.3-0.9-9.2-2.3c-0.2-0.1-0.4-0.2-0.6-0.2
		c-3,0.1-4.9-1.8-6.5-3.9c-2.6-3.5-3.5-7.5-3.4-11.8c-0.1-2.8-0.3-5.5-0.8-8.2c-0.2-2.7-0.4-5.4-0.3-8.2c0-2.3,0.2-4.7,0.2-7.1
		c0.1-4.2,0.1-8.4,0.2-12.5c0-4.9-0.5-9.9-1.2-14.7c-0.7-4.8-0.1-9.4,2.9-13.2c1.3-1.9,2.9-3.5,4.7-4.9c1.6-1,3-2.4,4-4
		c0.6-1.3,0.9-2.8,0.8-4.2c0.1-5.2,0-10.3,0-15.5c0-3.4-0.1-6.9-0.2-10.3c-0.1-4.3-0.3-8.5-0.4-12.8c-0.1-3.7,0-7.5-0.1-11.2
		c-0.2-4.3-0.3-8.7-0.9-13c-0.4-3.1-0.7-6.3-2.1-9.1c-1.7-3.2-4-6-6.8-8.4c-2.3-2.1-5.4-3.2-8.5-3.1c-3.3,0-6.6,0.1-10,0.2
		c-0.3,0-0.6,0-0.9,0c-3,0.9-6.1,0.5-9.1,0.8s-5.8-0.1-8.7,0.6c-1.3,0.2-2.6,0.3-3.9,0.1c-3,0-5.9,0.4-8.8,1c-4.5,0.7-9,1.3-13.5,2
		c-0.5,0.1-1,0.3-1.5,0.6c-2.5,2.5-4.9,5.1-7.3,7.6c-1.7,1.8-3.3,3.6-5,5.3c-1.1,1.1-2.2,2.1-3.4,3.2c-3.5,3.4-7.1,6.8-10.6,10.3
		c-4.8,4.8-9.5,9.6-14.2,14.5c-3.3,3.4-6.7,6.9-10.1,10.3c-4.9,5-9.8,10.1-14.8,15.1c-3.6,3.6-7.5,7.1-11.2,10.7
		c-2.3,2.3-4.4,4.8-6.6,7.1c-3,3.2-6.1,6.4-9.1,9.6c-3,3.1-6.2,6-8.9,9.3c-3.2,4-7.2,7.2-10.7,10.9s-7.2,7.6-10.8,11.4
		c-0.9,1-1.9,1.8-2.8,2.8c-2.6,2.8-5.1,5.6-7.7,8.3c-2.3,2.4-4.6,4.7-6.9,7c-3.4,3.5-6.7,7.1-10.1,10.6c-4.7,4.8-9.3,9.6-14,14.4
		c-4.2,4.2-8.5,8.4-12.7,12.6c-2.4,2.5-4.7,5-7.2,7.5c-3.9,4-7.9,7.9-11.8,12c-2.3,2.4-4.5,5-6.7,7.5c-0.8,0.9-2.1,1.7-2.6,2.7
		c-1.4,3-3.9,5.2-5.5,7.9c-0.3,0.5-0.3,1.1-0.5,1.6c-0.2,0.3-0.5,0.8-0.8,0.8s-1-0.5-0.9-0.7c0-0.9,0.3-1.7,0.7-2.5
		c1.1-1.7,2.6-3.2,3.6-5c1.6-2.6,3.5-4.9,5.7-7c2.5-2.6,4.9-5.3,7.4-7.9c2.9-3,6-5.9,8.9-9c2.5-2.6,4.9-5.3,7.4-7.9
		c4.8-4.9,9.6-9.8,14.5-14.6c2.5-2.6,5-5.2,7.6-7.8c3.2-3.2,6.6-6.4,9.8-9.7c5.3-5.4,10.5-10.9,15.7-16.3c4.2-4.4,8.4-8.9,12.7-13.3
		s8.6-8.6,12.8-12.9c3.6-3.6,7.1-7.3,10.6-11c2.5-2.6,4.8-5.4,7.2-8.1c3-3.3,6.1-6.6,9.2-9.8c2.1-2.2,4.4-4.2,6.6-6.3
		c4.5-4.4,8.9-8.8,13.4-13.2c2-1.9,4-3.8,5.8-5.8c3.1-3.3,6.1-6.6,9.2-9.9c2.1-2.2,4.4-4.2,6.5-6.3c4.1-4.1,8.1-8.3,12.3-12.4
		c3.5-3.4,7.1-6.7,10.6-10.1c1.8-1.7,3.4-3.6,5.1-5.5c2.9-3.1,5.8-6.1,8.6-9.2c2.4-2.6,4.7-5.3,7.1-7.9c2.2-2.4,4.6-4.7,6.9-7.1
		c3.9-4,7.9-7.9,11.8-11.9c1.2-1.2,2.2-2.6,3.4-3.8s2.5-2,3.7-3.1c3-2.8,6-5.6,9-8.5c4.3-4.2,8.5-8.4,12.8-12.6
		c3.2-3.2,6.1-6.6,9.4-9.7c2.4-2.3,4.4-4.9,6.7-7.2c4-4,7.9-8.2,11.9-12.3c2.6-3,5.5-5.7,8.6-8.2c0.6-0.5,1-1.3,1.5-1.9
		C589,240.9,589.7,240.3,590.4,239.8z M600.3,420.7c0.2-0.4,0.3-0.5,0.4-0.6c1.1-0.4,1.8-0.9,1.3-2.2c-0.1-0.3,0.1-0.7,0.2-1.1
		c0.1-1.7,0.2-3.3,0.2-5c-0.2-3.2-0.6-6.3-0.8-9.5s-0.2-6.1-0.1-9.1c0-1.9,0.3-3.8,0.3-5.8c0.2-5.5,0.3-11,0.4-16.5
		c0-2.8-0.3-5.7-0.5-8.5c-0.1-1.4-0.2-2.8-0.2-4.2c0.3-4.9,0.1-9.9-0.7-14.8c-0.1-1.1-0.2-2.2-0.2-3.3c-0.2-2.5-0.2-5-0.6-7.5
		c-0.8-4.1-1.1-8.4-1-12.6c0.4-6.1-3.5-11.3-8.2-13.8c-1.1-0.6-2.3-0.9-3.4-1.5c-3-1.5-6.3-1.5-9.5-1.9c-0.1,0-0.3,0-0.4,0.1
		c-3.3,0.3-6.7,0.6-10,0.8c-3.8,0.3-7.6,0.5-11.4,0.8c-1.5,0.1-3.1,0.3-4.6,0.4c-1.2,0.1-2.5,0.1-3.7,0.3c-2.4,0.2-4.8,0.8-7.2,0.7
		c-2.6-0.1-5.1-0.1-7.7,0.1c-2.2,0.1-4.5,0.4-6.6,0.5c-0.8,0.8-1.5,1.5-2.3,2.2c-3.1,3.1-6.2,6.2-9.2,9.3c-2,2-3.9,4-5.9,5.9
		c-1.8,1.8-3.8,3.6-5.5,5.4c-1.3,1.3-2.4,2.8-3.9,4.6c1,0.1,1.9,0.1,2.9,0c3.3-0.5,6.6-0.9,9.8-1.6c2.9-0.6,5.8-1,8.7-1
		c1.2,0,2.5-0.1,3.7-0.2c2.4-0.1,4.9-0.3,7.3-0.5c1.3-0.1,2.5,0,3.8-0.1c5.2-0.3,10.3-0.5,15.5-0.9c2.6-0.3,5.3-0.1,7.9,0.5
		c0.6,0.2,1.2,0.4,1.8,0.8c3.2,2.1,5.6,5.1,8.1,8c0.2,0.2,0.3,0.5,0.4,0.8c2.3,3.9,2.7,8.4,3.4,12.7c0.6,4.5,0.8,9,0.7,13.5
		c-0.2,5-0.1,10,0.3,15c0.1,0.9,0.1,1.8,0,2.6c0,1.9-0.2,3.8-0.1,5.7c0.1,2.8,0.8,5.6,0.6,8.4c-0.2,3-0.1,5.9,0,8.8s0.2,5.6,0.1,8.4
		c0,1.3,0,2.9-0.7,3.9c-1.4,1.9-3.1,3.6-4.9,5c-4.3,3.4-7.2,7.5-7.1,13.2c0.1,1.7,0.2,3.4,0.5,5.1c0.8,6.4,1.1,12.9,0.9,19.4
		c-0.1,5.6-0.4,11.2-0.3,16.8c0.1,4,0.6,8,0.9,12.2c2.1-1.5,3.9,0.6,6-0.1l-1.1-6.8c0.4-0.1,0.7-0.2,0.8-0.1c2,1,4.3,1,6.4,0.2
		c1.1-0.4,1.8,0.2,2,1.4s0.2,2.8,0.3,4.1c0.9-0.2,1.8-0.3,2.7-0.3c2.4,0.3,2.4,0.4,3-1.9c0.2-0.6,0.2-1.2,0.3-1.7c0.1-1,1-1.6,2-1.5
		c0,0,0.1,0,0.1,0l-1.5,6.2h5.2l1.4-4.7l-4.1-1.2c0.7-1.7,1.4-1.7,5.8-0.2l-1.4,6.6c0.4-0.2,0.7-0.5,0.8-0.8c0.5-1.5,2-2.4,3.5-2.3
		c1.3,0,2.6,0.4,3.7,1.2c0.8,0.5,1.8,1.1,2.1,1.8c0.2,0.5-0.6,1.5-1.1,2.2c-1.4,2.3-1.4,2.8,0.4,4.4c0.3,1.6-1.4,3-0.3,4.8
		c1.8-0.7,3.1-2.4,3.2-4.4c0.3-3.3,0.4-6.6,0.2-9.8c-0.1-3.4-0.7-6.8-0.6-10.2c0.1-2.5-0.1-5,0-7.5c0.2-3.1,0.7-6.2,0.7-9.2
		c0-6.1,0.5-12.1,1.5-18.1c0.8-4.4,1.2-8.9,1.3-13.4c0.1-2-0.1-4.2-2.1-5.5c-1.2-0.8-2.5-1.4-3.8-2.2
		C600.7,421.4,600.5,421,600.3,420.7L600.3,420.7z M566.9,501.1l3.3-8.3l-6.8-1.2c-0.2,4.8,0.9,8.9,4.4,12.2
		c1.4-1.2,1.6-1.3,3.1-0.5c1.4,0.7,3.1,0.9,4.6,0.3c0.6-4.1,0.6-4.1-2.8-5.5l-0.2-0.1c-1.6-0.6-1.8-0.5-2.6,1
		C569.3,500.1,568.2,500.9,566.9,501.1z M583.5,498.8h-4.8c-0.4,1.5-0.8,3-1.2,4.4c-0.3,1.3-0.6,2.5-2.4,2.3c-0.3,0-0.6,0.4-1,0.6
		c1,0.6,2.2,0.6,3.2,0c1.2-0.7,2.7-1.4,4.2-0.2c0.4,0.3,1.2,0.2,2.1,0.4L583.5,498.8z M583.1,497c2.9-0.7,5.5,0.8,8.4-0.4
		c-2.4-1.3-0.5-3-0.5-4.3c-0.9,0.1-2,0.6-2.3,0.3c-1.5-1.4-3-0.5-4.6-0.5L583.1,497z M594.1,489.3c-0.3,0.8-0.7,1.6-1,2.4
		c-0.9,3-0.1,4.1,3,4c0.2,0,0.5-0.1,0.7-0.2l2.6-4.7C597.9,489.6,596.4,488.5,594.1,489.3z M590.2,498.6l-4.1,0.3
		c-1,2.1-0.6,4.2-0.5,6.6c1.1-0.2,2.1-0.4,3.1-0.7c0.5-0.2,0.9-0.6,1.1-1.1C590,502.2,590.1,500.5,590.2,498.6L590.2,498.6z
		 M575.9,486c-1.7-0.5-3.5-0.5-5.1,0l0.2,4.4c0.5,0.2,1,0.3,1.5,0.4c3.1,0,3.6-0.1,3.5-3C576,487.4,575.9,486.7,575.9,486L575.9,486
		z M577.3,490.6c-0.2,0.8-0.3,1.5-0.3,2.3c0,1.6,0.6,2.9,3,2.8c1.7,0,2.2-0.7,2.3-2.7c0-1.3-0.5-1.9-1.9-2.1L577.3,490.6z
		 M598.8,498l-1-0.2c-1.8-0.4-2.7,0-3.2,1.7c-0.2,1.1-0.4,2.2-0.5,3.2h4L598.8,498z M574.8,493c-3.1-0.5-3.1-0.5-3.9,2.9l5.3,1.5
		L574.8,493z M591.5,507l4.1-2.4l-4.1-0.5V507z M588.6,507.7v-0.5c-1.3,0.1-2.7-0.5-3.7,1.1L588.6,507.7z M591.6,501.8l0.5,0.1
		l1.4-4.4l-0.5-0.1L591.6,501.8z"/>
	<path stroke="#231F20" stroke-miterlimit="10" d="M182,349.4c0.1-1.1,1.1-1.5,1.9-2c2.4-1.5,5.1-2.7,6.7-5.2
		c0.1,0.1,0.2,0.1,0.3,0.1l6.8-4c1-0.6,2-1,2.9-1.7c2.4-1.6,5.1-2.5,8-2.9c3.8-0.6,7.7-1.2,11.6-1.7c2.1-0.3,4.2-0.4,6.4-0.6
		c4.7-0.4,9.4-0.7,14.1-1.1c5.9-0.4,11.7-0.9,17.5-1.3c2.5-0.2,5-0.3,7.4-0.4c0.8,0.9,0.9,2.1,0.4,3.2c-0.5,1.4-0.8,2.8-0.7,4.3
		c0,4.1,0.4,8.1,1.2,12.1c0.3,1.9,0.4,3.8,0.3,5.7c0.2,2.6,0.2,5.2,0.1,7.7c-0.3,2.5,0.2,4.8,0.2,7.2c0,7,0.2,14,0.4,21
		c0,1.7,0.1,3.4,0.1,5.1c0,0.9-0.1,1.5-1.5,1.6c-1.3,0.3-2.5,0.9-3.4,1.8c-2.1,1.9-4.4,3.5-6.8,4.9c-1.3,0.8-2.6,1.7-3.7,2.7
		c-1,0.9-2.1,1.6-3.4,2c-0.7,0.2-1.5,0.3-2.3,0.3c-1.8,0-3.7,0.1-5.5,0.3c-5.2,0.5-10.4,1-15.6,1.4c-3.9,0.3-7.8,0.4-11.6,0.7
		c-2.9,0.3-5.8,1-8.7,1.3c-2.4,0.3-4.9,0.4-7.3,0.6c-3.4,0.3-6.9,0.7-10.3,1.1c-1.2,0.1-2.3,0.4-3.5,0.5s-1.9-0.1-2.2-1.1
		c-0.2-1.2-0.5-2.4-0.6-3.6c-0.2-2.9-0.4-5.8-0.6-8.6c-0.1-1.4-0.2-2.8-0.3-4.2c-0.1-1.5-0.3-3.1-0.4-4.6c-0.3-2.6-0.7-5.1-0.8-7.7
		c-0.2-4.6,0-9.3-0.2-14c-0.2-4.9-0.8-9.7-1.1-14.5c-0.1-1.3,0.1-2.7,0.5-3.9c0.3-1.1,1.3-1.9,2.4-2.1c0.5-0.1,1.3,0.2,1.4-0.8
		c0.8,0.1,1.7,0.4,2.4,0.1c2.7-1.2,5.5-1,8.3-1.3c4.2-0.3,8.3-0.9,12.5-1.3c4.9-0.5,9.8-1,14.7-1.5c3.3-0.3,6.6-0.5,9.9-0.7
		c4.7-0.3,9.4-0.6,14.1-0.9c1.1-0.1,2.2-0.1,3.3,0c0.8,0,1.6-0.3,2.1-0.9c2.2-1.6,4.5-3,6.7-4.6c2-1.4,4-3,6.1-4.4
		c1.2-0.6,1.6-2.1,1-3.3c0,0,0-0.1-0.1-0.1c-0.8-0.1-1.5-0.1-2.3-0.1c-3.7,0.2-7.3,0.5-11,0.8c-5.3,0.4-10.6,0.9-15.8,1.3
		c-4.3,0.4-8.5,0.6-12.8,1.1c-4.7,0.5-9.4,1.1-14,1.8c-1.1,0.1-2.2,0.5-3.2,0.9c-2,1-3.8,2.1-5.7,3.1c-2.4,1.4-5.2,2.4-7.2,4.3
		C188.5,346.2,185.4,348.1,182,349.4z M242.6,351.3c-3.2,0.6-6.5,1.3-9.8,1.8c-5.2,0.7-10.4,1.3-15.5,1.9c-2.9,0.3-5.7,0.6-8.7,0.9
		c-0.1,2.4-1.5,4-2.5,5.9c-0.6,1.3-1.4,2.6-2.4,3.7c-3.1,3.2-6.7,5.8-10.7,7.8c-1.6,0.8-3.3,1.5-5.1,2.3l0.9,14.8
		c3.6-1.3,7-2.9,10.2-5c3.1-2.2,6.2-4.5,9.1-6.9c2.2-1.8,4.4-3.5,5.7-6.1c0.9-1.4,1.9-2.8,3-4c2.1,0.8,4.1,1.5,6,2.4
		c3.2,1.4,6.7,1.6,10.1,2.2c1.1,0.2,2.3-0.2,3-1.2c1-1.2,1.9-2.5,2.8-3.7c1-1.3,2.1-2.5,3.5-3.5c0.2,1.1-0.1,2.1-0.9,2.9
		c-1.9,2.1-3.9,4.2-5.7,6.5c-0.8,1-2.1,1.4-3.3,1c-1.8-0.4-3.6-0.8-5.2,0.7c-0.4,0.3-0.9,0.5-1.4,0.4c-0.9-0.1-1.8,0.3-2.2,1.1
		c-0.5,0.8-1.6,1.2-2.5,0.9c-0.5,0-1.1,0.1-1.5,0.5c-1.4,1-2.9,1.6-4.3,0c-1.7,1.2-3.2,2.7-5.3,1.1c-3.4,2.5-6.6,5-10,7.2
		s-7.2,3.9-11.1,6l1.1,14.7c1.8,0.1,3.3,0.4,4.8,0.3c4.7-0.1,9.4-0.4,14.1-0.6c4.4-0.2,8.9-0.1,13.3-0.6c4.9-0.5,9.6-1.3,14.5-2
		c1.1-0.2,2.3-0.2,3.3-0.4c0.2-2.8,0.3-5.3,0.6-7.8c0.2-2.2,0.5-4.4,0.6-6.6c0.1-1,0-2,0.1-3.1c0.2-2.5,0.5-5,0.7-7.5
		c0.2-3.1,0.4-6.2,0.6-9.3s0.5-6,0.6-9c0.1-3.2-0.1-6.3-0.2-9.5l1.6-0.5c0.1,2.9,0.3,5.7,0.2,8.4c-0.1,4.1-0.6,8.2-0.8,12.4
		c-0.2,3.6-0.3,7.2-0.6,10.8s-0.4,7.3-1,11c-0.4,3-0.5,6-0.5,9.1c-0.1,2.4-0.7,3.3-3.1,3.6c-4.6,0.6-9.2,1.2-13.8,1.8
		c-0.4,0.1-0.9,0.2-1.3,0.3c7.8-0.3,15.4-1,23.1-1.7c0.5-0.1,1-0.4,1.5-0.6c-1-4.7-0.2-9.3,0.1-13.9c0.3-3.5,0.3-6.9,0-10.4
		c-0.3-3.8-0.7-7.6-0.9-11.4s-0.1-7.4-0.2-11.1c-0.1-3.2-0.1-6.5-0.3-9.7c-0.1-1.3-0.4-2.5-0.6-3.7c-0.9,0-1.5,0-2.2,0
		c-6.5,0.3-13,0.5-19.5,0.9c-2.9,0.2-5.9,0.6-8.8,0.9c-3.6,0.4-7.2,1.3-10.9,1c-1.3,0-2.7,0.1-4,0.3c-3.1,0.4-6.3,0.8-9.4,1.2
		c-3.7,0.5-7.4,1-11,1.5c-1.1,3-0.9,2.6-0.6,5c0.4,4.2,0.8,8.4,1,12.5c0.3,5.4,0.3,10.8,0.5,16.2c0,3,0.2,6.1,0.7,9.1
		c0.9,4.1,0.7,8.2,1.1,12.3c0.3,1.5,0.6,3.1,1.1,4.6l-0.7,1.6c0.5,0,1,0,1.4,0c2.6-0.4,5.1-0.8,7.6-1.1c5.6-0.7,11.1-1.3,16.7-1.9
		c0.4,0,0.7-0.1,1.1-0.2c0.3-0.1,0.7-0.2,1.3-0.5l-22.6,0.7c-0.2-0.6-0.4-1.3-0.6-1.9c-0.7-4.6-1.1-9.2-1.1-13.8
		c0-1.4,0-2.8-0.1-4.1c-0.2-3.3-0.4-6.5-0.6-9.8c-0.1-2.3-0.2-4.7-0.3-7c-0.1-1.2,0-2.5-0.1-3.8c-0.2-2.8-0.6-5.5-0.8-8.3
		c0.1-1-0.5-2-1.3-2.5l1.7-1.5c0.8,0.2,1.6,0.3,2.4,0.3c1.8-0.2,3.5-0.5,5.2-0.9c4.5-1.2,9.2-1,13.8-1.7c1.3-0.2,2.6-0.4,4-0.5
		c3.7-0.4,7.5-0.7,11.2-1.1c2.3-0.3,4.7-0.7,7-1.1c1.8-0.3,3.5-0.5,5.2-0.7c2.2-0.3,4.4-0.6,6.6-0.8
		C241.8,350.2,242.6,350.2,242.6,351.3L242.6,351.3z M265.5,394.7c-0.1-3-0.2-5.8-0.3-8.6c-0.2-2.3-0.3-4.6-0.2-6.8
		c0.5-4.3,0-8.5-0.1-12.7c0-3.1-0.1-6.2-0.1-9.3c0-2.8,0.7-5.6,0-8.4c-1-3.8-1.4-7.8-1.3-11.8c-0.1-0.7-0.2-1.4-0.4-2.1
		c-5.1,4-10.6,6.9-15,11c0.2,2.9,0.5,5.5,0.6,8.2c0.2,5.8,0.4,11.5,0.6,17.3c0.1,2.6,0.2,5.2,0.5,7.7c0.6,5.2,0.2,10.4-0.1,15.6
		c-0.1,3.4,0,6.8,0,10.5C255.7,402.3,260.4,398.1,265.5,394.7z M206.9,356.5c-4.6-0.4-17.3,1.4-20.1,2.8c0.1,2.3,0.1,4.5,0.3,6.8
		s0.4,4.7,0.6,7C194.1,372.5,205.1,364.2,206.9,356.5L206.9,356.5z M211.5,378c1.3,0.9,2-0.2,2.6-0.8c0.9-0.8,1.6-1.4,2.6-0.2
		c0.2,0.3,1,0.6,1.2,0.4c1.4-1.4,3.4-1.4,5-2.2c0.6-0.3,0.8-1.2,1.4-2c-2.7-0.4-4.8-2.5-7.4-2.5L211.5,378z"/>
	<path stroke="#231F20" stroke-miterlimit="10" d="M142.5,501.5c-2.6,0-5-0.1-7.4,0c-2.1,0.1-4.2,0.4-6.4,0.7
		c-1.6,0.2-3.2,0.6-4.7,1c-0.2,0-0.4,0.2-0.6,0.2c-3.7,0.4-7.3,0.8-11,1.1c-1.1,0.1-2.2,0-3.2-0.5c-0.9-0.5-1.6-1.4-2.1-2.3
		c-1.4-3.2-1.9-6.8-1.4-10.2c0.3-3.1,0.2-6.3-0.3-9.4c-0.3-1.4-0.4-2.8-0.4-4.3c0.3-4.3-0.6-8.4-1.2-12.6c-0.3-2.5-0.3-5-0.1-7.5
		c0-0.5,0.6-1,0.9-1.5c-2.3-1.2-2.7-2.4-1.6-4.8c1-2,2-4,3.1-6.1c-2.5-0.9-5.2-1.5-7.9-1.8c-2-0.3-4.1-0.5-6.1-0.9
		c-0.6-0.2-1.1-0.4-1.6-0.8l0.1-0.5c0.4-0.1,0.9-0.1,1.4-0.1c3.1,1.1,6.4,1.2,9.6,1.5c0.2,0,0.5,0.2,0.6,0.1c2-1,3.4,0.6,5.2,1.4
		c4.5-3.4,9-7,14.2-9.7s10-5.6,15.1-8.4l-1.4-4c1.4-0.4,1.4-0.4,2.9,3.4c5.3-1.8,10.9-1.9,16.3-2c1.3-4.2,2.5-8,3.7-11.9
		c0.7-2.3,1.2-4.6,2-6.9c0.4-0.8,0.9-1.5,1.6-2.1c0.2-0.2,0.8,0,1.6,0.1c-3.4,6.6-5.3,13.5-7.5,20.6c0.6,0.1,1.2,0.1,1.9,0.1
		c3.4-0.3,6.8-0.4,10.1-0.9c2.6-0.3,5.1-0.8,7.6-1.6c2.1-0.7,4.2-1,6.4-1.1c0.4,0,0.7-0.1,1.1-0.2c2.1-0.8,4.2-0.5,6.3-0.4
		c1,0.1,2.1,0.2,3.1,0.1c3.1-0.3,4.9,1.9,6.8,3.7c0.4,0.5,0.6,1,0.6,1.6c0.2,1.5,0.4,2.9,0.5,4.4c0.4,3.9,0.5,7.9,0.4,11.9
		c0,1.4,0.1,2.8,0.2,4.2l5.4-2.3l10.1-4.4c0.8-0.5,1.8-0.4,2.5,0.2c-1.9,0.7-3.5,1.4-5.1,2c-1.3,0.5-2.5,1.2-3.8,1.8
		c-2.4,1.2-4.9,2.4-7.3,3.6c-1.2,0.6-1.8,1.2-1.5,2.7c0.6,3,0.1,6,0,9c-0.1,5,0,10,0,15.2c0.8,0.2,1.6,0.5,2.4,0.9
		c3.5,1.8,7.3,3.1,11.2,3.8c2.8,0.5,5.5,1.7,8.5,1.4c0.7-0.1,1.4,0.8,2.1,1.5c-2.7-0.2-5.3-0.4-8-0.6c-2.9-0.1-5.5-1.4-8.3-2.1
		c-2.5-0.6-5-1.4-7.6-2.2c-1.4,2.9-3.7,5.3-6.5,6.8c-2.4,1.4-4.6,3.1-6.9,4.7c-2.5,1.7-5,3.4-7.4,5.1c-1.9,1.3-3.7,2.7-5.6,4
		c-0.9,0.6-1.9,1.1-3,1.5c-0.7,0.3-1.3-0.4-1-1.2c0.4-1.1,1.5-1.8,2.7-1.7c0.6-0.1,1.1-0.3,1.6-0.6c4.9-3.5,9.8-7,15-10.2
		c2.8-1.7,5.2-4,7.9-6.1c0.8-0.7,1.3-1.8,1.3-2.9c-3.3-1.5-6.8-1.8-10.1-2.5c-1-0.2-2.1,0-2.6-1.4c2.2-0.8,4.1,0.4,6,0.6
		s4.1,0.6,6.1,0.9c0.9-2,1.1-21.9,0.2-24.8c-4.5,2.1-8.6,4.9-13.7,6.5c0.3-1.4,1.3-1.8,2.1-2.2c3.1-1.6,6.3-3.2,9.5-4.8
		c0.6-0.3,1.3-0.6,2.1-1c-0.1-2-0.2-4-0.3-5.9c0-1.2,0.2-2.3,0.1-3.5c-0.2-3-0.4-6-0.7-9c0-0.3-0.1-0.6-0.1-0.9
		c-0.3-3.3-0.3-3.3-3.1-5.4c-0.7,0.5-1.3,1-1.9,1.7c-3.3,4.5-7.8,7.7-12,11.3c-2,1.7-3.9,3.4-5.8,5.1c-2.4,2.1-4.6,4.3-7,6.4
		c-0.7,0.5-1.1,1.4-0.9,2.3c0.4,2.3,0.7,4.5,1,6.8c0.2,1.3,0.3,2.6,0.3,3.9c0,3,0.4,5.9,1.1,8.8c0.3,1.3,0.5,2.6,0.7,3.9
		c0.2,2.7,0.3,5.3,0.5,8s0.5,5.1,0.6,7.7c0.2,3-0.2,6.1-1.4,8.9c-0.7,2-2.6,3.4-4.7,3.3c-1.6,0-3.1-0.1-4.6,0
		c-3.9,0.2-7.8,0.5-11.7,0.7c-1.2,0.1-2.5,0-3.7,0c-1.3,1.7-6.1,15.1-6.3,17.4c-1.2,0.3-1.5-0.3-1.2-1.3c0.7-2.2,1.6-4.5,2.4-6.7
		c0.8-2.2,1.7-4.7,2.5-7C142.4,502.6,142.5,502,142.5,501.5z M146.4,491.5c0.3,2.9-1,4.9-1.5,7.3c0.8,0.1,1.6,0.1,2.4,0.1
		c5.8-0.5,11.7-0.8,17.5-0.8c1.8,0,3.5-1.2,3.9-3c0.9-3.6,1.1-7.4,0.6-11.1c-0.3-2.9-0.7-5.9-0.7-8.8c0.1-2.3-0.2-4.5-0.7-6.7
		c-0.3-0.8-0.5-1.7-0.5-2.6c0-2.5-1-5-0.4-7.6c0-0.6-0.1-1.2-0.3-1.7c-0.2-1.1-0.5-2.3-0.6-3.4c-0.2-1.5-0.4-3.1-0.6-4.8
		c-1.5,0.3-2.7,0.5-3.9,0.8c-6.5,1.7-13.1,2.8-19.7,3.5c-5.4,0.5-10.6,1.7-15.9,2.5c-4.8,0.8-9.6,1.7-14.5,1.6c-1.7,0-3.4,0-5.3,0
		c-0.3,1.3-0.6,2.6-0.7,3.9c-0.2,2-0.1,4,0.3,5.9c0.6,2.4,0.9,4.9,0.9,7.4c0,2,0.1,4,0.3,6c0.2,2.3,0.7,4.6,0.7,7
		c0.1,2.5-0.2,5.1-0.2,7.7c0,1.8,0.3,3.7,0.9,5.4c0.4,1.4,1.6,2.3,3,2.5c1.8,0.2,3.7,0.1,5.5-0.2c5-0.7,10-1.5,15.1-2.2
		c3.7-0.5,7.5-0.7,11.2-1C144.8,497,144.2,493.8,146.4,491.5L146.4,491.5z M168.7,424.2c-2.4,0.3-4.8,0.6-7.2,0.8
		c-3.9,0.3-7.8,0.6-11.7,0.6c-3.2,0-6.5,0.5-9.6,1.4c-1.4,0.4-1.4,0.6-1.1,2.1c0.8,3.9,2.2,7.8,2.2,11.8c0,0.8-0.2,1.7-0.2,2.5h-0.6
		c-0.4-2.5-0.7-4.9-1.2-7.4s-1.3-5.1-1.9-7.7c-2.1,0.9-4,1.6-5.8,2.5c-3.2,1.7-6.5,3.5-9.6,5.5c-4.2,2.8-8.4,5.8-12.4,8.8
		c-2.8,2.1-4.2,5.2-5.2,8.8c1.3,0.5,2.6,0.8,3.9,1c3.5,0.2,6.9,0.2,10.4-0.2c5.5-0.7,11-1.9,16.5-2.9c1-0.2,2-0.4,3-0.6
		c4.4-0.6,8.8-1,13.1-1.8c4-0.7,7.9-1.8,11.8-2.7c0.3,0,0.6-0.1,0.8-0.3c1.9-1.4,4.4-2.1,5.8-4.3c0.8-1,1.7-1.9,2.7-2.6
		c1.3-1.1,2.7-2.1,4-3.2c2.4-2.1,4.8-4.4,7.3-6.4c3.2-2.6,5.8-5.8,8.9-9.1c-1.6-0.3-3.2-0.4-4.8-0.4c-3.7,0.4-7.5,0.8-11.2,1.5
		c-2,0.3-4,1-5.8,2c-3.9,2.6-7.2,5.8-10,9.6c-0.4,0.5-0.8,0.9-1.5,1.8c-0.1-0.9-0.3-1.4-0.2-1.6c0.3-0.7,0.8-1.3,1.3-1.8
		C163,429.5,165.8,426.9,168.7,424.2L168.7,424.2z"/>
	<path stroke="#231F20" stroke-miterlimit="10" d="M92.9,347.3c6.8-0.7,13.6-1.3,20.4-2c5.3-0.6,10.5-1.5,15.7-2.2
		c2-0.3,4-0.3,5.9-0.5c3.4-0.3,6.9-0.6,10.3-1c1.2-0.3,2.5-0.2,3.7,0.2c0.6,0.2,1.3,0.4,1.9,0.5c0,1.8-0.1,3.7,0,5.5
		c0.1,2.1,0.5,4.2,0.7,6.4c0.5,5,1,9.9,1.6,14.9c0.5,4.5,1.3,9,1.7,13.5c0.6,6.1,1,12.2,1.5,18.3c0.3,2-0.7,4-2.6,4.9
		c-3.2,1.8-6.5,3.5-9.6,5.5c-3,2-6.2,3.8-9.4,5.4c-3.1,1.5-6,3.3-8.7,5.4l0.4,2.6c-1.9-1-3.4-0.5-4.9,0c-1,0.5-2.1,0.6-3.2,0.3
		c-0.1,0-0.3,0-0.4,0c-2.8,1-5.8,0.4-8.7,1c-3.7,0.7-7.6,0.8-11.4,1.2c-2,0.2-3.9,0.7-5.9,0.9c-3.1,0.4-6.3,0.7-9.4,0.9
		c-4,0.2-8.1,0.3-12.1,0.5c-0.4,0-0.7,0.1-1.1,0.2c-1.3,0.5-1.7,0.4-1.9-0.9c-0.7-3.5-1.3-6.9-1.9-10.4c-1.2-6.6-0.7-13.3-1.6-20
		c-0.5-3.6-1.1-7.2-1.8-10.8c-0.5-2.8-1.2-5.6-1.7-8.4c-0.2-1.4-0.3-2.8-0.2-4.1c0-1.6-0.8-3.2,0.4-4.8c0.3-0.4-0.2-1.5,0.2-2
		s1.3-0.5,2-0.9c3.3-1.8,6.6-3.6,9.8-5.6c2.8-1.8,5.5-4,8.3-5.9c3.5-2.4,7.2-4.6,10.7-7C91.9,348.1,92.4,347.7,92.9,347.3z
		 M68.9,427c1.2,0.2,2.4,0.4,3.6,0.5c2.6-0.1,5.1-0.2,7.7-0.4c2.3-0.2,4.7-0.6,7-0.8c4.3-0.5,8.6-1,12.9-1.4
		c5.3-0.5,10.6-1,15.9-1.6c3.1-0.3,6.1-0.8,9.3-1.2c0-1.5-0.2-3.1-0.5-4.6c-0.8-2.9-1.1-6-0.9-9c0-0.9,0-1.9-0.1-2.8
		c-0.1-0.9-0.3-1.7-0.4-2.6c-0.1-2.2-0.3-4.4-0.5-6.5c-0.3-3.6-1.3-7.1-2.1-10.6c-0.2-0.8-0.3-1.6-0.4-2.4c-0.4-4-0.9-8-1.1-12
		c-0.2-2.4-1.3-4.6-1.1-7.1c0.1-0.7,0-1.5,0-2.4c-2.4,0.2-4.5,0.3-6.7,0.5s-4.6,0.3-6.8,0.7c-4.4,0.7-8.8,1.6-13.2,2.5
		c-1.2,0.2-2.4,0.5-3.7,0.7c-4.1,0.6-8.2,1-12.3,1.6c-3.3,0.5-6.7,1.1-10,1.7c-1.3,0.3-2.5,0.7-3.8,1.2c0.2,1.5,0.2,2.6,0.4,3.8
		c0.2,1.9,0.4,3.8,0.7,5.6c0.2,1.4,0.7,2.7,1,4c0.5,3.1,1,6.3,1.5,9.4c0.5,3.5,1,6.9,1.2,10.4c0,4.6,0.4,9.3,1.1,13.8
		C67.9,421,68.3,423.9,68.9,427L68.9,427z M119.3,360.7c0.5,3.2,1,6.4,1.4,9.6c0.3,2.2,0.4,4.4,0.8,6.5c0.8,5.3,1.8,10.6,2.6,15.9
		c0.2,1.4,0.4,2.8,0.5,4.1c0.2,2.3,0.2,4.6,0.5,6.8c0.5,3.5-0.1,7,0.8,10.4c0.4,1.5,0,3.2,1.1,4.4c2.9-1.5,5.7-3,8.5-4.5
		c1.3-0.7,2.6-1.4,3.9-2.2c3.9-2.3,7.7-4.6,11.6-6.9c4.2-2.4,3.8-1.9,3.4-6.5c-0.5-6.1-1.1-12.3-1.7-18.4c-0.1-1.3-0.3-2.6-0.4-3.9
		c-0.2-2.1-0.3-4.2-0.6-6.4c-0.5-3.9-1.1-7.7-1.5-11.6c-0.2-2-0.2-4-0.5-5.9c-0.6-2.7-0.8-5.5-0.6-8.3
		C139.8,350.8,129.2,354.7,119.3,360.7z M65,367.7l0.3,0.5l7.5-1.6c1-0.2,2-0.5,3-0.6c5.2-0.7,10.3-1.3,15.5-2.1
		c4.2-0.7,8.4-1.6,12.6-2.3c3.6-0.6,7.2-0.9,10.8-1.3c1.2-0.1,2.4-0.2,3.2-0.2c0.7-0.6,1.3-1.1,2.1-1.5c2-1,4.1-1.9,6.2-3
		c3.6-1.9,7.3-3.8,10.8-5.9s6.8-4.1,10.2-6.1c0.1-0.1,0.1-0.3,0.1-0.5c-1.3,0.1-2.6,0.2-4,0.4c-3.5,0.4-7,0.8-10.5,1.2l-7.5,0.8
		c-3.1,0.4-6.1,0.7-9.2,1.1c-1.8,0.2-3.6,0.5-5.5,0.7c-2.1,0.3-4.2,0.6-6.3,0.8c-2.8,0.3-5.7,0.4-8.6,0.7c-1.6,0.2-3.1,0.8-4.4,1.8
		c-0.7,0.5-1.3,0.9-2,1.3c-3.5,2.2-7.1,4.5-10.6,6.8c-3.8,2.5-7.6,5-11.4,7.6C66.5,366.7,65.8,367.2,65,367.7z"/>
	<path stroke="#231F20" stroke-miterlimit="10" d="M252.2,490.1c-0.2-0.6-0.4-1.2-0.6-1.7c-0.4-2-0.9-4-1.2-6
		c-0.2-1.2-0.1-2.5-0.2-3.8c-0.3-3.3-0.7-6.7-0.9-10c-0.2-3-0.2-6-0.4-9c-0.3-5-0.9-10-1.8-14.9c-0.3-1.6-0.5-3.2-0.6-4.8
		c-0.2-3.9-0.4-7.8-0.6-11.7c-0.1-1.6,0.5-3.1,1.7-4.1l-2-1.2c1.4-1.1,2.6-2.1,3.9-2.9c1.9-1.2,4-2.2,6-3.3c3.5-2,7-4.1,10.6-6
		c2.8-1.5,5.6-3,8.4-4.3c0.7-0.2,1.4-0.4,2.2-0.4c3.5-0.6,6.9-1.5,10.4-1.9c2.7-0.3,5.4-0.2,8.1,0.3c3,0.5,5.9,0.2,8.8,0.4
		c0.9,0.1,1.9,0.1,2.9,0.1c2.9-0.2,5.8-0.5,8.6-0.6c2.2-0.1,4.4-0.1,6.6-0.1c1,0,2.1,0,3.1,0.1c2.2,0.2,4.3,0.5,6.5,0.7
		c0.3,0.1,0.6,0.3,0.8,0.6c0.2,0.3,0.2,0.5,0.2,0.8c0.2,3.9,1.8,7.5,1.8,11.5c0,5.1,0.5,10.1,0.8,15.2s0.2,10,0.5,15
		c0.2,3.5,0.9,7,1.3,10.5c0.1,1.2,0.2,2.4,1.3,3.1c-0.6,1.5-1.4,2.4-2.9,2.6c-0.4,0.1-0.7,0.2-1,0.4l-7.5,4.2
		c-3.2,1.7-6.3,3.5-9.5,5.2c-1.3,0.7-2.6,1.5-3.8,2.2c-0.4,0.2-0.7,0.6-0.8,1c-0.7,2.6-2.7,4.7-5.2,5.5c-2.4,0.9-4.9,1.6-7.4,2.2
		c-2,0.5-4.2,0.3-6.2,1.3c-0.2,0.1-0.4,0.1-0.6,0.1c-2.4-0.7-4.6,0.6-7,0.6c-2.3,0.1-4.7,0.3-7,0.7c-0.3,0-0.6,0-0.9,0.1
		c-3.2,0.1-6.4,0.1-9.6,0.2c-1.8,0.1-3.6,0.6-5.5,0.8c-2.7,0.2-5.5,0.1-8.2,0.3C254.1,489.4,253.1,489.7,252.2,490.1z M248.4,425.9
		c-0.7,1.4-1,3-0.8,4.5c0.2,2.6,0.5,5.2,0.6,7.9c0.3,5.3,1.1,10.5,1.7,15.8c0.2,2.2,0.5,4.4,0.6,6.6c0.3,4.3,0.3,8.5,0.7,12.8
		c0.3,3.9,1,7.7,1.5,11.7c0.3-0.1,0.6-0.1,0.8-0.1c0.4,0.1,0.8,0.4,1.2,0.4c2,0.2,2,0.2,2.3,1.9c0.5,0.1,1,0.1,1.5,0.1
		c3.4-0.7,7,0,10.3-1.2c0.2,0,0.4,0,0.7,0c3.3,0.3,6.6-1,9.9-0.3c0.3,0.1,0.6-0.2,0.9-0.2c1.4-0.2,2.8-0.4,4.2-0.5
		c3.2-0.3,6.5-0.5,9.6-1c3.8-0.6,7.6-1.5,11.3-2.7c1.7-0.5,3.2-1.4,4.5-2.7c0.8-0.9,1.3-1.6,0.6-2.6c1.5-1.4,1.5-1.4,1.3-3.2
		c-0.1-1.1-0.2-2.2-0.3-3.3c-0.2-2.7-0.4-5.4-0.7-8.2c-0.3-2.9-0.8-5.8-1.1-8.7c-0.2-1.6-0.3-3.2-0.4-4.8c-0.5-5.5-1.1-11-1.6-16.5
		c-0.3-2.9-0.2-5.9-1-8.6c-0.3-0.1-0.4-0.2-0.6-0.2c-3.4,0.6-6.9,0.9-10.3,0.7c-2.5-0.2-5-0.1-7.5,0.3c-3.6,0.5-7.3,0.7-10.9,0.7
		c-0.7,0-1.3,0-2,0c-5.2,0.3-10.3,0.6-15.5,0.8c-3,0.1-6,0-9.2,0l-0.4,1.2L248.4,425.9z M330.8,406.6c-2,1-3.8,1.6-5.2,2.7
		c-4.4,3.7-9.8,6-14.3,9.5c-1.3,1-2.4,2-2.6,3.8c-0.1,0.6-0.1,1.2,0,1.8c0.2,2,0.5,4,0.6,6c0.4,4.8,0.6,9.6,1.1,14.3
		c0.4,4.8,1.1,9.5,1.6,14.2c0.4,3.1,1,6.1,1.1,9.2c0,2.1,0.3,4.2,0.9,6.2l21.1-11.8c0-2.8,0.1-5.1,0-7.3c-0.2-3.2-1.2-6.4-0.9-9.6
		c0-1.3,0-2.6-0.1-3.9c-0.1-3.2-0.3-6.5-0.5-9.7c-0.2-3.6-0.4-7.2-0.6-10.8c0-1.2-0.1-2.5-0.2-3.7
		C332.2,413.9,331.5,410.5,330.8,406.6L330.8,406.6z M327.9,405.8c-1.5,0-2.6,0-3.7,0c-0.4,0-0.9,0.2-1.3,0.2
		c-2.6,0-5.1-0.2-7.7-0.1c-1.7,0-3.3,0.6-5,0.6c-6.5-0.1-13.1-0.2-19.6-0.7c-4.1-0.2-8.2,0.3-12.2,1.4c-4.9,1.2-9.4,3.6-13.8,6.2
		s-8.9,5.2-13.3,7.9c-0.7,0.4-1.5,0.8-1.8,1.8c3.9,0.8,7.9,1,11.9,0.6c5-0.3,10.1-0.5,15.1-0.8c4-0.3,8.1,0,12.1-0.7
		c2.1-0.3,4.3-0.4,6.4-0.3c2.8,0,5.5,0.5,8.3,0c1.8-0.3,3.1-0.7,3.3-2.3c0.8-0.2,1.3-0.2,1.7-0.5c1.9-1.6,3.9-3.1,6.1-4.3
		c2.1-1.1,4-2.5,5.9-3.8C322.7,409.4,325,407.7,327.9,405.8L327.9,405.8z M256,487.1c-0.3-0.2-0.5-0.4-0.6-0.4
		c-0.2,0.1-0.4,0.3-0.6,0.4c0.1,0.1,0.3,0.4,0.4,0.4C255.4,487.4,255.7,487.3,256,487.1z"/>
	<path stroke="#231F20" stroke-miterlimit="10" d="M21.1,343.6c0.5-1.8,1.3-2.4,3.3-2.5c2.6-0.1,5.2-0.1,7.8-0.3
		c2-0.2,4-0.6,6.1-0.8c1.8-0.1,3.7,0,5.5,0c1.1,0,2.3,0,3.4-0.2c4.1-0.8,8.2-1.4,12.4-1.9c2.4-0.3,4.8-0.9,7.2-1.4
		c5.3-1.1,10.7-1.8,16.1-2.2c4.8-0.3,9.6-0.6,14.3-0.7c4-0.1,8,0,11.9-0.1c4.5-0.1,9-0.5,13.5-0.7c2.1-0.1,4.2-0.2,6.2-0.1
		c3.5,0.1,6.9-0.6,10.3-1c2.9-0.3,5.8-0.7,8.8-1l11.7-1.3c4.1-0.5,8.2-0.9,12.3-1.5c2.7-0.4,5.4-0.8,8.1-1.4
		c0.6-0.3,1.3-0.2,1.9,0.2c0.9,0.4,1.9,0.5,2.8,0.3c6.6-0.1,13.1-0.2,19.7-0.5c3.8-0.1,7.6-0.5,11.4-0.8c1.6-0.1,3.2,0,4.9,0
		c6.2-0.3,12.4-0.5,18.6-0.9c3.5-0.2,6.9-0.8,10.4-1.2c2.7-0.3,5.4-0.5,8.1-0.8c0.6-0.1,1.3-0.2,1.9-0.3c2.9-0.3,5.7-0.6,8.5-0.8
		c2.4-0.2,4.8-0.4,7.3-0.6c4-0.3,8.1-0.4,12.1-0.8c3.1-0.2,6.1-0.8,9.2-1c5.4-0.4,10.9-0.8,16.3-0.9c5.3,0,10.6-1,15.8-1.5
		c0.3-0.1,0.6-0.1,0.9-0.2c3.3,0,6.6-0.3,9.9-1c4.5-0.6,9-0.9,13.5-0.9c2.7,0,5.5-0.3,8.2-0.4c1.8-0.1,3.7,0.1,5.5-0.1
		c3.8-0.4,7.6-1,11.4-1.4c1.5-0.3,2.9-0.4,4.4-0.5c3.2-0.1,6.4-0.6,9.6-1.3c0.6-0.1,1.2-0.1,2-0.2c-0.6,2-2.1,1.9-3.3,2.1
		c-3.2,0.5-6.4,0.6-9.6,1c-2.6,0.3-5.2,0.8-7.9,1c-3.9,0.2-7.7,1.2-11.6,1c-1.9,0.1-3.8,0.2-5.7,0.5c-1.8,0.1-3.6,0-5.5,0.1
		c-3,0.1-6,0.2-9.1,0.5c-1.9,0.1-3.8,0.4-5.6,0.7c-2.7,0.4-5.4,0.7-8.1,1.1c-3.6,0.6-7.2,0.8-10.8,0.9c-3.9,0-7.8,0.3-11.7,0.5
		c-0.7,0-1.5,0.2-2.2,0.3c-2.5,0.2-5.1,0.4-7.6,0.6s-5,0.6-7.4,0.8c-2,0.2-3.9,0.2-5.9,0.4l-3.3,0.2c-5.5,0.4-11,0.8-16.5,1.2
		c-1,0.1-2,0.3-3.1,0.4c-2.5,0.3-5,0.5-7.4,0.7c-1.7,0.2-3.4,0.5-5,0.7c-2,0.3-3.9,0.6-5.9,0.7c-3.6,0.3-7.2,0.4-10.8,0.6
		c-2,0.1-3.9,0.5-5.9,0.6s-4.1,0-6.2,0.1c-5.7,0.3-11.3,0.6-17,0.9c-3.1,0.1-6.2,0.1-9.3,0.1s-6.2,0-9.2,0c-0.7,0-1.5,0.1-2.2,0.2
		c-1.3,0.4-2.7,0.5-4.1,0.3c-1.1-0.3-2.5,0.2-3.7,0.4c-6.9,0.9-13.9,1.8-20.8,2.6c-4.6,0.5-9.3,0.7-13.8,1.4
		c-7.9,1.3-15.9,1-23.9,1.3c-4.3,0.2-8.7,0.5-13,0.7c-4.1,0.1-8.2,0-12.4,0.2s-8.4,0.5-12.6,0.9c-2.4,0.2-4.8,0.8-7.2,1.2
		c-7.7,1.3-15.4,2.8-23.2,3.9c-2.4,0.2-4.7,0.2-7.1,0.1c-0.8-0.1-1.6,0-2.4,0.1c-3,0.9-6,0.6-9,0.8C25.1,343,23.1,343.3,21.1,343.6z
		"/>
	<path stroke="#231F20" stroke-miterlimit="10" d="M506.3,492.8h-2.2c-0.1-0.6,0-1.1,0.1-1.7c2.4-5.5,1.5-10.8-1-16
		c-0.5-1.2-1-2.3-1.7-3.3c-0.7-0.8-1.5-1.5-2.3-2.2c-1.5,0.8-3.2,1.6-4.8,2.5c-6.1,3-12.1,2.9-18.4,0.3c-2.7-1.1-4.5-3.2-6.5-5
		c-2.1-1.8-3.7-4-4.8-6.6c-1.3-3-2.8-5.9-4-8.8c-1.1-2.9-1.5-6-1.3-9.1c0-4.3,0.6-8.7,1.6-12.9c0.7-2.7,1.9-5.3,3.6-7.5
		c2.2-2.9,4.5-5.6,7.7-7.5c1.6-1,3.4-1.7,5.3-2c0.5-0.1,1.3-0.1,1.4-0.4c0.7-1.4,2-1,3.1-1c1.5,0,2.8-0.6,4.4-0.1
		c1.8,0.4,3.6,0.8,5.5,1c0.9-1.2,1.8-2.3,2.9-3.4c2-1.8,4.5-3.1,7.1-3.7c1.4-0.3,2.8-0.4,4.2-0.5c3-0.2,6,0.5,8.6,2.1
		c2.9,1.6,5.9,3,8.2,5.5c0.8,0.9,1.5,1.9,2.4,3.1l-1.9,1.2l-4.2-1.7l-0.3,0.4c1,1.6,3.9,1.9,3.2,4.8l-2.8,0.4c0.6,1,1,2.2,1.3,3.3
		c0.1,1.3,0,2.6-0.3,3.9l-2.2,0.2c-2.2-2-4.2-4.5-7.3-4.6c-2.1-0.1-4.6-0.6-6.5,1.2c2.4,5.1,3.9,10.5,4.5,16.1
		c0.2,1.8,0.6,3.5,0.7,5.3c0,1.8-0.1,3.5-0.3,5.3c-0.5,4-2,7.9-4.4,11.1l-3.9,5.8C506.8,475.4,510,483.2,506.3,492.8z M461.7,436.6
		c-0.1,1.4-0.3,2.7-0.4,4c-0.2,4.1,0,8.1,1.7,11.9c0.9,1.9,2,3.8,2.8,5.8c0.9,2.6,2.4,4.9,4.3,6.9c1.2,1.2,2.5,2.4,3.9,3.5
		c2.4,2.2,5.5,3.4,8.7,3.4h4.4c5.6,0,9.8-2.9,13.5-6.8c2.6-2.8,4.1-6.3,5.8-9.6c1.1-2.3,1.6-4.9,1.4-7.5c-0.2-4.3-1-8.7-1.6-13
		c-0.2-0.8-0.6-1.6-1-2.3c-7,0.7-13.4,0.6-17.8-5.6c-2.6,2.1-5.5,3.6-8.6,4.7c-2.8,0.9-5.4,2.1-8.1,3.2c-0.7,0.3-1.4,0.5-2.1,0.6
		C466.3,436.2,464.1,436.3,461.7,436.6L461.7,436.6z M504.7,431.3c0.1-0.2,0.1-0.5,0.1-0.7c-1-3.8-2.9-7.3-5.6-10.1
		c-2.4-2.5-5.3-4.3-8.1-6.1c-1.9-1.1-4-1.6-6.1-1.6c-2.9-0.1-5.5,1-8.2,1.7c-3.3,0.9-6.2,2.7-8.4,5.4c-3,3.4-5.1,7.5-6,11.9
		c-0.2,0.9-0.3,1.9-0.5,3c0.9,0.1,1.8,0.2,2.8,0.3c1.1,0,2.2-0.1,3.3-0.3c1.1-0.2,2.3-0.5,3.4-0.9c2.5-0.9,5.1-1.7,7.6-2.8
		c2.1-0.9,4.4-1.7,6.1-3.5c0.9-1,2-1.8,3-2.7c1.3,1.7,2.4,3.2,3.6,4.5c0.6,0.7,1.4,1.3,2.3,1.6C497.5,431.7,501,432.7,504.7,431.3
		L504.7,431.3z M521,413.5c-2.6-2.7-5.7-4.2-8.7-5.6c-1.2-0.7-2.5-1.1-3.9-1.4c-3.7-0.6-7.4,0.2-10.6,2c-2.2,1.2-3,3.3-4.3,5.4
		c1.9,1.5,3.7,2.8,5.4,4.2s3.1,2.9,5,4.6c0.1-1.7-0.4-3.4-1.4-4.8c-0.9-1.3-2-2.4-3.3-3.3c-1.2-0.9-3-0.4-4.3-1.5
		c0.5-1,1.3-0.9,2.1-0.8c4.2,0.5,7.9,3.7,8.3,7.6c0.2,0.8,0.4,1.5,0.8,2.2c2.1,0.1,4.3-1,6.3,0s3.8,2,5.7,2.9c0.2-2.3-0.2-3-2.5-3.8
		c-0.8-0.3-1.3-0.5-1.1-1.7l4.8-1.4l-2.6-1.9c-0.8-0.6-1.6-1.1-1.2-2.4C517.2,413,519,413.7,521,413.5z"/>
	<path stroke="#231F20" stroke-miterlimit="10" d="M294,345.4c0.5,2.1,0.8,4.2,0.8,6.3c0.2,5.6,0.2,11.3,0.5,17
		c0.2,3.9,0.5,7.8,0.8,11.7c0,0.3,0.1,0.7,0.2,1.3c0.3-0.5,0.5-0.6,0.5-0.8c-0.1-2.9,0.1-5.9,0.1-8.8c0.1-2.7,0.4-5.3,1.1-7.9
		c0.5-2.6,1.4-5.1,2.1-7.6c0.2-1.2,1-2.3,2.2-2.7c-0.5,1.6-0.8,2.9-1.2,4.2c-1.7,4.8-2.6,9.8-2.6,14.9c0,2.9-0.2,5.8,0,8.6
		c0,2.9,0.6,5.7,1.9,8.3c0.4,0.6,0.9,1.2,1.5,1.8c-0.7,1.6-1.6,1.8-2.3,0.4c-0.9-1.8-1.6-3.6-2.1-5.5c-0.2-1-0.4-1.9-0.5-2.9h-0.5
		c0.1,1.2,0.1,2.3,0.2,3.5c0.1,3.2,0.2,6.3,0.5,9.5c0.1,1.2,0.3,2.3,0.6,3.5c0.3,1.4,0,1.8-1.8,1.9c-0.8-3-0.6-6.1-0.8-9.1
		c-0.2-3.8-0.5-7.6-0.7-11.4c-0.1-2.2-0.4-4.4-0.5-6.6c-0.2-5.6-0.4-11.2-0.5-16.8c-0.1-3.1,0.2-6.2-0.4-9.3
		C292.5,347.5,292.9,346.1,294,345.4z"/>
	<path stroke="#231F20" stroke-miterlimit="10" d="M474.5,288.1c-2.4,0.1-4.3,0.4-6.2,0.4c-2.4-0.1-4.8-0.4-7.2-0.7
		c-1.6-0.2-3.1-0.7-4.7-0.8c-1.2-0.2-2.4-0.8-3.2-1.8c-1.1-1.1-1.3-2.8-0.6-4.2c1.1-1.9,2.5-3.6,4.1-5.1c2-1.7,4.4-3,6.9-3.9
		c4.6-1.4,9.4-2.1,14.2-2c0.8,0,1.6,0.3,2.4,0.3c1,0.2,2,0.2,3,0c0.9-0.4,1.9-0.1,2.6,0.6c1.1,1,2.3,1.9,3.4,2.8
		c0.4,0.3,0.7,0.7,0.9,1.2c0.6,2.1-0.9,6-2.5,7.6c-2.1,2-4.7,3.2-7.2,4.6c-1.5,0.8-3.4,0.8-5.1,1.2
		C475,288.1,474.7,288.1,474.5,288.1z M474.7,271.1c-2.4,0.4-5.5,1-8.5,1.4c-2.3,0.3-4.1,1.6-6,2.6c-2.3,1.5-4.2,3.5-5.5,5.9
		c-0.7,0.7-0.6,1.9,0.1,2.5c0.6,0.9,1.5,1.5,2.5,1.6c1.1,0.1,2.1,0.5,3.2,0.6c2.9,0.4,5.7,0.8,8.6,0.9c2.2,0,4.4-0.5,6.6-0.6
		c4.4-0.3,8.5-2.3,11.4-5.5c0.9-0.9,1-2.7,1.4-4.1c0.3-1.1-0.7-1.7-1.5-2.3c-0.7-0.5-1.4-1.1-2-1.7c-0.7-1-2-1.2-3-0.5
		c0,0-0.1,0.1-0.1,0.1c-0.5,0.3-1.4,0.5-1.6,0.3C478.8,271.1,477,271.5,474.7,271.1L474.7,271.1z"/>
	<path stroke="#231F20" stroke-miterlimit="10" d="M518.1,229.4c-2.8-1.2-6.4-0.5-9.5-2.2c-1-0.4-1.9-1.3-2.3-2.3
		c-0.6-1.5-1.9-2.7-2-4.5c-0.2-1,0.3-2,1.1-2.6c4.1-3.2,8.8-5.3,13.9-6.2c3.6-0.8,7.2-1.3,10.9-1.6c1.5-0.2,3,0.4,3.9,1.5
		c1.3,1.6,3.1,2.5,4.3,4.2c0.7,0.9,0.9,2.1,0.4,3.2c-0.6,1.9-1.6,3.8-2.7,5.5c-0.5,0.7-1,1.5-2.1,1.3c-0.3,0-0.7,0.1-0.9,0.3
		c-1.8,1.6-4,2.4-6.4,2.5c-2.2,0.1-4.4,0.4-6.5,0.8C519.6,229.3,519,229.3,518.1,229.4z M532.3,211.6c-1.5-0.3-3-0.4-4.5-0.4
		c-2.3,0.2-4.6,0.8-6.9,1.2c-5.1,0.7-9.9,2.8-14,5.9c-0.9,0.6-1.1,1.8-0.5,2.6c0,0,0,0,0,0c0.4,0.8,0.8,1.6,1.1,2.4
		c0.6,1.4,1.7,2.4,3.1,3c2.6,0.9,5.3,1.3,8,1.3c4.8,0.1,9.5-0.3,13.9-2.6c1.6-0.8,2.8-2,3.6-3.6c1-2,1.7-4-0.4-6
		c-1-1-1.5-2.4-3.2-2.2L532.3,211.6z"/>
	<path stroke="#231F20" stroke-miterlimit="10" d="M23.4,357.9c0.3-0.5,0.5-1,0.7-1.1c0.7-0.3,1.4-0.4,2.1-0.5c3-0.2,6-0.2,9.1-0.4
		c1.6-0.1,3.2-0.3,4.8-0.4c2.2-0.1,4.4,0,6.6-0.2c5-0.3,9.9-0.8,14.9-1.6c1.8-0.4,3.7-0.3,5.5-0.5c3.5-0.4,7-0.9,10.5-1.3
		c1.4-0.1,2.8-0.2,4.2-0.2c0.5,0.1,1.1,0.3,1.6,0.5c-0.5,0.4-0.7,0.6-0.9,0.7c-4.1,0.7-8.2,1.8-12.4,1.9c-3.6,0.1-7.2,0.8-10.8,1.1
		c-2.5,0.3-5.1,0.5-7.7,0.6c-3.2,0.2-6.5,0.1-9.7,0.5c-3.2,0.4-6.3,0.6-9.5,0.7C29.5,357.9,26.7,357.9,23.4,357.9z"/>
	<path stroke="#231F20" stroke-miterlimit="10" d="M331.1,357c2.3,2.5,2.9,5.6,3.7,8.6s0.9,6.2,1.3,9.4c0.4,2.4,0.3,4.8-0.1,7.2
		c-0.1,0.7-0.3,1.4-0.6,2.1c-0.6,1.1-1.2,2.2-2.8,2.1s-3.1-0.2-3.7-2.2c-0.4-1.4-1.3-2.6-1.7-4c-0.4-1.7-0.7-3.4-0.8-5.1
		c-0.4-3.5-0.8-7-0.9-10.5c0-1.6,0.3-3.2,0.9-4.7c0.6-1.8,1.8-3.1,3.9-2.7C330.7,357.2,330.9,357.1,331.1,357z M333.7,384.3
		c1.7-2.1,1.3-4.6,1.3-6.9c-0.1-2.1-0.3-4.3-0.6-6.4c-0.1-1.1-0.3-2.2-0.5-3.2c-0.5-1.8-1.1-3.7-1.7-5.4c-0.4-0.8-0.8-1.6-1.3-2.3
		c-1,0.7-1.4-0.7-2.2-0.9c-1.1,1.4-1.6,3.2-1.4,5c0.3,3.4,0.5,6.9,1,10.3c0.4,2.5,1,4.9,1.7,7.2
		C330.5,383.5,331.4,384.7,333.7,384.3L333.7,384.3z"/>
	<path stroke="#231F20" stroke-miterlimit="10" d="M318.9,357.7l1.1-1.4c0.3,0.1,0.6,0.1,0.7,0.2c0.5,0.5,0.8,1.2,1.1,1.8
		c0.8,4,1.7,8.1,2.2,12.2c0.3,3,0.4,6.1,0.2,9.1c-0.1,1.3-0.6,2.6-1.3,3.7c-1.6,2.6-4.6,2.6-6.3,0.1c-1.1-1.4-1.8-3.1-2-4.8
		c-0.5-5.3-1.7-10.5-0.9-15.8c0.3-1.9,0.5-3.8,2-5.2C316.9,356.3,317.3,356.3,318.9,357.7z M317.4,358.4c-1,0.3-1.7,1.2-1.8,2.2
		c-0.8,4-0.4,8.1,0.1,12.1c0.2,1.2,0.3,2.3,0.4,3.5c0.1,2,0.7,3.9,1.9,5.6c1.2,1.9,3.2,1.7,4.3-0.3c0.4-0.7,0.5-1.5,0.6-2.3
		c0.2-5.7-0.3-11.4-1.5-16.9c-0.3-1.4-0.8-2.8-1.3-4.1c-0.7,0.8,0.1,2.1-1.2,2.4L317.4,358.4z"/>
	<path stroke="#231F20" stroke-miterlimit="10" d="M280,342.5c0.9,0.5,1,0.9,0.5,1.6c-1.1,1.3-2.1,2.7-2.9,4.2
		c-1.3,2.7-2.3,5.6-3.3,8.4c-1.4,4.2-2.2,8.6-2.5,13c-0.6,5.7-0.8,11.5,0.8,17.2c0.7,2.7,1.7,5.5,3.9,7.5c-0.1,0.8-0.6,1.1-1.3,0.9
		c-1-0.2-1.9-0.9-2.3-1.9c-0.5-1.6-1.1-3.1-1.8-4.6c-1.1-1.9-0.8-3.9-1-5.8c-0.2-2.9-0.2-5.7,0.1-8.6c0-2.8,0.2-5.5,0.6-8.3
		c0.7-4,1.2-8.1,3-11.9c1.4-2.9,2.1-6.1,4.1-8.7C278.5,344.5,279.2,343.5,280,342.5z"/>
	<path stroke="#231F20" stroke-miterlimit="10" d="M291.7,349.2c-0.2,0.7-0.4,1.3-0.7,1.9c-2,3.1-2.9,6.6-3.9,10.1
		c-1,3-1.8,6.1-2.4,9.2c-0.7,5.2-2.2,10.4-1.1,15.8c0.7,3.1,1.4,6.2,2.2,9.2c0.1,0.4,0.6,0.6,0.8,1c0.1,0.4,0.2,0.8,0.2,1.3
		c-1.2,0-1.5-0.8-1.9-1.5c-2-3.7-3.1-7.8-3.1-12c-0.1-5,0.8-10,1.7-14.9c0.9-4.4,2.2-8.7,3.9-12.8c0.6-2,1.5-4,2.5-5.8
		c0.4-0.6,0.9-1.1,1.3-1.7L291.7,349.2z"/>
	<path stroke="#231F20" stroke-miterlimit="10" d="M190.9,342.3c-0.1,0-0.2,0-0.3-0.1c-3.8,0.8-7.7,1.3-11.6,1.6
		c-3.4,0.3-6.7,0.8-10.1,1.2c-1.8,0.2-3.6-0.1-5.5,0.1c-3,0.5-6,0.6-9,0.8c-0.7,0-1.5-0.1-2.1-0.4c-0.2-0.1-0.3-0.7-0.6-1.2
		c3.1-0.2,5.9-0.4,8.8-0.6c6.7-0.6,13.3-1.2,20-1.8c2.9-0.3,5.9-0.4,8.8-0.6C190.2,341.1,190.9,341.2,190.9,342.3z"/>
	<path stroke="#231F20" stroke-miterlimit="10" d="M310.5,375c0,1.9-0.3,3.9-1.1,5.6c-0.8,1.8-1.5,2-3.3,1.1c-1.5-0.8-2-2.2-2.5-3.6
		c-1.3-3.6-1.7-7.4-1.3-11.2c0.2-1.3,1-2.5,2.1-3.3c0.7-0.6,3.6,0.2,4.1,1.2c0.4,0.6,0.6,1.3,0.8,2.1
		C309.8,369.6,310.1,372.3,310.5,375z M307.9,380.1c0.9-1.9,1.2-4,0.9-6c-0.4-2.1-0.6-4.2-1-6.3c-0.2-1.1-1.9-2.5-2.7-2.2
		c-1.4,0.4-1,1.6-1.1,2.6c-0.1,3.3,0.5,6.5,1.8,9.5C306.2,378.6,306.6,379.7,307.9,380.1z"/>
	<path stroke="#231F20" stroke-miterlimit="10" d="M341.4,377.1c2.2-0.2,2.3-0.2,2.4-1.9c0.2-2.4-0.2-4.9-1.1-7.1
		c-0.5-1.2-0.9-2.3-1.2-3.5c-0.4-0.8,0-1.8,0.8-2.2c0,0,0.1,0,0.1-0.1c0.3,0.4,0.5,0.9,0.7,1.4c0.4,1.4,0.8,2.8,1.1,4.2
		c0.7,2.7,1.5,5.4,0.8,8.3c-0.5,2.3-1.3,3-3.6,2.8c-0.4,0-0.9-0.2-1.4-0.3c-1.1-3.8-1.7-7.8-1.9-11.8c0-1.1,0-2.3,1.5-2.8
		c0.2,2.2,0.4,4.3,0.6,6.5S341.1,374.9,341.4,377.1z"/>
	<path stroke="#231F20" stroke-miterlimit="10" d="M318,76.7l-1.1-0.5c1-0.7,2-1.6,3-2.2c3.5-2.1,7.1-4.2,10.9-6.5
		c0.2,0.3,0.8,0.7,0.9,1.2c0.6,2.3,0.9,4.6,0.8,6.9c0,0.9,0,1.8,0,2.6s-0.4,1.1-1.1,1h0.1l-1-0.4c0.1-3.1,0-6.2-0.4-9.2
		c-1.2,0.7-2.1,1.1-3,1.7c-2.2,1.5-4.3,3-6.5,4.4C319.7,76.1,318.9,76.5,318,76.7z"/>
	<path stroke="#231F20" stroke-miterlimit="10" d="M331.4,79.2c0.8,0.5,1.2,1.4,1.1,2.4c-0.1,3.7,0,7.4,0.1,11
		c0.1,2.9,0.3,5.7,0.4,8.5c0,1.4,0,2.7-0.1,4.2c-1-0.1-1.8-1-1.6-2c0,0,0,0,0,0c0.6-1.8-0.8-3.2-0.6-4.9c0.1-1.7,0.1-3.4-0.1-5.1
		c0-4.4,0-8.7,0.1-13.1C330.8,79.9,331.3,79.5,331.4,79.2L331.4,79.2z"/>
	<path stroke="#231F20" stroke-miterlimit="10" d="M407.1,465.7l0.3,1.8l-6.9,2.4l-0.1-1.2l-2-0.3c-0.1-0.6,0.3-1.3,1-1.4
		c0.1,0,0.3,0,0.4,0C402.3,467.4,404.6,466.7,407.1,465.7z"/>
	<path stroke="#231F20" stroke-miterlimit="10" d="M94.8,475c-0.7,0.3-1.4,0.6-2.1,0.8c-2.7,0.6-5.4,1.2-8.2,1.7
		c-1.6,0.3-3.2,0.4-4.8,0.6c-0.5,0-0.9-0.3-1.2-0.7c2.7-0.4,5.4-0.6,8-1.2s5.3-1.5,8-2L94.8,475z"/>
	<path stroke="#231F20" stroke-miterlimit="10" d="M409.1,207.5c1.2,0.3,1.3,0.7,0.3,1.5L409.1,207.5z"/>
	<path stroke="#231F20" stroke-miterlimit="10" d="M384.4,247.5c-0.2-2.4-0.6-4.9-0.6-7.4c0-1.3,0.2-2.6,0.6-3.9
		c0.5-1.4,1.8-2.5,3.3-2.8c4.4,4.4,7,10.2,7.2,16.4c0.2,3.6,1,7.2,1.6,10.9c0.5,2.9,0.3,5.6-2.1,7.7c-1.3,1.1-2.2,1.1-3.1-0.3
		c-1.1-1.5-1.9-3.1-2.6-4.8c-0.8-2.6-1.9-5.1-3-8c0.3,3.3,0.5,6.1,0.8,8.9c0.1,0.7,0.2,1.5,0.3,2.2c0.3,1.6,0,3.3-0.8,4.7
		c-0.6,1.2-1.4,1-2.8,0.8c-3.3-0.6-3.2-3.5-4.2-5.6c-1.5-3-1.7-6.4-2.2-9.6c-0.4-2.2-0.9-4.5-1.1-6.7c-0.3-2.4-0.8-4.7-1.5-7.1
		c-0.5-1.8-0.3-3.7,0.7-5.4c0.6-1.3,2.1-2,3.5-1.7c1.4,0.4,2.5,1.5,2.8,3c0,0.3,0,0.6,0,0.9C382.2,242.5,383.3,245.1,384.4,247.5z
		 M386.6,235.9c-0.9,1.1-1.4,2.5-1.2,3.9c0.3,2.6,0.4,5.1,0.8,7.7c0.4,2.5,0.9,5.1,1.5,7.5c0.6,2.3,1.8,4.5,2.3,6.9
		c0.4,2.1,1.9,3.3,3,5.4c0.8-1.3,1.7-2.3,1.9-3.3c0.2-1.6,0.2-3.2-0.1-4.8c-0.4-3.1-1.2-6.2-1.5-9.4c-0.2-3.4-1.2-6.8-2.9-9.7
		c-0.7-1.2-0.9-2.6-2.6-2.9C387.3,237,387,236.4,386.6,235.9z M384.5,270.5c0.3-0.8,0.5-1.7,0.6-2.5c-0.2-3-0.5-6-0.8-9
		c-0.3-2.4-0.7-4.8-1-7.2c-0.1-1.1-0.3-2.2-0.5-3.4c-0.3-1-1-2-1.1-3c-0.1-1-0.5-2-1.2-2.9c-1.1-1.5-2.1-3.1-3.4-5
		c-1,1.9-1.7,3.5-1.1,5.3c0.4,1.3,0.7,2.7,0.9,4.1c0.5,2.9,1,5.8,1.5,8.7c0.2,0.8,0.4,1.6,0.5,2.3c0.2,3.6,1.6,6.9,2.8,10.2
		C382.1,269.4,383.2,270.3,384.5,270.5L384.5,270.5z"/>
	<path stroke="#231F20" stroke-miterlimit="10" d="M376.6,267.7c0,1.7-0.5,3.3-1.5,4.6c-0.9,1.2-2.6,1.5-3.9,0.6
		c-0.4-0.3-0.7-0.6-0.9-1.1c-0.8-1.6-1.4-3.2-2-4.9c-0.9-2.3-1.5-4.7-2.5-7c-1.2-2.5-1.2-5.3-1.6-7.9c-0.1-1.4,0.6-2.8,1.9-3.5
		c1.1-0.5,2.4-0.4,3.3,0.3c1.6,1,2.9,2.2,3,4.3c0,0.7,0.7,1.3,0.9,2c0.8,3,2.3,5.7,2.5,8.9C376,265.4,376.3,266.6,376.6,267.7z
		 M367,249.9c-1,2.1-1.2,3.1-0.5,5.4c1.7,5,3.5,10,5.3,15c0.1,0.4,0.8,1,1,0.9c0.6-0.1,1.2-0.4,1.6-0.9c0.4-0.9,0.6-1.8,0.5-2.8
		c-0.5-2.5-0.3-5.1-1.7-7.4c-0.3-0.4-0.4-0.9-0.5-1.5c-0.2-1.3-0.7-2.5-1.6-3.5c-0.4-0.6-0.7-1.3-0.6-2c0.3-0.9-0.2-1.8-1-2.2
		C368.8,250.5,367.9,250.2,367,249.9z"/>
	<path stroke="#231F20" stroke-miterlimit="10" d="M399.7,254.7c-2.3-1.8-3-4.2-3.3-6.8c-0.2-1.5-0.6-3-1-4.5
		c-0.2-1,1.4-4.3,2.3-4.4c0.7,0,1.4,0.3,1.8,0.8c1.3,2.7,2.4,5.4,3.2,8.2C403.4,250.6,402.9,253.6,399.7,254.7z M398.3,241.7
		l-0.7,0.2c0,3.4,0.1,6.8,2.4,9.9c1.7-1.3,1.3-2.8,0.9-4.1C400.2,245.7,399.1,243.7,398.3,241.7L398.3,241.7z"/>
	<path stroke="#231F20" stroke-miterlimit="10" d="M229.4,242.5c-0.3-0.7-0.5-1.5-0.7-2.3c-0.6-4.3-1.1-8.6-1.6-12.9
		c-0.3-2.6-0.6-5.2-0.8-7.8c-0.2-2.4-0.1-4.8-0.2-7.2c-0.3-5.1-0.9-10.1-1.8-15.1c-0.7-4.2-1.3-8.4-1.8-12.6
		c-0.2-2.1,0.4-2.8,2.4-3.2c1.9-0.4,3.7-0.9,5.6-1.3c1.1-0.2,2.2-0.1,3.3-0.3c3.2-0.6,6.3-1.3,9.5-2c0.7-0.2,1.4-0.3,2.2-0.4
		c4-0.3,8-0.6,11.9-0.9c2.4-0.2,4.9-0.3,7.3-0.4c1.5,0,3.1,0.3,4.6,0.3c1,0,1.9-0.1,2.9-0.2c1.6-0.2,3.3-0.5,5.1-0.8
		c1.1,1.5,0.8,3.3,1,5c0.5,4.1,1,8.2,1.3,12.3c0.5,6.2,1.6,12.4,1.7,18.7c0.1,4,0.5,8.1,1.1,12.1c0.3,2.9,0.8,5.7,1.3,8.5
		c0.1,1.1-0.2,2.2-0.8,3c-3.4,0.3-6.8,0.5-10.1,1c-3.9,0.5-7.8,0.8-11.5,1.9c-3.3,1-6.7,0.9-9.9,1.9c-1.3,0.4-2.7,0-4.1,0.1
		c-4.9,0.4-9.8,0.8-14.7,1.4C231.3,241.5,230.3,242,229.4,242.5z M224.2,183.5c0.6,3.8,1,7.4,1.7,11c1.3,6.6,2,13.3,2.1,20
		c0.1,3.1,0.1,6.3,0.4,9.5c0.3,3.4,0.9,6.7,1.4,10.1c0.3,1.7,0.7,3.4,1.1,5.4c2.5-0.3,4.8-0.5,7-0.8c2.8-0.3,5.5-0.5,8.3-0.8
		c2.4-0.2,4.9-0.1,7.3-0.5c3.9-0.7,7.8-1.6,11.6-2.4c2.4-0.5,4.9-1,7.3-1.3c1.7-0.2,3.5-0.1,5.2-0.2c1.3-0.1,2.6-0.4,3.9-0.5
		c-0.2-1.7-0.5-3.2-0.7-4.7c-0.4-2.5-0.4-5.1-0.7-7.6c-0.7-5.3-1.1-10.7-1.1-16.1c0-0.5,0-1-0.1-1.5c-1-3.1-0.9-6.4-1.3-9.6
		c-0.6-4.7-1.1-9.4-1.6-14c-0.2-1.8-0.3-1.8-2.2-1.6c-1.2,0.2-2.3,0.3-3.5,0.3c-3.3,0-6.6-0.2-9.8,0c-5.4,0.4-10.8,0.8-16.2,1.5
		c-5.9,0.8-11.7,2-17.6,3.1C225.8,182.8,225,183.1,224.2,183.5L224.2,183.5z"/>
	<path stroke="#231F20" stroke-miterlimit="10" d="M86.1,121.7c4.2-0.1,8.3-0.2,12.4-0.4c1.4,0,2.8-0.2,4.1-0.6
		c3.6-1.5,7.4-1.7,11.2-2c0.7-0.1,1.4-0.4,2.2-0.4c1.2-0.1,2.5-0.1,3.7-0.1c0.7,0,1.3,0.1,2,0c2.4-0.2,4.8-0.3,7.2-0.6
		c1.7-0.2,3.4-0.6,5.1-1.2c2.1-0.7,3.1-0.3,3.8,1.9c0.6,2.1,1,4.3,1.1,6.5c0.1,2.3,0.5,4.5,0.6,6.8c0.1,2.6,0,5.3,0,7.9
		c0,0.4-0.1,0.7,0,1.1c0.4,4.2,0.8,8.3,1.4,12.5s0.7,8.2,1.1,12.3c0.2,1.9,0.4,3.8,0.6,5.7c0,0.7,0,1.3,0,2c-0.1,2.8-0.4,3.2-3.1,4
		c-2.2,0.6-4.5,0.9-6.7,1.2c-3,0.5-6.1,1.1-9.1,1.5s-6.1,0.6-9.2,1.2s-5.7,1.3-8.6,1.9c-1.6,0.3-3.2,0.5-4.7,0.7
		c-1.6,0.3-3.2,0.5-4.8,0.6c-2,0.1-3-1.1-3.3-3.1c-0.3-2.6-0.6-5.3-1-7.9c-0.2-1.1-0.5-2.3-0.8-3.4c-1.1-3.6-0.7-7.3-1.2-10.9
		c-0.2-1.5-0.1-3.1-0.2-4.6c-0.2-2.4-0.5-4.9-0.9-7.3c-0.7-4-1.8-7.9-2.3-11.9s-0.6-8.1-0.8-12.2C85.9,122.4,86,122,86.1,121.7z
		 M106.7,140c-0.4,1.6-0.9,3.2-1.2,4.8c-0.8,4.3-1.1,8.7-1.1,13.1c0,0.8,0.4,1.6,0.4,2.4c0.4,4.1,0.6,8.2,1.1,12.3
		c0.3,1.7,0.8,3.4,1.4,5.1c0.1,0.4,0.3,1.1,0.1,1.3c-0.4,0.4-0.9,0.7-1.5,0.7c-0.3,0-0.8-0.6-0.9-1.1c-0.4-2.3-0.8-4.6-1.1-6.9
		c-0.3-2.7-0.3-5.4-0.6-8c-0.4-3.4-1.1-6.7-0.5-10.1c0.2-1,0.3-2,0.3-3c-0.1-2.4,0.3-4.8,1-7.1c0.8-2.6,1.6-5.3,2.3-7.9
		c0.1-0.4,0.1-0.9-0.1-1.3c-0.8-1.3,0-2.4,0.8-3.1c1.8-1.8,3.6-3.7,5.9-4.9s3.1-1.1,4.9,0.7c0.6,0.6,1.1,1.4,1.4,2.2
		c0.6,1.4,1.1,2.9,1.7,4.3c0.7,1.1,1.4,2.2,2.2,3.2c0.2,0.8,0.4,1.5,0.6,2.3c0.6,1.6,1.4,3.2,2,4.9c1.2,3.4,2.2,6.9,3.4,10.3
		c1.5,4.4,2.7,8.9,3.5,13.5c0,0.3,0.1,0.6,0.3,0.8c1.5,1.6,1.5,3.6,1.5,5.6c0,0.6,0,1.2,0,2c0.9-0.2,1.5-0.4,2.2-0.6
		s1.3-0.2,1.9-0.4c2.4-0.6,2.6-0.8,2.4-3.3c0-0.3-0.1-0.6-0.1-0.9c-0.2-2.4-0.4-4.8-0.7-7.2c-0.6-5.2-0.5-10.6-1.9-15.7
		c-0.1-0.5-0.2-1-0.2-1.5c0-3.4,0.3-6.7,0.1-10.1c-0.2-2.7,0.1-5.4-0.5-8.1c-0.6-2.5-0.5-5.1-0.9-7.6s-0.8-2.6-3.2-2
		c-1.6,0.4-3.3,0.7-5,0.9c-2,0.2-4.1,0.3-6.1,0.4c-1,0.1-1.9,0.1-2.9,0.1c-1.2,0.1-2.5,0.1-3.7,0.2c-0.7,0.1-1.4,0.2-2.2,0.4
		c-2.8,0.6-5.7,0.3-8.5,1.2c-3.2,1-6.4,1.5-9.8,1.5c-2.6,0.1-5.3-0.3-7.8,1.1c-0.2,0.6-0.2,1.1-0.2,1.7c0.4,3.6,0.8,7.1,1.4,10.7
		c0.8,5,2.1,9.9,2.5,15c0.1,1.2,0.4,2.4,0.5,3.7c0.1,4,0.5,8,1,12c0.7,4.2,1.3,8.4,2,12.6c0.2,1.6,0.7,2.1,2.2,2.2
		c0.6,0,1.2,0,1.8-0.1c2.1-0.4,4.2-0.8,6.3-1.2c4.2-0.9,8.4-2.2,12.7-2.6c3-0.2,5.9-0.8,8.9-1.3c1.8-0.3,3.7-0.7,5.4-1.1
		c-0.1-1.9,0.2-3.4-1.3-4.7c-0.5-0.4-0.4-1.6-0.5-2.5c0-0.8,0-1.5-0.1-2.3c-1.2-4-1.8-8.1-3.2-12c-1.1-3-2.1-6.1-2.8-9.3
		c-0.5-2.1-1.9-3.9-2.9-5.9C116.7,141.7,112.8,142.9,106.7,140z M107.5,137.8c4.8,2.5,10.3,1.9,12.9-1.1c-0.6-1.5-1.2-2.9-1.8-4.3
		c-0.8-1.9-1.2-4-3.6-4.8c-0.4,0.7-0.6,1.8-1.9,1.3c-0.3,0-0.5,0-0.7,0.2C110.3,131.7,108.1,134.2,107.5,137.8L107.5,137.8z"/>
	<path stroke="#231F20" stroke-miterlimit="10" d="M150.6,241.1c0.2,5-2.3,5.8-5.8,6c-2.3,0.1-4.7,0-7,0.3
		c-3.6,0.4-7.3,1.2-10.9,1.7c-1.7,0.2-3.5,0.1-5.2,0.4c-4.1,0.6-8.1,1.4-12.2,2.1c-1.8,0.3-3.5,0.3-5-0.9c-0.5-0.4-1-0.8-1.4-1.3
		c-1.4-1.8-2.2-4-2.3-6.2c-0.2-1.7-0.6-3.4-1-5c-0.4-2.7-0.6-5.4-1-8s-0.9-5.1-1.3-7.6c-0.7-4.5-1.3-8.9-2-13.4
		c-0.6-3.9-1.3-7.8-1.9-11.6c-0.1-0.7-0.2-1.5-0.2-2.2c-0.1-2.3,0-2.4,2.4-2.8c1.5-0.1,3-0.4,4.5-0.9c2.6-1,5.3-0.8,8-0.9
		c2.3,0,4.7-0.5,7-0.6s4.5-0.1,6.8-0.3c1.8-0.1,3.7-0.3,5.5-0.6c2.6-0.5,5.2-1.1,7.8-1.6c0.9-0.2,1.9-0.3,2.8-0.4
		c2.7-0.1,4.5,1.3,5.2,4s1.5,5.4,2.2,8.1c0.2,1.1,0.4,2.2,0.5,3.3c0.3,1.9,0.6,3.8,0.8,5.7c0.2,1.3,0.2,2.6,0.4,4
		c0.3,2.6,0.7,5.2,1,7.9c0.3,3.2,0.5,6.5,0.8,9.7c0.3,2.8,0.8,5.5,1.2,8.3C150.4,239,150.5,240,150.6,241.1z M95.4,194.3
		c0,0.6,0,1.3,0,1.9c0.2,1.2,0.5,2.4,0.7,3.7c0.8,5,1.5,10,2.2,15c0.5,3.4,1,6.7,1.5,10.1c0.2,1,0.7,2,0.7,3c0.4,5,1.2,10,2.3,14.9
		c0.3,1.4,0.8,2.8,1.4,4.1c0.7,1.4,1.8,2.8,3.5,2.6c4.3-0.6,8.6-1.4,12.8-2.1c1.7-0.3,3.3-0.3,5-0.4c0.5,0,1-0.1,1.5-0.2
		c3.9-0.6,7.8-1.2,11.8-1.7c3-0.4,6.1-0.4,9.3-0.6c0.4-0.9,0.6-1.8,0.7-2.7c-0.3-3.4-0.8-6.7-1.2-10.1c-0.3-2.6-0.6-5.2-0.9-7.9
		c-0.3-2.9,0-5.9-0.7-8.9s-0.5-6.3-1.3-9.4c-0.1-0.4-0.1-0.7-0.1-1.1c0.1-2.1-0.2-4.3-0.9-6.3c-0.4-2-1-4-1.7-5.9
		c-1.4-3.5-2.4-3.9-5.5-3.3c-1,0.2-1.9,0.5-3,0.8c0.1,0.7,0.1,1.2,0.2,1.7c0.4,2.8,0.9,5.5,1.1,8.3c0.1,2.2,0.1,4.4-0.1,6.7
		c-0.1,1.8-0.2,3.5-0.3,5.3c-0.1,0.8,0.4,1.5,1.1,1.7c1.8,0.8,3.2,2.2,4.1,3.9c0.9,1.5,1.8,3,2.7,4.5c0.4,0.7,0.6,1.5,0.8,2.3
		c0.3,1.4,0.5,2.9,0.6,4.4c0.3,3.7,0.1,7.4-0.6,11c0,0.9-0.8,1.7-1.7,1.7c-0.1,0-0.2,0-0.4,0c-1.1-4.3-5-9.9-8.6-10.8
		c-1.3,0.5-2.6,0.9-3.9,1.2c-3.9,0.8-7.8,0.9-11.8,0.5c-1.5-0.3-3,0.4-3.8,1.7c-1.1,1.8-1.8,3.7-2,5.8c-0.2,1.9,0,4-1.7,5.8
		c-0.7-0.6-1.4-1.4-2-2.1c-1.1-1.7-2-3.4-2.9-5.2c-0.4-0.7-0.6-1.5-0.6-2.3c0.1-3.1,0.2-6.2,0.5-9.2c0.3-2.8,1.1-5.5,2.5-7.9
		c0.2-0.5,0.7-0.8,1.2-0.7c0.1,0,0.2,0.1,0.3,0.1c0,0.5-0.1,1-0.2,1.5c-2.1,3.8-2.1,8.1-2.5,12.3c-0.3,3.4,0.5,6.5,3.3,9
		c0.1-0.6,0.2-1,0.3-1.5c0.6-2.7,0.9-5.5,2.9-7.6c0.6-0.6,1.1-1.2,1.4-1.6c-1-2.4-2.3-4.6-2.8-6.9c-0.7-3.1-2.2-5.9-2.8-9
		c-0.4-1.9-1-3.7-1.5-5.5c-0.7-2.5-1.4-5.1-1.9-7.7c-0.3-1.7-0.4-3.5-0.4-5.3c0-0.8,0.3-1.3,1.4-1.3c0.1,0.6,0.2,1.2,0.3,1.8
		c0.1,1.4,0.3,2.8,0.5,4.1c1,4.2,2,8.3,3.1,12.4c0.8,3,1.7,6,2.7,8.9c0.8,2.1,1.8,4.2,2.9,6.2c0.8,1.7,2.7,2.7,4.6,2.4
		c2-0.2,4,0,5.9-0.3c4.1-0.7,4.3-0.1,5.7-4.6c0.9-2.9,1.3-6,1.4-9.1c0.1-3.1,0.1-6.3,0.2-9.4c0.1-3.1,0.2-6.2,0.1-9.3
		c-0.3-2.5-0.7-4.9-1.2-7.3c-0.4-0.1-0.7-0.1-1.1-0.1c-3.2,0.8-6.5,1.2-9.8,1.2c-2.5,0.1-5,0.2-7.5,0.5c-2.7,0.3-5.3,0.7-7.9,0.1
		c-0.4,0-0.7,0-1.1,0.1c-2.1,0.5-4.3,1-6.4,1.5C97.1,193.8,96.2,194.1,95.4,194.3z M134.7,215.8l-2,12.2c1.6,1,3.2,2.1,4.6,3.4
		c1.4,1.5,2.7,3,3.9,4.6c0.7-3.6,0.6-7.4-0.2-11c-0.7-2.8-2.3-5-3.7-7.4C136.7,216.6,135.8,216,134.7,215.8L134.7,215.8z"/>
	<path stroke="#231F20" stroke-miterlimit="10" d="M465.3,500c0.4-2.5,2.3-2.8,4-3.3c1.5-0.4,3,0,4,1.2c0.3,0.3,0.4,0.7,0.4,1.2
		c0,1.7-1.4,3-3,3c-0.2,0-0.3,0-0.5,0C468.3,502,466.6,501.2,465.3,500z M470.5,497.6l-3.1,1.5c1,1,2.3,1.5,3.7,1.2L470.5,497.6z"/>
	<path stroke="#231F20" stroke-miterlimit="10" d="M447.6,515.2c0.5,0.4,0.9,0.8,1.2,1.1c0.7,0.5,1,1.4,0.5,2.2
		c0,0.1-0.1,0.1-0.1,0.2c-0.5,0.7-1.4,1.6-2.1,1.6c-1.5-0.1-3-0.4-4.5-0.9c-0.5-0.1-1.1-0.8-1.1-1.1c0.1-0.6,0.5-1.2,1-1.5
		c0.9-0.4,1.9-0.8,2.9-1C446.2,515.5,446.9,515.4,447.6,515.2z M447.5,518.5c-1.3-1.7-2.1-1.8-3.6-0.7
		C445,518.3,446,519.1,447.5,518.5L447.5,518.5z"/>
	<path stroke="#231F20" stroke-miterlimit="10" d="M591.2,380.7c-2.1-2.5-5.5-1.7-7.1-4.3c0.7-2.3,4-2.9,4.3-5.9
		c0.8-0.2,1.8-0.5,2.9-0.8c0.3-0.1,0.6-0.1,0.9,0c1.7,0.5,3.4,1,5.1,1.5c0.1,1.5-0.9,2.3-1.7,3.1c-1.1,1.3-2.1,2.7-2.7,4.2
		C592.4,379.4,591.8,380.1,591.2,380.7z M591.4,378.1l4-5.9c-1.7-0.2-3-0.4-4.4-0.5c-0.3,0-0.6,0.1-0.8,0.3
		c-1.3,1.1-2.6,2.3-3.9,3.5c0.3,0.3,0.4,0.6,0.5,0.7C588.4,376.8,589.8,377.4,591.4,378.1L591.4,378.1z"/>
	<path stroke="#231F20" stroke-miterlimit="10" d="M580,319.3c-1.3,0.1-2.7,0.1-4,0c-1.2-0.2-2.4-0.5-3.6-1c-1-0.3-1.6-1.3-1.3-2.3
		c0-0.2,0.1-0.3,0.2-0.4c1-2.3,2.1-4.5,3.2-6.7c0.2-0.4,0.7-0.7,1.1-1c1.9,3.1,5,1.6,7.8,2.4C582.3,313.3,582,316.6,580,319.3z
		 M572.8,315.8c0.5,2,2.1,1.6,3.2,1.8c1.2,0.4,2.5,0.3,3.6-0.3c0.1-0.1,0.2-0.2,0.3-0.3c1.1-1.7,1.6-3.6,1.7-5.6l-6.5-0.6
		L572.8,315.8z"/>
	<path stroke="#231F20" stroke-miterlimit="10" d="M526.3,328.3c-0.1-2.2-0.7-4.3-1.9-6.2c-0.3-0.5-0.4-1.1-0.2-1.6
		c0.3-0.7,0.9-0.4,1.5-0.1c0.3,0.1,0.7,0.2,1,0.1c2-0.7,4-1.4,6-2.2c1-0.4,1.5-0.3,1.6,0.6c0.3,1.8,0.6,3.6,0.8,5.4s0,1.9-1.7,2.3
		c-1.2,0.3-2.4,0.7-3.6,1C528.8,327.8,527.7,328,526.3,328.3z M526.6,322.6c0.3,1,0.6,1.7,0.9,2.5c0.5,1.3,1.1,1.6,2.4,1.1
		s2.4-1,3.7-1.5l-0.2-4.5C530.9,320.3,528.5,321.2,526.6,322.6L526.6,322.6z"/>
	<path stroke="#231F20" stroke-miterlimit="10" d="M581.4,462c1.3,0.3,2.4,0.6,3.5,0.8s2.4-1,2.9-2.3c0.3-0.7,0.5-1.4,0.6-2.1
		c0.3-1.6,0.1-2.1-1.6-2.8c-0.2-0.1-0.4-0.2-0.6-0.3c-0.4-0.3-0.8-0.6-1.5-1.2l1.8-1.2c0.9,0.5,1.7,1.1,2.5,1.8
		c0.5,0.5,1.1,1.2,1.1,1.7c-0.3,3-1.4,5.8-3.1,8.3c-0.2,0.3-0.6,0.4-1.1,0.8c-1.8-2.3-4.8-1.3-7.1-2.2l4.8-8.2
		c1.2,1.6,0,2.6-0.5,3.6S582,460.7,581.4,462z"/>
	<path stroke="#231F20" stroke-miterlimit="10" d="M576.6,446.1l1.8-0.5l3,5.8c-1.6,1.4-1.9,1.3-2.6-0.6
		C578.1,449.3,577.4,447.8,576.6,446.1z"/>
	<path stroke="#231F20" stroke-miterlimit="10" d="M586.4,370.2c-0.3,0.6-1.1,0.9-1.7,0.6c-0.1-0.1-0.3-0.2-0.4-0.3
		c-1.4-1.1-2.8-2.3-4.2-3.5c0.8-1,1.4-1.2,2.4-0.4C583.9,367.7,585,368.9,586.4,370.2z"/>
	<path stroke="#231F20" stroke-miterlimit="10" d="M567.3,311c-2.3,0.2-4.3-0.6-6.3-1.3c0.3-1.1,1-1.5,1.8-1.2
		C564.4,308.9,566.3,309.1,567.3,311z"/>
	<path stroke="#231F20" stroke-miterlimit="10" d="M528.3,309.6l-0.6,1.5l3.6,3.4c-2.7,0-4.5-1.5-4.7-3.4
		C526.5,310,526.6,309.8,528.3,309.6z"/>
	<path stroke="#231F20" stroke-miterlimit="10" d="M586.5,449c-0.5,0.1-1.1,0.3-1.3,0.2c-1.2-1-2.3-2.2-3.4-3.3
		c0.4-1.1,1.2-1.3,2-0.6c1.1,0.9,2,2,3,3.1L586.5,449z"/>
	<path stroke="#231F20" stroke-miterlimit="10" d="M523.1,312.9l-0.7,1.3c1.1,1,1.1,1,1.4,2c-1.4,0-1.8-0.2-3.8-1.9
		C521,312.6,521.7,312.3,523.1,312.9z"/>
	<path stroke="#231F20" stroke-miterlimit="10" d="M591.8,362c0,1.7,0,3.2,0,4.7c-0.1,0.3-0.3,0.5-0.6,0.6c-0.3,0.1-0.6,0-0.8-0.2
		c-0.6-0.7-0.1-4.3,0.6-4.9C591.3,362,591.6,362,591.8,362z"/>
	<path stroke="#231F20" stroke-miterlimit="10" d="M561.8,315.1c1.2-1.5,1.7-1.5,4-0.1C564,316.5,563.5,316.5,561.8,315.1z"/>
	<path stroke="#231F20" stroke-miterlimit="10" d="M191.9,376c1.1-1.9,1.2-2,2.4-1.1c0.9,0.6,1.8,1.3,2.6,2.1
		c0.2,0.2,0.2,0.8,0.1,1.1c-0.3,0.2-0.6,0.2-0.9,0.1C194.7,377.6,193.4,376.8,191.9,376z"/>
	<path stroke="#231F20" stroke-miterlimit="10" d="M201.9,374.9l-3.1-1.3c0.5-1.4,0.8-1.6,2.1-1.3C202,372.6,202.2,373,201.9,374.9z
		"/>
	<path stroke="#231F20" stroke-miterlimit="10" d="M208.2,366.7c-1.5,0.6-2.3-0.4-3.6-1.2c0.6-0.5,1-1.1,1.6-1.2
		C207.1,364.2,207.9,365.2,208.2,366.7z"/>
	<path stroke="#231F20" stroke-miterlimit="10" d="M212.7,361.7c-1.2,0.6-2.6,0.6-3.8,0.2C209.3,360,210.5,359.9,212.7,361.7z"/>
	<path stroke="#231F20" stroke-miterlimit="10" d="M109.4,497c0.3-0.5,0.6-1,1-1.5c3-2.8,6.2-5.5,9.1-8.3c2-2,3.7-4.2,5.6-6.2
		c0.7-0.8,1.3-1.5,2-2.3c0.5-0.8,1.6-1.1,2.5-0.7l-19.6,19.5L109.4,497z"/>
	<path stroke="#231F20" stroke-miterlimit="10" d="M127.1,464.2l-1.7-0.3C126.2,462.6,126.7,463,127.1,464.2z"/>
	<path stroke="#231F20" stroke-miterlimit="10" d="M136.1,466.8c0.9-0.8,1.6-0.2,2.2,0.4C137.5,467.8,136.8,467.1,136.1,466.8
		L136.1,466.8z"/>
	<path stroke="#231F20" stroke-miterlimit="10" d="M136.2,466.7l-1.8-0.7C135.2,465.8,136.1,465.2,136.2,466.7L136.2,466.7z"/>
	<path stroke="#231F20" stroke-miterlimit="10" d="M96.1,408c-2.3-0.3-4.5-0.6-6.8-1.1c-5-1.4-7.8-5.9-8.3-10.7
		c-0.3-2.5,0.6-4.8,1-7.2c0.2-1.4,1.5-2.7,2.4-3.9c1.2-1.7,2.5-3.2,4.1-4.5c1.2-1,2.8-1.4,4.3-1.1c1.4,0.2,2.8,0.3,4.2,0.3
		c1.4-0.1,2.8,0.2,4.1,0.8c0.7,0.3,1.4,0.5,2.1,0.6c0.4,0.1,0.9,0.2,1.2,0.4c2,1.4,4.1,2.9,5.3,5.1c1.2,2.1,1.6,4.6,1.2,7
		c-0.3,2.1-0.8,4.2-1.6,6.2c-1.5,3.8-4.8,6.6-8.8,7.4C99.3,407.7,97.9,407.7,96.1,408z M98.5,405.9c1.2,0.2,3.1-0.4,5.1-1.4
		c2-1,3.5-2.7,4.2-4.8c0.4-0.9,0.7-1.9,0.9-2.9c0.4-1.6,0.7-3.3,0.7-5c0-3.7-2.7-6.1-5-8.5c-0.2-0.2-0.5-0.3-0.8-0.4
		c-1.3-0.4-2.5-0.8-3.8-1.2c-1.3-0.6-2.7-0.7-4.1-0.4c-0.8,0.3-1.6,0.2-2.3-0.1c-1.6-1.2-2.9-0.3-4,0.6c-1.2,1.2-2.2,2.5-3.2,3.8
		c-0.9,1-1.6,2.1-2.1,3.3c-0.7,2-1,4.1-1,6.3c0,3.8,2.2,7.4,5.7,9C91.5,405.8,94.5,405.6,98.5,405.9z"/>
	<path stroke="#231F20" stroke-miterlimit="10" d="M114.5,373.4c0.1,2.4-3.1,4.6-5.2,3.4c-0.7-0.4-1.3-1.2-1.4-2
		c0-0.7,0.7-1.5,1.3-2.1c0.7-0.6,1.5-1.1,2.3-1.5C112.9,370.5,114.5,371.7,114.5,373.4z M113,374c-2.1-0.9-2.5-0.7-2.9,0.8
		C111.9,375.6,111.9,375.6,113,374L113,374z"/>
	<path stroke="#231F20" stroke-miterlimit="10" d="M303.6,437.1l-2,1.2c-3.1-2.4-6.8-2.9-10.5-2.9c-3.3,0-6.6,0.2-9.9,0.4
		c-5.6,0.4-11.1,1.6-16.4,3.6c-3,0.9-5.7,2.5-7.9,4.6c-0.5,0.7-1.4,0.9-2.1,0.5c1.2-1.7,2.7-3,4.5-4.1c6.7-3.5,14-5,21.4-6
		c4.1-0.5,8.2-0.7,12.4-0.6c3,0.1,6,0.7,8.8,1.9C302.4,436,303.1,436.5,303.6,437.1z"/>
	<path stroke="#231F20" stroke-miterlimit="10" d="M299.8,455.8c-0.5,0-1-0.1-1.5-0.2c-2-1.1-4.2-1.7-6.5-1.9
		c-5.8-0.8-11.8-0.4-17.5,1.1c-2.3,0.6-4.7,1.3-7,2c-2.2,0.6-4.1,1.7-5.6,3.4c-0.5,0.5-0.9,0.9-1.8,0.5c0.4-1.5,1.5-2.8,2.9-3.3
		c5.5-2.6,11.3-4.4,17.3-5.2c4.2-0.5,8.5-0.5,12.8-0.1c1.8,0.2,3.6,0.7,5.3,1.4c0.7,0.3,1.3,1.1,1.9,1.7L299.8,455.8z"/>
	<path stroke="#231F20" stroke-miterlimit="10" d="M275.9,471.7c-2.2,0.8-4.2,1.6-5.6,3.5c-0.5,0.7-0.6,0.7-2.2,0.6
		c0.4-0.7,0.9-1.4,1.4-2c3-2.9,6.1-5.6,10.2-6.8c3.2-1,6.5-1.4,9.8-1.2c1.6,0.4,3.1,1.1,4.4,2.2c-0.6,0.9-1.9,1.1-2.8,0.4
		c0,0,0,0-0.1,0c-1.3-0.8-2.9-1.1-4.5-0.9c-3.3,0.1-6.6,0.9-9.6,2.2C276.1,470.2,275.4,470.6,275.9,471.7z"/>
	<path stroke="#231F20" stroke-miterlimit="10" d="M501.3,450.7c0,0.4,0.1,0.6,0,0.7c-2.6,3-3.5,6.9-5.7,10.1
		c-2.5,3.7-8.2,8-13.7,6.1c-1.5-0.5-3-0.9-4.6-1.4c-0.1,0-0.3-0.1-0.4-0.2c-2.3-2.7-4.7-5.5-5.1-9.3c0-0.4,0.1-0.7,0.1-1.1
		c0.9-0.2,1.8-0.4,2.7-0.5c2.8,0,5.6,0.3,8.4,0.3c1.3,0.1,2.7,0,4-0.3c2.5-0.5,5-1.3,7.5-1.7c1.9-0.5,3.6-1.2,5.2-2.3
		C500.2,450.9,500.7,450.8,501.3,450.7z M473.8,456.3c-0.1,1.9-0.2,2,1.1,4.2c1.1,1.9,2.1,4,4.3,4.9c1.6,0.7,3.3,1.2,5,1.5
		c1.2,0.2,2.5,0,3.6-0.6c3.5-2,6.2-5,7.9-8.6c0.6-1.2,1-2.5,1.6-3.9c-3.5,0.8-6.7,1.6-9.9,2.2c-2.1,0.4-4.2,0.5-6.4,0.5
		c-1.7,0-3.3-0.4-5-0.5C475.3,456.2,474.6,456.2,473.8,456.3L473.8,456.3z"/>
	<path stroke="#231F20" stroke-miterlimit="10" d="M231.9,226.4c4.7-6.3,11.5-9.5,18.7-12.6c-0.4-0.2-0.9-0.3-1.4-0.5
		c-3.7-0.4-6.9-2.7-8.3-6.1c-1.1-2.3-1.2-5-0.2-7.4c0.7-1.5,1.5-3,2.4-4.4c1.2-1.8,3-3.1,5-3.6c2.1-0.6,4.3-1.3,6.4-0.8
		c3.9,0.9,7,3.8,8.1,7.6c0.5,1.4,0.8,2.8,1.3,4.2c1,3,0.4,5.5-2.2,7.5c-0.6,0.4-1.1,1-1.9,1.8c3.6,0.9,7.1,1.3,10.2,3.2
		c3.1,1.7,5.8,4.2,7.8,7.1c-0.8,1-1.7,0.5-2.5,0c-0.5-0.3-1-0.7-1.3-1.2c-1.3-2.6-4-3.4-6.3-4.6c-3.6-1.9-7.7-2.7-11.8-2.4
		c-1.1,0.2-2.2,0.5-3.2,0.9c-3.8,1.1-7.5,2.7-10.9,4.7c-2.8,1.7-5.4,3.4-7.5,6c-0.5,0.9-1.5,1.2-2.4,0.7
		C232,226.5,231.9,226.4,231.9,226.4z M253.7,212c2,0.1,4-0.9,6.6-2.5c2.8-1.8,2.8-4.2,1.6-7.1c-0.3-0.5-0.5-1-0.7-1.6
		c-0.3-2.1-1.3-4.1-2.9-5.6c-0.6-0.7-1.2-1.9-2.5-1.1c-0.1,0.1-0.5-0.2-0.7-0.4c-1.1-0.8-2.4-1.2-3.7-1c-2.8,0.2-5.5,1.2-7.1,3.9
		c-0.6,0.9-1.1,1.8-1.5,2.7c-1.5,3.2-0.6,8.1,2.4,10.2C247.8,211,250.7,211.9,253.7,212z"/>
	<path stroke="#231F20" stroke-miterlimit="10" d="M123.8,158.3c0.3,2.4-0.8,4.8-2.8,6.2c-2.2,1.6-5.7,1.5-7.2-0.5
		c-0.7-1-1.2-2.2-1.5-3.4c-0.7-1.8-0.9-3.9-0.5-5.8c0.2-0.6,0.5-1.2,0.8-1.8c0.4-0.6,0.7-1.3,0.9-1.9c0.4-1.3,1.4-2.3,2.6-2.8
		c1-0.5,2.2-0.2,2.8,0.8c0.4,0.5,0.9,1,1.4,1.4C122.6,152.5,123.8,155.3,123.8,158.3z M116.5,150.5c-0.2,0.1-0.4,0.2-0.6,0.3
		c-0.2,0.1-0.4,0.3-0.5,0.4c-2,2.8-2.4,6.5-1,9.6c0.4,1.1,1.1,2,2.1,2.7c1.8,0.8,5-1.1,5.4-3.1C122.8,156.7,122.1,152.3,116.5,150.5
		L116.5,150.5z"/>
	<path stroke="#231F20" stroke-miterlimit="10" d="M96.2,403.5c-2.2,0.5-4.4-0.8-6.7-1.6c-1.6-0.6-2.5-2.3-3.1-3.9
		c-0.6-1.6-0.9-3.2-0.9-4.9c-0.1-2.4,1.5-4.1,2.9-5.7c1.6-1.9,3.8-3.2,6.3-3.8c0.5-0.2,1-0.2,1.5-0.2c1.9,0.4,3.7,0.9,5.6,1.4
		c0.6,0.2,1.1,0.5,1.4,1c0.8,1,1.5,2.2,2.2,3.3c1.7,2.3,1.4,4.8,0.8,7.4c-0.6,2.5-2.3,4.7-4.7,5.8C100,403.2,98.1,403.6,96.2,403.5z
		 M91.6,399l-0.5-0.4c0.3-0.5,0.7-1,1.1-1.4c0.4-0.4,1-0.7,1.3-1.1c2.4-3.8,6.1-5.3,10.5-6.1c-1-1.2-1.7-2.8-2.9-3.5
		c-1.1-0.9-2.7-1.1-4-0.5c-0.4,0.2-1,0.5-1.3,0.4s-0.4-0.8-0.6-1.2c-1.7,0.2-3.2,1-4.3,2.3c-2,1.9-3.7,4.1-3.2,7.2
		c0.4,2.6,1.3,5,3.9,6c2.1,0.8,4.3,1.2,6.5,1.1c3.9,0,7-3.1,7-7c0-1.1-0.3-2.2-0.8-3.2c-3.7-0.2-6.4,1.7-8.9,4.1
		C94.2,396.7,93.3,398.4,91.6,399L91.6,399z"/>
	<path stroke="#231F20" stroke-miterlimit="10" d="M103,395.8c-0.3,0.3-0.6,0.5-1,0.8c-2,0.9-4,1.6-6.1,2.2c1.1-1.7,3-2,4.6-2.9
		C101.2,395.3,102.3,395.2,103,395.8z"/>
</g>
</svg>
