<svg id="Layer_1" data-name="Layer 1" xmlns="http://www.w3.org/2000/svg" xmlns:xlink="http://www.w3.org/1999/xlink" viewBox="0 0 1400.39 566.8"><defs><style>.cls-1,.cls-17,.cls-2,.cls-25,.cls-28,.cls-31,.cls-35,.cls-37,.cls-4{fill:none;}.cls-2,.cls-3{clip-rule:evenodd;}.cls-22,.cls-24,.cls-3{fill:#6d6e71;}.cls-17,.cls-24,.cls-25,.cls-3,.cls-31,.cls-37{stroke:#231f20;}.cls-17,.cls-24,.cls-25,.cls-28,.cls-3,.cls-31,.cls-35,.cls-37,.cls-4{stroke-miterlimit:10;}.cls-17,.cls-24,.cls-25,.cls-3,.cls-4{stroke-width:1.35px;}.cls-28,.cls-35,.cls-4{stroke:#989898;}.cls-5{clip-path:url(#clip-path);}.cls-6{opacity:0.8;isolation:isolate;}.cls-7{clip-path:url(#clip-path-2);}.cls-8{clip-path:url(#clip-path-3);}.cls-9{fill:#81d1f5;}.cls-10{clip-path:url(#clip-path-5);}.cls-11{clip-path:url(#clip-path-7);}.cls-12{clip-path:url(#clip-path-9);}.cls-13{clip-path:url(#clip-path-10);}.cls-14{fill:#fff;}.cls-15{clip-path:url(#clip-path-13);}.cls-16{fill:#676767;}.cls-18{clip-path:url(#clip-path-16);}.cls-19{clip-path:url(#clip-path-19);}.cls-20{clip-path:url(#clip-path-22);}.cls-21{clip-path:url(#clip-path-25);}.cls-22,.cls-25{fill-rule:evenodd;}.cls-23{clip-path:url(#clip-path-28);}.cls-26{clip-path:url(#clip-path-29);}.cls-27{clip-path:url(#clip-path-30);}.cls-28,.cls-31{stroke-width:1.44px;}.cls-29{clip-path:url(#clip-path-33);}.cls-30{fill:#888;}.cls-32{clip-path:url(#clip-path-36);}.cls-33{clip-path:url(#clip-path-37);}.cls-34{clip-path:url(#clip-path-38);}.cls-35,.cls-37{stroke-width:1.37px;}.cls-36{clip-path:url(#clip-path-40);}.cls-38{clip-path:url(#clip-path-43);}.cls-39{clip-path:url(#clip-path-45);}.cls-40{fill:#454545;}</style><clipPath id="clip-path"><rect class="cls-1" x="1087.29" y="141.14" width="247.28" height="274.15"/></clipPath><clipPath id="clip-path-2"><rect class="cls-1" x="1095.35" y="150.55" width="231.15" height="255.34"/></clipPath><clipPath id="clip-path-3"><path class="cls-2" d="M1214.35,291.83c0-6.77,4.71-15.08,10.52-18.46L1314.68,221c5.8-3.38,10.56-.62,10.56,6.16l.07,104.28c0,6.77-4.74,15.08-10.54,18.46l-89.54,52.23c-5.8,3.39-10.57.62-10.59-6.15Z"/></clipPath><clipPath id="clip-path-5"><path class="cls-2" d="M1098,229.68c0-6.66,4.64-9.39,10.35-6.06l87.7,51.06c5.71,3.32,10.37,11.5,10.36,18.15l-.23,102.56c0,6.66-4.69,9.37-10.39,6l-87.1-51.13c-5.7-3.35-10.38-11.53-10.4-18.19Z"/></clipPath><clipPath id="clip-path-7"><path class="cls-2" d="M1115.21,204.46c-6,3.48-6,9.16,0,12.63l85,49.39c6,3.47,15.72,3.45,21.68,0l84.67-49.64c6-3.49,6-9.21,0-12.7l-84.23-49.44c-6-3.5-15.7-3.51-21.66,0Z"/></clipPath><clipPath id="clip-path-9"><rect class="cls-1" x="765.86" y="140.85" width="247.81" height="274.75" transform="matrix(0.5, -0.87, 0.87, 0.5, 203.94, 909.67)"/></clipPath><clipPath id="clip-path-10"><path class="cls-2" d="M877.31,410.63c6.73,3.86,17.76,3.82,24.52-.09l95.63-55.34c6.76-3.91,12.31-13.5,12.34-21.31l.43-111.89c0-7.81-5.45-17.35-12.18-21.21l-95.83-55c-6.73-3.86-17.76-3.82-24.52.09l-95.63,55.34c-6.76,3.91-12.31,13.5-12.34,21.31l-.43,111.89c0,7.81,5.45,17.35,12.18,21.21Z"/></clipPath><clipPath id="clip-path-13"><path class="cls-2" d="M956,361.07a9.55,9.55,0,0,0,4.39-7.6l-1-97.53c0-2.81-2.05-3.95-4.49-2.56a9.53,9.53,0,0,0-4.4,7.61l1,97.53c0,2.79,2.05,3.95,4.51,2.55"/></clipPath><clipPath id="clip-path-16"><path class="cls-2" d="M939.21,370.6a9.55,9.55,0,0,0,4.4-7.61l-1-97.53c0-2.81-2.05-3.95-4.51-2.55a9.53,9.53,0,0,0-4.39,7.6l1,97.53c0,2.79,2.05,3.95,4.49,2.56"/></clipPath><clipPath id="clip-path-19"><path class="cls-2" d="M921.81,374.15l.5-.28a8.94,8.94,0,0,0,4.13-7.14l-.92-85.61c0-2.65-1.92-3.73-4.23-2.42l-.5.28a9,9,0,0,0-4.13,7.16l.92,85.61c0,2.63,1.92,3.71,4.24,2.4"/></clipPath><clipPath id="clip-path-22"><path class="cls-2" d="M971.79,345.82l.5-.28a9,9,0,0,0,4.13-7.14l-.92-85.61c0-2.65-1.93-3.72-4.23-2.41l-.5.28a9,9,0,0,0-4.13,7.16l.92,85.61c0,2.63,1.92,3.71,4.23,2.4"/></clipPath><clipPath id="clip-path-25"><path class="cls-2" d="M906,370a7.62,7.62,0,0,0,3.53-6.09l-.65-61c0-2.24-1.64-3.16-3.61-2l-1.66.94a7.64,7.64,0,0,0-3.52,6.09l.65,61c0,2.25,1.64,3.16,3.61,2Z"/></clipPath><clipPath id="clip-path-28"><path class="cls-3" d="M987.3,323.94,989,323a7.64,7.64,0,0,0,3.53-6.09l-.66-61c0-2.24-1.64-3.16-3.61-2l-1.67.95a7.65,7.65,0,0,0-3.51,6.08l.65,61c0,2.25,1.64,3.16,3.6,2.05"/></clipPath><clipPath id="clip-path-29"><rect class="cls-1" x="401.06" y="136.61" width="264.8" height="293.58" transform="translate(21.3 603.69) rotate(-60)"/></clipPath><clipPath id="clip-path-30"><path class="cls-2" d="M649.33,201.13c7.17,4.16,13,14.4,13,22.74l-.12,118.06c0,8.34-5.91,18.61-13.12,22.81L545.78,424.92c-7.21,4.2-19,4.23-26.14.06L417.59,365.67c-7.17-4.16-13-14.4-13-22.74l.12-118.06c0-8.34,5.91-18.61,13.13-22.81l103.31-60.18c7.21-4.2,19-4.23,26.14-.06Z"/></clipPath><clipPath id="clip-path-33"><path class="cls-2" d="M548.71,412.19c-6.56,3.79-11.93.69-11.92-6.89l.15-107.93c0-7.58,5.4-16.87,12-20.65L642.37,223c6.57-3.78,12-.66,12,6.92l.31,107.25c0,7.58-5.33,16.88-11.9,20.67Z"/></clipPath><clipPath id="clip-path-36"><path class="cls-2" d="M554.13,401.26c-5.8,3.35-10.55.61-10.54-6.09l.13-95.45c0-6.7,4.77-14.92,10.59-18.26L637,234c5.81-3.34,10.58-.58,10.6,6.12l.27,94.85c0,6.7-4.72,14.93-10.52,18.28Z"/></clipPath><clipPath id="clip-path-37"><path class="cls-2" d="M314.18,227.19c0-7.87-5.66-17.54-12.52-21.5l-97.13-55.94c-6.86-4-18.11-4-25,0L81,206.09c-6.88,3.93-12.48,13.59-12.46,21.46l.32,112.07c0,7.87,5.66,17.54,12.52,21.5l97.13,55.94c6.86,4,18.11,4,25,0L302,360.71c6.88-3.93,12.48-13.59,12.46-21.46Z"/></clipPath><clipPath id="clip-path-38"><rect class="cls-1" x="65.83" y="144.04" width="251.4" height="278.72"/></clipPath><clipPath id="clip-path-40"><path class="cls-2" d="M259.21,282.95c18.31-11,33.26-2.14,33.32,19.74s-14.79,48.63-33.1,59.63-33.26,2.14-33.32-19.75,14.79-48.62,33.1-59.62"/></clipPath><clipPath id="clip-path-43"><path class="cls-2" d="M259.23,288.53c15.73-9.45,28.57-1.83,28.62,17s-12.7,41.78-28.43,51.23-28.58,1.84-28.63-17,12.71-41.78,28.44-51.22"/></clipPath><clipPath id="clip-path-45"><path class="cls-2" d="M259.27,305.51c7.9-4.74,14.34-.92,14.37,8.51s-6.38,21-14.27,25.72-14.35.93-14.37-8.52,6.38-21,14.28-25.71"/></clipPath></defs><title>fourblocks</title><path class="cls-4" d="M1331.28,222.05c0-7.45-5.31-16.6-11.75-20.34l-96.2-55.9c-6.44-3.74-17-3.76-23.43,0l-97.56,56.33c-6.45,3.72-11.71,12.86-11.69,20.31l.32,112c0,7.45,5.31,16.6,11.75,20.34l96.2,55.9c6.44,3.74,17,3.76,23.43,0l97.56-56.33c6.45-3.72,11.71-12.86,11.69-20.31Z"/><g class="cls-5"><g class="cls-6"><g class="cls-7"><g class="cls-8"><g class="cls-7"><rect class="cls-9" x="1200.91" y="206.1" width="137.84" height="210.89"/></g></g><g class="cls-10"><g class="cls-7"><rect class="cls-9" x="1084.6" y="208.77" width="135.28" height="207.53"/></g></g><g class="cls-11"><g class="cls-7"><rect class="cls-9" x="1097.3" y="138.6" width="227.14" height="143.92"/></g></g></g></g></g><g class="cls-12"><g class="cls-13"><rect class="cls-14" x="755.09" y="130.07" width="269.36" height="296.3" transform="translate(203.94 909.67) rotate(-60)"/></g></g><g class="cls-12"><path class="cls-4" d="M877.31,410.63c6.73,3.86,17.76,3.82,24.52-.09l95.63-55.34c6.76-3.91,12.31-13.5,12.34-21.31l.43-111.89c0-7.81-5.45-17.35-12.18-21.21l-95.83-55c-6.73-3.86-17.76-3.82-24.52.09l-95.63,55.34c-6.76,3.91-12.31,13.5-12.34,21.31l-.43,111.89c0,7.81,5.45,17.35,12.18,21.21Z"/></g><g class="cls-12"><g class="cls-15"><rect class="cls-16" x="893.79" y="265.26" width="123.29" height="83.92" transform="translate(211.65 981.04) rotate(-60)"/></g></g><g class="cls-12"><path class="cls-17" d="M956,361.07a9.55,9.55,0,0,0,4.39-7.6l-1-97.53c0-2.81-2.05-3.95-4.49-2.56a9.53,9.53,0,0,0-4.4,7.61l1,97.53c0,2.79,2.05,3.95,4.51,2.55"/></g><g class="cls-12"><g class="cls-18"><rect class="cls-16" x="877" y="274.78" width="123.29" height="83.92" transform="translate(195.01 971.26) rotate(-60)"/></g></g><g class="cls-12"><path class="cls-17" d="M939.21,370.6a9.55,9.55,0,0,0,4.4-7.61l-1-97.53c0-2.81-2.05-3.95-4.51-2.55a9.53,9.53,0,0,0-4.39,7.6l1,97.53c0,2.79,2.05,3.95,4.49,2.56"/></g><g class="cls-12"><g class="cls-19"><rect class="cls-16" x="865.16" y="287.57" width="112.79" height="77.71" transform="translate(178.08 961.3) rotate(-60)"/></g></g><g class="cls-12"><path class="cls-17" d="M921.81,374.15l.5-.28a8.94,8.94,0,0,0,4.13-7.14l-.92-85.61c0-2.65-1.92-3.73-4.23-2.42l-.5.28a9,9,0,0,0-4.13,7.16l.92,85.61c0,2.63,1.92,3.71,4.24,2.4"/></g><g class="cls-12"><g class="cls-20"><rect class="cls-16" x="915.13" y="259.24" width="112.79" height="77.71" transform="translate(227.6 990.41) rotate(-60)"/></g></g><g class="cls-12"><path class="cls-17" d="M971.79,345.82l.5-.28a9,9,0,0,0,4.13-7.14l-.92-85.61c0-2.65-1.93-3.72-4.23-2.41l-.5.28a9,9,0,0,0-4.13,7.16l.92,85.61c0,2.63,1.92,3.71,4.23,2.4"/></g><g class="cls-12"><g class="cls-21"><rect class="cls-16" x="859.32" y="303.48" width="91.05" height="64.85" transform="translate(161.53 951.57) rotate(-60)"/></g></g><g class="cls-12"><path class="cls-17" d="M906,370a7.62,7.62,0,0,0,3.53-6.09l-.65-61c0-2.24-1.64-3.16-3.61-2l-1.66.94a7.64,7.64,0,0,0-3.52,6.09l.65,61c0,2.25,1.64,3.16,3.61,2Z"/></g><g class="cls-12"><path class="cls-22" d="M987.3,323.94,989,323a7.64,7.64,0,0,0,3.53-6.09l-.66-61c0-2.24-1.64-3.16-3.61-2l-1.67.95a7.65,7.65,0,0,0-3.51,6.08l.65,61c0,2.25,1.64,3.16,3.6,2.05"/><g class="cls-23"><rect class="cls-24" x="942.24" y="256.47" width="91.05" height="64.85" transform="translate(243.7 999.88) rotate(-60)"/></g><path class="cls-25" d="M987.3,323.94,989,323a7.64,7.64,0,0,0,3.53-6.09l-.66-61c0-2.24-1.64-3.16-3.61-2l-1.67.95a7.65,7.65,0,0,0-3.51,6.08l.65,61c0,2.25,1.64,3.16,3.6,2.05"/></g><g class="cls-26"><g class="cls-27"><rect class="cls-14" x="389.55" y="125.1" width="287.83" height="316.61" transform="translate(21.3 603.69) rotate(-60)"/></g></g><g class="cls-26"><path class="cls-28" d="M649.33,201.13c7.17,4.16,13,14.4,13,22.74l-.12,118.06c0,8.34-5.91,18.61-13.12,22.81L545.78,424.92c-7.21,4.2-19,4.23-26.14.06L417.59,365.67c-7.17-4.16-13-14.4-13-22.74l.12-118.06c0-8.34,5.91-18.61,13.13-22.81l103.31-60.18c7.21-4.2,19-4.23,26.14-.06Z"/></g><g class="cls-26"><g class="cls-29"><rect class="cls-30" x="470.98" y="239.49" width="249.25" height="156.34" transform="translate(22.7 674.65) rotate(-60)"/></g></g><g class="cls-26"><path class="cls-31" d="M548.71,412.19c-6.56,3.79-11.93.69-11.92-6.89l.15-107.93c0-7.58,5.4-16.87,12-20.65L642.37,223c6.57-3.78,12-.66,12,6.92l.31,107.25c0,7.58-5.33,16.88-11.9,20.67Z"/></g><g class="cls-26"><g class="cls-32"><rect class="cls-16" x="483.73" y="246.87" width="223.76" height="141.59" transform="translate(22.7 674.65) rotate(-60)"/></g></g><g class="cls-33"><g class="cls-34"><rect class="cls-14" x="54.9" y="133.11" width="273.26" height="300.58"/></g></g><g class="cls-34"><path class="cls-35" d="M314.18,227.19c0-7.87-5.66-17.54-12.52-21.5l-97.13-55.94c-6.86-4-18.11-4-25,0L81,206.09c-6.88,3.93-12.48,13.59-12.46,21.46l.32,112.07c0,7.87,5.66,17.54,12.52,21.5l97.13,55.94c6.86,4,18.11,4,25,0L302,360.71c6.88-3.93,12.48-13.59,12.46-21.46Z"/></g><g class="cls-36"><g class="cls-34"><rect class="cls-30" x="212.45" y="264.56" width="93.74" height="116.14"/></g></g><g class="cls-34"><path class="cls-37" d="M259.21,282.95c18.31-11,33.26-2.14,33.32,19.74s-14.79,48.63-33.1,59.63-33.26,2.14-33.32-19.75,14.79-48.62,33.1-59.62"/></g><g class="cls-38"><g class="cls-34"><rect class="cls-16" x="217.12" y="270.81" width="84.39" height="103.63"/></g></g><g class="cls-39"><g class="cls-34"><rect class="cls-40" x="231.33" y="289.81" width="55.97" height="65.63"/></g></g></svg>