<?xml version="1.0" encoding="utf-8"?>
<!-- Generator: Adobe Illustrator 21.1.0, SVG Export Plug-In . SVG Version: 6.00 Build 0)  -->
<svg version="1.2" baseProfile="tiny" id="Layer_1" xmlns="http://www.w3.org/2000/svg" xmlns:xlink="http://www.w3.org/1999/xlink"
	 x="0px" y="0px" viewBox="0 0 338 195" xml:space="preserve">
<path fill="#0095B3" d="M175.9,90.5c0-0.9,0.7-1.6,1.6-1.6c0.9,0,1.6,0.7,1.6,1.6c0,0.9-0.7,1.6-1.6,1.6
	C176.6,92.1,175.9,91.4,175.9,90.5 M210.9,65.6c0-1-0.2-2.6-0.2-2.6c-2.4-20.9-20.2-37.4-41.7-37.4c-23.2,0-42,18.8-42,42
	c0,8.5,2.2,15.8,6.6,22.7c0.3,0.4,0.7,0.4,0.8-0.1c0-0.1,0-0.3,0-0.3c0.1-1,0.4-2,0.9-2.8c0.5-0.7,1.1-1.4,2-1.9
	c0.3-0.2,1.1-0.5,1.7-0.4c0.8,0,1.4,0.5,1.5,0.6c1,0.8,2.7,2.4,3.6,3.1c2,1.5,3.6,2.4,5.4,3.2c3.7,1.8,6.3,2.2,6.3,2.3
	c-0.1,0.3-1.2,2.8-7.1,0.2c-1.9-0.8-3.9-2.1-5.9-3.7c-1-0.8-1.6-1.5-2.8-2.4c-0.7-0.5-2-0.3-2.8,0.5c-1.7,1.7-2,5.7,4.8,11.1
	c3.2,2.5,5.6,3.9,5.6,3.9c6.2,3.7,13.5,5.8,21.3,5.8c19.9,0,36.7-13.9,40.9-32.5c0.3-1.4,0.5-3.2,0.4-4.9c0-0.3-0.1-0.5-0.4-0.6
	c0.1,0-2.2-0.6-5.2,3c-1.4,1.6-2.6,4.2-4.3,6.6c-1.7,2.5-3.6,5-5.8,7.3c-4.3,4.5-9.9,8.6-15,8.6c-2.5,0-3.6-1-4.3-1.9
	c-0.8-1.2-0.4-1.5-0.1-1.2c0.2,0.2,0.4,0.4,0.7,0.6c0.4,0.3,1.2,0.9,3.5,0.8c4.5-0.2,9.8-4.1,13.8-8.6c2-2.3,3.9-4.8,5.4-7.2
	c1.6-2.4,2.6-4.9,4.3-7c1.6-2,4.3-3.5,6.2-3.4c0.2,0,0.4,0,0.5-0.3c0.1-0.1,0.1-0.3,0-0.4c-8.9-15.8-28.3,8.4-42.9,9.8
	c-19.4,1.8-23.6-13-22.4-21.4c1.6-11.5,10.9-21,25.2-22c18.1-1.2,26.9,9.8,27.9,13.1c0.6,1.5,1,3,0.5,6.2c-0.5,2.8-4.5,6.8-6.3,8.5
	c-0.4,0.4,0.1,0.3,0.3,0.3c2.2-1,4.4-2,5.5-2.4c1.4-0.4,2.8-0.8,3.6-1.2c0.5-0.3,1-0.7,1.3-0.9c0.3-0.3,0.8-0.3,1.2,0
	c0.4,0.4,0.4,1,0.8,1.4c0.2,0.3,0.7,0.7,1.1,0.9c1.3,0.6,4.4,3.3,5.4,5v0C210.8,66.2,210.9,65.8,210.9,65.6"/>
<path fill="#F79340" d="M172.4,50.1C172.4,50.1,172.4,50.1,172.4,50.1L172.4,50.1c0,0.7-0.6,1.3-1.4,1.3c-0.8,0-1.4-0.6-1.4-1.4
	c0-0.8,0.6-1.4,1.4-1.4C171.8,48.7,172.4,49.4,172.4,50.1 M190.1,45.1c-3.2-3.2-7.2-4.8-7.2-4.8c-4.7-2-11.7-2.1-11.7-2.1
	c-3.7,0.1-8.5,0.9-12.8,3.4c-4.1,2.4-8.3,6.8-9.9,12.5c-1.6,5.7-0.9,11.8,3.3,16.2c3.7,3.8,8,4.6,12,4.6c4,0,8.1-1.7,10.7-3.2
	c0,0,11.7-6.1,14.4-7.4c0.2-0.2,0-0.2-0.1-0.3c-2.2-0.1-5.5-0.1-6,0c-2,0-3.2,0-3.8,0.1c-0.8,0.2-1.6,0.2-2.3,1
	c-0.3,0.3-0.4,0.5-0.8,0.8c-0.3,0.3-0.6,0.5-1.2,0.4c-0.4-0.1-0.6-0.4-1.1-1.1c-0.3-0.5-1.1-1.1-1.5-1.2c-1.5-0.6-2.4-0.6-3.7-0.6
	c-1.7-0.1-3.6,0.4-4.6,0.7l0.1,0c-0.6,0.2-0.2,0.3,0,0.4c0.1,0,0.1,0.1,0.2,0.1c0.9,0.4,1.3,1,1.3,1c0.9,1.2,0.3,2.8,0.3,2.8
	c-0.4,1-1.4,1.4-1.4,1.4c-1,0.5-2.3,0.1-2.3,0.1c-2.1-0.5-2.6-2.3-2.6-2.3c-0.5-1.3,0.1-2.6,0.1-2.6c0.1-0.3-0.2-0.1-0.2-0.1
	c-0.3,0.1-0.5,0.2-0.5,0.2c-1,0.3-1.8,0.2-2.3,0.1c0,0,0,0,0,0c-0.9-0.2-1.6-1-2-1.6c-0.2-0.3-0.6-0.9-0.7-1.2
	c0-0.2-0.1-0.4-0.1-0.6c0-0.2,0.4-0.5,0.5-0.6c0.5-0.2,1-0.5,1.5-0.8c0.9-0.6,1.7-1.2,2.3-1.8c1.2-1.2,1.5-2.2,1.5-2.2
	c0.5,0,1.1,1.5-0.2,3c-0.6,0.7-1,1-1.9,1.6c-0.5,0.3-0.5,0.3-1.1,0.6c-0.3,0.2-0.8,0.4-0.5,0.9c0.7,1.1,1.7,1.4,3.3,1
	c0.8-0.2,1.6-0.6,2.4-1c1-0.6,1.5-0.8,1.7-0.9c0.1,0,0.3-0.1,0.3-0.2c2.9-1.2,6.6-0.6,6.6-0.6c6,1,9.5,1,13.3,0.6
	c3.2-0.3,5.4-1.6,7.1-2.9c0.5-0.4,0.9-0.7,1.2-1.1c0-0.4-0.9-0.8-2.7-0.7c-2.5,0.1-5.9,0.8-9.4,0.8c-3.4,0.1-7.1-0.2-9.5-1.7
	c-1.2-0.7-2-1.9-2.2-2.8c-0.2-0.9,0.1-1.2,0.2-1.2c0.1,0.1,0.3,1.6,2.5,2.7c2.3,1.2,5.7,1.3,9,1.1c3.4-0.2,6.3-0.7,9-1
	c1.3-0.1,2.9,0,3.7,0.6c0.4,0.3,0.7,0.1,0.9-0.1c0.1-0.2,0.2-0.4,0.3-0.6C195.1,52.4,193.4,48.1,190.1,45.1"/>
<polyline fill="#646E7B" points="47,163.6 48.2,163.6 48.2,166.2 51.2,166.2 51.2,163.6 52.4,163.6 52.4,170 51.2,170 51.2,167.3 
	48.2,167.3 48.2,170 47,170 47,163.6 "/>
<path fill="#646E7B" d="M55.9,166.8L55.9,166.8c0-1.8,1.4-3.3,3.4-3.3c2,0,3.4,1.5,3.4,3.3v0c0,1.8-1.4,3.3-3.4,3.3
	C57.2,170.1,55.9,168.6,55.9,166.8 M61.4,166.8L61.4,166.8c0-1.3-0.9-2.3-2.2-2.3c-1.3,0-2.2,1-2.2,2.3v0c0,1.2,0.9,2.3,2.2,2.3
	C60.5,169.1,61.4,168,61.4,166.8z"/>
<path fill="#646E7B" d="M65.6,169.1l0.7-0.8c0.6,0.5,1.2,0.8,2,0.8c0.7,0,1.1-0.3,1.1-0.8v0c0-0.5-0.3-0.7-1.4-1
	c-1.4-0.3-2.1-0.7-2.1-1.9v0c0-1.1,0.9-1.9,2.2-1.9c0.9,0,1.7,0.3,2.3,0.8l-0.6,0.9c-0.6-0.4-1.2-0.7-1.7-0.7c-0.7,0-1,0.3-1,0.8v0
	c0,0.5,0.3,0.7,1.5,1c1.4,0.3,2.1,0.8,2.1,1.9v0c0,1.2-0.9,1.9-2.3,1.9C67.3,170.1,66.4,169.7,65.6,169.1"/>
<path fill="#646E7B" d="M74.2,163.6h2.5c1.5,0,2.4,0.9,2.4,2.1v0c0,1.4-1.2,2.2-2.6,2.2h-1.3v2.1h-1.1V163.6 M76.6,166.9
	c0.9,0,1.4-0.5,1.4-1.1v0c0-0.8-0.5-1.1-1.4-1.1h-1.3v2.3H76.6z"/>
<rect x="82.7" y="163.6" fill="#646E7B" width="1.1" height="6.4"/>
<polyline fill="#646E7B" points="89.4,164.6 87.4,164.6 87.4,163.6 92.6,163.6 92.6,164.6 90.5,164.6 90.5,170 89.4,170 89.4,164.6 
	"/>
<path fill="#646E7B" d="M97.5,163.5h1l2.8,6.5h-1.2l-0.7-1.6h-3l-0.7,1.6h-1.2L97.5,163.5 M99.1,167.4l-1.1-2.6l-1.1,2.6H99.1z"/>
<polyline fill="#646E7B" points="104.8,163.6 105.9,163.6 105.9,169 109.3,169 109.3,170 104.8,170 104.8,163.6 "/>
<path fill="#646E7B" d="M115.4,166.7L115.4,166.7c0-0.5,0.4-0.9,0.9-0.9c0.5,0,0.9,0.4,0.9,0.9v0c0,0.5-0.4,0.9-0.9,0.9
	C115.8,167.7,115.4,167.3,115.4,166.7"/>
<path fill="#646E7B" d="M124.3,163.6h2.9c0.8,0,1.4,0.2,1.9,0.6c0.3,0.3,0.5,0.8,0.5,1.4v0c0,1.1-0.6,1.7-1.5,1.9l1.7,2.4h-1.3
	l-1.6-2.2h-1.4v2.2h-1.1V163.6 M127.1,166.8c0.8,0,1.3-0.4,1.3-1.1v0c0-0.7-0.5-1.1-1.3-1.1h-1.6v2.2H127.1z"/>
<polyline fill="#646E7B" points="133.2,163.6 138,163.6 138,164.6 134.3,164.6 134.3,166.2 137.6,166.2 137.6,167.3 134.3,167.3 
	134.3,169 138,169 138,170 133.2,170 133.2,163.6 "/>
<path fill="#646E7B" d="M141.2,169.1l0.7-0.8c0.6,0.5,1.2,0.8,2,0.8c0.7,0,1.1-0.3,1.1-0.8v0c0-0.5-0.3-0.7-1.4-1
	c-1.4-0.3-2.1-0.7-2.1-1.9v0c0-1.1,0.9-1.9,2.2-1.9c0.9,0,1.7,0.3,2.3,0.8l-0.6,0.9c-0.6-0.4-1.2-0.7-1.7-0.7c-0.7,0-1,0.3-1,0.8v0
	c0,0.5,0.3,0.7,1.5,1c1.4,0.3,2.1,0.8,2.1,1.9v0c0,1.2-0.9,1.9-2.3,1.9C142.9,170.1,142,169.7,141.2,169.1"/>
<polyline fill="#646E7B" points="149.8,163.6 154.6,163.6 154.6,164.6 150.9,164.6 150.9,166.2 154.2,166.2 154.2,167.3 
	150.9,167.3 150.9,169 154.6,169 154.6,170 149.8,170 149.8,163.6 "/>
<path fill="#646E7B" d="M160.5,163.5h1l2.8,6.5h-1.2l-0.7-1.6h-3l-0.7,1.6h-1.2L160.5,163.5 M162.1,167.4l-1.1-2.6l-1.1,2.6H162.1z"
	/>
<path fill="#646E7B" d="M167.8,163.6h2.9c0.8,0,1.4,0.2,1.9,0.6c0.3,0.3,0.5,0.8,0.5,1.4v0c0,1.1-0.6,1.7-1.5,1.9l1.7,2.4h-1.3
	l-1.6-2.2h-1.4v2.2h-1.1V163.6 M170.6,166.8c0.8,0,1.3-0.4,1.3-1.1v0c0-0.7-0.5-1.1-1.3-1.1h-1.6v2.2H170.6z"/>
<path fill="#646E7B" d="M176.4,166.8L176.4,166.8c0-1.8,1.4-3.3,3.3-3.3c1.2,0,1.9,0.4,2.5,1l-0.7,0.8c-0.5-0.5-1.1-0.8-1.8-0.8
	c-1.2,0-2.1,1-2.1,2.3v0c0,1.3,0.9,2.3,2.1,2.3c0.8,0,1.3-0.3,1.8-0.8l0.7,0.7c-0.7,0.7-1.4,1.1-2.6,1.1
	C177.8,170.1,176.4,168.6,176.4,166.8"/>
<polyline fill="#646E7B" points="185.8,163.6 186.9,163.6 186.9,166.2 190,166.2 190,163.6 191.1,163.6 191.1,170 190,170 
	190,167.3 186.9,167.3 186.9,170 185.8,170 185.8,163.6 "/>
<path fill="#646E7B" d="M198.5,166.7L198.5,166.7c0-0.5,0.4-0.9,0.9-0.9c0.5,0,0.9,0.4,0.9,0.9v0c0,0.5-0.4,0.9-0.9,0.9
	C198.9,167.7,198.5,167.3,198.5,166.7"/>
<polyline fill="#646E7B" points="207.4,163.6 212.2,163.6 212.2,164.6 208.5,164.6 208.5,166.3 211.8,166.3 211.8,167.4 
	208.5,167.4 208.5,170 207.4,170 207.4,163.6 "/>
<path fill="#646E7B" d="M215.2,166.8L215.2,166.8c0-1.8,1.4-3.3,3.4-3.3c2,0,3.4,1.5,3.4,3.3v0c0,1.8-1.4,3.3-3.4,3.3
	C216.6,170.1,215.2,168.6,215.2,166.8 M220.7,166.8L220.7,166.8c0-1.3-0.9-2.3-2.2-2.3c-1.3,0-2.2,1-2.2,2.3v0
	c0,1.2,0.9,2.3,2.2,2.3C219.8,169.1,220.7,168,220.7,166.8z"/>
<path fill="#646E7B" d="M225.3,167.3v-3.7h1.1v3.7c0,1.2,0.6,1.8,1.6,1.8c1,0,1.6-0.6,1.6-1.8v-3.7h1.1v3.6c0,1.9-1.1,2.9-2.8,2.9
	C226.4,170.1,225.3,169.1,225.3,167.3"/>
<polyline fill="#646E7B" points="234.7,163.6 235.7,163.6 239.1,168 239.1,163.6 240.3,163.6 240.3,170 239.3,170 235.8,165.4 
	235.8,170 234.7,170 234.7,163.6 "/>
<path fill="#646E7B" d="M244.2,163.6h2.4c2,0,3.4,1.4,3.4,3.2v0c0,1.8-1.4,3.2-3.4,3.2h-2.4V163.6 M246.6,169c1.4,0,2.2-0.9,2.2-2.2
	v0c0-1.3-0.9-2.2-2.2-2.2h-1.3v4.4H246.6z"/>
<path fill="#646E7B" d="M255.5,163.5h1l2.8,6.5h-1.2l-0.6-1.6h-3l-0.7,1.6h-1.2L255.5,163.5 M257.1,167.4l-1.1-2.6l-1.1,2.6H257.1z"
	/>
<polyline fill="#646E7B" points="263.5,164.6 261.5,164.6 261.5,163.6 266.7,163.6 266.7,164.6 264.7,164.6 264.7,170 263.5,170 
	263.5,164.6 "/>
<rect x="270.3" y="163.6" fill="#646E7B" width="1.1" height="6.4"/>
<path fill="#646E7B" d="M274.9,166.8L274.9,166.8c0-1.8,1.4-3.3,3.4-3.3c2,0,3.4,1.5,3.4,3.3v0c0,1.8-1.4,3.3-3.4,3.3
	C276.3,170.1,274.9,168.6,274.9,166.8 M280.5,166.8L280.5,166.8c0-1.3-0.9-2.3-2.2-2.3c-1.3,0-2.2,1-2.2,2.3v0
	c0,1.2,0.9,2.3,2.2,2.3C279.6,169.1,280.5,168,280.5,166.8z"/>
<polyline fill="#646E7B" points="285.2,163.6 286.2,163.6 289.7,168 289.7,163.6 290.8,163.6 290.8,170 289.8,170 286.3,165.4 
	286.3,170 285.2,170 285.2,163.6 "/>
<path fill="#646E7B" d="M298.1,134.5v-3.6h-2c-1.3,0.1-1.6,1.5-1.6,1.5v1.9h1.9v0.3c0,1.1-0.5,1.9-1.6,2.1v1.5
	C296.8,138,298.1,136.8,298.1,134.5"/>
<path fill="#646E7B" d="M24.9,149.8l2.5-3c2.3,2,4.6,3.1,7.6,3.1c2.6,0,4.3-1.2,4.3-3v-0.1c0-1.7-1-2.7-5.4-3.7
	c-5.1-1.2-8-2.8-8-7.2v-0.1c0-4.1,3.4-7,8.2-7c3.5,0,6.3,1.1,8.7,3l-2.3,3.2c-2.2-1.6-4.3-2.5-6.5-2.5c-2.5,0-3.9,1.3-3.9,2.9v0.1
	c0,1.9,1.1,2.7,5.7,3.8c5.1,1.2,7.7,3.1,7.7,7.1v0.1c0,4.5-3.5,7.2-8.6,7.2C31.3,153.7,27.8,152.4,24.9,149.8"/>
<path fill="#646E7B" d="M46,144.3L46,144.3c0-5.3,3.7-9.5,8.9-9.5c5.8,0,8.7,4.5,8.7,9.8c0,0.4,0,0.8-0.1,1.2H50.2
	c0.4,3,2.5,4.6,5.2,4.6c2,0,3.5-0.8,4.9-2.2l2.4,2.2c-1.7,2.1-4.1,3.4-7.4,3.4C50.1,153.8,46,149.9,46,144.3 M59.5,143
	c-0.3-2.7-1.9-4.8-4.6-4.8c-2.5,0-4.3,2-4.7,4.8H59.5z"/>
<path fill="#646E7B" d="M124.1,144.3L124.1,144.3c0-5.3,3.7-9.5,8.9-9.5c5.8,0,8.7,4.5,8.7,9.8c0,0.4,0,0.8-0.1,1.2h-13.4
	c0.4,3,2.5,4.6,5.2,4.6c2,0,3.5-0.8,4.9-2.2l2.4,2.2c-1.7,2.1-4.1,3.4-7.4,3.4C128.1,153.8,124.1,149.9,124.1,144.3 M137.5,143
	c-0.3-2.7-1.9-4.8-4.6-4.8c-2.5,0-4.3,2-4.7,4.8H137.5z"/>
<path fill="#646E7B" d="M151.7,141.4L151.7,141.4c0-6.9,5.1-12.5,12.4-12.5c4.4,0,7.1,1.5,9.4,3.8l-2.7,3.1c-1.9-1.8-4-3-6.7-3
	c-4.6,0-7.9,3.8-7.9,8.5v0.1c0,4.7,3.3,8.6,7.9,8.6c3,0,4.9-1.2,6.9-3.1l2.7,2.8c-2.5,2.6-5.3,4.3-9.8,4.3
	C156.9,153.8,151.7,148.3,151.7,141.4"/>
<rect x="199.2" y="135.2" fill="#646E7B" width="4.2" height="18.2"/>
<path fill="#646E7B" d="M65.8,144.3L65.8,144.3c0-6.1,3.9-9.5,8.1-9.5c2.9,0,4.7,1.5,5.9,3.2v-3.5h4v18.9h-4v-3
	c-1.3,1.9-3.1,3.4-5.9,3.4C69.8,153.7,65.8,150.3,65.8,144.3 M79.9,144.3L79.9,144.3c0-3.6-2.4-5.9-5-5.9c-2.7,0-5,2.2-5,5.8v0.1
	c0,3.5,2.3,5.8,5,5.8C77.5,150.1,79.9,147.8,79.9,144.3z"/>
<path fill="#646E7B" d="M240.9,135.2h4.2v4.1c1.1-2.7,3.2-4.6,6.4-4.4v4.4h-0.2c-3.6,0-6.2,2.4-6.2,7.2v6.9h-4.2V135.2"/>
<path fill="#646E7B" d="M98.6,138.7v-3.6h-4.9v-8.1h-2.4c-1,0-1.6,0.6-1.7,1.9v6.2h-2.3v3.6h2.3v9.6c0,4,2.2,5.3,5.2,5.3
	c1.5,0,2.7-0.3,3.8-0.9v-3.4c-0.8,0.4-1.7,0.6-2.6,0.6c-1.4,0-2.2-0.7-2.2-2.3v-8.9H98.6"/>
<path fill="#646E7B" d="M112.3,138.7v-3.6h-4.9v-8.1H105c-1,0-1.7,0.7-1.7,1.9v6.2H101v3.6h2.3v9.6c0,4,2.2,5.3,5.2,5.3
	c1.5,0,2.7-0.3,3.8-0.9v-3.4c-0.8,0.4-1.7,0.6-2.6,0.6c-1.4,0-2.2-0.7-2.2-2.3v-8.9H112.3"/>
<path fill="#646E7B" d="M118.2,127c-1,0-1.6,0.6-1.8,1.7v24.6h4.2V127H118.2"/>
<path fill="#646E7B" d="M187.5,134.8c-2.8,0-4.5,1.5-5.7,3.2v-10.9h-2.5c-1,0.1-1.6,0.7-1.6,2v24.3h4.2v-10.3c0-2.8,1.7-4.5,4.1-4.5
	c2.5,0,3.9,1.6,3.9,4.4v10.3h4.2v-11.6C194,137.5,191.6,134.8,187.5,134.8"/>
<path fill="#646E7B" d="M210.7,127c-0.9,0.1-1.5,0.7-1.6,1.8v24.5h4.2V127H210.7"/>
<path fill="#646E7B" d="M233.1,127.1c-0.8,0.1-1.4,0.5-1.6,1.5v9.5c-1.3-1.7-3.2-3.2-6.2-3.2c-4.3,0-8.4,3.4-8.4,9.4v0.1
	c0,6,4.2,9.4,8.4,9.4c3,0,4.9-1.5,6.2-3.4v3h4.2v-26.3H233.1 M231.6,144.3c0,3.5-2.5,5.8-5.3,5.8c-2.8,0-5.2-2.3-5.2-5.8v-0.1
	c0-3.6,2.4-5.8,5.2-5.8C229.1,138.4,231.6,140.7,231.6,144.3L231.6,144.3z"/>
<path fill="#646E7B" d="M253.5,144.3L253.5,144.3c0-5.3,3.7-9.5,8.9-9.5c5.8,0,8.7,4.5,8.7,9.8c0,0.4,0,0.8-0.1,1.2h-13.4
	c0.4,3,2.5,4.6,5.2,4.6c2,0,3.5-0.8,4.9-2.2l2.4,2.2c-1.7,2.1-4.1,3.4-7.4,3.4C257.6,153.8,253.5,149.9,253.5,144.3 M267,143
	c-0.3-2.7-1.9-4.8-4.6-4.8c-2.5,0-4.3,2-4.7,4.8H267z"/>
<path fill="#646E7B" d="M275.3,135.2h4.2v2.8c1.2-1.7,2.9-3.2,5.7-3.2c4.1,0,6.5,2.8,6.5,7v11.6h-4.2V143c0-2.8-1.4-4.4-3.9-4.4
	c-2.4,0-4.1,1.7-4.1,4.5v10.3h-4.2V135.2"/>
<path fill="#646E7B" d="M298.5,151l1.9-2.8c2,1.5,4.1,2.2,6,2.2c1.8,0,2.8-0.8,2.8-2v-0.1c0-1.4-1.9-1.9-4.1-2.5
	c-2.7-0.8-5.7-1.9-5.7-5.3v-0.1c0-3.4,2.9-5.5,6.5-5.5c2.3,0,4.8,0.8,6.7,2.1l-1.7,3c-1.8-1.1-3.6-1.7-5.1-1.7
	c-1.6,0-2.5,0.8-2.5,1.8v0.1c0,1.3,2,1.9,4.1,2.5c2.7,0.8,5.6,2,5.6,5.3v0.1c0,3.8-3,5.7-6.7,5.7C303.6,153.7,300.7,152.8,298.5,151
	"/>
<path fill="#646E7B" d="M199,129.3c0-1.3,1-2.3,2.3-2.3c1.3,0,2.3,1,2.3,2.3c0,1.3-1,2.3-2.3,2.3C200.1,131.6,199,130.5,199,129.3"
	/>
</svg>
