<?xml version="1.0" encoding="utf-8"?>
<!-- Generator: Adobe Illustrator 21.1.0, SVG Export Plug-In . SVG Version: 6.00 Build 0)  -->
<svg version="1.2" baseProfile="tiny" id="Layer_1" xmlns="http://www.w3.org/2000/svg" xmlns:xlink="http://www.w3.org/1999/xlink"
	 x="0px" y="0px" viewBox="0 0 627.9 628" xml:space="preserve">
<title>stories</title>
<g id="Layer_1_1_">
	<path d="M599.6,299.9c0-4.8-0.5-9.6-0.9-14.3c-0.3-3.5-0.5-7-0.6-10.5c-0.1-2.2,0.2-4.5,0.1-6.8c-0.1-7.1-0.2-14.1-0.3-21.2
		c0-3.5-0.2-7.1,0-10.6c0.2-3.2,0.2-6.4,0-9.5c-0.2-3.1-0.5-6.3-0.4-9.4c0.1-4.3,0.7-8.6,0.8-12.9c0.1-3.1-0.1-6.1-0.2-9.2
		c0.1-1.2-0.8-2.2-2-2.2c0,0-0.1,0-0.1,0c-1.6-0.3-3.2-0.4-4.8-0.4c-3,0.1-5.9,0.5-8.9,0.1c-3.3-0.3-6.7-0.5-10-0.5
		c-4.9-0.2-9.9-0.3-14.8-0.4c-6.9-0.1-13.7-0.3-20.6-0.4c-4.4-0.1-8.8,0-13.2,0c-3.3,0.1-6.5,0.2-9.8,0.4l-5.3,0.2l-5,0.3
		c-3.2,0.2-6.4,0.4-9.6,0.5c-3.6,0.1-7.3-0.2-10.9,0.2c-0.6,0.1-1.3,0.2-2.1,0.3c0.2-0.6,0.4-1.3,0.7-1.9c1.7-3,3.4-6,5.2-9
		c2.5-4.1,4.7-8.4,7.6-12.4c2.2-3,4.1-6.2,6.2-9.3c3.2-4.6,6.5-9.2,9.8-13.9c2.1-3,4.2-6,6.3-9c0.8-1.1,1.5-2.2,2.1-3.4
		c0.2-0.3,0-0.8-0.1-1.2c-0.4,0-0.9,0.1-1.3,0.2c-0.2,0-0.3,0.3-0.4,0.4c-1.8,2.6-3.7,5.2-5.5,7.8c-0.9,1.4-1.8,2.8-2.7,4.1
		c-1.8,2.5-3.5,5-5.3,7.4c-1.4,2-2.8,4-4.2,6c-1.9,2.3-3.5,4.9-4.8,7.5c-0.3,0.7-0.7,1.4-1.2,2.1c-3.9,4.6-6.6,9.8-9.5,15
		c-0.9,1.8-2,3.5-3.1,5.1c-1.2,1.6-1.3,4-3.3,5.1c-0.2,0.1-0.2,0.5-0.2,0.7c-0.1,0.6-0.3,1.1-0.6,1.6c-1.5,2.2-3,4.4-4.6,6.6
		c-0.3,0.3-0.6,0.6-1,0.9c-0.8,0.6-2,0.9-1.1,2.2c0.1,0.1-0.2,0.5-0.3,0.7c-0.5,0.7-1,1.4-1.4,2.2c-1.3,3.4-3.9,4-7.1,3.7h-0.8
		c-4.5-0.2-8.9-0.7-13.3-1.5c-2.3-0.4-4.4-1.6-5.8-3.5c-1.7-2.1-3.9-3.9-6.3-5.2c-3.8-2.3-8.1-2.7-12.3-2.5c-3.5,0.2-7,0.7-10.5,1.3
		c-2.7,0.4-5.3,1.2-7.9,1.8c-1.4-1.8-2.8-3.6-4.1-5.4s-2.7-3.8-4.1-5.7c-1.3-1.7-2.8-3.2-4-5c-1.7-2.6-3.7-5.1-5.8-7.3
		c-1.2-1.3-2.7-2.4-3.8-3.8c-2.9-3.3-5.8-6.7-8.6-10.2c-3-3.7-6-7.5-9-11.2c-3.2-3.8-6.1-7.8-8.7-12c-0.2-0.3-0.5-0.7-0.9-0.8
		c-0.6-0.1-0.7-0.7-1-0.9c-1.3-0.8-2.7-1.9-4.4-1.6c-2.7,0.4-5.4,0.8-8,1.5c-4,1-8,2.2-11.9,3.4c-3,1-5.8,2.2-8.8,3.3
		c-5.4,2.1-10.7,4.5-15.7,7.4c-3.2,1.8-6.4,3.6-9.5,5.4c-2.5,1.4-5.1,2.6-7.5,4.2c-2.7,1.8-5.2,3.8-7.7,5.8c-1.7,1.4-3.2,3-4.9,4.4
		c-3.9,3.3-7.8,6.4-11.7,9.7c-1,0.7-2,1.6-2.8,2.6c-2.1,3-5.2,4.9-7.9,7.3c-1.5,1.4-3.3,2.6-4.6,4.1c-4,4.4-8.3,8.5-12.8,12.4
		c-0.9,0.8-1.8,1.6-2.6,2.5c-2.8,3-5.5,6.1-8.3,9.2c-1.1,1.1-2.1,2.4-2.9,3.8c-1.2,2.5-3.2,4.2-4.8,5.9c-1.7-0.3-3.1-0.6-4.5-0.7
		c-1.6-0.1-3.3,0-5,0l-13.2,0.1c-2.7-0.1-5.5,0.2-8.1,0.8c-1.9,0.4-3.9,0.6-5.9,0.7c0.2-1.7,0.4-3.1,0.5-4.6
		c0.2-4.9,0.8-9.8,1.8-14.6c0.8-4.7,2.3-9.3,4.5-13.5c0.6-1,1-2.1,1.4-3.1c0.9,0.2,1.5,0.4,2.2,0.5c3.2,0.6,6.4,1.2,9.6-0.2
		c0.7-0.4,1.5-0.8,2.3-1.1c2.2-0.6,3.4-2.3,4.2-4.2c0.3-0.6,0.6-1.2,0.8-1.7c0.2,0,0.4,0,0.5,0.1c0.1,0,0.2,0.1,0.4,0.2
		c2.8,0.8,5.6,0.9,8.1-0.6c2.4-1.4,4.5-3.3,6.1-5.6c2.2-3.5,3-7.1,1.3-11c-0.4-0.6-0.3-1.4,0.2-2c0.9-1.3,1.6-2.6,2.3-4
		c1.6-3.1,2.5-6.5,2.7-10c0.4-3.9-0.5-7.3-4.1-9.5c-0.9-0.4-1.8-0.8-2.8-1c-0.7-2.2-1.4-4.4-2-6.6c-1.2-4.5-4.5-8.2-8.9-9.9
		c-2-0.7-4.1-0.9-6.1-0.6c-1.7-4.7-5.3-8.5-10-10.3c-4.6-2-9.8-1.9-14.3,0.2c-0.5-0.6-0.9-1.1-1.4-1.6c-1.3-1.3-2.6-2.6-4.4-2.9
		c-4.1-0.8-8.2-1.5-12.3-0.7c-3.2,0.6-6,2.3-8,4.9c-0.6,0.8-1.3,1.7-1.9,2.5c-4.1-1.6-8.5-2.2-12.9-1.8c-0.8,0.1-1.6,0.3-2.3,0.6
		c-1,0.4-1.9,0.9-2.8,1.5c-1.7,1.6-3.4,3.2-4.9,5c-0.4,0.8-0.7,1.6-0.8,2.4c-0.1,0.4-0.2,0.9-0.4,1.4c-1.5,0-2.9,0-4.3,0
		c-0.6,0-1.2,0.1-1.8,0.3c-4,2.4-8,4.7-9.8,9.5c-1.1,2.6-1.2,5.5-0.4,8.1c0.1,0.6,0.3,1.1,0.3,1.7c-1,0.7-1.9,1.3-2.7,1.9
		c-1.4,0.9-2.5,2.2-3.1,3.8c-0.5,1.5-1.1,3-1.5,4.5c-0.6,2.8-0.2,5.7,0.2,8.6c0.2,1.9,0.9,3.8,2,5.4c2,2.8,4.6,5.2,8.4,5.5
		c0.3,0,0.6,0.1,1,0.1c-0.2,1.9-0.4,3.8-0.6,5.6c-0.2,1.9,0.4,3.9,1.8,5.3c2.1,2.3,5,3.6,8.1,3.5c1,0,2-0.1,3-0.2
		c0.4,0.6,0.9,1.2,1.3,1.8c1.2,1.6,2.6,2.9,4.8,2.6c0.5,0,0.9,0.2,1.1,0.6c1.2,1.9,3.1,2.9,5.1,3.7c0.6,0.2,1.1,0.7,1.5,1.2
		c1.4,3.1,2.8,6.3,4,9.5c1.8,5.4,3.3,10.9,4.5,16.5c0.9,3.1,1.3,6.2,1.3,9.4c-2.5,0.4-4.9,0.7-7.4,1.1c-6.4,1.1-12.4,3.6-18.4,5.9
		c-6.8,2.4-13.3,5.3-19.7,8.7c-5.9,3.2-11.8,6.4-17.5,10c-4.9,3.1-9.3,6.9-14,10.3c-1.6,1.2-3.4,2.2-4.9,3.4
		c-3.9,3.2-7.7,6.4-11.5,9.6c-5.4,4.7-10.7,9.3-16,13.9c-0.5,0.4-0.9,0.9-1,1.6c-0.3,3.5-0.7,7-1.1,10.5c-0.2,1.5-0.4,3-0.5,4.6
		c-0.1,0.8-0.6,1.5-1.3,1.8c-2.2,1.2-4.4,2.5-6.4,4.1c-1.5,1.1-3.2,2-4.9,2.5c-5.4,1.9-10.4,4.6-14.9,8c-1.6,1.2-1.7,2.2-0.4,3.7
		c0.6,0.8,1.6,1.3,2.1,2.1c2.3,3.4,5.4,6.1,8.2,9c0.2,0.3,0.5,0.5,0.7,0.7c5,3,8.5,7.6,12.4,11.8c3.5,3.8,6.8,7.7,10.3,11.5
		s7.1,7.1,10.6,10.7c2.7,2.7,5.2,5.5,7.9,8.2c1.8,1.9,3.7,3.6,5.6,5.5c2,2,3.8,4.2,5.8,6.3c3.7,3.8,7.6,7.5,11.3,11.3
		c3,3,5.9,6.1,8.9,9.1c4,4,8,8,12.2,11.9c3.2,3,6.6,5.9,9.7,8.9c4.8,4.6,9.5,9.3,14.2,14c1.6,1.6,3.1,3.3,4.7,5c1.9,2,3.9,4,5.8,6.1
		c3.6,4,7,8.2,10.6,12.2c2.9,3.2,5.9,6.1,8.9,9.1c1,1,2,2.1,3.1,3.1c0.8,0.7,1.6,1.2,1.2,2.5c-0.1,0.2,0.3,0.6,0.4,0.8
		c0.6,0.9,1.2,1.8,1.9,2.9h2.1c0.5-1,1.1-1.8,2-2.4c2.9-1.9,5.9-3.7,8.8-5.5c4.7-3.1,9.2-6.3,13.9-9.4c5.8-3.7,11.6-7.3,17.4-11
		c3.7-2.3,7.3-4.7,11-7s7.5-4.3,11.2-6.5c1.3-0.7,2.4-1.7,3.6-2.5l1.9-1.4c2.2,1.3,4.7,1.3,7.1,1.6c3.5,0.5,7,1.2,10.5,1.6
		s6.9,0.5,10.4,0.7c1.7,0.1,3.5,0,5.2,0c3.6,0.1,7.2,0.2,10.8,0.3c1,0,2.1,0,3.5,0.1c-0.7,1.2-1.2,2-1.7,2.8
		c-1.1,1.7-2.3,3.3-3.4,4.9c-1.9,2.9-3.9,5.7-5.8,8.6c-0.9,1.3-1.7,2.5-2.6,3.7c-2.1,3-4.3,6.1-6.5,9.1c-1.7,2.4-3.6,4.6-5.3,7
		c-1.5,2.1-2.8,4.2-4.2,6.3c-3.2,4.9-6.4,9.8-9.6,14.8c-0.8,1.2-1.5,2.3-2.3,3.5c-2.8,4.4-5.5,8.8-8.3,13.2c-2.5,4.1-5,8.2-7.6,12.2
		c-0.6,0.9-0.4,1.5,0.4,1.9c1.4-0.6,1.3-0.6,1.7-1.6c0.6-1.5,1.4-2.9,2.2-4.3c1.5-2.4,3.1-4.8,4.7-7.2c1-1.5,1.9-3.1,2.8-4.6
		c2.4-3.8,4.8-7.7,7.2-11.5c1.7-2.8,3.4-5.6,5.1-8.3c2-3.2,4.1-6.4,6.2-9.5c2.3-3.3,4.8-6.4,7.2-9.6c2.2-2.9,4.6-5.8,6.7-8.8
		c2.4-3.3,4.5-6.8,6.8-10.1s4.9-6.5,6.9-10c1.4-2.4,3.2-3.1,5.7-3.1c0.9,0,1.9,0,2.8,0c1.5,0,3.1-0.1,4.6-0.2c3-0.3,6-0.7,8.9-1
		c3.9-0.4,7.8-0.8,11.8-1.2c2.2-0.2,4.4-0.4,6.6-0.5c0.7,0,1.3-0.1,2-0.1c4-0.3,8-0.8,12-1c4.5-0.2,8.9-0.3,13.3-1.3
		c1.6-0.4,3.2-0.6,4.8-0.6c4.9-0.2,9.9-0.1,14.7-1.5c0.3,0,0.7,0,1,0c1.1,0,2.1,0,3.2-0.1c2.4-0.3,4.8-0.8,7.3-1.2
		c0.8,5-1.9,8.9-3.5,13.1h-2.9c-1.4,0-2.9-0.1-4.3,0.1c-3.3,0.4-6.6,1-9.9,1.2c-4.7,0.3-9.4,0.4-14.1,0.4c-4.3,0-8.7-0.2-13-0.2
		c-1.5,0-2.9,0.2-4.4,0.2c-5.9-0.1-11.9,0.2-17.8,0.9c-5.4,0.5-10.9,1-16.3,1.5c-1.8,0.2-3.6,0.4-5.4,0.6c-2.2,0.3-4.5,0.5-6.7,1
		c-1.5,0.4-3.1,0.9-4.5,1.5c-0.9,0.3-0.8,0.9-0.5,1.6c1.2,0.4,2-0.5,2.9-0.7c3.9-0.7,7.7-1.6,11.6-2c3-0.3,6.1-0.4,9.1-0.8
		c5.2-0.7,10.5-0.6,15.7-1.5c5.8-0.9,11.7-0.8,17.6-1.1c6.2-0.3,12.5,0.1,18.8,0.3c4.8,0.1,9.4-0.6,14.1-1c2.5-0.2,5-0.8,7.6-0.2
		c1.8,0.4,3.7,0.6,5.5,0.7c1.6,0.1,3.2-0.1,4.8,0c3.7,0.1,7.5,0.2,11.2,0.4s7.2,0.6,10.8,0.8c2.6,0.2,5.3,0.3,8,0.4
		c1.5,0.1,3.1,0,4.6,0.1c1.3,0.1,2.6,0.4,4,0.4c4.9,0.2,9.7,0.2,14.6,0.4c1.7,0.1,3.4,0.4,5.4,0.6c-0.9,0.8-1.5,1.4-2.1,2
		c-4.3,4.2-8.6,8.4-12.9,12.6c-3.6,3.4-7.3,6.8-11,10.1c-1.7,1.5-3.3,3.1-5,4.6c-1,0.9-2.2,1.8-3.4,2.5c-2.9,1.7-5.8,3.3-8.8,4.8
		c-2.1,1.2-4.3,2.2-6.5,3c-3,1-6,1.7-9,2.5c-1.2,0.2-2.2,0.9-2.9,1.9c0.4,0.7,1.2,1,1.9,0.6c0,0,0,0,0,0c2.6-0.8,5.2-1.7,7.9-2.3
		c2.3-0.5,4.6-1.3,6.7-2.4c1.3-0.8,2.7-1.5,4.1-2.1c4.5-1.8,8.6-4.4,12.3-7.6c3.4-3,6.7-6,10.1-9.1c4.4-4,8.7-8,13-12.2
		c2.3-2.2,4.5-4.5,6.8-6.8c1.6-1.6,3-3.4,3.2-5.6c0.2-2.8,0.1-5.6-0.2-8.4c-0.4-4-1.1-7.9-1.9-11.8c-0.8-4.1,0.9-7.1,3.6-10
		c-0.1-0.5-0.6-1.1-0.5-1.7c0.3-1.6,0.8-3.1,1.3-4.6c1.1-3.5,2.3-7.1,3.5-10.6c0.4-1.5,0.9-2.9,1.5-4.3c0.9-2.2,2.5-4.1,4.5-5.5
		c2.7-1.7,6.2-0.6,7,2.6c0.4,1.2,0.5,2.5,0.4,3.8c-0.7,4.4-1.4,8.7-2.3,13c-0.6,2.9-1.4,5.7-2.1,8.5c-0.2,0.7-0.3,1.3,0.4,1.8
		c1.1,0.1,2.1-0.8,2.2-1.9c0,0,0,0,0-0.1c0.2-1.5,0.7-1.9,2.2-1.8c1.7,0,3.5,0.3,5.1,0.8c2.5,1.2,5.3,2.4,6,5.6
		c0,0.2,0.3,0.3,0.4,0.5c0.5,0.6,0.9,1.3,1.1,2c1,3.6,0.6,7.2-0.1,10.9c-0.1,1-0.4,1.9-0.9,2.9c-1.5,3-3.2,6-4.8,8.9
		c-0.4,0.7-0.8,1.4-1,2.2c-0.8,3-1.3,5.9-2.3,8.8c-1.3,3.5-2.2,7.2-3.8,10.6c-1.9,4.7-4.8,8.9-8.5,12.4c-1.1,1-2.1,2-3.3,2.9
		c-4.1,3.3-8.2,6.5-12.4,9.7c-1.5,1.1-3.2,2-4.6,3.1c-4.3,3.2-8.7,6.1-13.4,8.7c-1.9,1.1-3.9,2-5.9,2.9c-0.9,0.5-1.9,0.9-2.9,1.2
		c-1.1,0.4-1.4,0.8-1.3,2.5c0.8,0,1.5-0.1,2.2-0.4c4.6-2.3,9.3-4.4,13.6-7.2c3.2-2.1,6.3-4.5,9.6-6.5c7.4-4.7,14.3-10,20.6-16
		c4.3-3.9,7-8.9,9.2-14.1c1.4-3.4,2.4-7,3.5-10.6c0.7-2.1,1.1-4.2,1.7-6.3c0.3-0.9,0.6-1.8,1-2.6c1.4-2.5,2.9-5,4.1-7.5
		c0.9-1.9,1.9-3.8,2.1-5.8c0.3-4,1-8.1-0.5-12.1c-0.1-0.2,0.1-0.4,0.1-0.7c0.3-0.1,0.6-0.2,0.9-0.2c0.9,0.2,1.9,0,2.7-0.5
		c0.5-0.2,1-0.3,1.6-0.2c1.9,0,3.7,0.2,5.6,0.2c2.9-0.1,5.8,0.2,8.5,0.8c0.9,0.2,1.8,0.3,2.8,0.3c2.4,0.2,4.8,0.3,7.2,0.7
		c6.4,1.1,12.7,2.2,19.1,3.4c3.8,0.8,7.6,1.9,11.5,2.6c1.8,0.3,3.5,1.2,5.4,0.9c1-0.1,2,0.3,2.6,1.2c1.2,1.4,2.6,2.7,3.8,4.1
		c1.1,1.1,1.6,2.6,1.7,4.1c-2.5-0.2-4.8-0.4-7.2-0.6c-2.6-0.3-5.2-0.9-7.8-1c-3.6-0.1-7.1-0.8-10.7-1.2c-3-0.3-6.1-0.9-9.1-1.1
		c-5.1-0.4-10.2-0.6-15.4-1c-4.7-0.3-9.4-0.8-14.1-1.2c-2-0.2-4-0.2-6-0.3c-0.3,0-0.5,0-0.8,0.1c-0.9,0.1-1.1,0.6-1.1,1.4
		c1.4,1.1,3,0.9,4.6,1c2.9,0.1,5.9,0.2,8.8,0.5c5,0.4,10,0.9,14.9,1.3c4.4,0.3,8.8,0.5,13.2,0.9c5.2,0.5,10.5,1.2,15.7,1.9
		c2.4,0.3,4.9,0.7,7.3,1c3.1,0.4,6.2,0.6,9.3,1c1.1,0.1,1.5-0.1,1.5-1.2c0-0.9-0.1-1.7,0-2.6c0.5-4.2,1-8.4,1.6-12.6
		c0.3-2.1,0.5-4.2,0.8-6.3c0.6-4.9,1.2-9.8,1.9-14.6c0.6-3.8,0.6-7.7,1-11.5c0.8-6.7,1-13.6,1.4-20.4c0.1-1.7,0.1-3.3,0.2-5
		c0.2-2.9,0.5-5.9,0.6-8.8c0.2-5.6,0.3-11.2,0.6-16.8c0.2-3.6,0.4-7.3,0.6-11c0.1-2.4,0.1-4.8,0.2-7.2c0.1-2.7,0.4-5.5,0.5-8.2
		c0.2-2.5,0.2-4.9,0.4-7.4c0.3-3.6,0.6-7.2,0.9-10.8c0.4-5.2,0.8-10.5,1.2-15.7c0.6-8.9,1.9-17.8,1.8-26.7c0-6.3,0.3-12.5,0.5-18.8
		c0.1-1.6,0.2-3.2,0.2-4.8c-0.6-6,0.1-11.9,0.5-17.8c0.1-1.5,0.2-3.1,0.4-4.6c0.1-1.8,0.2-3.6,0.4-5.4c0.1-1.4,0.3-2.8,0.3-4.2
		c0-0.6,0-1.3,0-1.9c-1.5-0.5-2.7-1.7-3.1-3.2c-2.3-1.9-4.9-3.2-6.7-5.6c-0.7-0.9-1.5-1.7-2.3-2.4c-0.4-0.2-0.8-0.4-1.2-0.6
		c-0.6-0.3-1.1-0.6-1.7-0.8c-1.2-0.4-2.5-0.8-3.8-1.2c-2.8-0.9-5.8-1-8.7-1.2c-4.6-0.4-9.1-0.9-13.7-1.1c-4.9-0.3-9.9-0.2-14.8-0.4
		c-3-0.1-6-0.2-9-0.6c-6.1-0.7-12.2-1-18.3-0.9c-5.6,0.1-11.3,0.4-16.9,0.8c-2.6,0.2-5.2,0.9-7.8,1.3c-0.3,0-0.6,0-0.8-0.1l5.1-7.7
		h2.4c6.1,0,12.3,0,18.4-0.1c1.3,0,2.5-0.3,3.8-0.4c3.9-0.3,7.8-0.6,11.8-0.9c1.8-0.1,3.6,0,5.4,0c2.6,0,5.2-0.2,7.8-0.1
		c4.6,0,9.2,0.2,13.8,0.3c5.7,0.1,11.5,0.1,17.2,0.2c6,0.2,12,0.4,18,0.7c0.9,0.1,1.7,0.2,2.5,0.5c0,0.1,0,0.2,0,0.3
		c0.8,0,1.7,0.1,2.5,0.2c0-0.2,0-0.4,0-0.6c4.2,0.3,8.3-0.9,12.3,0.4c0.1,1,0.2,1.9,0.2,2.7c0.2,5.9,0,11.9-0.6,17.8
		c-0.2,2.1-0.2,4.3-0.1,6.4c0.4,3.6,0.4,7.2,0.4,10.9c0,6.3-0.1,12.7-0.1,19c0,3.5,0.2,7.1,0.3,10.6c0,6.4-0.1,12.8,0.1,19.2
		c0.2,3.5,0.5,6.9,1,10.3c0.5,4.5,0.7,9,0.6,13.6c-0.2,4.9-0.7,9.8-1.3,14.7c-0.8,6.3-1.9,12.5-2.7,18.8c-0.5,3.8-0.8,7.7-1.1,11.5
		c-0.3,4.4-0.5,8.8-0.8,13.2c-0.1,1.3,0,2.7-0.1,4c-0.2,3-0.6,6.1-0.8,9.1c-0.4,5.1-0.8,10.2-1.2,15.3c-0.3,3.4-0.9,6.8-0.9,10.1
		c-0.1,3.3-0.4,6.6-0.9,9.9c-0.6,4.7-1.6,9.3-2.3,14c-0.8,5.3-1.3,10.7-1.9,16c-0.3,2.6-0.7,5.3-1,7.9c-0.4,3-0.6,6-1,9
		c-0.5,3.8-0.5,7.6-1.4,11.3c-0.5,1.2-0.4,2.5,0.2,3.6c1.8-0.4,2-0.8,2.1-2.7c0.2-3.6,0.5-7.3,0.9-10.9c0.4-4.1,1-8.2,1.5-12.3
		s0.8-8.2,1.3-12.3c0.4-3.5,1-7,1.5-10.5s1-7.3,1.5-10.9s1.1-7.1,1.4-10.7c0.4-4.8,0.6-9.6,1-14.4c0.5-7,1.2-13.9,1.7-20.9
		c0.4-5.1,0.6-10.2,0.9-15.4c0.1-1.4,0-2.8,0.2-4.2c0.3-3.2,0.8-6.5,1.2-9.7c0.3-1.9,0.6-3.8,0.9-5.7c0.5-3,0.9-6,1.3-9.1
		c0.3-2.4,0.7-4.7,0.9-7.1c0.4-4.1,0.8-8.2,1-12.4C600.1,303.6,599.6,301.7,599.6,299.9z M408.3,204.6c2.9-0.6,5.8-1,8.7-1.4
		c1.4-0.2,2.8-0.3,4.2-0.5c4.2-0.6,8.4,0,12.2,1.9c2.4,1.1,4.4,2.9,5.9,5c2.4,3.3,5.8,4.3,9.5,4.8c3.4,0.4,6.7,0.6,10.1,0.9
		c1.9,0.1,3.7,0,5.9,0l-18.6,28.4c-3.9-0.4-7.8-0.9-11.7-1.2c-2.1,0-4.1,0.1-6.1,0.5c-3.2,0.5-6.3,1.4-9.5,1.9
		c-2.2,0.3-4.4,0.1-6.5-0.5c-1.3-0.4-2.7-0.7-4.1-1c-2-0.3-3.8-1.3-5.1-2.9c-1.9-2.2-3.6-4.4-4.2-7.3c-0.6-2.5-0.9-5.1-1-7.7
		c-0.2-2,0.9-3.9,2.8-4.6c1.3-0.7,2.6-1.6,3.8-2.6c0.2-0.2,0.2-0.5,0.5-1.2c-0.7,0.1-1.4,0.2-2.1,0.5c-1.1,0.5-2.1,1-3.2,1.6
		c-2.2,1.2-4.7,2-7.2,2.4c-2.7,0.5-5.4,0.5-8.1,0.8c-2.1,0.2-4.2,0.7-6.3,0.9c-2.7,0.3-5.3,0.4-8,0.3c-1.4-0.1-2.7-1-3.2-2.3
		c-0.7-1.5-1.5-3-1.3-4.7s0.8-2.6,2.6-3c3.3-0.6,6.6-1.1,9.8-1.8c2.7-0.6,5.4-1.3,8.2-1.9c0.2,0,0.4-0.2,0.6-0.2
		c1.9,0.6,3.5-0.6,5.3-0.9s3.7-0.9,5.6-1.3s3.6-0.9,5.4-1.4S406.5,204.9,408.3,204.6z M366.7,228.2c-0.3,0.4-0.9,0.9-1.2,0.8
		c-1.2-0.3-1.7,0.6-2.2,1.3c-0.5,1-1.3,1.7-2.4,2c-1.7-1.4-1.7-1.4-0.6-3.8c0.6,0.1,1.2,0.3,1.9,0.3c1.8,0.1,2.1-0.2,2.5-2
		c0.3-1.3,0.5-1.5,1.9-1.4c0.3,0,0.5,0.1,0.8,0.1c0.3,0.1,0.6,0.2,0.9,0.3C367.8,226.6,367.3,227.4,366.7,228.2z M370.3,227.6
		c0.9-0.3,1.8-0.6,2.6-1.1l2,2.5c1,1.2,0.9,1.8-0.2,2.9c-2.5,2.4-5.6,4.1-8.9,5.1l-3.2-3c0.6-0.7,1.1-1.5,1.8-2.1
		c0.4-0.4,0.9-0.7,1.5-0.9c1-0.2,1.8-0.9,2.3-1.7C368.6,228.3,369.4,227.7,370.3,227.6L370.3,227.6z M356.8,231.2h-5
		c1.3-3.5,1.4-7.2,3.6-10.2c0.2-0.3,0.4-0.6,0.8-0.9c2.2-1.2,4.5-2.5,6.9-3.8c0.3,2.1,0,4.6,1.8,6.2l-2.3,4.1
		c-0.9-0.2-1.9-0.7-2.6-0.4s-1.2,1.3-1.9,2.1l-1.5-1.3l-1.2,1L356.8,231.2z M365.2,212.6c-0.8,0.7-1.4,1.7-2.8,1.6
		c-0.3,0-0.6,0.3-0.9,0.5c-1,0.8-2,1.7-3,2.5c-0.3,0.3-0.7,0.6-1.2,0.8c-3.1,0.7-4.4,3.2-5.4,5.8c-0.9,2.4-1.6,4.8-2.2,7.3
		c-0.4,1.4,0.2,2.1,1.6,2.3c1.6,0.1,3.3,0.2,5,0.2c0.6-0.1,1.2-0.4,1.7-0.7c2,1.9,4,3.9,6,5.9c0.6,0.6,1.1,0.9,1.9,0.5
		c2.6-1.4,5.3-2.8,7.9-4.3c0.9-0.6,1.8-1.3,2.6-2.1c1.2-1,1.2-2.3,1.3-3.6l-2.3-3.1c6.9-1.9,13.8-1.3,20.6-3.1
		c-0.8,4.7,0.1,9.1,1.5,13.4c1,3,2.9,5.6,5.4,7.5c1.9,1.4,4.4,1.9,6.7,2.5c1.7,0.4,3.2,1.3,4.2,2.7c3.2,4.2,6.5,8.3,9.2,12.8
		c1.5,2.5,3.1,4.9,4.8,7.5c-0.5,0.7-1,1.4-1.5,2c-2.5,3.2-5.1,6.5-7.6,9.8c-0.6,0.8-1.1,1.8-1.8,2.6c-0.7,0.8-1.5,1.5-2.3,2.1
		c-5.3,3.5-10.9,6.4-15.8,10.4c-1.7,1.4-3.8,2.5-5.6,3.8c-1,0.7-1.9,1.4-2.9,2.1c-2,1.5-4.1,2.9-6.1,4.4c-3.3,2.3-6.5,4.6-9.8,6.8
		c-4.3,2.8-8.6,5.5-13,8.2c-3.8,2.4-7.6,4.6-11.4,7c-2.4,1.5-4.6,3.2-6.9,4.7c-1.9,1.3-3.9,2.5-5.9,3.8c-1,0.7-2,1.4-3.1,2.2
		c-2.1,1.5-4.1,2.9-6.2,4.4c-0.8,0.6-1.5,1.3-2.4,2c-0.4-0.2-0.7-0.5-1-0.8c-2.2-2.9-4.5-5.7-6.5-8.6c-2.8-4.3-5.8-8.4-8.4-12.9
		c-3-5-6.6-9.5-9.9-14.3c-2-2.8-4-5.7-5.9-8.5c-2.8-4-5.6-8-8.4-12c-2.7-3.9-5.4-7.7-8.2-11.5c-2.1-2.9-4.4-5.7-6.6-8.5
		c-2.9-3.7-5.8-7.3-8.8-10.9c-1.6-2-3.5-3.9-5.1-5.9c-2.1-2.7-4.2-5.5-6.3-8.3c-2.8-3.8-5.6-7.7-8.3-11.5c-0.4-0.7-0.7-1.4-1-2.1
		c5-3,9-6.8,13.1-10.5c5.1-4.7,10.8-8.7,16.3-12.9c4-3,7.8-6.2,11.8-9.2c2.7-2.1,5.6-3.9,8.4-5.9c2.1-1.5,4.2-3,6.3-4.5
		c3.9-3,7.4-6.5,11.6-9.2c0.8-0.5,1.5-1.1,2.2-1.8c2.7-2.7,6.3-4,9.1-6.5c2.5-2.3,5.7-3.4,8.4-5.3c4-2.9,8.5-5,12.8-7.3
		c0.3-0.2,0.5-0.4,0.8-0.6c0.4,0.6,0.7,1.3,1.2,1.6c2.2,1.1,3.8,3,5.4,4.7c3,3.3,6.2,6.5,9,9.9c6.1,7.4,12.1,14.9,18.2,22.4
		c1.8,2.2,3.6,4.3,5.4,6.5c1.3,1.6,2.5,3.3,3.6,5c0.2,0.4,0.4,0.7,0.5,1.1c-1,0.6-2.1,1-3.2,1c-1,0.2-2,0.4-2.9,0.6
		s-1.8,0.3-2.7,0.5c-3.2,0.8-6.6,0.9-9.7,2.1C366.1,211.8,365.6,212.2,365.2,212.6L365.2,212.6z M423.4,258.3
		c-2.1-3-4.4-5.9-6.6-8.8l-1-1.3l12.6-2.5c2.8,3.2,5.5,6.4,8.2,9.5c0.4,0.5,0.8,1.1,1.2,1.8l-7.9,10.4c-0.7-0.5-1.4-1.1-2-1.8
		C426.4,263.2,425,260.6,423.4,258.3z M431.4,245.2c1.5-0.3,10.4,0.5,13.2,1.2l-5.3,8.3C437,251.1,433.7,248.6,431.4,245.2
		L431.4,245.2z M219.8,233c0.5-0.8,1.1-1.5,1.8-2.1c1.5-1.2,2.2-3,3.3-4.5s2.6-3,3.9-4.6c3.2-3.9,6.7-7.6,10.4-11
		c0.9-0.9,2-1.6,2.9-2.4c2-1.8,4-3.7,5.9-5.6c0.5-0.6,1-1.2,1.4-1.9c0.3-0.5,0.7-1,1.2-1.4c1.8-1.4,3.6-2.7,5.3-4.2
		c2.1-1.6,4-3.3,5.7-5.2c3.9-4.8,8.7-8.6,13.4-12.5c2.5-2,4.9-4.1,7.4-6.1c2.7-2.1,5.4-4.2,8.1-6.2c0.5-0.3,1.1-0.5,1.6-0.7
		c3.1-1.6,6.1-3.1,9.2-4.8c3.2-1.7,6.4-3.7,9.6-5.3c3.9-1.9,7.8-3.7,11.7-5.4c0.9-0.4,2-0.4,2.9-0.7c2.3-0.8,4.6-1.7,7-2.5
		c1.8-0.6,3.6-1.3,5.5-1.8c3-0.9,6.1-1.6,9.3-2.2c2.3-0.5,4.7-0.4,7,0.3l-0.3,2.1c0.7,0.6,1.3,1.3,1.9,2c3.2,4.7,6.7,9.2,10.4,13.4
		c1.7,2.1,3.3,4.2,5,6.3c1.2,1.5,2.4,3,3.7,4.5c1.8,2.1,3.6,4.3,5.4,6.4c0.6,0.7,1.2,1.3,1.8,1.9c3.3,3.1,6.2,6.6,8.7,10.4
		c1,1.5,2.3,2.8,3.4,4.2c2.4,3.2,4.7,6.4,7.1,9.7c0.2,0.4,0.4,0.8,0.6,1.3c-2,0.5-3.9,1.1-5.8,1.5s-4.1,0.8-6.1,1.3
		c-0.8,0.3-1.8,0-2.2-0.8c-1.3-1.8-2.6-3.5-4-5.3c-0.8-1-1.6-2-2.4-3c-4.8-5.8-9.5-11.7-14.3-17.5c-3.2-3.9-6.3-7.7-9.6-11.5
		c-3.1-3.6-6.4-7-9.7-10.4c-1-1-2.3-1.8-3.4-2.7c-0.9-0.8-1.5-0.7-2.1,0.2c-0.1,0.1-0.3,0.1-0.4,0.2v-1.6c-0.4,0-0.9,0.1-1.3,0.3
		c-4.4,2.6-8.8,5.1-13,7.8s-8.4,5.4-12.5,8.2c-2.9,2-5.6,4.3-8.5,6.4s-5.5,4.2-8.2,6.4c-0.1,0-0.1,0.1-0.2,0.1
		c-3.4,4-8.1,6.3-12.1,9.4c-4.3,3.4-8.7,6.8-13.1,10.2c-2.9,2.2-5.9,4.1-8.7,6.3c-3.3,2.5-6.6,5.1-9.9,7.8c-3.3,2.8-6.6,5.6-9.9,8.4
		c-1.1,0.8-2.2,1.5-3.4,2.1c-1.9,1-2.4,2.4-1.3,4.2c1.4,2.1,2.9,4.1,4.4,6.2c2.5,3.6,4.9,7.3,7.6,10.8c2.5,3.2,5.3,6.2,7.8,9.4
		c6.1,7.8,12.7,15.1,18.4,23.2c3,4.3,6,8.7,9,13c5.3,7.5,10.7,14.8,16,22.3c1.2,1.7,2.2,3.5,3.3,5.2c2.2,3.5,4.3,7,6.6,10.5
		c2.6,3.9,5.4,7.6,8.1,11.4c0.8,1.2,1.6,2.4,2.4,3.6l-0.9,2.1c0.6,0,1.2-0.1,1.8-0.3c1.3-0.5,1.3-0.6,2.5-0.2c1-0.7,0-1.3-0.1-2.2
		c2.4-1.8,4.9-3.6,7.4-5.4c3.3-2.3,6.7-4.6,10-6.9c2.9-1.9,6-3.8,8.9-5.6l10.5-6.6l16.1-10c0.4-0.2,0.7-0.4,1-0.7
		c2.2-2.2,4.9-3.6,7.4-5.4s4.8-3.7,7.2-5.4c5-3.5,10.1-6.8,15.2-10.2c0.2-0.1,0.5-0.2,0.8-0.2c-0.8,1.3-1.2,2.5-2.7,2.9
		c-0.5,0.2-1,0.6-1.2,1.2c-0.8,2.8-3.1,4.4-4.7,6.5l-2.4-1c-0.2,0.9-0.3,1.7-0.3,2.6c0,1.6-0.7,3.2-1.8,4.3
		c-1.4,1.8-2.9,3.5-4.2,5.3c-1.2,1.6-2.3,3.3-3.5,4.9c-0.3,0.4-0.8,0.7-1.2,0.8c-1.2,0.2-2.5,0.1-3.8,0.4c-1.7,0.3-3.3,0.8-4.9,1.5
		c-3.5,1.7-7,3.5-10.5,5.4c-2.5,1.3-4.8,2.9-7.2,4.3c-1.1,0.7-2.2,1.3-3.3,1.9c-3.2,1.6-6.3,3.5-9.2,5.6c-2,1.4-3.9,2.8-5.9,4.1
		c-2,1.3-3.9,2.9-5.6,4.5c-2,1.9-4.3,3.4-6.4,5.1c-1.2,1-2.1,2.3-3.4,3.1c-3.9,2.4-7,5.7-10.1,9c-0.7,0.9-1.4,1.8-2.1,2.7
		c-0.1-0.6-0.3-1.1-0.6-1.6c-2.6-3.7-5.4-7.3-8-11c-2.1-2.9-4-6-6.1-8.9c-1.8-2.5-3.9-4.9-5.7-7.5c-2.4-3.4-5.2-6.4-7.3-10
		c-2.3-3.9-5.1-7.6-7.8-11.3c-3.1-4.2-6.3-8.4-9.4-12.6c-2.6-3.6-5.3-7.2-7.8-10.9c-2.1-3-4.4-5.9-6.8-8.6c-1.3-1.5-2.4-3.2-3.6-4.8
		c-0.5-0.7-1.1-1.3-1.8-1.9c-2.2-2-3.7-4.7-5.6-7c-2.5-3-4.6-6.3-7.1-9.4s-5-6.1-7.4-9.2c-1.4-1.8-2.6-3.9-4-5.8
		c-2.3-3.3-4.7-6.6-7.1-9.9c-0.2-0.3-0.5-0.6-0.8-0.9c-0.6-0.4-0.7-1.3-0.3-1.9C219.7,233.1,219.7,233,219.8,233z M328.1,401.1
		c-1-2.9-3.3-5-4.8-7.6c-1.1-2.1-2.1-4.3-2.9-6.6c-0.1-0.7-0.1-1.3,0-2c2-1.3,3.9-2.4,5.7-3.6c0.7-0.4,1.4-0.7,2.1-1.1
		c1.1-0.5,2.3-1.1,3.3-1.8c2.1-1.7,4.4-3,6.9-3.9c0.4-0.2,0.7-0.4,1-0.6c4.2-2.5,8.3-5,12.5-7.5c1.6-1,3.3-2,5-2.8
		c1.1-0.4,2.3-0.8,3.5-1c-1.1,1.6-2,2.8-2.9,4c-5.9,8.1-11.8,16.3-17.7,24.4c-2,2.7-3.8,5.6-5.8,8.3c-0.4,0.6-1,1.1-1.6,1.4
		c-1.5,0.9-3,1.6-4.5,2.5l-0.2-0.2l0.8-1C328.5,401.6,328.2,401.4,328.1,401.1z M355.1,362.1c-4,2.4-7.9,5-11.9,7.4
		c-3,1.8-6.2,3.4-9.2,5.1c-0.9,0.5-1.5,1.3-2.4,1.8c-2,1.1-4,2.1-5.9,3.3c-1.7,1-3.3,2-4.9,3c-0.3,0.2-0.6,0.3-1,0.5
		c-1.3-4.9-3.9-9.3-3.9-14.1l2.1-2.2c1.1-1.2,2.3-2.4,3.4-3.6c2-2.2,4.2-4.1,6.5-5.9c3-2.2,5.7-4.8,8.5-7.2c2.4-2,4.7-4,7.1-5.8
		c3.7-2.7,7.4-5.2,11.2-7.8c0.7-0.5,1.5-0.9,2.3-1.3c4.6-1.9,8.5-5,12.8-7.4c4.8-2.7,9.6-5.4,15-7c0.9-0.2,1.8-0.4,3.2-0.6
		c-0.8,1.4-1.3,2.5-1.9,3.4c-2.9,4.5-5.8,9-8.6,13.5c-1.9,3-3.7,6-5.6,8.9c-2.3,3.4-4.7,6.8-7,10.2c-1,1.4-2.4,2.4-4,2.9
		C358.9,360.1,356.9,361,355.1,362.1L355.1,362.1z M317.7,384.5l-3.6,2.1c-2.6,1.5-5.1,3.1-7.7,4.6c-4.8,2.8-9.6,5.4-14.2,8.5
		c-3.7,2.4-7.6,4.4-11.4,6.6c-3.2,2-6.4,4.1-9.6,6.2c-1.5,1-3.1,1.9-4.6,2.9c-2.2,1.4-4.5,2.9-6.7,4.3c-1,0.6-2,1.1-3,1.6
		c-0.9,0.5-1.8,1-2.7,1.6c-0.6,0.5-1.5,0.7-2.2,0.3c-2.4-1-4.9-2-7.4-3c-1.8-0.7-3.8-1.3-5.5-2.2c-2.2-1.1-4.2-2.5-6.5-3.8
		c1-1,2.2-1.8,3.5-2.5c2.7-1.6,5.3-3.3,7.8-5.1c1.9-1.6,4-2.9,6.2-3.9c0.8-0.3,1.6-0.7,2.3-1.1c2.4-1.5,4.6-3.1,7-4.6
		c3.2-2.2,6.7-4.2,10.2-5.8c2.3-1.1,4.6-2.3,6.9-3.6c0.5-0.2,0.9-0.5,1.4-0.7c1.6-0.7,3.2-1.6,4.7-2.6c1.7-1.1,3.5-2,5.3-2.7
		c1-0.4,1.9-0.9,2.8-1.4c2.6-1.7,5.4-3.1,8.4-4c0.4-0.1,0.7-0.3,1.1-0.5c3-1.5,6-3.1,9.1-4.5c1.4-0.7,2.9-1.1,4.3-1.7L317.7,384.5z
		 M257.4,423.1c2.7-1,4.6-3.1,7-4.5c0.7-0.4,1.5-0.9,2.2-1.4c4.6-2.9,9.2-5.9,13.9-8.7c2.5-1.5,5.3-2.8,7.9-4.2
		c1.3-0.7,2.5-1.8,3.8-2.5c2.5-1.5,5.1-2.8,7.7-4.2c0.5-0.2,0.9-0.5,1.4-0.8c1.4-1.3,2.9-2.3,4.6-3.1c2.8-1.6,5.6-3.3,8.4-4.9
		c1.1-0.6,2.3-1,3.8-1.7c0.8,1.5,1.6,2.9,2.1,4.2c1.3,2.8,2.8,5.4,4.4,8c0.8,1.4,1.5,3,2.3,4.6c-0.4,0.4-0.9,0.8-1.4,1.1
		c-2.4,1.1-4.7,2.5-6.7,4.2c-0.8,0.6-1.7,1.1-2.5,1.5c-2.7,1.8-5.5,3.5-8.4,5c-2.8,1.4-5.5,3.2-8.2,4.8c-3.9,2.3-7.9,4.3-11.6,6.9
		c-1.6,1.1-3.6,1.4-4.8,3c-1.4,0.1-2.9,0.3-4.3,0.4c-0.9,0-1.8-0.1-2.8-0.2c-0.6,0-1.2-0.1-1.8-0.2c-1.8-0.4-3.5-0.8-5.3-1.1
		c-2.4-0.4-4.8-1.2-7-2.2c-1.4-0.6-2.9-1.1-4.3-1.5l-2.6-0.9C255.8,424,256.6,423.5,257.4,423.1z M308.4,417.5
		c7.3-4.4,14.4-9.1,21.7-13.6l0.2,0.3c-0.8,1.2-1.6,2.3-2.4,3.5c-4.3,6.1-8.9,12-13.8,17.6c-1.4,1.8-2.7,3.6-3.9,5.5
		c-1-0.1-2,0-3,0.1c-5.6,1.2-11.1,0.8-16.8,0.3l-3.9-0.3l-0.1-0.4C293.8,426.2,301.2,422,308.4,417.5z M310,434.3
		c2.6-4.1,5.4-7.9,8.4-11.7c4.2-4.7,8.1-9.7,11.6-15c1.3-2.1,2.8-4.1,4.4-5.9c1.1-1.2,2-2.5,2.8-3.9c2.4-3.8,5-7.4,7.6-11
		c3.3-4.5,6.8-8.9,10.1-13.5c2.1-2.9,4.1-5.9,6.2-8.8c2.7-3.7,5.5-7.4,8.1-11.2c2.1-3.1,4.1-6.3,6.2-9.5c0.8-1.2,1.6-2.3,2.3-3.5
		c3.1-4.8,6.2-9.5,9.3-14.2c2.6-4,5.2-7.9,7.9-11.8c1.2-1.7,2.6-3.3,4.1-5.2c0.1,4,0.5,7.7,0.1,11.3c-0.4,5-1.2,10.1-2.3,15
		c-0.6,2.8-1,5.6-1.3,8.5c-0.4,4.8-0.7,9.7-1,14.5c-0.2,4.2-0.4,8.4-0.6,12.6c-0.1,1.9-0.2,3.7-0.3,5.6c-0.2,3.4-0.5,6.9-0.8,10.3
		c-0.4,4.7-0.9,9.4-1.4,14.1c-0.3,3.2-0.9,6.3-1.2,9.5c-0.4,4.2-0.7,8.4-1.1,12.5c-0.2,3-0.5,6-0.7,9c-0.1,0.6-0.2,1.2-0.4,1.8
		c-0.8-0.4-1.7-0.7-2.5-0.9c-2.5-0.5-5.1-0.8-7.7-0.9c-3.1,0-6.3,0.6-9.5,1l-13.9,1.5c-0.3,0-0.5,0-0.8,0.1
		c-3.7,0.7-7.5,1.1-11.2,1.3c-1.8,0-3.6,0.9-5.4,1.2c-2.1,0.2-4.2,0.7-6.2,1.3c-1.3,0.3-2.6,0.5-3.9,0.6c-1.5,0.2-3,0.5-4.5,0.8
		c-1,0.2-2.1,0.5-3.1,0.8c-2.6,0.7-5.3,1.3-7.9,2c-2.3,0.6-4.7,1-6.8,2.3c-0.4,0.1-0.9,0.2-1.4,0.2c0.6-1.6,1.4-3,2.5-4.4
		C307.1,438.5,308.6,436.4,310,434.3L310,434.3z M138.8,197c-2.6,0.8-4.7,0.1-5.7-2.7c1-2,1-2.1-1.4-3c-0.1,0-0.1,0-0.2,0.1
		c-1,0.7-1.7,1.8-3.2,1.8c-1.9,0.1-3.8-0.5-5.5-1.5c-2.1-1.2-3.3-3.5-3-5.9c0.1-1.6,0.2-3.2,0.5-4.8c0.4-1.1,1-2.2,1.7-3.2
		c-0.9,0.2-1.7,0.4-2.6,0.6c-1.8,0.6-3.8,0.3-5.3-0.9c-0.5-0.4-1.1-0.8-1.6-1.2c-1.2-0.8-2-1.9-2.5-3.3c-0.8-2.2-1.3-4.6-1.4-7
		c-0.2-2.8,0.2-5.6,1.2-8.2c1-2.4,2.9-4.4,5.2-5.5c0.5-0.1,1-0.2,1.6-0.2c0.5-0.1,1.1-0.2,1.8-0.4c-0.4-0.5-0.6-0.9-0.8-1
		c-1.6-0.5-1.8-1.9-2-3.2c-1-4.9,1-8.7,4.8-11.6c1.2-1,2.6-1.9,4-2.5c1.8-0.6,3.9-0.6,5.7,0c1.6,0.4,1.7,0.3,1.9-1.4
		c0.3-2.3,0.9-4.4,2.9-5.9c1-0.7,1.8-1.8,2.9-2.4c3.5-2.1,7.7-2.5,11.5-1.2c1.4,0.4,3,0.4,4.2,1.6c0.6,0.5,2-0.3,2.5-1.3
		c1.2-2.5,3.3-4.4,5.8-5.5c3.3-1.5,6.6-1.3,10-1c1.3,0.1,2.5,0.4,3.7,0.7c2.1,0.4,3.8,1.9,4.4,3.9c0.2,0.7,0.9,1.2,1.4,1.7
		c2.5-1.2,4.5-2.4,6.9-2.6c2.2-0.2,4.4,0.1,6.4,1c0.9,0.4,1.8,0.9,2.7,1.3c1.9,0.6,3.4,1.9,4.3,3.6c0.6,1.2,1.5,2.3,2.2,3.6
		c0.2,0.4,0.3,0.8,0.3,1.3c-0.1,1.1,0.5,1.2,1.3,1.3c0.3,0,0.5,0,0.8-0.1c4.1-0.9,7.3,0.7,10.1,3.7c2.7,2.8,3.2,6.3,4.3,9.7
		c0,0.5-0.1,1-0.3,1.4c-0.2,0.5-0.5,1-0.8,1.4c1.1,0.4,2.2,0.7,3.3,0.8c2.4-0.1,4.5,2.3,5,4.2c0.5,1.7,0.6,3.4,0.3,5.1
		c-0.3,2-0.7,3.9-1.2,5.8c-0.8,2.6-2.4,4.7-3.8,7c-0.3,0.6-1.1,0.9-1.6,1.3c0.1,0.3,0.1,0.5,0.2,0.6c3.1,2.2,2.5,5.3,1.6,8.1
		c-1.2,3.6-3.9,6-7.2,7.6c-2,1-4.4,0.9-6.3-0.4c-1.2-0.8-1.9-0.6-2.5,0.7c-0.4,0.8-0.6,1.6-1,2.4c-1.5,3.1-4.2,4.4-7.4,4.9
		c-2.5,0.3-5,0-7.4-0.8l-1.1-2.1l-1.6,0.9c-1.7-0.5-2.8-1.9-4-3c-1.4-1.4-2-1.2-2.5,0.7c-0.6,2-2.2,2.9-4.1,3.4
		c-3.6,0.8-7.3,0.3-10.6-1.3c-2.2-1.1-4.3-2.4-6.4-3.6c-0.7-0.4-1.4-0.4-1.8,0.2c-0.9,1.3-2,2.3-2.3,4.1c-0.6,3.4-3.2,4.8-6,6.1
		c-0.7,0.3-1.4,0.5-2.1,0.7C144.1,203,140.7,201.5,138.8,197z M175.6,198.1c-1.4,2.2-2.9,4.4-4.2,6.7s-2.3,4.7-3.5,7.1
		c-4.6-3.2-8.7-7.1-12.1-11.6l1.1-0.3c0.4-2.6,1.3-5.2,2.6-7.5c0.9,0.5,1.8,0.9,2.6,1.4c3.7,2.5,8.1,3.9,12.6,3.8
		c0.2,0,0.4,0,0.6,0.1C175.4,197.8,175.4,197.9,175.6,198.1L175.6,198.1z M152.4,220.1c-1.1-3.8-2.6-7.4-4-11.1
		c-0.6-1.5-1.3-3-2-4.7l7.1-2.8c2.1,2.3,4.1,4.9,6.5,7.2s4.9,4.2,7.4,6.2c2-1.6,2.7-3.9,3.6-5.9s1.9-4.1,3-6
		c0.7-1.3,1.7-2.6,2.5-3.9c0.4-0.8,1.2-1.4,2-1.8c1-0.5,2-1.1,2.8-1.8c0.8-0.6,1.5-1.3,2.3-1.9l4,2.6c-1,2.3-2,4.6-2.9,6.8
		c-0.8,1.7-1.4,3.4-1.9,5.2c-1.3,4.5-2.1,9.1-2.4,13.7c-0.2,4.2-0.9,8.4-1.1,12.5s0,8.1,0,12.2c0,3.8,0.4,7.6,0.2,11.4
		c-0.2,4.1,1.1,8,1.5,12c0.4,3.2,0.9,6.5,2.6,9.3c0.1,0.1,0,0.3,0,0.5c-10.7,2.1-21.4,2-32.1,2.5c-0.3,0-0.6-0.2-0.8-0.3
		c1.3-7,2.6-13.8,3.8-20.7c0.6-3.2,1.1-6.4,1.5-9.7c0.2-1.4,0.1-2.9,0.1-4.4c0.1-2.2,0.2-4.4,0.2-6.6c0.1-2.5-0.1-5.1-0.8-7.5
		C154.5,229,153.7,224.5,152.4,220.1z M48,303c2.5-2.2,4.9-4.5,7.5-6.7c4.7-4,9.4-7.9,14-11.9c3.3-2.9,7.1-5.2,10.6-7.9
		c1.9-1.5,3.7-3,5.6-4.5c1.6-1.5,3.4-2.9,5.3-4.1c2.7-1.5,5.2-3.3,7.8-4.8c2-1.1,4-2.1,6-3.1c0.2-0.1,0.4-0.1,0.6-0.2
		c3.5-2,7.2-3.8,10.9-5.3c5.4-2.5,11-4.7,16.7-6.6c3.4-1,6.8-2.5,10.2-3.5c3.6-1,7.3-1.5,11.1-1.7c0.1,1,0.2,2,0.2,3
		c-0.3,3.7-0.7,7.4-1.2,11.1c-0.5,3.7-1.1,7.1-1.7,10.7s-1.2,6.8-1.9,10.2c-0.3,1.6-0.9,3.2-1.4,4.8c-0.2,0.8-0.4,1.6-0.7,2.7
		l1.8-0.6c0.5,1.1,1.4,0.9,2.4,0.7c3.7-0.6,7.5-0.9,11.3-0.7c0.9,0,1.7-0.1,2.6-0.1c4.2-0.3,8.5-0.6,12.7-1c1.9-0.2,3.7-0.5,5.5-0.9
		c1.9-0.4,2.7-1.6,1.7-3.4c-2.2-4-2.6-8.3-3.1-12.7c-0.1-1-0.6-2.1-0.7-3.1c-0.2-1.1-0.3-2.2-0.3-3.4c-0.2-5.7-0.4-11.5-0.4-17.2
		c0-2.6,0.1-5.2,0.2-7.5c1-0.3,1.9-0.5,2.7-0.7c2.5-0.5,5-0.9,7.5-1.1c6.3-0.2,12.5-0.2,18.8-0.2c1.9,0,3.9,0.2,5.8,0.5
		c0.6,0.2,1,0.5,1.4,1c3.2,4.3,6.4,8.7,9.6,13c0.9,1.3,1.7,2.7,2.7,4c2.7,3.5,5.5,7,8.2,10.5c0.8,1,1.6,2.1,2.4,3.2
		c1.5,2,3,3.9,4.5,5.9c1.4,1.7,2.7,3.5,4.1,5.2c1.3,1.5,2.6,3,3.9,4.5c0.9,1.1,1.8,2.2,2.6,3.3c1.3,1.6,2.6,3.2,3.8,4.9
		c1.6,2.1,3.1,4.2,4.6,6.3c4.7,6.5,9.5,12.9,14.1,19.4c3.7,5.1,7.1,10.5,10.8,15.6c3.3,4.6,7,8.9,10.4,13.5c2.2,2.9,4.1,5.9,6.2,8.8
		c1.5,2.2,3.1,4.3,4.7,6.5c1.6,2.3,3.2,4.7,5,7.3c-1.8,1-3.4,2-5.1,2.8c-3.2,1.6-6.5,3.1-9.7,4.6c-2.6,1.2-5.4,2.3-8,3.7
		c-3.7,2-7.5,3.6-11.1,5.8c-4,2.5-8.4,4.4-12.5,6.7c-3.5,2-7,4.2-10.5,6.2c-2.9,1.7-5.8,3.3-8.6,5c-1.9,1.2-3.8,2.5-5.7,3.7
		c-2.1,1.4-4.2,2.8-6.4,4.1c-1.6,1-3.4,1.8-5,2.9c-0.8,0.7-2,0.7-2.7-0.1c-1.1-0.9-2.1-1.8-3.1-2.8c-4.2-4.8-8.1-9.8-10.8-15.8
		c-0.3-0.7-0.7-1.3-1.1-1.9c-0.7-1.2-1.6-2.3-2.2-3.5c-1.2-2.1-2.3-4.3-3.4-6.5c-2.7-5.2-5.5-10.3-8.1-15.5
		c-1.4-2.9-1.7-6.1-0.8-9.2c0.9-3.1,2.6-6,4.8-8.4c1.1-1.3,2.3-2.5,3.6-4c0.7,4.5,1.3,8.7,2.1,12.9c0.6,2.9,1.4,5.8,2,8.8
		c0.2,0.9,0.4,1.8,0.4,2.8c0,0.4,0,0.9-0.3,1.1c-1.6,1.1-1.6,3-2.2,4.7l2.3,2.1l-0.2,1.5c2.2,0.3,4.2,0.8,6.4,0
		c2.8-1,5.6-1.6,8.4-2.4c0.5-0.2,1-0.2,1.6-0.1c2.8,0.9,5.2-0.5,7.7-1.3c2.1-0.7,3.5-2.4,5-3.9c1-1,0.6-2.4,0.6-3.6
		c0-1-0.8-1.4-1.6-1.8c-0.6-0.4-1.3-0.7-2-1c-1-0.3-1.7-1.2-1.7-2.2c-0.3-2.3-0.9-4.6-1.2-6.9c-0.4-3.2-0.7-6.4-1.1-9.5
		c-0.5-3.5-1.2-7.1-1.9-10.6c-0.1-0.8-0.3-1.7-0.4-2.8c0.9,0.2,1.5,0.3,2.2,0.4c1.9,0.2,3.9,0.4,5.5-1c1.8-1.3,2.3-3.8,1.1-5.6
		c-0.4-0.5-0.5-1.3-0.2-1.9c0.2-0.5,0.2-1,0.4-1.5c0.7-2.3,0.9-4.7,0.7-7.1c-0.1-2.7-0.5-5.4-1.1-8.1c-1.2-5.9-3.8-11-8.6-14.9
		c-0.5-0.4-0.9-0.8-1.3-1.2c-0.4-0.4-0.7-0.8-1-1.2c0.5-1.7,1.2-3.4,1.6-5.1c0.2-1,0.3-2.1,0.1-3.2c-0.1-1.6-0.4-3.2-0.8-4.7
		c-0.9-3.6-3-6.7-5.9-9c-2.8-2.3-6.2-3.1-9.6-3.7c-2.7-0.4-5.4,0.7-7,3c-0.8,1-1.7,2.1-2.4,3.2c-0.4,0.7-0.8,1.5-1,2.3
		c-1.6,4.1-1.9,8.6-0.9,12.9c0.6,2.2,1,4.7,3.1,6.4c-3.3,1.8-6.2,3.8-8,7.1c-1.6,3.2-2.1,6.8-1.6,10.3c-0.9,0-1.9,0-2.8,0
		c-2.2-0.2-4.5-0.1-6.7,0.4c-2.9,0.6-5.7,1.9-8.1,3.7c-2.5,1.7-4.6,3.8-6.4,6.3c-2.2,3.2-4.2,6.5-5,10.5c-0.7,3.3-1.2,6.5-1.7,9.8
		c-0.2,2.2,0,4.4,0.4,6.6c0.5,3,1.2,6,1.8,9c1,4.5,1.2,9.2,2.7,13.7c0.8,2.3,1.4,4.5,2.1,6.8c1.8,5.2,3.9,10.3,6.4,15.2
		c2,4.3,3.7,8.7,5.7,13c2.4,5.1,4.9,10.2,8.5,14.7c3,3.7,5.7,7.6,9.2,10.8c1.8,1.6,3.5,3.3,5.2,4.9l-31.3,23.9
		c-1.7-1-3.2-2.4-4.1-4.1c-2.6-3.9-5.5-7.5-8.4-11.1c-3.9-4.8-7.6-9.8-11.5-14.6c-2.8-3.6-5.7-7.2-8.6-10.8
		c-3.9-4.8-7.9-9.6-11.8-14.4c-3.4-4.2-6.7-8.6-10.2-12.8c-1.7-2.1-3.6-4.1-5.4-6.2c-1.7-1.9-3.3-3.9-4.9-5.8
		c-1.9-2.3-3.7-4.5-5.6-6.8c-2.2-2.7-4.4-5.3-6.6-8c-0.9-1.1-1.8-2.1-2.7-3.2c-3.3-3.9-6.6-7.8-9.9-11.7c-3.8-4.5-7.4-9-11.2-13.5
		s-7.4-8.7-11.3-13c-1.9-2.1-4-3.9-6-5.9c-2.8-2.7-5.6-5.3-8.4-7.9c-1.5-1.4-3-2.8-4.7-4.2C47,304.1,47.5,303.5,48,303z M217.4,324
		c-1-1.2-2.1-2.4-3.3-3.7l-2.4-12.2c-1.7,0.5-2,0.8-1.8,1.9c0.6,3.4,1.1,6.7,1.8,10.3c-2.3-0.2-4.5,0.5-6.3,1.9
		c-1.9-1.5-2.6-3.5-3.4-5.3c-1.1-2.6-1.9-5.4-2.1-8.3c-0.5-4,0.7-8.1,3.2-11.2c1.1-1.5,2.6-2.4,5.5-3.7c2.1,1.5,4.5,2.5,7.1,2.7
		c1.7,0.2,3.3,0.1,4.9-0.5c2.4-0.8,4.8-1.5,6.8-3.2c0.3-0.2,0.6-0.3,0.9-0.4c4.1,3.3,7.7,7,9.6,12c0.7,2.1,1.2,4.2,1.4,6.4
		c0.4,2.3,0.5,4.6,0.7,6.9c0.1,1.7-0.2,3.5-1,5c-0.5,1.2-1.2,2.1-2.8,2c-0.6,0-1.3,0.5-1.9,0.9c-0.4,0.4-0.8,0.9-1.1,1.3
		c-1.4-3.3-1.1-6.5-1.6-9.6s-1.1-6.3-1.7-9.4c-1.5-0.2-1.9-0.1-1.8,1.3c0,1.5,0.2,3.1,0.4,4.6c0.7,4.7,1.5,9.5,2.3,14.2
		c0.5,3.2-0.4,4.5-3.6,5.1c-2.5,0.5-4.9,0.9-7.4,1.3c-0.5,0.1-1.1,0.1-1.6,0c-0.6-0.1-1.2,0.3-1.3,0.9c0,0.1,0,0.2,0,0.3
		c0,0.9,0.7,0.8,1.3,0.8c0.9-0.1,1.7-0.3,2.5-0.5c0.4-0.1,0.8-0.2,1.1-0.3c2.9,0,5.7-0.6,8.3-1.9c0.5,1.8,1.1,3.5,1.4,5.2
		c0.4,2.4,0.6,4.9,0.9,7.3c0.4,3,0.6,6.1,1,9.1c0.3,2,0.7,3.9,1.1,5.9c0.1,0.5,0.1,1,0.1,1.5c-1.4,0.5-2.8,1-4.1,1.6
		c-1.2,0.8-2.3,1.6-3.4,2.5c-1.6-6-3.2-11.8-4.8-17.7c0-0.1-0.3-0.2-0.5-0.3c-0.8,0.3-1.2,1.2-0.9,2c0,0,0,0,0,0
		c0.4,1.8,1.1,3.5,1.5,5.4c0.8,3.6,1.4,7.2,2.1,10.7c0,0.4,0,0.8,0,1.2c-0.9,0.4-1.8,0.4-2.7,0c-1.6-0.6-3.3-0.7-4.9-0.3
		c-1.6,0.4-2,0.1-2.3-1.6c-1.3-6.3-2.6-12.5-3.8-18.8c-0.2-1.2-0.2-2.5-0.6-3.7s0.4-2,1.1-2.8c1.6-1.8,3.2-3.6,4.6-5.5
		c0.7-1,1.4-2.1,1.9-3.3C219.8,329,219.6,326.7,217.4,324z M206.3,284.3c-0.2-1.4-0.3-2.8-0.5-4.5c0.5-4.2,1-8.8,4.8-12
		c0.9-0.6,1.9-1.2,3-1.6c0.2-0.1,0.5-0.2,0.6-0.1c1.3,0.9,2.8,0.4,4.2,0.9s2.8,0.6,4,1.3c1.5,0.9,2.9,2.1,4.1,3.4
		c1.8,1.9,2.9,4.4,3.2,7c0.1,0.5,0.2,1.1,0.3,1.6c1.3,4.9-1.3,10-6,11.8c-0.9,0.3-1.7,0.7-2.6,1c-5.6,2.3-12-0.3-14.4-5.9
		C206.6,286.3,206.4,285.3,206.3,284.3L206.3,284.3z M238.7,330.3c-1,0.5-2.2,0.5-3.3,0.3c-0.6-0.1-1.1-0.7-0.9-1.4c0,0,0-0.1,0-0.1
		c0-1.6,1.3-2.8,2.9-2.8c0,0,0,0,0,0c0.6-0.1,1.2-0.3,1.7-0.5c0.3,0.5,0.6,1,0.8,1.5c0.6,0.9,0.4,2.2-0.6,2.8
		C239.2,330.2,238.9,330.3,238.7,330.3L238.7,330.3z M236.9,365.7c1,0.1,1.3,0.5,1.5,1.5c0.5,3.7-1.7,5.3-4.4,5.7
		c-0.7,0.1-1.5,0.1-2.2,0.2c-1.1,0.1-2.3,0.1-2.8-1.1c-0.6-1.4-1-2.9,0.2-4.1c1-0.9,2-1.7,3.1-2.5c0.3-0.1,0.6-0.2,0.9-0.1
		C234.4,365.4,235.6,365.7,236.9,365.7L236.9,365.7z M224.6,373.4c0,0.5-0.3,0.9-0.8,1.2c-2.7,0.7-5.2,2-8.1,1.7
		c-0.6,0-1.2,0-1.7,0.2c-0.3-0.8-0.5-1.5-0.8-2.1c-0.4-1.2,0-2.4,0.9-3.2c1.6-1.5,3.8-2.1,5.9-1.6c1.3,0.2,2.6,0.5,4.1,0.8
		C224.4,371.3,224.5,372.4,224.6,373.4L224.6,373.4z M240,369.3v-2.4C240.7,367.8,241,368.5,240,369.3L240,369.3z M209.2,437.2
		c0.7-0.7,1.8-0.6,2.4,0.1c0,0,0,0,0.1,0.1c1.6,1.5,3.2,2.9,4.8,4.2c2.4,2.1,4.9,4.1,7.5,6.3c-4,2.7-7.9,5.5-11.9,8.1
		c-3.3,2.2-6.6,4.3-9.9,6.4c-0.1,0.1-0.3,0.3-0.4,0.4c-1.7,1.7-3.7,3.1-5.8,4.3c-2.9,1.7-5.6,3.8-8.4,5.6c-2.3,1.5-4.6,2.9-6.9,4.4
		c-1.1-0.7-1.1-1.7-1.1-2.6c-0.3-4-0.5-8.1-0.6-12.2c0-1.2-0.3-1.9-1.8-2.1c5.1-2.3,9-5.8,13.2-8.7c3.6-2.4,6.9-5.1,10.1-8
		C203.1,441.2,206.2,439.4,209.2,437.2L209.2,437.2z M45.4,307.9c0.1-0.2,0.2-0.5,0.3-0.7c1.2,1,2.3,1.9,3.3,2.8
		c3.5,3.3,7.1,6.6,10.5,10.1c3.6,3.6,7.1,7.4,10.5,11.2c2.2,2.4,4.2,5,6.3,7.5c3.2,3.8,6.4,7.5,9.6,11.2c3.5,4.2,7,8.4,10.5,12.6
		c2.2,2.6,4.6,5.2,6.9,7.8c0.9,1.1,1.7,2.3,2.7,3.5c2,2.6,4.1,5.1,6.2,7.6c1.9,2.2,4,4.4,5.8,6.6c2.8,3.4,5.5,6.9,8.3,10.3
		c2.5,3.1,5,6.3,7.5,9.4c3.8,4.7,7.8,9.3,11.6,14c3,3.7,5.8,7.5,8.7,11.2c3.3,4.2,6.7,8.3,10,12.5c2.8,3.6,5.4,7.3,8.2,10.9
		c1.3,1.7,2.8,3.3,4.5,5.3l0.5,10.9l-0.3,0.2c-0.6-0.6-1.3-1.2-1.9-1.9c-2.7-3-5.4-6.1-8-9.1c-2.4-2.7-4.6-5.5-6.9-8.3
		c-3.2-3.9-6.4-7.8-9.7-11.7c-4.3-5.3-8.6-10.7-13-15.9c-2.3-2.8-4.9-5.4-7.4-8.2c-1.3-1.4-2.5-2.9-3.8-4.3
		c-2.6-2.6-5.2-5.1-7.8-7.7c-1.9-1.9-3.7-3.8-5.6-5.7c-2.9-2.9-5.8-5.7-8.6-8.6c-2.3-2.4-4.4-4.8-6.7-7.2c-2.9-3-5.9-5.9-9-8.8
		c-2.7-2.5-5.6-4.9-8.4-7.4c-3-2.7-6-5.5-8.9-8.3l-5.3-4.9c-4.3-4-8.1-8.4-12.6-12.2c-2.8-2.5-5.4-5.2-7.7-8.1
		c-1.3-1.5-1-3.5-1.2-5.4c-0.2-1.4,0.2-3-0.2-4.3c-0.5-1.9,0.3-3.7,0.2-5.5C44.2,315.5,45.1,311.7,45.4,307.9z M234.5,460.9
		c-1.6,1-3.3,1.7-4.9,2.7s-2.9,2.1-4.4,3.1c-1.2,0.7-2.5,1.2-3.7,1.9c-3.5,2.1-7,4.2-10.4,6.3c-3,1.9-6,4-9,5.9
		c-2.3,1.5-4.7,2.8-6.9,4.3c-3.5,2.3-6.9,4.8-10.4,7.2c-3.8,2.5-7.7,4.8-11.5,7.3c-3-1.6-4.6-4.5-6.9-6.7c-1.9-1.7-3.6-3.5-5.4-5.3
		c-2.4-2.4-4.8-4.8-7-7.3c-2.8-3.1-5.5-6.2-8.3-9.4c-0.9-1-1.8-2.2-2.7-3.2c-5.1-5.3-10.2-10.7-15.5-15.9c-4.7-4.6-9.7-9-14.5-13.5
		c-3.4-3.2-6.7-6.5-10.1-9.7c-2.1-2-4.2-4-6.3-6.2c-3.2-3.3-6.2-6.7-9.3-9.9c-2.3-2.3-4.7-4.5-7.1-6.8c-1.3-1.3-2.6-2.6-3.9-4
		c-2.9-3-5.8-6.1-8.7-9.1l-17.6-18.3c-3.3-3.4-6.6-6.8-9.8-10.2c-2.3-2.5-4.5-5.3-6.8-7.9c-1.1-1.2-2.3-2.4-3.6-3.5
		c-2.6-2.3-5.4-4.5-8-6.9c-0.8-0.9-1.5-2-1.9-3.2c-0.5-0.9-0.6-2-1.9-2.3c-0.2,0-0.4-0.4-0.6-0.5c-1.3-1.2-1.2-1.7,0.4-2.5
		c0.3-0.1,0.8-0.2,0.8-0.4c0.4-1.8,2.2-2.1,3.4-2.9c1.2-0.7,2.6-1.4,3.9-1.9c0.4-0.2,0.7-0.3,1.1-0.5c1.6-0.7,3.3-1.4,5-2.1
		c1.6-0.8,3-1.6,4.5-2.5c1.9-1.1,3.7-2.4,5.7-3.7c0.7,1.7,0.5,3.3,0.6,4.9c0,1.9,0.2,3.8,0.4,5.7c0.2,1.1,1.3,2,2,2.9
		c0.4,0.5,1,0.8,1.5,1.3c2,2.2,3.8,4.4,5.9,6.5c0.9,1,2.1,1.6,3.1,2.6c3,3,6,6.1,9,9.1c0.8,0.9,1.7,1.6,2.6,2.5
		c1.9,1.8,3.9,3.6,5.8,5.4c1.4,1.3,3,2.5,4.4,3.7c3.1,2.8,6.3,5.6,9.3,8.5c2.6,2.4,5,5,7.5,7.4c0.9,0.9,2,1.7,3,2.7
		c2.2,2.3,4.3,4.7,6.6,7c3.1,3.2,6.5,6.2,9.5,9.5c5.4,5.9,11.4,11.1,16.4,17.2c2.8,3.4,6,6.6,8.9,10c2.3,2.7,4.4,5.7,6.7,8.5
		c1.4,1.7,2.8,3.4,4.1,5.1c2.2,2.7,4.4,5.4,6.6,8.1c2.7,3.2,5.4,6.5,8.1,9.6c2.9,3.4,5.9,6.9,8.9,10.3c2,2.3,4.2,4.4,5,7.5
		c0.3,1.2,1.6,1.2,2.8,0.4c2.9-2,5.8-4.1,8.7-6c3.4-2.3,6.8-4.4,10.2-6.7c5.4-3.7,10.8-7.4,16.1-11.1c2.7-1.9,5.5-3.7,8.2-5.7
		c1-0.8,2.4-0.9,3.5-0.1c3.4,1.8,6.9,3.4,10.4,5.1c0.9,0.4,1.7,0.8,2.6,1.2v0.6C238.5,458.2,236.5,459.6,234.5,460.9z M291.4,459.5
		c-3.9-0.1-7.9-0.2-12-0.2c-1.8,0-3.6,0.1-5.4,0.1c-5.3,0.1-10.5-0.2-15.7-1.1c-2.9-0.5-5.8-0.9-8.7-1.3c-3.5-0.7-6.9-1.8-10.1-3.4
		c-1.6-0.7-3.1-1.5-4.7-2.2c-4.8-2-9.2-4.7-13-8.2c-3.9-3.5-8-6.9-11.8-10.5c-3.3-3-6.4-6.2-9.3-9.6c-2.5-3.1-5.2-6-7.2-9.5
		c-1.3-2.1-2.5-4.2-3.5-6.5c-0.8-2.1-2.1-4-3-6c-1.3-2.8-2.6-5.7-3.9-8.6c-1.9-4.3-3.8-8.6-5.6-12.9c-2.4-6.3-4.2-12.8-5.4-19.5
		c-0.7-4.1-1.4-8.2-2.1-12.4c-0.4-1.5-0.8-3.1-1-4.6c-0.2-2.1-0.1-4.3,0.3-6.4c0.8-3.6,1.7-7.2,2.9-10.8c0.7-1.7,1.6-3.4,2.8-4.8
		c2-2.8,4.4-5.1,7.3-7c2.8-1.7,6-2.7,9.2-3c2.1-0.1,4.2,0.1,6.1,0.1c1.4,3.6,2.4,6.6,3.7,9.6c0.6,0.9,1.2,1.7,2,2.4
		c-2,1.1-3.8,2.6-5.3,4.4c1.2,0.5,1.8-0.2,2.5-0.8c2.8-2.4,5.8-4.5,9.6-5c1.4-0.3,2.9,0.3,3.8,1.4c1.2,1.4,2.6,2.7,2.9,4.7
		c0.2,1.2,0,2.5-0.7,3.6c-1.5,2.8-3.4,5.4-5.7,7.6c-2.4,2.4-4.6,5-6.8,7.5c-2.5,2.9-4.8,6-5.6,10c-0.9,3.9-0.3,8,1.5,11.6
		c2.6,5.1,5.4,10.1,8,15.2c1.4,2.9,2.9,5.7,4.4,8.5c0.7,1.2,1.6,2.2,2.4,3.5c1.1,1.9,2,3.9,3.2,5.8c2.6,4,5.7,7.7,9.1,11
		c5.4,4.9,11.9,8,18.7,10.3c2.9,1,5.7,2.5,8.6,3.7c1.5,0.6,3.1,1.2,4.7,1.8c2.9,1.1,5.7,2.4,8.7,2.8s6,1.2,9,1.7
		c2.3,0.3,4.6,0,6.9,0.2c2.5,0.2,5,0.6,7.5,0.7c3.1,0.1,6.1,0,9.2,0.1c2.8,0.1,5.6-0.2,8.4-0.9C307.9,434.2,293.8,456.4,291.4,459.5
		L291.4,459.5z M389.5,450.5c-3,0.4-6.1,0.9-9.1,1.3c-0.9,0.1-1.8,0.2-2.8,0.4l-8.1,0.9c-3.1,0.4-6.2,0.7-9.3,1
		c-3.4,0.3-6.9,0.6-10.3,0.9c-4.9,0.4-9.8,0.7-14.7,1.1c-4.4,0.3-8.9,0.7-13.3,1c-1.8,0.1-3.6,0.4-5.4,0.6c-3.5,0.4-7,0.8-10.5,1.1
		c-3.8,0.4-7.6,0.6-11.4,0.9c-0.2,0-0.5,0-0.7-0.1c0.1-0.4,0.3-0.8,0.5-1.1c1.9-3,3.7-6,5.7-8.9c0.8-1,1.8-1.8,2.9-2.3
		c3.1-1.3,6.4-2.4,9.6-3.3c4-1.1,8.2-1.8,12.2-3c1.1-0.3,2.2-0.4,3.4-0.5c1.1-0.2,2.2-0.4,3.4-0.6c4.7-0.8,9.4-1.8,14.2-2.5
		c5.4-0.7,10.7-1.1,16.1-1.8c3.6-0.4,7.3-1.1,10.9-1.5c4.1-0.5,8.3-0.4,12.4,0.3c1.4,0.3,2.6,1,3.5,2c-0.7,2,0.8,3.5,1.3,5.3
		c0.6,2,1.4,4,1.9,6c0.3,1.2-0.1,1.7-1.3,2.2C390.3,450.3,389.9,450.4,389.5,450.5L389.5,450.5z M452.5,447.3l-0.9-0.1
		c-0.9,1.3-2.4,2.1-4,2.1c-4.5,0-8.9-0.2-13.4-0.6h-0.1l0,0h-0.3c-1.4,0.2-2.9,0.2-4.3-0.1c-0.3,0-0.6-0.1-0.9-0.2
		c-0.4,0-0.7-0.1-1.1-0.1h-0.4v-0.1c-0.1,0-0.2,0-0.3-0.1h-0.1h-0.2l-1.6-0.1c-0.4,0-0.9,0-1.3-0.1h-0.4l0,0h-3.5v-0.1l-2.2,0.1h0
		c-5.7,0.2-11.5,0.4-17.2,0.4c-0.5,0.2-1.1,0.3-1.7,0.3c-2,0.1-3.9-1.2-4.5-3.1h-0.3l-1.9-5.3c0.2-0.1,0.5-0.4,0.7-0.4
		c1.3,0.3,2.3-0.3,3.5-0.6c0.8-0.6,1.8-0.9,2.8-0.9h2.2c1.5-0.2,2.9-0.4,4.4-0.6c6.2-0.8,12.5-0.5,18.8-0.5c6.8,0,13.6,0,20.4,0
		c3,0,6,0.4,9,0.5c0.2,0,0.4,0.2,0.6,0.3C452.8,440.9,452.1,444.1,452.5,447.3L452.5,447.3z M453.7,469c-3.4-0.2-6.7-0.4-10-0.6
		c-5.4-0.3-10.9,0.2-16.3-0.9c-0.1,0-0.3-0.1-0.4-0.1c-3,0.4-6,0.3-9-0.2c-1.6-0.2-3.2-0.3-4.8-0.4c-7.7-0.4-15.3-0.8-23-1.2
		c-1.6-0.1-1.9-0.4-1.6-1.9c0.2-0.8,0.4-1.7,0.9-2.4c1.4-2.2,2.1-4.7,2.1-7.3c-0.1-1.1,0.5-2.1,1.4-2.6c1.4-1,3.1-1.5,4.8-1.4
		c3,0.2,6,0.2,9,0c5.4-0.2,10.8,0,16.2,0.4c3.6,0.3,7.2,0.6,10.8,0.7c4.2,0.1,8.5,0,12.8,0h6.3C454.8,456.6,455.2,466.3,453.7,469
		L453.7,469z M456.5,434.1c-0.4,1.4-1.1,1.7-2.5,1.7c-7.4-0.3-14.8-0.6-22.1-0.8c-6.3-0.1-12.5,0.2-18.8,0.2
		c-6.4,0.1-12.7,0.9-18.9,2.3c-0.2,0.1-0.7,0.1-0.8,0c-0.8-1-2.3-1.3-2.6-3c-0.3-2.4-0.4-4.8-0.1-7.2c0.4-4.7,0.9-9.4,1.4-14.1
		c0.5-5.6,1-11.3,1.6-16.9c0.5-4.7,1.1-9.4,1.5-14.1c0.3-3.1,0.3-6.3,0.5-9.4c0.2-3.6,0.5-7.2,0.8-10.8c0.2-2.5,0.3-5.1,0.5-7.6
		c0.2-4,0.4-8,0.8-12c0.4-4,1.1-7.9,2.1-11.8c0.5-2.2,0.7-4.5,1.1-6.7c1-5.1,0.2-10.3,0.4-15.4c-0.1-1.2,0.3-2.4,1-3.4
		c1.6-2.1,3.3-4.1,5.1-6c0,0.4,0,0.9,0,1.3c-0.1,3.3-0.2,6.7-0.5,10c-0.5,6.2-0.5,12.5-1.4,18.7c-0.5,3.5-0.5,7.2-0.7,10.8
		c-0.3,5.1-0.5,10.1-0.9,15.2c-0.3,4-0.8,7.9-1.3,11.9c-0.5,4.4-1.3,8.8-1.6,13.3c-0.2,3.8,0,7.6,0,11.4c0,0.8,0.1,1.6,0,2.3
		c-0.1,2.1-0.2,4.2-0.3,6.4c-0.1,1.3-0.3,2.7-0.4,4c-0.1,4.3-0.1,8.6-0.1,13c0,1.2-0.2,2.4-0.3,3.6c0,1.6,0.6,1.9,2.1,1.3
		c0.4-0.2,0.7-0.2,1.1-0.2c5.4,1.1,10.9,0.4,16.4,0.7c4.3,0.2,8.5,0.4,12.8,0.6c2.5,0.1,5,0.1,7.4,0.2c5.2,0.3,10.4,0.7,15.6,1.1
		c1,0.1,2.1,0.3,3.4,0.5C458,428.5,457.3,431.3,456.5,434.1L456.5,434.1z M472.6,407.4c-0.3-0.1-0.7-0.1-1,0
		c-2.6,0.4-4.9,1.7-6.6,3.7c-1.8,2.4-3.2,5.1-3.8,8c-0.4,1.5-0.9,3-1.4,4.7c-0.5,0-1,0-1.6-0.1c-2.6-0.8-5.3-1.2-8.1-1
		c-1.9,0.1-3.7-0.1-5.6-0.4c-4.5-0.6-9-0.8-13.6-0.7c-3.1-0.1-6.3-0.2-9.4-0.4c-2.1-0.1-4.3-0.2-6.4-0.3c-1,0-2,0.3-3,0.2
		c-3.3-0.2-6.5-0.4-9.9-0.7c0-2.8,0-5.5,0-8.1c0.2-7.1,0.5-14.2,0.5-21.4c-0.1-5.2,0.1-10.4,0.8-15.5c0.7-4.5,0.8-9.2,1.3-13.7
		c0.4-3.9,0.9-7.7,1.4-11.5c0.1-0.9,0.2-1.7,0.2-2.6c0.3-6.1,0.5-12.1,1-18.2s1-12,1.2-18c0.1-4.5,0.5-8.9,0.7-13.4c0-1,0.4-2,1-2.7
		c3.4-4.4,6.8-8.8,10.2-13.1c2.1-2.6,4.3-5.1,6.3-7.8c4.4-5.6,9-11.1,13-17c4.6-6.7,8.8-13.7,13.2-20.5c2.7-4.2,5.5-8.4,8.3-12.5
		c2-3,4.1-6.1,6.2-9.1c0.3-0.4,0.8-0.7,1.3-0.8c3.9-0.2,7.8-0.3,12.1-0.5c-0.2,0.4-0.5,0.7-0.8,1c-2.5,1.8-4.3,4.4-5.2,7.3
		c-1.8,4.8-1.8,9.6,1.4,13.9c1.7,2.3,4,4.1,6.8,5.1c3.6,1.4,7.4,1.8,11.2,1.4c-1.1,5.8,1.6,10.2,5.5,13.9c4.1,3.9,9.1,4.2,14.3,3.4
		c0.2,0.2,0.4,0.3,0.4,0.5c0.2,2.2,1.7,3.5,3.3,4.8c1.3,1,2.7,1.9,4.1,2.8l0,0c2.2,0.9,4.6,1.5,7,1.6c2.5,0.2,4.8-0.7,7.2-2
		c2.8,3.9,7.2,5.3,11.6,6.6c2.8,0.9,5.7,0.7,8.4-0.4c0.3-0.1,0.7-0.2,1-0.3c-0.2,3.7-0.2,7.4-0.5,11c-0.6,6.2-1.3,12.3-2,18.5
		c-0.7,5.6-1,11.3-1,17c0.1,3.2-0.3,6.4-0.3,9.6c-0.1,3.9,0.1,7.9,0,11.8c-0.2,5.8-0.5,11.5-0.8,17.3c-0.2,4.2-0.5,8.4-0.8,12.6
		c-0.3,4.5-0.6,8.9-0.9,13.4c-0.1,1.2,0,2.4,0,3.6c-0.1,2-0.2,4-0.3,6c-0.3,5.1-0.5,10.1-0.8,15.2c-0.2,3.3-0.4,6.7-0.6,10
		c-0.1,2.7-0.2,5.4-0.3,8.1c-0.1,1-0.3,2-0.6,3c-1.1-0.1-2.1-0.2-3.2-0.3c-5.7-1-11.3-2-17-2.9c-3.8-0.6-7.6-1.2-11.5-1.7
		c-6.4-0.8-12.8-1.4-19.2-2.1c-6.2-0.9-12.5-1.2-18.8-1.1c-0.2-1.1-0.2-2.3,0.1-3.5c0.4-2.1,0.4-4.4,0-6.5
		C477.4,409.5,475.4,408,472.6,407.4z M534.3,263.5c0.3,1,0.8,2,1.2,3.2c-2,0.4-3.9,1.1-5.9,1c-4-0.3-7.8-2-10.8-4.7
		c-2.1-1.9-2.3-4.4-1.8-7c0.1-0.4,0.2-0.8,0.3-1.2c0.2-0.7,0.4-1.5-0.5-1.9c-0.7-0.3-1.4,0.1-1.7,1.2c-0.4,1.3-0.8,2.5-1.2,4.1
		c-3.7,0.2-7.4,0.3-10.9-2c-2.5-1.7-4-4.1-5.6-6.5c-1.9-3-1-7.9,1.5-10.5c0.3-0.3,0.5-0.6,0.7-0.9c-0.3-0.6-1.1-0.9-1.7-0.6
		c-0.1,0-0.2,0.1-0.3,0.2c-0.5,0.2-0.9,0.6-1.3,1c-1.6,2.5-4.1,2.2-6.4,1.9c-1.9-0.3-3.8-0.8-5.6-1.4c-6.1-1.9-9.5-8.3-7.9-14.4
		c0.6-3.4,2.4-6.5,5-8.8c0.4-0.4,0.9-0.6,1.4-0.7c1.1,0,1.5-0.6,1.8-1.7L501,214c5.9,0,11.8,0.4,17.6,0.1c6.4-0.3,12.7,0.7,19,0.8
		c2.6,0,5.2,0.5,7.8,0.7c1.8,0.1,3.6,0.1,5.4,0.2c2.6,0.1,5.2,0.3,7.8,0.4c0.5,0.1,0.9,0.2,1.4,0.3c0,2.5,0,4.7,0,6.9
		c0,1.1,0,2.1-0.1,3.2c-0.1,2.4-0.3,4.8-0.4,7.2c-0.2,4.2-0.5,8.5-0.5,12.8c0,5-1.1,10-1.3,15c-0.1,2.5-0.2,4.9-0.3,7.4
		c0,0.8,0,1.9-0.4,2.3c-0.9,0.8-2,1.3-3.2,1.4c-3.2,0-6.4-0.2-9.3-1.8c-0.6-0.4-1.3-0.7-2-0.9c-2.4-0.5-3.7-2.2-4.7-4.3
		c-0.5-1-0.8-2-1.2-3c-0.3-0.7-0.7-1-1.4-0.7S534,262.7,534.3,263.5L534.3,263.5z M570.6,225.7c0.3-3.5,0.4-7.1,0.6-10.6
		c0.1-1.1,0.3-2.2,0.5-3.4c0.4,0.2,0.7,0.2,0.7,0.3c1,1.7,2.5,3,4.3,3.8c0.9,0.5,1.6,1.1,2.3,1.8c2.4,2.1,3,4.7,2.5,7.9
		c-0.5,2.7-0.3,5.4-0.5,8.1s-0.3,5.5-0.7,8.1c-0.4,3.6-0.5,7.2-0.2,10.8c0.1,2.9,0.1,5.7,0,8.6c-0.2,6.5-0.6,13-0.7,19.5
		c-0.2,8.9-1.2,17.8-2,26.7c-0.1,0.9,0.1,1.9,0,2.8c-0.5,5-1,10.1-1.4,15.1c-0.3,3.2-0.3,6.4-0.5,9.6c-0.1,2.4-0.3,4.8-0.4,7.1
		s-0.3,4.9-0.4,7.4c-0.1,2.9-0.1,5.9-0.3,8.8c-0.3,5.6-0.7,11.2-0.9,16.9c-0.2,4.9-0.3,9.7-0.5,14.6c-0.1,2.7-0.2,5.3-0.4,8
		c-0.2,3.7-0.4,7.3-0.7,11c-0.2,2.8-0.6,5.7-1,8.5c-0.1,0.9-0.1,1.9-0.2,2.8c-0.5,4.5-0.9,9-1.4,13.5c-0.6,5-1.2,10-1.8,15
		c-0.3,2.3-0.5,4.6-0.9,6.9c-0.2,0.5-0.4,0.9-0.6,1.3c-1.5-1.7-2.8-3.1-4.1-4.5c-0.7-0.7-1.4-1.4-2.2-2.2c0.3-4.9,0.6-9.9,0.9-14.9
		c0.2-3,0.4-6.1,0.6-9.1c0.2-3.4,0.5-6.8,0.7-10.1c0.2-2.5,0.2-4.9,0.4-7.4c0.2-3.3,0.4-6.6,0.6-9.9c0.2-4,0.5-8.1,0.8-12.1
		c0-0.8,0.2-1.6,0.3-2.4c0.1-3.5,0.3-6.9,0.4-10.4c0.1-4.3,0.2-8.7,0.4-13c0.2-5-0.1-10,0-14.9c0.1-4.4,0-8.8,0.1-13.2
		c0.1-5.1,0.2-10.1,0.4-15.2c0.1-3.7,0.6-7.3,0.5-11c-0.1-6.3,0.4-12.5,0.7-18.8c0.2-4,0.2-8,0.3-12c0.3-7.6,0.7-15.2,1.2-22.8
		c0.3-5,0.7-10.1,1.2-15.1C569.5,233.6,570.2,229.7,570.6,225.7L570.6,225.7z M486.8,203.5c4.7-0.1,9.3-0.6,14-0.5
		c5.1,0,10.3,0.4,15.4,0.7s10.1,0.7,15.2,0.7c4.7,0,9.3,0.4,14,0.7c4.3,0.3,8.5,0.4,12.8,1c3.4,0.6,6.8,1.3,10.1,2.2
		c1.4,0.3,1.6,0.9,1.5,2.3c-0.2,3.2-0.3,6.4-0.7,9.5c-0.3,2.8-0.1,5.7-0.8,8.4c-0.2,0.9-0.2,1.9-0.2,2.8c0,0.9,0,1.7-0.2,2.6
		c-0.9,4-1,8.1-1.3,12.1c-0.3,4.6-0.8,9.1-1.1,13.7c-0.2,2.9-0.1,5.7-0.2,8.6c-0.2,4.3-0.4,8.5-0.6,12.8c-0.1,2.3-0.1,4.5-0.3,6.8
		c-0.3,3.5-0.4,7-0.5,10.5c-0.1,1.4-0.1,2.8-0.1,4.2c-0.1,3-0.2,6-0.2,9c-0.2,5.8-0.3,11.6-0.5,17.4c-0.1,5.1-0.2,10.1-0.2,15.1
		c0,4.8,0.1,9.5,0,14.3c-0.1,5.3-0.4,10.5-0.6,15.8c-0.2,4.7-0.4,9.4-0.6,14.1c-0.1,2.6-0.4,5.2-0.5,7.8c-0.5,7.3-0.9,14.7-1.4,22.1
		c-0.2,3.3-0.3,6.6-0.5,10c-0.3,4.2-0.7,8.3-1,12.5c-0.2,2.1-0.2,4.1-0.4,6.2c0,0.6-0.2,1.2-0.3,2.1c-3.5-0.7-6.7-1.2-9.9-1.9
		c-6.2-1.3-12.3-2.9-18.6-3.6c-2.4-0.3-4.7-0.9-7.1-1.2c-3.3-0.5-6.6-0.8-9.9-1.2c-1.8-0.2-3.5-0.6-5.3-0.8
		c-2.1-0.2-4.1-0.2-6.2-0.2c-2.8,0-5.5,0-8.3,0.1c-0.8,0.1-1.5,0.3-2.2,0.5c-1.5-2.4-3.7-4.3-6.3-5.5c-2.6-1.3-5.3-1.4-8.4-1l2-9.9
		c6.2,0,12.4,0.4,18.6,1.1c3,0.4,6,0.5,9,0.9c4,0.5,8.1,1,12.1,1.6c4.3,0.6,8.6,1.1,12.9,1.8c4.6,0.8,9.2,1.7,13.8,2.5
		c1.1,0.2,2.2,0.3,3.3,0.4c1.6,0.2,3.3-1.6,3.4-3.4c0.2-4.6,0.4-9.1,0.6-13.7c0.2-5.4,0.4-10.8,0.7-16.2c0.1-2.1,0.4-4.2,0.5-6.4
		c0.1-2.3,0.1-4.6,0.2-7c0.1-1.5,0.2-3,0.3-4.6c0.3-4.5,0.7-8.9,1-13.4c0.2-2.9,0.4-5.8,0.6-8.8c0.2-3.8,0.6-7.5,0.7-11.3
		c0.1-6.9,0-13.9,0.1-20.8c0.1-5.5,0.2-11.1,0.5-16.6c0.3-5.1,1.1-10.2,1.6-15.3c0.2-1.9,0.5-3.8,0.5-5.8c0.1-3.9,1-7.8,1-11.7
		c0-4.2,0.7-8.4,1-12.5c0.2-3.6,0.2-7.3,0.6-10.9c0.5-3.4,0.8-6.9,0.8-10.4c0-2.1,0-4.3,0-6.4c0-0.5,0-0.9,0.1-1.4
		c1-6.8,0.9-13.6,1.2-20.4c0-0.4-0.1-0.9-0.2-1.3c-0.8-0.3-1.5-0.5-2.3-0.6c-4-0.2-8-0.4-12-0.6c-2.3-0.1-4.7-0.2-7-0.4
		c-6.2-0.5-12.4-1.1-18.6-1.4c-5.1-0.2-10.2,0.1-15.4,0.1c-2.1,0-4.1-0.1-6.2-0.1c-3.6,0-7.2,0.1-10.8,0.1c-3.2,0-6.4-0.1-9.5,0
		s-6.5,0.2-9.8,0.4c-0.5,0-1,0-1.9,0l3.8-6c0.5-0.7,1.3-1.2,2.1-1.3C478.8,204.4,482.7,203.6,486.8,203.5L486.8,203.5z"/>
	<path d="M580.7,474.6l0.3,1.8c-0.8,0.1-1.5,0.2-2.1,0.2c-4.5,0.1-9,0-13.4,0.3c-3.2,0.2-6.3,0.9-9.5,1.1c-4.8,0.4-9.6,0.3-14.3-0.5
		c-4.5-0.8-9.1-1.2-13.7-1.6c-3.9-0.4-7.8-0.6-11.7-0.7c-6.1-0.2-12.2-0.5-18.4-0.5c-2.4,0-4.8,0-7.2-0.1c-1.5,0-3,0.2-4.6,0.4
		c-0.1-0.5-0.4-1.1-0.1-1.4c0.4-0.5,0.9-0.8,1.5-0.9c1.7-0.1,3.5,0,5.2,0c0.7,0,1.3,0.1,2,0.1c2.9,0,5.7,0,8.6,0
		c2.3,0,4.7,0.1,7,0.2c5.5,0.2,10.9,0.4,16.4,0.7c2.5,0.2,4.9,0.7,7.3,1c3.1,0.4,6.2,0.6,9.3,1.1c6.3,0.9,12.6,0.2,18.9-0.6
		c4.7-0.6,9.6-0.5,14.4-0.7C577.9,474.5,579.3,474.6,580.7,474.6L580.7,474.6z"/>
	<path d="M452.4,299.8c-2.4,0.3-4.6,0.8-6.9,0.9c-3.1,0.1-6.1-0.3-9.1-1.2c-1.2-0.4-2.2-1.1-3-2c-2.8-2.9-3.4-6.5-4.2-10.1
		c-0.5-2.5-0.3-5.1,0.6-7.5c0.1-0.3,0.2-0.5,0.3-0.7c1.5-1.5,1.5-3.6,2.2-5.5c1.1-3.2,2.8-6,5.8-7.9c0.6-0.4,1.3-0.7,2-0.8
		c2.1-0.6,4.2-1.1,6.4-1.4c2.1-0.2,4.2,0.6,5.6,2.1c0.5,0.5,1.1,0.9,1.6,1.3c2.1-1.5,4.4-2.6,6.9-3.3c1.8-0.5,3.7-0.5,5.5,0
		c2.3,0.7,3,2.7,1.5,4.5c-1,1.1-2.1,2-3.3,2.8c-1.3,1-2.7,1.9-4,2.7c2.3,4,3.8,8,3.2,12.4c-0.2,1.7-0.9,3.4-1.9,4.8
		c-1.9,2.9-4.3,5.4-7,7.4c1.2,0.9,2.4,1.8,3.6,2.6c1.6,1.1,2.9,2.7,3.7,4.6c0.4,0.9,0.9,1.8,1.4,2.6c1.4,1.9,2.1,4.2,2.2,6.5
		c0.3,3.4,0.2,6.8,0.2,10.2c0,0.3,0.1,0.8-0.1,1c-1.1,1.1-1,2.6-1.2,4c-0.3,1.4-1.6,2.3-3,2.2c-1.1-0.1-2.1-0.2-3.2-0.4l-1.3,1.3
		c0.1,1.2,0.2,2.3,0.1,3.3c-0.1,2.1,0.2,4.3,0.9,6.3c0.3,0.7,0.2,1.1-0.4,1.5c-0.5,0.3-1.2,0.2-1.6-0.3c-0.2-0.2-0.4-0.5-0.5-0.8
		c-0.3-1.6-0.6-3.1-0.8-4.7c-0.1-1.3-0.1-2.5,0-3.8c-3.4,1.4-6.8,1.1-10.2,1.3c-0.6,1.5,0.5,2.4,1.2,3.6l-1.3,1.1
		c-1.8-1.2-1.9-1.2-2.4-4.7c-3.2-0.5-6.4,0-9.7,0c-0.8,1.5-0.4,3-0.3,4.5c0.2,1.2,0,2.4-0.6,3.4c-1.1-0.4-1.8-1.5-1.6-2.6
		c-0.1-1.8,0-3.6,0-5l-2.8-4.1l-1.4,0.6c-4.5,1.8-7.1-2-7.3-5.1c-0.1-2.3,0-4.9,2.2-6.4c-0.3-1.3-0.6-2.5-0.8-3.6
		c-0.4-2.2,0-4.5,1.2-6.4c2.2-3.9,4.7-7.6,8.4-10.2c1.1-0.7,2.3-1.4,3.5-1.9c0.4-0.1,0.7,0,1,0.3c0.1,0.4,0,0.8-0.2,1.2
		c-0.1,0.3-0.5,0.4-0.8,0.5c-4.6,2.6-7.5,6.6-9.8,11.2c-1,1.8-1.2,4-0.5,6c0.2,0.6,0.3,1.2,0.4,1.9l2.4-0.1c0.4-1.7,0.8-3.3,1.5-4.9
		c0.6-1,1.4-1.9,2.4-2.6c0.2-0.2,0.8,0,1.5,0l-1.9,3.1c2.2-1,4.2-3.3,6.5-0.1l2.3-1.7c1.1-0.8,2.1-1.2,3,0.2
		c0.4,0.5,0.8,0.9,1.3,1.2c2-2.4,2-2.4,5.7-0.6c0.4-0.5,0.9-1.1,1.4-1.6c1.2-1.3,1.3-1.2,2.8-0.1c0.2,0.1,0.4,0.2,0.6,0.3
		c0.2-0.2,0.5-0.4,0.7-0.6c1-0.6,1.3-0.5,2.1,0.5c2.1,2.7,3.5,5.8,4.3,9.1c0.1,0.4,0.2,0.8,0.4,1.1l3.7,0.6c0.1-0.4,0.2-0.8,0.2-1.1
		c0.1-3.5-0.3-6.9-1.2-10.3c-0.4-1.1-0.9-2.2-1.5-3.3c-0.7-1.6-1.6-3.1-2.6-4.5c-1.1-1.2-2.2-2.2-3.5-3.2
		C453.9,300.7,453,300.2,452.4,299.8z M433.3,278.2c-1.1,1.6-1.7,3.4-1.9,5.2c0,2.5,0.4,5.1,1.2,7.5c0.6,1.8,0.9,3.8,3.1,4.6
		c0.2,0.1,0.4,0.3,0.5,0.6c0.5,1,1.5,1.6,2.5,1.7c3.1,0.5,6.2,1.1,9.5,0.6c4.8-0.6,8.3-3.3,10.9-7c3.5-4.8,2.8-9.9,0.3-14.9
		c-0.9-1.8-2.4-1.9-4-0.7c-1.5,1.2-3.2,2.2-4.9,3c-3.4,1.3-7,1.8-10.6,1.4c-2.1-0.2-4.4-0.2-6.1-2
		C433.7,278.2,433.6,278.2,433.3,278.2z M449.6,314.2c-0.2,0.6-0.4,1.3-0.7,1.9c-0.8,1.3-1.7,1.5-2.9,0.4l-1.7-1.5
		c-1,1.3-1.9,2.6-3,2.8l-3-2.6l-3.9,3.3c-0.7-0.7-1.3-1.3-1.8-1.9c-0.3-0.5-0.9-0.7-1.5-0.4c-0.1,0-0.2,0.1-0.2,0.2
		c-1,0.6-2,1.2-3.1,1.9c-0.5,1.8,1,3.9-0.5,5.7l1.1,2.6c0.8-0.9,1.3-1.7,2-2.3c1-1,1.4-1,2.6-0.1c0.9,0.6,1.8,1.1,2.4,1.5
		c1.2-0.6,2.1-1.1,3.1-1.5c1.1-0.4,2,0.5,2.8,1.1c1.3-1.8,2.8-2.3,4.8-1.2c0.5,0.3,1,0.3,1.5,0.1c1.5-0.8,2.8-0.3,4,0.8
		c1.2-1.2,2.5-1.9,4.1-1.4c0.3,0.1,0.7-0.3,1.1-0.5c-0.4-2.5-1.3-4.9-2.7-7.1c-1.1,0.1-2,0.4-2.6,0.1S450.4,315,449.6,314.2
		L449.6,314.2z M434,274.6l0.4,0.3c0.5,0.5,1,1.1,1.4,1.7c0.3,0.7,0.9,1.1,1.7,1.2c2.1,0.1,4.2,0.3,6.4,0.4
		c3.8,0.1,7.6-1.2,10.5-3.6c1.2-1,1.4-1.8,0.5-3c-1.3-1.7-2.9-3.1-4.7-4.3c-1.2-1-2.8-1.5-4.5-1.4c-2.4,0.4-4.9,0.6-7,2
		c-0.6,0.3-1.2,0.8-1.6,1.4C435.9,271,435,272.8,434,274.6L434,274.6z M431.3,333.7c3.6,0,7.3,0,11,0c3.2-0.1,6.4-0.2,9.6-0.4
		c2.5-0.2,3.9-1.5,4-3.8c0.1-1.2,0.2-2.5,0.3-3.8c-1.2-0.5-2.7-0.2-3.6,0.7c-1,0.8-1.9,1.1-3,0c-0.4-0.4-0.9-0.5-1.4-0.4
		c-1.4,0.8-3.2,0.7-4.5-0.5c-0.9,0.7-1.7,1.8-2.6,1.9s-2-0.8-3-1.2l-2.6,1.7l-4.2-1.9c-0.5,0.5-0.9,0.9-1.3,1.3
		c-0.2,0.3-0.6,0.7-0.5,1C429.8,330.1,429.6,332,431.3,333.7L431.3,333.7z M455.4,268c0.8,1.2,1.5,2.1,2,3.1
		c0.7,1.4,1.1,1.6,2.4,0.8c1.8-1.1,3.5-2.3,5.1-3.5c0.3-0.2,0.5-0.5,0.7-0.7c0.7-1,0.4-1.7-0.8-2C461.3,264.9,458.3,266.4,455.4,268
		z M423.6,321.7c-1.9,0.4-2.7,1.4-2.7,3c-0.1,1-0.1,2,0,3c0.4,3.1,2.5,4.1,5.3,2.4C426.1,327,425.7,324.1,423.6,321.7L423.6,321.7z
		 M460.9,325.2c-2.2,0.7-2.6,1.3-2.4,2.9c0.2,1.2,1.4,2,3.3,2.1C463.3,328.3,461.6,326.9,460.9,325.2L460.9,325.2z"/>
	<path d="M526.2,404c1.3-1,4.7,0,7.1,1.7c0,0.9-0.3,1.5-1.4,1.4c-0.3,0-0.7,0-1-0.1c-1.9-0.8-3,0.1-4,1.5c-0.2,0.3-0.4,0.5-0.7,0.7
		c-0.7,0.5-1.4,0.3-1.6-0.6c-0.1-0.5-0.2-1-0.3-1.5c-1.9,0-3.8-0.1-5.7-0.4c-0.5,0.4-1.1,0.7-1.7,1c-0.7,0.2-1.4,0.4-2.2,0.5
		c-0.2-0.2-0.3-0.5-0.4-0.7c-0.2-1.3-1.3-2.2-2.6-2c-0.3,0-0.7,0.2-0.9,0.3c-0.7,0.4-0.7,0.4-1.7-0.1c-0.7,0.8,0.2,2.2-1,2.9
		c-0.5,0.2-1,0.3-1.6,0.3c-1-1.4,0.9-3-0.8-4.1c-1,0.4-2.1,1-3,0c-1,0.1-1.8,0.4-2.4,0.2c-1-0.4-0.3-1.5-0.6-2.4l3.1-1.7l1.4,1.9
		c1,0,1.8-0.7,1.8-1.7c0,0,0,0,0,0c0.2-1.6,0.6-3.3,0.9-4.9c0.1-0.4,0.1-0.8,0.2-1.2c0.1-0.6,0.2-1.5,1.1-1.4s0.8,1,0.8,1.6
		c0,1.3-0.1,2.5-0.1,3.8c0,0.9-0.1,1.8,0.9,2.5c0.5,0.3,0.6,1,0.8,1.2l3.4-0.4c0.2-0.7,0.4-1.6,0.7-2.5c0.4-1.3,0.7-1.5,2.3-1.2
		l-0.2,2.4c1.8-0.7,2.6,0.5,3.8,1.4l1.1-0.4c1,0.1,0.6,1.9,2.2,1.4c0.2-1.4,0.5-3,0.7-4.5c0.2-1.3,0.4-1.5,2.1-1.9L526.2,404z"/>
	<path d="M521.7,268.2c0.2,1.6,0.3,3.3,0.2,4.9c-0.5,4.1-0.2,8.2-0.5,12.4c-0.8,7.7-2.3,15.2-5.8,22.2c-1.9,3.8-3.4,7.8-5.2,11.6
		c-1.9,4-4,8-6.1,11.9c-0.5,0.6-1.1,1.1-1.8,1.4c-0.3,0.1-0.6,0-0.9-0.2c-0.1-0.3-0.1-0.6,0-0.9c0.5-1,1-1.8,1.5-2.8
		c1.6-3.1,3.2-6.3,4.7-9.5c2.6-5.8,5.1-11.7,7.7-17.5c1.7-3.6,2-7.6,2.7-11.4c0.6-3.8,0.9-7.6,0.8-11.4c0-2.8,0.2-5.6,0.3-8.4
		C519.4,269.1,520,268.5,521.7,268.2L521.7,268.2z"/>
	<path d="M539.1,280c0.4,0.2,0.8,0.5,1.2,0.8c0.5,0.5,0.9,1.2,1.1,1.9c0.6,2.4,0.9,4.9,1,7.4c0.1,3.1-3.3,7.1-6.2,7.8
		c-0.3,0.1-0.5,0.1-0.8,0.1c-2.1,0.7-4.4-0.4-5.1-2.5c-0.1-0.3-0.2-0.6-0.2-0.9c-0.9-4.2,0.1-8.5,2.5-12
		C534.1,280.7,536.5,280.3,539.1,280z M538,281.9c-1.7,0.2-3.2,1.2-4,2.6c-1.9,3.2-1.8,6.6-1.3,10c0.1,1.2,1.1,1.7,2.3,1.7
		c1.8,0,5-3.1,5.1-4.8c0-0.3,0.1-0.5,0-0.8c-0.1-1.6-0.2-3.2-0.3-4.8C539.8,284.3,539.1,282.9,538,281.9L538,281.9z"/>
	<path d="M490.7,406.8c-2.5,0.1-4.7-1.7-6.5-4.2c-0.2-0.3-0.3-0.8-0.2-1.1c0.2-2.1,1.2-4,2.9-5.3c1.3-0.8,2.9-1,4.4-0.6
		c1.3,0.4,2.7,0.9,3.9,1.5c1.2,0.6,2.1,1.8,2.1,3.1C497.8,403.7,495.2,406.6,490.7,406.8z M494,398.2c-1,0.3-1.9,0.9-2.8-0.1
		c-1.2-1.2-2.5-1.1-3.4,0.4c-0.5,1-1,2-1.5,3l1,1.4c0.8,1.1,2,1.9,3.4,2.2c1.1,0.3,2.3,0,3.1-0.9C495.3,402.5,495.4,400,494,398.2
		L494,398.2z"/>
	<path d="M499.6,385.3c1,0.8,2.4,1.1,3.4,2.4c-1.2,0.5-2.6,0.5-3.8-0.1c-1.1-0.7-2.4-0.9-3.6-0.5c-1.6-1.3-1.6-3.2-2.1-4.8
		c-0.2-0.6,0.3-1,1-1.1c1.4-0.1,2.7-0.4,4.1-0.6c0.3,0,0.6-0.3,0.9-0.3c1.4-0.1,2.4,0.9,1.8,2.2
		C500.8,383.5,500.3,384.4,499.6,385.3z M496.3,382.9l0.8,1.7l2-2l-0.2-0.4L496.3,382.9z"/>
	<path d="M422,357.3c1.3,1.2,0.9,3.2,2.5,4.2l1.8-3.1l2.9,3.5c0.4-0.5,0.7-1,0.9-1.6c0.7-1.9,0.7-1.9,2.8-1.6
		c-0.1,0.4-0.1,0.9-0.3,1c-0.8,0.6-1.3,1.5-1.3,2.5c0,0.4-0.1,0.8-0.3,1.2c-0.2,0.7-0.9,1.2-1.7,1.2c-0.8,0.1-1.2-0.5-1.5-1.1
		c-0.4-0.6-0.8-1.1-1.2-1.6c-0.6,0.9-0.9,1.6-1.4,2.3c-0.9,1.1-1.6,1-2.1-0.3c-0.7-1.6-1.3-3.3-2-5
		C420.8,358.2,421.3,357.8,422,357.3z"/>
	<path d="M501,370.1l-0.8-5.2c1.7-0.5,3.5-1,5.3-1.4c0.6-0.2,1.4-0.2,1.5,0.8c0.1,0.8-0.6,1.3-1.6,1.4c-0.8,0.1-1.5,0.2-2.3,0.4
		c-0.1,0-0.2,0.3-0.4,0.5c0.5,1,1.4,0.4,1.9,0.2c0.9-0.5,2.1-0.4,2.9,0.3c-0.6,2.1-3,1-4.4,2.3l6.1,1c0.4,0.9-0.1,1.1-0.7,1.2
		C506,372,503.3,371.5,501,370.1z"/>
	<path d="M491,380.4c-1.5,1.1-3.5,0.3-5,1.8c0.9,0.1,1.4,0.1,2,0.2c0.8,0.1,1.6,0.3,2.3,0.5c0.3,0.1,0.4,0.8,0.4,1.2
		c0,0.2-0.7,0.5-0.9,0.5c-1-0.4-2.2-0.2-3.1,0.4c0.4,0.1,0.7,0.2,1.1,0.3c0.9,0.1,1.9,0.1,2.8,0.2c0.4,0,0.7,0.4,0.7,0.9
		s-0.4,0.7-0.9,0.7c-1.5,0.1-2.9,0.1-4.4-0.1c-1.1-0.2-1.6-1.5-1.9-2.6c-0.3-1.2-0.4-2.4-0.5-3.5c-0.1-0.6,0.2-1.3,0.8-1.1
		c1.5,0.4,2.8-0.4,4.3-0.4C489.6,379.4,490.5,379.8,491,380.4z"/>
	<path d="M447.5,382.8c-1.9,1-2.1,1-3.1-0.4c-1.2-1.6-1.8-1.7-3.4-0.3c-0.5,0.5-1.1,0.7-1.6,0.2c-0.3-0.4-0.5-0.9-0.4-1.4
		c0.1-1,0.3-2,0.5-2.9c0.1-0.6,2.1-2.1,3-2.2c0.5-0.1,1-0.1,1.8-0.1c0.5,1.2,0.6,2.8,1.5,3.6C447,380.4,445.9,382.1,447.5,382.8z
		 M442.3,378.1l-0.5,1.5C443.4,379.4,442.7,378.7,442.3,378.1z"/>
	<path d="M457.7,383.5c-0.8-1.6-0.1-3,0.2-4.3c0.2-0.8,2.4-2,3.3-1.9c1.2,0,2.3,0.9,2.6,2.1c0.3,0.7,0.7,1.4,1.2,2
		c0.2,0.4,0.6,0.7,0.8,1.1c0.4,0.4,0.4,1,0,1.4c0,0,0,0,0,0c-0.4,0.5-1.1,0.6-1.5,0.2c0,0,0,0-0.1,0c-1.4-1.2-3.5-1.5-5.1-0.6
		C458.7,383.5,458.2,383.6,457.7,383.5z M462,381l-0.8-2.2l-0.5,2.2H462z"/>
	<path d="M453.8,381.1l1.7,0.8c0.3,0.1,0.7,0.2,0.9,0.4c0.3,0.3,0.4,0.8,0.4,1.2c-0.1,0.2-0.8,0.5-1.1,0.4c-1.3-0.3-2.5-0.8-3.8-1.2
		l-1.7,1.1c-1.3-1.7-1.2-3.7-0.9-5.4c0.2-1.5,1.9-1.7,3.2-1.9c1.1-0.3,2.3,0.1,3,1c0.5,0.7,0.4,1.8-0.3,2.4
		C454.7,380.3,454.4,380.6,453.8,381.1z M453.7,379c-0.8-1-1.1-1.2-1.6-0.9c-0.9,0.5-1,1.3-0.3,2.3L453.7,379z"/>
	<path d="M433.4,380.3l-0.2,1.5l-1.7,0.4c-0.9-0.7-1.4-1.9-1.1-3c0.1-0.5-0.2-1.2-0.1-1.8c0-0.6,0.2-1.1,0.6-1.6
		c0.3-0.4,0.8-0.4,1.2-0.2c0.2,0.1,0.3,0.4,0.3,0.6c0.2,0.7,0.2,1.4,0.3,2.3l1.8,0.2c0.1-0.2,0.1-0.4,0.2-0.6c0-0.2-0.1-0.4-0.2-0.6
		c-0.3-0.7-0.6-1.4,0.3-1.9c0.7-0.4,1.4,0,1.9,1.3c0.6,1.5,1.1,3,1.6,4.5c0.2,0.4,0,1-0.4,1.2c-0.1,0-0.1,0.1-0.2,0.1
		c-0.6,0.2-1.3,0.5-1.7-0.4C435.4,381.2,434.5,380.5,433.4,380.3z"/>
	<path d="M445.4,392.7l2-0.5c0.8-0.3,1.8,0,2.3,0.8c1.2,1.2,2.4,2.2,3.7,3.3c0.2-0.6,0.3-1.1,0.4-1.7c0-0.3-0.3-0.6-0.4-0.9
		c-0.1-0.6-0.3-1.4,0-1.8s1.1-0.3,1.9-0.5c0.1,1.5,0.2,2.6,0.2,3.8c0,1.7-1.3,2.1-2.4,2.5l-4.2-2.4c-0.2,0.3-0.3,0.6-0.4,0.9
		c-0.1,0.8-0.8,1.3-1.6,1.1c0,0,0,0-0.1,0c-0.8,0-0.8-0.8-1-1.3C445.8,395,445.7,394,445.4,392.7z"/>
	<path d="M424.2,375.8c-0.7,1.6,0,2.9,0.3,4.3c0.9-0.2,1.9-0.3,2.9-0.3c0.4,0,0.8,0.3,1,0.6c0.2,0.4,0,0.9-0.3,1.1
		c-0.1,0.1-0.2,0.1-0.3,0.1c-1.3,0.2-2.7,0.4-4,0.4c-0.6-0.2-1.1-0.6-1.4-1.2c-0.5-1.1-0.8-2.3-1-3.5c-0.2-1.6,0.9-3,2.4-3.4
		c0.9-0.2,1.9-0.4,2.9-0.6c0.4,1.3,0.6,2.3-0.2,3.1S425,376.4,424.2,375.8z"/>
	<path d="M493.4,366.7c-0.2-0.6-0.3-1.2-0.3-1.8c0-0.4,0.1-0.9,0.3-1.3c0.5-0.7,1.2-0.6,1.5,0.2c0.2,0.4,0.2,0.8,0.4,1.1
		c0.5,1.3,1,2.6,1.5,3.9c0.2,0.5,0.1,1-0.2,1.4c-0.4,0.2-1,0.2-1.4-0.1c-0.5-0.4-1-1-1.4-1.5c-1.1,0-2.2-0.3-3.2,0.8
		c-0.7,0.8-1.6,0.2-1.8-1.1s-0.4-2.5-0.6-3.9c0.2-0.3,0.5-0.5,0.8-0.6c0.4-0.3,0.9-0.2,1.2,0.2c0.1,0.1,0.1,0.3,0.1,0.4
		c0,0.2,0,0.4,0,0.6C490.7,366.7,491.2,367.4,493.4,366.7z"/>
	<path d="M430,394.6c-1.8,1.5-3.6,3-6,1.7l-1.4-5.9c1.8-0.7,3.7-0.9,5.6-0.3c0.7,0.4,1.2,1,1.4,1.8C429.8,392.8,430,393.7,430,394.6
		z M426.6,395c0.5-0.6,1.1-1,1.2-1.4c0.1-0.7-0.1-1.4-0.4-2c-0.4-0.7-1.2-0.6-1.8-0.2s-0.5,1-0.2,1.5S426,394,426.6,395L426.6,395z"
		/>
	<path d="M445.7,359.8c0.3,1.4,1.2,2.7,2.4,3.4c0.6,0.5,1.1,1.3,1.3,2.1c0.1,0.3-0.3,0.9-0.6,1.1s-1.1,0.3-1.3,0.1
		c-1.1-1.5-2.6-1-4-1c-0.7,0-1.5-0.1-2.2-0.2c0.6-1.6,1-3,1.6-4.5C443.4,359.7,444.2,359.5,445.7,359.8z"/>
	<path d="M461.7,391.9c-0.4,0.9-0.9,1.6-1.2,2.4c-0.9,2.1,1.2,3.9,2.8,3.8c0.2,0,0.4-0.1,0.5-0.3c0.1-0.1,0-0.2,0.1-0.5
		c-0.4,0.1-0.8,0.1-1.1,0.1c-0.3-0.1-0.8-0.4-0.8-0.6s0.2-0.9,0.4-1c1-0.2,1.9-0.2,2.9,0c0.8,0.1,0.9,0.9,0.8,1.6
		c-0.1,1-0.8,1.8-1.7,2.1c-1.1,0.5-2.3,0.4-3.3-0.3c-0.3-0.2-0.6-0.3-0.8-0.5c-2.6-1.9-3-3.2-0.8-6.4
		C459.9,391.3,460.6,391.2,461.7,391.9z"/>
	<path d="M434.5,359.1c1.1,1.2,1.2,1.4,1.1,3.2c0.1,0.1,0.2,0.2,0.3,0.2c0.4-0.1,0.8-0.2,1.1-0.3c0.4-1.2,0-2.6,1.8-3.2l1.3,5.9
		l-1.8,1l-1-1.8c-0.4,0.3-0.8,0.7-1.1,1.1c-0.4,0.6-1,1.1-1.6,0.8c-0.4-0.3-0.7-0.9-0.8-1.4c-0.1-1.4-0.2-2.9-0.1-4.3
		C433.6,359.9,434.1,359.6,434.5,359.1z"/>
	<path d="M471.5,363.9c2.6,2.1,3,3.3,1.7,4.8c-1,1.2-3,1.1-4.8-0.4c0.9-1.5,1.6-1.7,3.5-0.9c0.3-0.8-0.5-0.8-0.9-1
		c-1-0.5-1.8-1.4-2.2-2.5c-0.3-0.9,0-1.5,0.8-1.7c1-0.2,2.1-0.3,3.1-0.3c0.3,0,1,0.6,0.9,0.7c-0.1,0.5-0.4,0.9-0.8,1.1
		C472.4,363.9,472,363.9,471.5,363.9z"/>
	<path d="M437.8,394.2c0,1.8-0.9,2.7-2.6,2.8c-2.2,0-4.2-1.4-4.3-3c0.1-1.8,1.6-3.2,3.4-3.1C436.4,390.9,438,392,437.8,394.2z
		 M435.6,395.4c0.7-1.7,0.7-1.7-1.2-3.1c-0.7,0.3-1.4,0.8-1.2,1.6C433.4,395.1,434.5,395.3,435.6,395.4L435.6,395.4z"/>
	<path d="M481.5,365c-0.4,0.2-0.8,0.3-1.2,0.4c-0.4,0-0.8-0.1-1.2-0.2c0.2-0.4,0.2-1,0.5-1.1c1-0.5,2.1-0.8,3.2-1
		c1.1-0.1,2.2-0.1,3.4,0c0.2,1.9,0.1,2-2,1.9c-0.4,0.8-0.3,1.8,0.2,2.6c0.6,0.8,0.2,1.4-0.4,1.9c-0.8,0.8-1.6,0.5-1.9-0.6
		S481.7,366.4,481.5,365z"/>
	<path d="M475.5,381.6l-1.6-0.7c0.1-1.1,0.9-1.4,1.5-1.5c1.7-0.3,3.4-0.5,5.1-0.6c1.3-0.1,1.5,0.4,0.8,1.8h-3.4
		c0.2,1.1,0.4,2,0.6,2.9s0.1,1.4-0.6,1.7c-0.6,0.3-1.3,0-1.6-0.6c0,0,0-0.1-0.1-0.1C476.1,383.7,475.9,382.7,475.5,381.6z"/>
	<path d="M468.6,381.3c1.3,2.4,3.6,2,5.8,2c-0.6,1.2-1.9,1.9-3.2,1.6c-1.6-0.1-3.1-0.8-4.3-1.9c-0.6-0.5-0.8-1.3-0.5-2
		c0.3-0.8,2.3-2.4,3.1-2.3c0.5,0.2,0.9,0.4,1.3,0.7c-0.2,0.4-0.5,0.7-0.8,1C469.6,380.8,469.1,381.1,468.6,381.3z"/>
	<path d="M448.6,362.4c0.5-2.2,2.7-2.7,6.4-1.5c0,1.6-1.4,1-2.4,1.5c0.1,0.9,0.2,2,0.3,3s-0.3,1.6-1,1.6s-1.1-0.7-1.2-1.4
		c-0.1-1-0.2-2-0.2-3.1L448.6,362.4z"/>
	<path d="M471.5,397.1l1.9-3.4c-0.9-0.6-1.5-0.7-2.3-0.1s-1.4,0.4-1.8-0.5c1.3-1.4,4.5-1.8,5.8-0.6c0.4,0.5,0.5,1,0.5,1.6
		c-0.2,1.2-0.9,2.3-2,3C473.2,397.4,472.5,397.2,471.5,397.1z"/>
	<path d="M442.7,391.3c0.5,1.7,1,3.3,1.5,4.8c0.2,0.5,0,1-0.4,1.2c-0.1,0-0.1,0-0.2,0.1c-0.6,0.2-1.5,0.4-1.7-0.4
		c-0.5-1.6-0.8-3.3-0.9-5C441,391,442,391.1,442.7,391.3z"/>
	<path d="M463.1,364.6c0-0.6,0-1.1,0.1-1.7c0.2-0.4,0.6-0.6,1-0.7c0.3,0,0.7,0.5,0.8,0.9c0.3,1.2,0.5,2.3,0.6,3.5
		c0,0.4-0.5,1.2-0.6,1.2c-0.5-0.1-1.2-0.3-1.4-0.7C463.3,366.2,463.2,365.4,463.1,364.6z"/>
	<path d="M472,399.7c1.2-1.2,1.2-1.2,2.2,0.2C473.2,400.6,473.2,400.6,472,399.7z"/>
	<path d="M288.8,241.7c-2.6-0.9-4.8-2.8-6.1-5.3c-1.4-2.6-1.8-5.5-1.4-8.4c0.2-1.1,0.6-2.2,1.2-3.1c1-1.8,2.2-3.4,3.4-5.1
		c1-1.4,2.4-2.5,4-3.1c1.9-0.9,4-1.3,6.2-1.4c0.7-0.1,1.4-0.5,1.8-1.1c1.2-1.7,2.6-3.3,4.3-4.7c0.9-0.8,2.1-1.2,3.3-0.9
		c1.3,0.4,2.3,1.6,2.4,2.9c0.5,2.5-0.6,4.4-2.1,6.2c-0.6,0.8-1.3,1.5-2,2.3c0.3,1,0.6,1.9,1,2.8c2.2,5.7,0.4,10-3.6,13.6
		c-2.6,2.6-6,4.3-9.6,4.9c-0.5,0.1-1,0.3-1.5,0.5c-1.3,2.8-2,5.8-2,8.9c0,2,0.4,4,1.2,5.8c0.3,0.8,1.1,1.3,1.7,2
		c1.3-0.8,2-2.3,1.9-3.9c0.1-1.4,0.4-2.8,0.8-4.1c0.1-1,1-1.7,2-1.6l0.3,2.7c0.9-2.5,2.2-4,5.2-3c0.3-0.7,0.5-1.2,0.8-1.7
		c0.5-1.2,0.9-1.5,2.1-1.1c0.6,0.3,1.4,0.1,1.8-0.5c0,0,0-0.1,0-0.1c0.3-0.4,0.7-0.8,1.1-1.1c0.8-0.7,1.7-1.1,2.7-0.4l2-2.3
		c-0.7-0.8-1.3-1.7-2-2.5c-0.2-0.3-0.5-0.5-0.7-0.7c-0.6-0.9-0.6-1.8,0.1-2.1s1.3,0.1,1.8,0.7c0.8,1,1.7,1.9,2.5,2.8
		c0.4-0.2,0.6-0.2,0.7-0.4c0.5-1.7,1.9-2.6,3-3.8c0.5-0.6,0.9-1.2,1.3-1.9c-0.4-0.3-0.9-0.5-1.4-0.6c-3.2-0.6-6.4-1-9.6,0.6
		c-0.8,0.4-2,1.1-2.8-0.3c0.7-1,1.7-1.7,2.8-2c2.7-1,5.6-1.3,8.5-1c2.2,0,4.3,1.1,5.6,2.9c0.5,0.7,1,1.4,1.6,2.1
		c2.1,2.6,1.5,7.8-2.6,8.8c-1.4,0.5-3,0.2-4.2-0.7c-0.5-0.4-1.1-0.8-1.9-1.4c-0.1,0.6-0.3,1-0.2,1.3c1.7,4,3.4,8.1,5.3,12.1
		c0.6,0.9,1.2,1.7,1.9,2.5c2.2,3.7,4.5,7.4,6.6,11.2c1.4,2.3,3.2,4.4,5.3,6.2c0.9,0.6,1.9,1,3,1c3,0.5,4.2,2.5,5,5.1
		c0.4,1-0.1,2.2-1,2.8c-2,1.3-3.9,2.8-5.9,4.1c-1.4,0.9-3,1.3-4.7,1.1c-2,2.9-5.4,3.9-8.4,5.4c-0.2,0.1-0.5,0.2-0.8,0.3
		c-2.7,0.8-4.1,0.2-4.5-2.5c-0.4-2.5-2.1-4.2-3.2-6.3c-2.9-5.3-6-10.5-8.9-15.9c-0.7-1.4-1.7-2.7-3-3.6c-1.4-1.1-2.6-2.4-3.7-3.8
		c-1,1.6-2.4,2.9-4.2,3.7c-2.5,1.2-4.1,0.5-5.4-0.8c-0.7-0.6-1-1.6-0.7-2.5c0.4-1.2,0.8-2.4,1.3-3.5
		C284.8,253.6,285.4,247.7,288.8,241.7z M304.8,267.2c0.7,1.2,1.4,2.3,2,3.5c2.7,5.4,5.8,10.7,9.1,15.7c0.3,0.4,0.6,0.8,1,1.1
		l5.8-4.2c0-0.3-0.1-0.7-0.2-1c-1.7-3.6-3.6-7.1-5.7-10.5c-0.5-0.9-1.3-1.7-1.8-2.6c-0.7-1.3-0.6-1.4,0.8-2.9
		c3.7,4.9,6.8,10.2,9.3,15.9c1.2-1,2-2.2,3.2-2.6c1.3-0.6,2.3-1.5,3.1-2.7c-0.3-0.5-0.6-0.8-0.9-1.2c-1.2-1.3-2.3-2.6-3.3-4
		c-1.4-2.2-2.5-4.5-3.8-6.8s-2.3-5-4.4-6.8L304.8,267.2z M302.1,222.5c-5.7,4-11.4,7.7-18.7,7.4c-0.1,0.3-0.1,0.7-0.1,1
		c0.4,2.9,1.9,5.5,4.2,7.3c0.8,0.8,1.9,1.1,3,1c4.1-0.7,8-2.7,10.9-5.7C304.1,230.8,304.4,226.7,302.1,222.5L302.1,222.5z
		 M298.8,260.4c1,1.9,2.5,3.5,4.4,4.6c1.4-0.6,3-1.3,4.5-2.1c0.7-0.4,1.2-1,1.9-1.4c2.1-1.3,4.2-2.5,6.3-3.8
		c0.6-0.4,1.1-0.8,1.6-1.3l-2.6-5.7l-3.2-0.1c-0.4,0.8-0.9,1.4-1.6,2c-0.8,0.3-1.7,0.5-2.6,0.6c-1,2.6-1,2.6-3.2,2.2
		c-1.4,1-1.6,3.9-4.3,2.7L298.8,260.4z M300.1,221.7c-0.9-2.4-2.7-4.1-4.4-4c-2.6,0.1-5.1,0.9-7.4,2.3c-0.8,0.4-1.4,1.1-1.7,1.9
		c-0.2,0.7-0.7,1.4-1.2,1.9c-0.8,1-1.9,1.9-1.6,3.7l4.1-0.3c2.1-0.2,4-0.8,5.8-1.9c1.4-0.8,2.8-1.5,4.2-2.3L300.1,221.7z M312,243.9
		c-0.7,1.1-1,2.1-1.6,2.5s-1.6,0-2.4-0.1l-0.2-0.5l-2.8,3.3l-1.7-0.8c-0.2,0.4-0.3,0.7-0.5,1c-0.7,1.8-0.7,1.8-2.7,1.6
		c-1.4-0.2-1.7,0.1-2.3,1.3c-0.4,0.9-0.9,1.7-1.5,2.8l1.6,2.9c1.1-1.6,1.8-3.4,3.9-2.1l2.3-2.9h2c0.2-0.3,0.3-0.5,0.5-0.8
		c0.6-1.1,1.1-2.1,2.7-1.9c0.2,0,0.6-0.3,0.8-0.5c0.9-1.4,2-2,4.1-1.3L312,243.9z M334.5,278.2c-0.4,0.3-0.8,0.8-1.1,0.7
		c-1.1-0.2-1.7,0.5-2.1,1.2c-0.5,1.1-1.6,1.8-2.8,1.8c-0.8,0-1.4,1.2-1.2,1.9c0.8,2.5,4.1,3.9,6.3,2.6c2-1.2,3.8-2.6,5.7-3.9
		C339.1,279.3,336.9,278.7,334.5,278.2L334.5,278.2z M325.1,285.2c-2.8,0.9-5.7,1.5-6.8,4.9c-0.3,0.8-0.2,1.7,0.3,2.4
		c0.6,0.8,1.5,0.5,2.2,0.2c2-0.9,3.9-1.9,5.8-2.9c0.5-0.4,0.9-0.8,1.3-1.2L325.1,285.2z M302.3,219.1c0.8-0.9,1.6-2,2.5-3
		c0.8-0.9,1.1-2,1-3.1c0-0.7-0.3-1.4-1-1.8c-0.7-0.4-1.6-0.2-2.2,0.5c-0.8,0.7-1.6,1.4-2.3,2.2c-0.5,0.7-1,1.4-1.5,2.1L302.3,219.1z
		 M319.9,235.3c-0.8,0.6-1.5,1.2-2.2,1.8c-1.8,1.7-1.4,3.6,0.8,4.6c0.6,0.3,3.1,0,3.3-0.6c0.3-0.8,0.5-1.6,0.4-2.4
		C322.1,237.3,321.2,236,319.9,235.3L319.9,235.3z M291.3,261.4c-0.7,0.1-1.6-0.9-2.1,0.5c-0.5,1,0,2.3,1,2.8
		c0.4,0.2,0.8,0.2,1.2,0.2c1.9-0.4,3.7-1.2,4.4-3.2C294.1,259.1,293.3,259.1,291.3,261.4L291.3,261.4z"/>
	<path d="M389.6,250.9c1.4,1.5,2.8,3.1,4.2,4.7c0.9,0.7,1,2,0.3,2.8c0,0,0,0,0,0c-0.2,0.3-0.5,0.7-0.8,0.9c-2,1.8-4,3.6-6,5.4
		c-0.2,0.2-0.6,0.5-0.9,0.5s-1.1-0.2-1.1-0.5c-0.4-1.8-1.9-2.8-2.9-4.2c-0.8-1-1.8-1.9-2.9-3c-0.3,0.6-0.5,1-0.6,1.5
		c-0.5,1.2-1.1,1.4-2,0.4c-0.7-0.9-1.7-1.7-2.8-2.1c-0.8-0.3-1-1-0.9-1.8c0.3-2.2,0.6-4.4,0.7-6.5c0-1.5,1.3-1.9,1.8-2.9
		c1,0,1.9,0,2.7,0c1.3,0.2,2.6-0.6,3-1.9c0.4-0.9,0.8-1.7,1.4-2.4c0.5-0.7,1.4-1,2.2-0.7c1.4,0.3,2.9,0.4,4.3,0.4
		c1.6,0,1.9,0.2,1.9,1.8c0.1,1.8,0.1,3.7,0,5.5C391.1,249.6,390.3,250.1,389.6,250.9z M375.7,248.8v6.7l1.7,1.2
		c1.1-0.6,0.5-2.5,2.2-2.5l7.3,8.2l5.5-4.6l-2.8-3.2c0.1,0.7,0.4,1.4,0.2,1.9c-0.3,0.8-1.1,0.7-1.9,0.7c-0.7,0-1.3,0.1-1.9,0.3
		c-2.8,0.6-3.1,0.5-4.2-2.2c-0.1-0.2-0.1-0.4-0.2-0.6c-0.4-1-0.2-2.5-1.9-2.7c-0.3,0-0.5-0.8-0.6-1.2s-0.3-1.1-0.5-1.7L375.7,248.8z
		 M389.3,244.3l-5.7-0.6l-1.3,2.2l3.5,3.5c0.6-1.8,2-0.5,3-1.2L389.3,244.3z M385.8,254.6c-0.6-1.1-1.1-2.2-1.7-3.3
		c-0.1-0.2-0.7-0.4-0.8-0.3s-0.5,0.6-0.5,0.9c0.2,0.7,0.5,1.5,0.9,2.2C384.2,255.1,384.9,255.3,385.8,254.6z M382.3,249l-1.6-1
		l0.5,1.8L382.3,249z"/>
	<path d="M352.7,191.8l4.8,6.4l-4.6,2.7c1.1,2.2,2.2,4.3,3.4,6.4c0.6,1,0.5,1.7-0.6,2c-3.1,1.1-6,2.6-8.6,4.5
		c-0.4,0.2-0.8,0.4-1.1,0.5c-0.5-0.7-1-1.5-1.5-2.3c-1.7-3.1-2.6-3.5-6.1-2.6c-1,0.2-2,0.2-3,0.1c-0.8,0-1.2-0.5-0.9-1.4
		c0.8-2.8,1.6-5.6,2.5-8.4c0.2-0.7,0.9-1.2,1.7-1.2c1.3-0.1,2.5-0.4,3.8-0.4c1.9-0.1,3.3-1.1,4.7-2.3s2.7-2.2,4-3.2
		C351.5,192.4,352.1,192.1,352.7,191.8z M348.5,197.2c-0.6,0.5-1.1,0.9-1.8,1.3c-1,0.6-2.1,1.1-3.2,1.5c-1.1,0.2-2.2,0.4-3.4,0.4
		c-1.7,0.2-2,1-1,2.4c1,1.3,1,1.3-0.5,2.2c-1.1,0.7-2.1,1.4-1.6,3l2.9-0.7c1.1-1.7-0.1-4.2,2.9-4.8c-0.1,1-0.2,1.9-0.4,2.9
		c-0.3,0.7,0,1.6,0.7,2c1,0.7,2,1.6,3.1,2.5c1.3-1.3,1.8,0.5,2.6,1c1.5-0.7,2.8-1.2,4.1-1.9c1-0.5,1.1-0.8,0.5-2
		c-0.4,0.3-0.8,0.5-1.2,0.6c-0.7,0.4-1.5,0.1-1.8-0.6c0,0,0,0,0-0.1c-0.3-0.6-0.1-1.4,0.6-1.7c0.4-0.3,0.9-0.5,1.4-0.8
		c-0.7-1.7-1.3-3.2-3.6-2.5c-0.4,0.1-1-0.4-1.5-0.7c0.3-0.9,1.2-1.5,2.2-1.2c1.8,0,3.5-0.8,4.8-2.1l-2-3.4l-1.6,0.9l0.9,1.3
		C350,198.1,349.8,198.1,348.5,197.2z"/>
	<path d="M334.1,186.4c0.2-1.1,0.3-2.3,0.6-3.5c0.3-1.5,0.8-1.7,2.2-1.3l7,2.2c1,0.3,1.3,1,0.4,1.7c-1.7,1.4-3.1,3-5.2,3.9
		c-0.9,0.5-1.7,1-2.4,1.6c-1,0.7-1.8,0.4-2-0.8C334.4,189.1,334.3,187.8,334.1,186.4z M337.8,187.8c1.5-0.3,2.8-1.1,3.6-2.4
		l-4.6-1.4c-0.3,1-0.7,1.6,0.4,2.2C337.5,186.5,337.6,187.2,337.8,187.8L337.8,187.8z"/>
	<path d="M398.9,266.3c0.9,0.2,0.9,0.8,1,1.5c0.2,1.3,0.5,2.6,0.8,3.9c0.1,0.3,0.1,0.7,0.2,1c0.2,2.6-0.3,3-2.9,2.2
		c-2-0.6-4.1-0.9-6.1-1.4c-0.1-0.1-0.2-0.2-0.2-0.4c-0.5-1.8,0.3-2.8,1.9-3.6C395.4,268.6,397.1,267.4,398.9,266.3z M397.7,269.1
		l-3.9,2.4c1.5,0.9,2.9,1.6,4.7,1.1L397.7,269.1z"/>
	<path d="M159.1,201.5c-0.2,0-0.5,0.1-0.6,0c-0.3-0.2-0.5-0.5-0.7-0.8c0,0,0.2-0.3,0.2-0.2c0.3,0.1,0.6,0.2,0.8,0.4
		C159,201,159,201.2,159.1,201.5z"/>
	<path d="M490.5,403.5c-0.7-0.3-1.4-0.7-2-1.2c-0.9-0.8-0.1-2.4,1.3-2.7c0.5-0.1,1.1-0.2,1.6-0.3c0.9-0.2,1.8,0.3,2,1.1
		c0,0,0,0,0,0.1C493.9,402.1,492.7,403.6,490.5,403.5z"/>
	<path d="M348.6,205.7c-1,1.5-2.4,1.6-3.9,1.4c-0.4-1.1,0.2-1.7,0.7-2.2c0.3-0.4,0.7-0.6,1.1-0.8C347.6,204,348.3,204.5,348.6,205.7
		z"/>
</g>
</svg>
