<?xml version="1.0" encoding="utf-8"?>
<!-- Generator: Adobe Illustrator 21.0.0, SVG Export Plug-In . SVG Version: 6.00 Build 0)  -->
<svg version="1.2" baseProfile="tiny" id="Layer_1" xmlns="http://www.w3.org/2000/svg" xmlns:xlink="http://www.w3.org/1999/xlink"
	 x="0px" y="0px" viewBox="0 0 1184 241" xml:space="preserve">
<path fill="none" d="M811,874"/>
<path fill="none" d="M811,874"/>
<path fill="none" d="M811,874"/>
<g>
	<path fill="#333333" d="M69.5,170.7c-6.8-2.1-15.7-5-16.4-13.3c-0.5-6.1,4.3-9.3,10.1-7.4c3.8,1.3,6.6,4.4,9.3,7.2
		c1.1,1.2,2.7-0.1,2.5-1.5c-1.8-11.2,1.8-23,9.7-31.3c4.2-4.5,9.8-8.2,15.9-9.3c8-1.5,13.6,3,17,9.8c11.8,23.8-3,51.9-28.7,56.9
		c-1.9,0.4-1.1,3.3,0.8,2.9c13.7-2.7,25.7-11.8,31.4-24.6c5.7-12.8,4.9-29.7-3.7-41.2c-8.8-11.7-24.2-6.7-33.3,1.9
		c-9.7,9.1-14.1,22.7-12,35.7c0.8-0.5,1.7-1,2.5-1.5c-3.7-4-8-8.3-13.8-8.8c-4.7-0.3-8.9,2.1-10.3,6.7c-3.6,11.8,9.2,17.8,18.2,20.6
		C70.6,174.2,71.4,171.3,69.5,170.7"/>
	<path fill="#333333" d="M82.7,121.5c0.1-9.6,6.2-18.2,15.8-20.4c4.3-1,9.6-0.7,13.5,1.6c3.1,1.8,4.2,4.6,5.1,7.9
		c0.4,1.5,2,7.1-1,7.7c-1.9,0.4-1.1,3.3,0.8,2.9c5.6-1.2,3.9-9,2.7-12.9c-2-6.5-7.2-9.8-13.8-10.5c-14.2-1.6-26,9.7-26.1,23.7
		C79.7,123.4,82.7,123.4,82.7,121.5"/>
	<path fill="#333333" d="M68.8,133.6c-11.4-8-10.8-24.1-2.5-34c9-10.8,23.3-14.3,36.8-14.8c13-0.5,31,0.4,37.3,14.2
		c6.5,14.2-6.6,30-19.1,35.2c-1.8,0.7-1,3.6,0.8,2.9c10.9-4.6,20-13.9,22.3-25.8c2.3-11.7-4.6-21.8-15.3-26.2
		c-12.5-5.2-29-4.4-41.9-1.2c-11.7,2.9-23,10.1-27.9,21.5c-4.6,10.8-1.8,23.9,8,30.8C68.9,137.3,70.4,134.7,68.8,133.6"/>
	<path fill="#333333" d="M40.3,92.8c-7.3,6.2-7.3,17.6-7.5,26.4c-0.1,10.7,1.7,21.3,7.4,30.5c1,1.6,3.6,0.1,2.6-1.5
		c-5.1-8.3-6.9-17.7-7-27.3c-0.1-8.4-0.4-20.1,6.6-25.9C43.9,93.6,41.8,91.5,40.3,92.8"/>
	<path fill="#333333" d="M147.3,93c12.1,4.3,18,16.4,20.2,28.4c2.2,11.7,1.9,25-6.1,34.6c-1.2,1.5,0.9,3.6,2.1,2.1
		c8.7-10.5,9.3-24.6,6.9-37.6c-2.5-13.1-9.1-25.8-22.3-30.5C146.3,89.5,145.5,92.4,147.3,93"/>
</g>
<path fill="none" d="M811,874"/>
<path fill="none" d="M811,874"/>
<g>
	<path fill="#333333" d="M228.2,178.9c-7-2.2-16.4-5.3-17.1-13.9c-0.5-5.8,4-9.5,9.7-8.1c4.4,1.1,7.6,4.7,10.6,7.9
		c1.1,1.2,2.7-0.1,2.5-1.5c-1.9-11.8,2-24.2,10.3-32.9c4.2-4.4,9.7-8,15.7-9.3c8.5-1.8,14.6,2.7,18.3,10
		c12.5,24.7-3.2,54.1-29.8,59.3c-1.9,0.4-1.1,3.3,0.8,2.9c14.2-2.8,26.7-12.2,32.6-25.5c5.9-13.4,5.1-30.9-3.8-42.8
		c-9.1-12.1-24.9-7-34.4,1.8c-10.2,9.5-14.9,23.6-12.6,37.3c0.8-0.5,1.7-1,2.5-1.5c-4-4.3-8.8-9.1-15.2-9.1c-4.5,0-8.5,2.5-9.8,6.9
		c-3.7,12.3,9.6,18.5,18.9,21.3C229.2,182.4,230,179.5,228.2,178.9"/>
	<path fill="#333333" d="M238.5,128.8c-2.1-11.7,8.4-20.2,19.1-21.3c4.6-0.5,9.7-0.1,14.1,1.4c8.2,2.9,6.2,10,2.7,15.9
		c-1,1.7,1.6,3.2,2.6,1.5c3.1-5.2,6.1-12.2,1-17.2c-4.5-4.4-12.8-5-18.7-4.7c-13.4,0.7-26.2,10.7-23.7,25.2
		C236,131.4,238.9,130.6,238.5,128.8"/>
	<path fill="#333333" d="M210.6,149.6c-7.1-15.3-9.5-35.9-1.1-51.4c7.2-13.4,22.8-18.2,36.9-20.5c17.3-2.9,36.6-4.1,52.9,3.5
		c14.9,6.9,25.3,20.6,24.4,37.5c-1,19.6-17.9,34.4-37.2,34.3c-1.9,0-1.9,3,0,3c16.7,0.1,32.5-10.2,38.1-26.2
		c5.7-16.4-0.1-34.4-13.6-44.9C295,72.3,274,71.4,254.7,73.6c-15.9,1.8-34.3,5.1-44.8,18.5c-12.7,16.2-10.1,41.6-1.9,59.1
		C208.8,152.8,211.4,151.3,210.6,149.6"/>
	<path fill="#333333" d="M267.3,108.6c10.9-8.9,22.2-17.2,34-24.8c1.6-1.1,0.1-3.7-1.5-2.6c-12,7.8-23.5,16.3-34.6,25.3
		C263.7,107.7,265.8,109.8,267.3,108.6"/>
	<path fill="#333333" d="M254.9,83.1c2.5-3.7,7.4-1.8,7.4,2.4c0,3.3-2.9,5.1-6,4.6c0.2,0.8,0.4,1.7,0.7,2.5c3-2,4.9-1,5.8,2.8
		c0,1.6-0.7,2.8-1.9,3.7c-1.7,1.7-3.8,2.1-6.2,2.2c-1.9,0.1-1.9,3.1,0,3c5.6-0.2,12-3.7,10.9-10.3c-0.9-5.2-7.1-7.1-10.8-3.5
		c-0.7,0.7-0.5,2.3,0.7,2.5c5.9,0.9,11.7-3.8,9.5-10c-2-5.9-9.4-6.1-12.7-1.3C251.2,83.2,253.8,84.7,254.9,83.1"/>
	<path fill="#333333" d="M236.2,80.6c3.9,8.8,7.7,17.5,11.6,26.3c0.8,1.8,3.4,0.2,2.6-1.5c-3.9-8.8-7.7-17.5-11.6-26.3
		C238,77.3,235.4,78.8,236.2,80.6"/>
	<path fill="#333333" d="M283.6,95.9c3,3.9,5.3,8.1,6.8,12.8c0.6,1.8,3.5,1,2.9-0.8c-1.6-4.9-3.9-9.4-7.1-13.5
		C285,92.9,282.4,94.4,283.6,95.9"/>
	<path fill="#333333" d="M285.2,109.6c1.8,0.3,3.4,0.9,4.8,2c0.8,0.6,1.7,0.5,2.4-0.3l3.8-5.2c1.1-1.6-1.5-3.1-2.6-1.5l-3.8,5.2
		c0.8-0.1,1.6-0.2,2.4-0.3c-1.8-1.4-3.8-2.4-6.1-2.7C284.1,106.4,283.3,109.3,285.2,109.6"/>
</g>
<g>
	<path fill="#333333" d="M929.9,131.4c9.5-1.1,19.1-1.8,28.7-1.8c8.6,0,18.4-0.5,26.6,2.4c2,0.7,4.3,1.7,5.9,3.3
		c4.1,4.1,0.3,8.3-3.8,9.2c-4.6,1.1-9.7,1.1-14.5,1.4c-9.8,0.6-19.6,0.6-29.4,0.1c-1.9-0.1-1.9,2.9,0,3c13.3,0.6,26.6,0.5,39.9-0.9
		c6.1-0.6,18.2-4.5,12-12.7c-5.5-7.3-15.9-8-24.2-8.4c-13.8-0.7-27.5-0.2-41.2,1.5C928,128.6,927.9,131.6,929.9,131.4"/>
	<path fill="#333333" d="M991.2,127c6.6-5.2,10.4,6.2,10.6,10.7c0.1,2.2,0.1,4.5-0.8,6.5c-1.7,3.9-6.4,4.7-8.8,0.9
		c-1-1.6-3.6-0.1-2.6,1.5c2.2,3.3,6.2,5.1,10,3.4c4.2-1.9,5.3-7,5.2-11.2c0-4.8-1.1-10.4-4.9-13.7c-3.3-2.8-7.6-3-10.9-0.3
		C987.6,126,989.7,128.2,991.2,127"/>
	<path fill="#333333" d="M983.7,122.2c0.8-11.8,14.5-12.6,21.9-6.5c6.2,5.1,9,13.1,9,20.9c0,6.5-2,22.3-9.7,24.1
		c-7.8,1.8-15.3-3.8-18.1-10.8c-0.7-1.8-3.6-1-2.9,0.8c3.3,8.3,11.8,14.8,21.2,13c5.3-1,7.2-5,9.1-9.7c2.4-6,3.8-12.6,3.5-19.2
		c-0.5-10-5.6-20.4-15.2-24.6c-9.6-4.2-21,0.9-21.7,11.9C980.6,124.1,983.6,124.1,983.7,122.2"/>
	<path fill="#333333" d="M1013.4,103.4c-7.5-7.1-18.6-8.2-27.1-2.2c-1.6,1.1-0.1,3.7,1.5,2.6c7.4-5.2,16.9-4.5,23.5,1.8
		C1012.7,106.9,1014.8,104.8,1013.4,103.4"/>
	<path fill="#333333" d="M1015.6,163c-3.3,10.3-13.7,16-23.8,10.7c-1.7-0.9-3.2,1.7-1.5,2.6c11.8,6.2,24.3-0.3,28.2-12.5
		C1019.1,162,1016.2,161.2,1015.6,163"/>
</g>
<g>
	<path fill="#333333" d="M570.1,132.1c2.4,2.3,10.2,10.5,5.4,13.1c-1.7,0.9-4.4,1.1-6.4,1.5c-2.6,0.5-5.3,0.9-8,1.2
		c-1.9,0.2-1.9,3.2,0,3c3.8-0.4,7.6-1,11.3-1.9c2.4-0.5,6.5-0.9,7.8-3.4c1.1-2.1-0.3-4.7-1.2-6.5c-1.7-3.5-4.1-6.5-6.9-9.1
		C570.8,128.7,568.7,130.8,570.1,132.1"/>
	<path fill="#333333" d="M431.9,138.7c-0.1,4.6-0.3,9.2-0.2,13.7c0,2.4,0.3,4.6,2.3,6.2c5.5,4.3,11.8-1.5,17.5-1.5c1.9,0,1.9-3,0-3
		c-4.6,0-9.3,4-13.8,2.9c-3.9-1-2.9-6.2-2.8-9.2c0.1-3.1,0.1-6.1,0.2-9.2C435,136.7,432,136.7,431.9,138.7"/>
	<path fill="#333333" d="M480.9,151.4c-7.4-2.3-17.5-5.7-18-15c-0.3-5.8,4.5-9.4,10.2-8c4.6,1.2,8,4.9,11.1,8.2
		c1.1,1.2,2.7-0.1,2.5-1.5c-2-12.1,1.9-24.7,10.2-33.7c4.5-4.8,10.4-8.8,16.9-10.2c8.9-1.9,15.2,2.8,19.1,10.4
		c13.1,25.7-3.3,56.4-31,61.8c-1.9,0.4-1.1,3.3,0.8,2.9c23.8-4.6,40.6-27,37.4-51.2c-1.4-10.8-6.9-25.3-19.1-27.1
		c-11-1.7-21.9,5.8-28.4,14.1c-7.5,9.6-10.7,21.9-8.7,33.9c0.8-0.5,1.7-1,2.5-1.5c-4.2-4.5-9.1-9.4-15.7-9.5
		c-4.7-0.1-9,2.7-10.2,7.4c-3.5,12.7,10.1,18.9,19.7,21.9C481.9,154.9,482.7,152,480.9,151.4"/>
	<path fill="#333333" d="M435.3,157.7c0.2-0.4,0.4-0.7,0.5-1.1c0.4-0.7,0.2-1.6-0.5-2.1c-0.7-0.4-1.7-0.2-2.1,0.5
		c-0.2,0.4-0.4,0.7-0.5,1.1c-0.4,0.7-0.2,1.6,0.5,2.1C433.9,158.6,434.9,158.4,435.3,157.7"/>
	<path fill="#333333" d="M435.2,156.2c1.8-4.8,8.1-7.8,12.4-10c4.5-2.2,9.1-3.8,14-4.9c1.9-0.4,1.1-3.3-0.8-2.9
		c-6.2,1.4-12.2,3.6-17.7,6.8c-4.3,2.5-9,5.3-10.8,10.2C431.6,157.2,434.5,158,435.2,156.2"/>
	<path fill="#333333" d="M537.4,135.6c13.4-1.3,26.3,2.1,37.3,9.7c1.6,1.1,3.1-1.5,1.5-2.6c-11.4-7.9-25-11.4-38.9-10.1
		C535.5,132.7,535.5,135.7,537.4,135.6"/>
</g>
<g>
	<path fill="#333333" d="M1091.6,161.4c-7.4-2.3-17.5-5.7-18-15c-0.3-5.8,4.5-9.4,10.2-8c4.6,1.2,8,4.9,11.1,8.2
		c1.1,1.2,2.7-0.1,2.5-1.5c-2-12.1,1.9-24.7,10.2-33.7c4.5-4.8,10.4-8.8,16.9-10.2c8.9-1.9,15.2,2.8,19.1,10.4
		c13.1,25.7-3.3,56.4-31,61.8c-1.9,0.4-1.1,3.3,0.8,2.9c23.8-4.6,40.6-27,37.4-51.2c-1.4-10.8-6.9-25.3-19.1-27.1
		c-11-1.7-21.9,5.8-28.4,14.1c-7.5,9.6-10.7,21.9-8.7,33.9c0.8-0.5,1.7-1,2.5-1.5c-4.2-4.5-9.1-9.4-15.7-9.5
		c-4.7-0.1-9,2.7-10.2,7.4c-3.5,12.7,10.1,18.9,19.7,21.9C1092.7,164.9,1093.5,162,1091.6,161.4"/>
</g>
<g>
	<path fill="#333333" d="M699.3,130.4c9.5-1.1,19.1-1.8,28.7-1.8c8.6,0,18.4-0.5,26.6,2.4c2,0.7,4.3,1.7,5.9,3.3
		c4.1,4.1,0.3,8.3-3.8,9.2c-4.6,1.1-9.7,1.1-14.5,1.4c-9.8,0.6-19.6,0.6-29.4,0.1c-1.9-0.1-1.9,2.9,0,3c13.3,0.6,26.6,0.5,39.9-0.9
		c6.1-0.6,18.2-4.5,12-12.7c-5.5-7.3-15.9-8-24.2-8.4c-13.8-0.7-27.5-0.2-41.2,1.5C697.4,127.6,697.4,130.6,699.3,130.4"/>
	<path fill="#333333" d="M760.7,126c6.6-5.2,10.4,6.2,10.6,10.7c0.1,2.2,0.1,4.5-0.8,6.5c-1.7,3.9-6.4,4.7-8.8,0.9
		c-1-1.6-3.6-0.1-2.6,1.5c2.2,3.3,6.2,5.1,10,3.4c4.2-1.9,5.3-7,5.2-11.2c0-4.8-1.1-10.4-4.9-13.7c-3.3-2.8-7.6-3-10.9-0.3
		C757,125,759.2,127.2,760.7,126"/>
	<path fill="#333333" d="M753.2,121.2c0.8-11.8,14.5-12.6,21.9-6.5c6.2,5.1,9,13.1,9,20.9c0,6.5-2,22.3-9.7,24.1
		c-7.8,1.8-15.3-3.8-18.1-10.8c-0.7-1.8-3.6-1-2.9,0.8c3.3,8.3,11.8,14.8,21.2,13c5.3-1,7.2-5,9.1-9.7c2.4-6,3.8-12.6,3.5-19.2
		c-0.5-10-5.6-20.4-15.2-24.6c-9.6-4.2-21,0.9-21.7,11.9C750.1,123.1,753.1,123.1,753.2,121.2"/>
	<path fill="#333333" d="M782.9,102.4c-7.5-7.1-18.6-8.2-27.1-2.2c-1.6,1.1-0.1,3.7,1.5,2.6c7.4-5.2,16.9-4.5,23.5,1.8
		C782.2,105.9,784.3,103.8,782.9,102.4"/>
	<path fill="#333333" d="M785.1,162c-3.3,10.3-13.7,16-23.8,10.7c-1.7-0.9-3.2,1.7-1.5,2.6c11.8,6.2,24.3-0.3,28.2-12.5
		C788.6,161,785.7,160.2,785.1,162"/>
</g>
<text transform="matrix(1 0 0 1 723.2599 221.54)" fill="#333333" font-family="'HelveticaNeue-Light'" font-size="23px">poke</text>
<text transform="matrix(1 0 0 1 483.4451 221.54)" fill="#333333" font-family="'HelveticaNeue-Light'" font-size="23px">swipe</text>
<text transform="matrix(1 0 0 1 74.7981 221.54)" fill="#333333" font-family="'HelveticaNeue-Light'" font-size="23px">hover</text>
<text transform="matrix(1 0 0 1 234.948 221.54)" fill="#333333" font-family="'HelveticaNeue-Light'" font-size="23px">select</text>
<text transform="matrix(1 0 0 1 943.8066 221.54)" fill="#333333" font-family="'HelveticaNeue-Light'" font-size="23px">select</text>
<text transform="matrix(1 0 0 1 1066.8066 221.54)" fill="#333333" font-family="'HelveticaNeue-Light'" font-size="23px">r</text>
<text transform="matrix(1 0 0 1 1073.6377 221.54)" fill="#333333" font-family="'HelveticaNeue-Light'" font-size="23px">e</text>
<text transform="matrix(1 0 0 1 1085.5742 221.54)" fill="#333333" font-family="'HelveticaNeue-Light'" font-size="23px">l</text>
<text transform="matrix(1 0 0 1 1089.8291 221.54)" fill="#333333" font-family="'HelveticaNeue-Light'" font-size="23px">e</text>
<text transform="matrix(1 0 0 1 1101.7666 221.54)" fill="#333333" font-family="'HelveticaNeue-Light'" font-size="23px">a</text>
<text transform="matrix(1 0 0 1 1113.7031 221.54)" fill="#333333" font-family="'HelveticaNeue-Light'" font-size="23px">s</text>
<text transform="matrix(1 0 0 1 1124.7656 221.54)" fill="#333333" font-family="'HelveticaNeue-Light'" font-size="23px">e</text>
<text transform="matrix(1 0 0 1 120.8066 37.54)" fill="#333333" font-family="'HelveticaNeue-Medium'" font-size="27px">navigation</text>
<text transform="matrix(1 0 0 1 479.9436 37.54)" fill="#333333" font-family="'HelveticaNeue-Medium'" font-size="27px">pond</text>
<text transform="matrix(1 0 0 1 700.8757 37.54)" fill="#333333" font-family="'HelveticaNeue-Medium'" font-size="27px">f</text>
<text transform="matrix(1 0 0 1 709.3806 37.54)" fill="#333333" font-family="'HelveticaNeue-Medium'" font-size="27px">i</text>
<text transform="matrix(1 0 0 1 715.8874 37.54)" fill="#333333" font-family="'HelveticaNeue-Medium'" font-size="27px">r</text>
<text transform="matrix(1 0 0 1 724.905 37.54)" fill="#333333" font-family="'HelveticaNeue-Medium'" font-size="27px">e</text>
<text transform="matrix(1 0 0 1 739.9177 37.54)" fill="#333333" font-family="'HelveticaNeue-Medium'" font-size="27px">w</text>
<text transform="matrix(1 0 0 1 760.9235 37.54)" fill="#333333" font-family="'HelveticaNeue-Medium'" font-size="27px">o</text>
<text transform="matrix(1 0 0 1 776.9343 37.54)" fill="#333333" font-family="'HelveticaNeue-Medium'" font-size="27px">r</text>
<text transform="matrix(1 0 0 1 786.4372 37.54)" fill="#333333" font-family="'HelveticaNeue-Medium'" font-size="27px">k</text>
<text transform="matrix(1 0 0 1 1010.1133 37.54)" fill="#333333" font-family="'HelveticaNeue-Medium'" font-size="27px">block</text>
<line fill="none" stroke="#333333" stroke-width="0.5" stroke-miterlimit="10" x1="33" y1="52.5" x2="327" y2="52.5"/>
<line fill="none" stroke="#333333" stroke-width="0.5" stroke-miterlimit="10" x1="923.7" y1="52.5" x2="1165.2" y2="52.5"/>
<line fill="none" stroke="#333333" stroke-width="0.5" stroke-miterlimit="10" x1="417.7" y1="52.5" x2="598.5" y2="52.5"/>
<line fill="none" stroke="#333333" stroke-width="0.5" stroke-miterlimit="10" x1="667.7" y1="52.5" x2="848.5" y2="52.5"/>
<path fill="none" stroke="#333333" stroke-width="3" stroke-linecap="round" stroke-miterlimit="10" d="M1040.5,126.5
	c8,9,10,13,10,13s-7,12-8,13"/>
</svg>
