<svg xmlns="http://www.w3.org/2000/svg" xmlns:xlink="http://www.w3.org/1999/xlink" viewBox="0 0 579.21 293.82"><defs><style>.cls-1{fill:#a0753c;}.cls-2{fill:#fff;}.cls-3{fill:#c3922e;}.cls-4{fill:#ccac79;}.cls-5{fill:url(#Tin_Radial);}</style><radialGradient id="Tin_Radial" cx="429.43" cy="211.78" r="65.77" gradientUnits="userSpaceOnUse"><stop offset="0.01" stop-color="#c4c6c8"/><stop offset="0.3" stop-color="#bcbec0"/><stop offset="0.66" stop-color="#a7a9ac"/><stop offset="1" stop-color="#9b9da0"/></radialGradient></defs><g id="Layer_2" data-name="Layer 2"><g id="Layer_5" data-name="Layer 5"><g id="Layer_3" data-name="Layer 3"><g id="Logo_CoverPhoto"><path class="cls-1" d="M81.09,274.45c-5.42,0-10.77-2.63-15.9-7.82A77.21,77.21,0,0,1,51.6,247.08a128.88,128.88,0,0,1-9.55-25.74,105.75,105.75,0,0,1-3.61-26.44,22.15,22.15,0,0,1,.2-2.59,20.53,20.53,0,0,0,.19-2.46L40,178.34a15.24,15.24,0,0,0,.19-2.28v-2.14A8.44,8.44,0,0,0,38.63,169a8.1,8.1,0,0,1-1.74-4.57c0-4.58,4-6.91,11.76-6.91a17.49,17.49,0,0,1,4.2.6,30.22,30.22,0,0,1,4.64,1.58,19.53,19.53,0,0,1,3.89,2.2,3.7,3.7,0,0,1,1.76,2.92c0,2-.6,3.4-1.78,4.2a16.4,16.4,0,0,0-3.28,3.3,22.78,22.78,0,0,0-3.32,7.22c-1,3.3-1.53,8.54-1.53,15.58a103.66,103.66,0,0,0,2.71,23.59,115,115,0,0,0,6.76,20.69,61.86,61.86,0,0,0,8.86,14.74c3.13,3.69,6.13,5.55,9,5.55,1.82,0,6.75-6,19.33-46.07,2.91-9.51,6.86-14.33,11.75-14.33,4.11,0,7.34,4,9.61,12,1.67,5.67,3.53,11.35,5.52,16.87s3.95,10.51,5.82,14.83a94.82,94.82,0,0,0,5.21,10.53c2.17,3.65,3,3.83,3.16,3.83,2,0,4.76-2.47,8.14-7.36a102.42,102.42,0,0,0,19.34-60.7,65.61,65.61,0,0,0-2.8-18.51,82.77,82.77,0,0,0-7.72-17.95,75.16,75.16,0,0,0-11.77-15.34A56.4,56.4,0,0,0,131,126.59c-4.69-2.14-7.08-5-7.08-8.61,0-4.33,2.59-6.52,7.69-6.52a19.31,19.31,0,0,1,4.49.6,21.31,21.31,0,0,1,5.07,2,67.3,67.3,0,0,1,16.45,13.12,95.51,95.51,0,0,1,13.28,18.35,100.7,100.7,0,0,1,8.88,21.58A83.84,83.84,0,0,1,183,189.85a98.51,98.51,0,0,1-1.85,18.45,142.45,142.45,0,0,1-5,18.81,135.89,135.89,0,0,1-7.31,17.45A98,98,0,0,1,160,259.1a48.93,48.93,0,0,1-9.71,10c-3.38,2.52-6.65,3.79-9.72,3.79-2.33,0-4.93-1.42-7.74-4.22a54.31,54.31,0,0,1-8.44-12c-1.42-2.59-3-5.84-4.68-9.65S116.43,239.54,115,236s-2.6-6.72-3.51-9.45c-.46-1.37-.72-2.49-.91-3.3l-.09-.41c-.33.82-.77,2.14-1.06,3-.83,2.46-1.94,5.92-3.4,10.57-4.14,12.43-8.28,21.94-12.29,28.28S85.39,274.45,81.09,274.45Z"/><path class="cls-2" d="M131.59,112a18.86,18.86,0,0,1,4.37.58,20.86,20.86,0,0,1,4.95,1.94,66.22,66.22,0,0,1,16.32,13,94.32,94.32,0,0,1,13.21,18.26,99.62,99.62,0,0,1,8.84,21.46,83.33,83.33,0,0,1,3.2,22.63,97.47,97.47,0,0,1-1.84,18.36,141.82,141.82,0,0,1-5,18.74,134.21,134.21,0,0,1-7.28,17.38,97.07,97.07,0,0,1-8.84,14.47,48.46,48.46,0,0,1-9.61,9.91c-3.3,2.46-6.45,3.69-9.42,3.69q-3.32,0-7.38-4.08a53.07,53.07,0,0,1-8.36-11.85q-2.13-3.89-4.66-9.61t-4.66-11.07q-2.14-5.34-3.5-9.42c-.9-2.72-1-4.46-1.36-4.67h0c-.26,0-.81,1.58-1.62,4s-2,6.05-3.4,10.58q-6.21,18.64-12.23,28.17T81.09,274q-8,0-15.54-7.67a76.19,76.19,0,0,1-13.5-19.42,128.35,128.35,0,0,1-9.52-25.64,105.43,105.43,0,0,1-3.59-26.32,21.09,21.09,0,0,1,.19-2.53,21.14,21.14,0,0,0,.2-2.52l1.16-11.46a14.1,14.1,0,0,0,.2-2.33v-2.14A8.84,8.84,0,0,0,39,168.68a7.62,7.62,0,0,1-1.65-4.28q0-6.41,11.26-6.41a17,17,0,0,1,4.08.59,29.64,29.64,0,0,1,4.57,1.55,18.79,18.79,0,0,1,3.78,2.14,3.22,3.22,0,0,1,1.56,2.52c0,1.82-.52,3.08-1.56,3.79a16.89,16.89,0,0,0-3.4,3.4,23.25,23.25,0,0,0-3.4,7.38q-1.55,5.05-1.55,15.73a104.12,104.12,0,0,0,2.72,23.7,114.63,114.63,0,0,0,6.8,20.78,62.14,62.14,0,0,0,8.93,14.86q4.86,5.73,9.33,5.73,5.24,0,19.81-46.42,4.28-14,11.27-14,5.82,0,9.12,11.65,2.54,8.55,5.54,16.9t5.83,14.86a93,93,0,0,0,5.24,10.58q2.43,4.08,3.59,4.08,3.32,0,8.55-7.57a102.44,102.44,0,0,0,19.43-61,65.83,65.83,0,0,0-2.82-18.65,83,83,0,0,0-7.77-18.06,74.61,74.61,0,0,0-11.85-15.45,56.82,56.82,0,0,0-15.25-11q-6.79-3.11-6.8-8.16,0-6,7.19-6m0-1c-6.77,0-8.19,3.82-8.19,7,0,3.78,2.49,6.83,7.39,9.07a55.82,55.82,0,0,1,15,10.77,74.09,74.09,0,0,1,11.69,15.24,82,82,0,0,1,7.68,17.84,65,65,0,0,1,2.78,18.37,102,102,0,0,1-19.24,60.41c-4.26,6.15-6.64,7.13-7.7,7.15-.14-.05-.92-.48-2.77-3.59A92.87,92.87,0,0,1,133,242.77c-1.87-4.3-3.82-9.28-5.81-14.8s-3.85-11.19-5.52-16.84c-2.32-8.21-5.72-12.37-10.08-12.37-5.14,0-9.25,4.94-12.23,14.69-4.82,15.36-8.92,27-12.2,34.72-4.46,10.46-6.33,11-6.65,11-2.66,0-5.54-1.81-8.56-5.37a61.59,61.59,0,0,1-8.79-14.62,115.11,115.11,0,0,1-6.74-20.61,103.67,103.67,0,0,1-2.69-23.47c0-7,.51-12.18,1.51-15.43a22.45,22.45,0,0,1,3.23-7.06,15.93,15.93,0,0,1,3.18-3.2c1.32-.9,2-2.45,2-4.61a4.17,4.17,0,0,0-2-3.32,20,20,0,0,0-4-2.26,29.94,29.94,0,0,0-4.73-1.6,18,18,0,0,0-4.32-.62c-8.14,0-12.26,2.5-12.26,7.41a8.58,8.58,0,0,0,1.83,4.86,7.78,7.78,0,0,1,1.47,4.66v2.14a13.42,13.42,0,0,1-.18,2.17v.06l-1.17,11.46v.1a19.84,19.84,0,0,1-.19,2.4,22.88,22.88,0,0,0-.2,2.65,106.83,106.83,0,0,0,3.62,26.57,129.51,129.51,0,0,0,9.6,25.84A77.23,77.23,0,0,0,64.84,267c5.22,5.29,10.69,8,16.25,8,4.49,0,8.89-3.35,13.08-10,4-6.38,8.19-15.93,12.34-28.38,1.46-4.65,2.57-8.11,3.4-10.59.13-.4.31-.92.49-1.45.16.62.36,1.33.62,2.13.92,2.74,2.1,5.93,3.52,9.48s3,7.29,4.68,11.1,3.26,7.09,4.7,9.7A54,54,0,0,0,132.44,269c2.94,2.94,5.59,4.37,8.09,4.37,3.18,0,6.55-1.31,10-3.89a49.17,49.17,0,0,0,9.82-10.11,97.73,97.73,0,0,0,8.93-14.62,135.43,135.43,0,0,0,7.34-17.51,143.51,143.51,0,0,0,5-18.88,98.56,98.56,0,0,0,1.86-18.54,84.48,84.48,0,0,0-3.24-22.9,100.85,100.85,0,0,0-8.93-21.68A95,95,0,0,0,158,126.82a67.55,67.55,0,0,0-16.56-13.21,22.19,22.19,0,0,0-5.2-2,20.32,20.32,0,0,0-4.61-.61Z"/><path class="cls-1" d="M195.53,258.83c-2.91,0-10.66,0-10.66-5.11a4.25,4.25,0,0,1,2.39-3.79c.67-.38,1.42-.82,2.26-1.32a5.26,5.26,0,0,0,1.54-1.49,4.36,4.36,0,0,0,.53-2.57V181.91a6.76,6.76,0,0,0-.45-3,2.58,2.58,0,0,0-.78-1,6.39,6.39,0,0,0-1.22-.6,3.54,3.54,0,0,1-2.59-3.42c0-4,3.55-6,10.53-6,3.5,0,11.7,0,11.7,5.23a4.3,4.3,0,0,1-2.11,3.81c-.51.32-1.12.72-1.79,1.2a5,5,0,0,0-1.25,1.35,4.42,4.42,0,0,0-.41,2.3v63.16a4.93,4.93,0,0,0,.36,2.44,2.88,2.88,0,0,0,1,.85,13.41,13.41,0,0,0,1.74.6,3.85,3.85,0,0,1,2.94,3.86C209.29,258.83,199.3,258.83,195.53,258.83Z"/><path class="cls-2" d="M197.08,168.39c3.35,0,11.2,0,11.2,4.73a3.85,3.85,0,0,1-1.87,3.39c-.52.32-1.14.73-1.82,1.21a5.36,5.36,0,0,0-1.37,1.49,4.7,4.7,0,0,0-.5,2.57v63.16c0,2.13.43,2.7.47,2.75a3.34,3.34,0,0,0,1.23,1,14.49,14.49,0,0,0,1.8.63,3.35,3.35,0,0,1,2.57,3.37c0,5.64-9.63,5.64-13.26,5.64-2.78,0-10.16,0-10.16-4.61a3.78,3.78,0,0,1,2.13-3.36c.67-.38,1.43-.82,2.28-1.33a5.92,5.92,0,0,0,1.69-1.61,4.92,4.92,0,0,0,.62-2.87V181.91a7.14,7.14,0,0,0-.51-3.24,3,3,0,0,0-1-1.18,7.21,7.21,0,0,0-1.32-.65,3,3,0,0,1-2.24-2.94c0-3.66,3.38-5.51,10-5.51m0-1c-5,0-11,1.13-11,6.51a4.05,4.05,0,0,0,2.93,3.89,5.75,5.75,0,0,1,1.12.56,2.3,2.3,0,0,1,.6.8,6.42,6.42,0,0,1,.39,2.76v62.64a4,4,0,0,1-.43,2.28,5.06,5.06,0,0,1-1.4,1.35c-.83.49-1.58.94-2.25,1.31a4.81,4.81,0,0,0-2.64,4.23c0,5.61,8.11,5.61,11.16,5.61,3.9,0,14.26,0,14.26-6.64a4.37,4.37,0,0,0-3.31-4.34,13.4,13.4,0,0,1-1.67-.58,2.33,2.33,0,0,1-.81-.68,5.37,5.37,0,0,1-.28-2.15V181.78a4.09,4.09,0,0,1,.33-2,4.4,4.4,0,0,1,1.12-1.21c.66-.47,1.26-.87,1.77-1.18a4.8,4.8,0,0,0,2.34-4.24c0-5.73-8.55-5.73-12.2-5.73Z"/><path class="cls-1" d="M338,293.32a47.86,47.86,0,0,1-15.65-2.54,44.86,44.86,0,0,1-12.84-6.8,34.73,34.73,0,0,1-8.88-10.08,24.8,24.8,0,0,1-3.38-12.43,21.7,21.7,0,0,1,2.14-9.63,23.8,23.8,0,0,1,5.82-7.49,26.48,26.48,0,0,1,8.61-4.89,30.84,30.84,0,0,1,10.17-1.7,31.67,31.67,0,0,1,8.11,1.06,32.46,32.46,0,0,1,7,2.76,23.08,23.08,0,0,1,5.25,3.81,7.63,7.63,0,0,1,2.59,5.36c0,3.79-2.36,6.14-6.14,6.14-2,0-4.18-1.2-7.2-3.9-3.25-2.81-6.48-4.24-9.6-4.24a17.77,17.77,0,0,0-6.07,1,15.69,15.69,0,0,0-4.81,2.7,12.46,12.46,0,0,0-3.15,4,11,11,0,0,0-1.14,5,14.43,14.43,0,0,0,2.2,7.67,22.53,22.53,0,0,0,6.31,6.64,34.48,34.48,0,0,0,9.71,4.67,40.72,40.72,0,0,0,12.07,1.75,41.58,41.58,0,0,0,13.23-2,29,29,0,0,0,9.89-5.5,23.78,23.78,0,0,0,6.16-8.31,26.12,26.12,0,0,0,2.16-10.74c0-4.36-1.74-8.81-5.18-13.22s-9.67-8.64-18.25-12.23l-18.08-7.63c-8.27-3.5-14.34-7.46-18-11.75a24.21,24.21,0,0,1-5.8-16.26,22.73,22.73,0,0,1,2.77-11,28.83,28.83,0,0,1,7.39-8.74A35.77,35.77,0,0,1,326.36,169a42.56,42.56,0,0,1,13.71-2.15c1.84,0,3.37,0,4.56.07a20.18,20.18,0,0,1,4.09.59,31.69,31.69,0,0,1,4.61,1.63c1.65.72,3.81,1.74,6.4,3,2,1,3.46,1.76,4.46,2.2l.33.15a5.23,5.23,0,0,1,3.58-1.47c3.26,0,5.37,2.26,5.37,5.76a10,10,0,0,1-.1,1.46,1,1,0,0,0,0,.22V184a7.23,7.23,0,0,0,.05.89,8.85,8.85,0,0,0,.15,1l.61,2.55c.24.8.47,1.55.68,2.21a7.14,7.14,0,0,1,.44,2.09c0,4.24-2.68,5.75-5,5.75-2,0-4.75-1-6.17-5.92a14.74,14.74,0,0,0-3.13-5.65,23.6,23.6,0,0,0-5.69-4.69,30,30,0,0,0-7.54-3.14,32.59,32.59,0,0,0-8.6-1.14,27.34,27.34,0,0,0-9.19,1.46,23.26,23.26,0,0,0-7,3.88,17.38,17.38,0,0,0-4.43,5.37,13.24,13.24,0,0,0-1.51,6.14,12.18,12.18,0,0,0,4.13,9.56c3.15,3,8.67,6,16.43,9.17l14.1,5.82c10.26,4.28,18,9.51,23,15.54a33.81,33.81,0,0,1,7.79,22.3,31.6,31.6,0,0,1-3.39,14.51,35.38,35.38,0,0,1-9.42,11.45,44.81,44.81,0,0,1-14.14,7.5A56.3,56.3,0,0,1,338,293.32Z"/><path class="cls-2" d="M340.07,167.35c1.82,0,3.34,0,4.54.07a19.22,19.22,0,0,1,4,.58,28.78,28.78,0,0,1,4.53,1.6c1.66.71,3.8,1.73,6.38,3,2,1,3.47,1.77,4.48,2.21l.63.28,0,0a4.83,4.83,0,0,1,3.46-1.54c3,0,4.87,2,4.87,5.26a7.88,7.88,0,0,1-.1,1.38,2,2,0,0,0,0,.3V184a8.3,8.3,0,0,0,.05.95c0,.37.09.73.16,1.08l.62,2.58c.25.83.47,1.57.68,2.24a6.61,6.61,0,0,1,.42,1.94c0,3.87-2.31,5.25-4.47,5.25-1.86,0-4.35-1-5.69-5.56a15.26,15.26,0,0,0-3.24-5.84,23.92,23.92,0,0,0-5.8-4.79,30.88,30.88,0,0,0-7.67-3.2,33.58,33.58,0,0,0-8.73-1.15,27.71,27.71,0,0,0-9.35,1.49,23.79,23.79,0,0,0-7.17,4,17.86,17.86,0,0,0-4.56,5.53,13.7,13.7,0,0,0-1.57,6.37,12.67,12.67,0,0,0,4.29,9.93c3.19,3,8.77,6.1,16.58,9.26l14.1,5.82c10.18,4.25,17.87,9.43,22.85,15.4a33.34,33.34,0,0,1,7.67,22,31.12,31.12,0,0,1-3.34,14.28,34.74,34.74,0,0,1-9.28,11.29,44,44,0,0,1-14,7.41,55.91,55.91,0,0,1-17.4,2.63,47.46,47.46,0,0,1-15.49-2.51,44.09,44.09,0,0,1-12.69-6.73,33.73,33.73,0,0,1-8.75-9.93,24.16,24.16,0,0,1-3.32-12.18,21.13,21.13,0,0,1,2.09-9.41,23.33,23.33,0,0,1,5.69-7.33,25.88,25.88,0,0,1,8.45-4.79,30.48,30.48,0,0,1,10-1.68,30.86,30.86,0,0,1,8,1.05,31.26,31.26,0,0,1,6.94,2.71,22.32,22.32,0,0,1,5.14,3.72,7.17,7.17,0,0,1,2.44,5c0,3.53-2.11,5.64-5.64,5.64-1.82,0-3.94-1.16-6.86-3.77-3.35-2.89-6.7-4.37-9.94-4.37a18.32,18.32,0,0,0-6.24,1,16.2,16.2,0,0,0-5,2.79,13,13,0,0,0-3.26,4.16,11.3,11.3,0,0,0-1.2,5.23,15,15,0,0,0,2.27,7.93,23.15,23.15,0,0,0,6.45,6.79,35,35,0,0,0,9.86,4.73,41,41,0,0,0,12.21,1.78,42,42,0,0,0,13.39-2,29.59,29.59,0,0,0,10.06-5.59,24.24,24.24,0,0,0,6.29-8.49,26.72,26.72,0,0,0,2.2-10.94c0-4.48-1.78-9-5.29-13.53s-9.79-8.76-18.44-12.38l-18.09-7.63c-8.2-3.47-14.2-7.38-17.85-11.62a23.74,23.74,0,0,1-5.68-15.94,22.22,22.22,0,0,1,2.71-10.71,28.35,28.35,0,0,1,7.26-8.59,35.46,35.46,0,0,1,10.79-5.79,42.16,42.16,0,0,1,13.55-2.12m0-1a42.73,42.73,0,0,0-13.87,2.18,35.88,35.88,0,0,0-11.09,5.95,29.41,29.41,0,0,0-7.52,8.89,23.25,23.25,0,0,0-2.83,11.19,24.69,24.69,0,0,0,5.92,16.59c3.75,4.36,9.88,8.36,18.22,11.89L347,230.67c8.5,3.56,14.57,7.62,18,12.08s5.08,8.66,5.08,12.91A25.83,25.83,0,0,1,368,266.2a23.23,23.23,0,0,1-6,8.13,28.47,28.47,0,0,1-9.72,5.4,40.9,40.9,0,0,1-13.07,2A40,40,0,0,1,327.25,280a33.89,33.89,0,0,1-9.57-4.6,22,22,0,0,1-6.17-6.49,13.94,13.94,0,0,1-2.13-7.41,10.48,10.48,0,0,1,1.09-4.79,12.06,12.06,0,0,1,3-3.84,15.45,15.45,0,0,1,4.66-2.61,17.31,17.31,0,0,1,5.9-1c3,0,6.12,1.39,9.28,4.12s5.43,4,7.52,4c4.09,0,6.64-2.54,6.64-6.64a8.12,8.12,0,0,0-2.74-5.72,23.52,23.52,0,0,0-5.36-3.89,32.76,32.76,0,0,0-7.16-2.8,31.75,31.75,0,0,0-8.24-1.08A31.34,31.34,0,0,0,313.65,239a27,27,0,0,0-8.77,5,24.17,24.17,0,0,0-5.94,7.65,22.21,22.21,0,0,0-2.19,9.85,25.24,25.24,0,0,0,3.45,12.68,34.89,34.89,0,0,0,9,10.22,45,45,0,0,0,13,6.88A48.26,48.26,0,0,0,338,293.82a56.63,56.63,0,0,0,17.71-2.68,44.88,44.88,0,0,0,14.3-7.58A35.76,35.76,0,0,0,379.56,272,32.06,32.06,0,0,0,383,257.21a34.28,34.28,0,0,0-7.91-22.62c-5.08-6.09-12.9-11.37-23.23-15.68l-14.1-5.82c-7.7-3.12-13.17-6.17-16.27-9.07a11.68,11.68,0,0,1-4-9.18,12.8,12.8,0,0,1,1.45-5.93,17.09,17.09,0,0,1,4.31-5.22,23,23,0,0,1,6.87-3.79,26.84,26.84,0,0,1,9-1.43,32.5,32.5,0,0,1,8.47,1.12,29.55,29.55,0,0,1,7.41,3.09,22.84,22.84,0,0,1,5.57,4.59,14.31,14.31,0,0,1,3,5.46c1.59,5.46,4.85,6.28,6.65,6.28,2.52,0,5.47-1.64,5.47-6.25a7.42,7.42,0,0,0-.46-2.24c-.21-.65-.43-1.39-.68-2.2l-.6-2.55c-.06-.3-.11-.62-.15-1s0-.6,0-.85v-3.48s0-.07,0-.14a9.84,9.84,0,0,0,.11-1.54c0-3.8-2.31-6.26-5.87-6.26a5.7,5.7,0,0,0-3.67,1.38h0c-1-.44-2.49-1.18-4.42-2.19-2.61-1.3-4.78-2.33-6.44-3a31.48,31.48,0,0,0-4.69-1.65,20.48,20.48,0,0,0-4.19-.61c-1.21,0-2.74-.07-4.58-.07Z"/><path class="cls-1" d="M565.59,293.06c-14.31,0-23-10.86-25.88-32.27-2.65-19.25-7.53-33.22-14.51-41.53a9.39,9.39,0,0,0-2.1.57,28.45,28.45,0,0,0-3.73,1.78c-1.32.75-2.58,1.42-3.74,2a9.35,9.35,0,0,1-4.16,1.12c-4.05,0-5.49-2.75-5.49-5.11,0-1.76.75-4.29,4.36-6.37a35.39,35.39,0,0,1,7.55-3.15,72.1,72.1,0,0,1,7.91-1.87l5-.88a19.1,19.1,0,0,0,8.39-5.33,11.92,11.92,0,0,0,3.25-8.36,15.36,15.36,0,0,0-1.09-5.78,13,13,0,0,0-3-4.5,15.14,15.14,0,0,0-4.78-3,16.46,16.46,0,0,0-6.12-1.1H500.62a5.21,5.21,0,0,0-2,.28v65.4a5.1,5.1,0,0,0,.43,2.49,4.79,4.79,0,0,0,1.1,1.38c.59.47,1.15.89,1.66,1.25a4.24,4.24,0,0,1,2,3.53c0,5.24-7.37,5.24-10.14,5.24-3.59,0-13.12,0-13.12-6.14a4.2,4.2,0,0,1,2.89-4.28l2.15-.69a2.7,2.7,0,0,0,1.06-.8h0a5.29,5.29,0,0,0,.36-2.5V182.55a2.35,2.35,0,0,0-.36-1.47,7.13,7.13,0,0,0-1.61-1.34c-.85-.48-1.62-1-2.34-1.4a4.75,4.75,0,0,1-2.28-4.18c0-1.73.79-5.76,8.08-5.76h37.85a33.6,33.6,0,0,1,11.78,1.92,25.81,25.81,0,0,1,8.69,5.26,21.07,21.07,0,0,1,5.39,8.19,28.4,28.4,0,0,1,1.72,9.89,22.25,22.25,0,0,1-5.48,14.77,29.5,29.5,0,0,1-11.15,7.93c6.23,9.23,11,23.74,14,43.15,1.23,7.68,3.14,13.55,5.67,17.43,2.26,3.45,5.16,5.13,8.89,5.13a6.23,6.23,0,0,0,2.56-.82,11.11,11.11,0,0,1,4.93-1.38c3.26,0,5.37,2.21,5.37,5.63,0,1.88-.85,4.45-4.9,6.08A22.15,22.15,0,0,1,565.59,293.06Z"/><path class="cls-2" d="M526.33,168.9a33.28,33.28,0,0,1,11.6,1.88,25.54,25.54,0,0,1,8.53,5.16,20.65,20.65,0,0,1,5.26,8,27.94,27.94,0,0,1,1.69,9.72,21.69,21.69,0,0,1-5.36,14.44,29.29,29.29,0,0,1-11.53,8c6.37,9.13,11.16,23.73,14.28,43.45,1.23,7.75,3.17,13.68,5.74,17.63,2.36,3.6,5.4,5.35,9.31,5.35a6.66,6.66,0,0,0,2.79-.87,10.68,10.68,0,0,1,4.7-1.33c3,0,4.87,2,4.87,5.13,0,1.72-.8,4.09-4.58,5.61a21.63,21.63,0,0,1-8,1.45c-14,0-22.56-10.71-25.38-31.84-2.69-19.51-7.67-33.64-14.81-42a9.36,9.36,0,0,0-2.48.64,30.85,30.85,0,0,0-3.8,1.8c-1.31.74-2.56,1.41-3.71,2a8.83,8.83,0,0,1-3.94,1.07c-3.68,0-5-2.38-5-4.61,0-1.63.71-4,4.11-5.93a34.87,34.87,0,0,1,7.44-3.11,72.85,72.85,0,0,1,7.86-1.86l5-.88a19.44,19.44,0,0,0,8.68-5.49,12.37,12.37,0,0,0,3.38-8.69,15.82,15.82,0,0,0-1.13-6A13.34,13.34,0,0,0,538.6,183a15.68,15.68,0,0,0-4.94-3.12,17,17,0,0,0-6.3-1.14H500.62c-.42,0-2.5,0-2.5.69v65.49a5.53,5.53,0,0,0,.5,2.74,5.14,5.14,0,0,0,1.22,1.52c.6.49,1.17.91,1.68,1.27a3.73,3.73,0,0,1,1.77,3.12c0,4.74-7,4.74-9.64,4.74-3.45,0-12.62,0-12.62-5.64a3.72,3.72,0,0,1,2.54-3.8c.69-.21,1.4-.44,2.16-.7a3,3,0,0,0,1.27-.94s.49-.57.49-2.83V182.55a2.69,2.69,0,0,0-.49-1.8,7.45,7.45,0,0,0-1.73-1.44c-.84-.48-1.62-.95-2.33-1.39a4.29,4.29,0,0,1-2-3.76c0-2,1-5.26,7.58-5.26h37.85m0-1H488.48c-7.74,0-8.58,4.38-8.58,6.26a5.23,5.23,0,0,0,2.52,4.61c.75.47,1.54.94,2.35,1.41a6,6,0,0,1,1.48,1.24c.06.06.24.33.24,1.13v61.87a6,6,0,0,1-.28,2.22,1.94,1.94,0,0,1-.79.6l-2.14.7a4.72,4.72,0,0,0-3.25,4.75c0,6.64,9.89,6.64,13.62,6.64,2.63,0,10.64,0,10.64-5.74a4.7,4.7,0,0,0-2.2-3.94c-.49-.35-1-.76-1.63-1.23a4.51,4.51,0,0,1-1-1.23,4.9,4.9,0,0,1-.36-2.25v-65a7,7,0,0,1,1.5-.14h26.74a15.89,15.89,0,0,1,5.93,1.07,14.58,14.58,0,0,1,4.62,2.91,12.3,12.3,0,0,1,2.93,4.33,14.56,14.56,0,0,1,1.06,5.59,11.44,11.44,0,0,1-3.12,8,18.6,18.6,0,0,1-8.18,5.19l-4.88.86a74.37,74.37,0,0,0-8,1.89,35.69,35.69,0,0,0-7.66,3.2c-3.81,2.19-4.61,4.91-4.61,6.8,0,2.59,1.57,5.61,6,5.61a9.72,9.72,0,0,0,4.38-1.17c1.17-.59,2.44-1.27,3.76-2a29.45,29.45,0,0,1,3.67-1.74,8.9,8.9,0,0,1,1.71-.5c6.83,8.26,11.62,22.07,14.23,41.06,2.9,21.7,11.77,32.7,26.37,32.7A22.56,22.56,0,0,0,574,292c4.53-1.82,5.21-4.88,5.21-6.54,0-3.72-2.3-6.13-5.87-6.13a11.63,11.63,0,0,0-5.15,1.43,5.83,5.83,0,0,1-2.34.77c-3.54,0-6.32-1.6-8.47-4.9-2.5-3.83-4.38-9.63-5.59-17.24-3-19.14-7.65-33.54-13.76-42.84a29.72,29.72,0,0,0,10.78-7.84,22.71,22.71,0,0,0,5.6-15.09,29,29,0,0,0-1.75-10.07,21.7,21.7,0,0,0-5.51-8.37,26.29,26.29,0,0,0-8.87-5.37,34.07,34.07,0,0,0-11.95-1.95Z"/><path class="cls-1" d="M281,259.35c-3.19,0-10.66,0-10.66-5.11a4.27,4.27,0,0,1,2.38-3.8c.48-.27,1-.56,1.56-.9l-41-53.8v49.72a5,5,0,0,0,.36,2.44,2.88,2.88,0,0,0,1,.85,12.91,12.91,0,0,0,1.74.6,3.86,3.86,0,0,1,2.94,3.86c0,6.14-10,6.14-13.76,6.14-3.19,0-10.66,0-10.66-5.11a4.27,4.27,0,0,1,2.38-3.8c.67-.37,1.43-.81,2.27-1.32a5.47,5.47,0,0,0,1.54-1.48,4.47,4.47,0,0,0,.53-2.57V182.42a6.49,6.49,0,0,0-.46-3,2.51,2.51,0,0,0-.77-1,6.16,6.16,0,0,0-1.23-.6,3.53,3.53,0,0,1-2.58-3.42c0-4,3.54-6,10.53-6,3.5,0,11.69,0,11.69,5.24a4.31,4.31,0,0,1-2.1,3.81c-.53.33-1.14.73-1.79,1.2l0,0L277,234V182.42a6.57,6.57,0,0,0-.45-3,2.39,2.39,0,0,0-.78-1,6.55,6.55,0,0,0-1.22-.61,3.51,3.51,0,0,1-2.58-3.41c0-4,3.54-6,10.53-6,3.5,0,11.69,0,11.69,5.24a4.3,4.3,0,0,1-2.11,3.81c-.52.32-1.12.73-1.79,1.2a4.75,4.75,0,0,0-1.24,1.34,4.49,4.49,0,0,0-.41,2.3v63.17a4.93,4.93,0,0,0,.36,2.44,2.91,2.91,0,0,0,1,.85,12.91,12.91,0,0,0,1.74.6,3.86,3.86,0,0,1,2.94,3.86C294.75,259.35,284.75,259.35,281,259.35Z"/><path class="cls-2" d="M282.54,168.9c3.35,0,11.19,0,11.19,4.74a3.84,3.84,0,0,1-1.87,3.39c-.52.32-1.13.72-1.81,1.21a5.2,5.2,0,0,0-1.38,1.48,4.87,4.87,0,0,0-.49,2.57v63.17c0,2.13.42,2.69.47,2.75a3.27,3.27,0,0,0,1.23,1,12.46,12.46,0,0,0,1.8.62,3.37,3.37,0,0,1,2.57,3.38c0,5.64-9.64,5.64-13.26,5.64-3,0-10.16,0-10.16-4.61a3.76,3.76,0,0,1,2.13-3.36c.61-.35,1.29-.74,2-1.19l-42.22-55.44v51.21c0,2.13.42,2.69.47,2.75a3.34,3.34,0,0,0,1.23,1,12.46,12.46,0,0,0,1.8.62,3.37,3.37,0,0,1,2.57,3.38c0,5.64-9.63,5.64-13.26,5.64-3,0-10.16,0-10.16-4.61a3.78,3.78,0,0,1,2.13-3.36c.67-.38,1.43-.82,2.27-1.33a5.81,5.81,0,0,0,1.69-1.61,4.89,4.89,0,0,0,.62-2.87V182.42a7.08,7.08,0,0,0-.51-3.23,2.88,2.88,0,0,0-1-1.18,6.34,6.34,0,0,0-1.32-.65,3,3,0,0,1-2.24-2.94c0-3.66,3.37-5.52,10-5.52,3.35,0,11.19,0,11.19,4.74a3.85,3.85,0,0,1-1.86,3.39c-.53.32-1.14.73-1.82,1.21a3.47,3.47,0,0,0-.43.35l43.32,56.88V182.42a7.08,7.08,0,0,0-.51-3.23,3,3,0,0,0-1-1.18,6.59,6.59,0,0,0-1.32-.65,3,3,0,0,1-2.24-2.94c0-3.66,3.37-5.52,10-5.52m0-1c-5,0-11,1.13-11,6.52a4.06,4.06,0,0,0,2.92,3.89,6.12,6.12,0,0,1,1.13.55,2.38,2.38,0,0,1,.59.81,6.25,6.25,0,0,1,.39,2.75v50.09l-40.92-53.73c.5-.35,1-.65,1.37-.9a4.81,4.81,0,0,0,2.34-4.24c0-5.74-8.54-5.74-12.19-5.74-5,0-11,1.13-11,6.52a4.05,4.05,0,0,0,2.93,3.89,6.48,6.48,0,0,1,1.12.55,2.38,2.38,0,0,1,.59.81,6.16,6.16,0,0,1,.39,2.75v62.65a4.08,4.08,0,0,1-.43,2.28,4.72,4.72,0,0,1-1.39,1.34L217.07,250a4.79,4.79,0,0,0-2.64,4.23c0,5.61,8.11,5.61,11.16,5.61,3.9,0,14.26,0,14.26-6.64a4.38,4.38,0,0,0-3.31-4.34,13.51,13.51,0,0,1-1.68-.58,2.33,2.33,0,0,1-.81-.68,5.5,5.5,0,0,1-.27-2.15V197.22l39.75,52.18-1.06.6a4.8,4.8,0,0,0-2.64,4.24c0,5.61,8.11,5.61,11.16,5.61,3.9,0,14.26,0,14.26-6.64a4.38,4.38,0,0,0-3.31-4.34,13.51,13.51,0,0,1-1.68-.58,2.33,2.33,0,0,1-.81-.68,5.5,5.5,0,0,1-.27-2.15V182.29a3.93,3.93,0,0,1,.33-2,4.24,4.24,0,0,1,1.11-1.21c.67-.48,1.26-.87,1.77-1.18a4.86,4.86,0,0,0,2.34-4.24c0-5.74-8.54-5.74-12.19-5.74Z"/><path class="cls-3" d="M82.14,200.94c-8.88,0-23.13-5.12-42.35-15.23-8-4.15-14.61-6.83-19.61-8s-9-1.94-11.88-2.37-5-1.09-6.09-2-1.71-3-1.71-6.57c0-2.82.76-4.54,2.27-5.13a23.9,23.9,0,0,1,4.54-1.21A13.92,13.92,0,0,0,11.6,159c1.12-.62,1.69-2.37,1.69-5.2V20.51a10.07,10.07,0,0,0-1-5.15A9.38,9.38,0,0,0,10,12.78c-.87-.65-1.69-1.32-2.42-2A4.75,4.75,0,0,1,6.35,7.07C6.35,2.65,12.12.5,24,.5c11.42,0,17,2.29,17,7,0,2.65-.68,4.34-2,5a19.19,19.19,0,0,1-4,1.45,10.22,10.22,0,0,0-3.72,1.76c-1,.76-1.54,2.59-1.54,5.45V155.35c0,3.8.35,6.35,1,7.56s2.12,2.29,4.32,3.26c3.19,1.3,7,3.1,11.2,5.32s8.58,4.37,13,6.39,8.66,3.78,12.75,5.29a31.17,31.17,0,0,0,10.34,2.25c5.37,0,9.88-1.11,13.4-3.29a10.15,10.15,0,0,0,5.18-9.22s-.15-.44-1-2.39l0-.1v-.11a3.32,3.32,0,0,0-.77-1.77c-.58-.79-1.19-1.62-1.84-2.48s-1.3-1.82-1.87-2.75a5.47,5.47,0,0,1-.94-2.76c0-5.07,2.79-7.65,8.3-7.65a11.89,11.89,0,0,1,10.39,5.86c2.5,3.83,3.77,8.73,3.77,14.58,0,9.09-3.24,16-9.64,20.68s-14.64,6.92-24.68,6.92Z"/><path class="cls-2" d="M24,1Q40.45,1,40.46,7.5q0,3.69-1.74,4.56a19,19,0,0,1-3.9,1.41,10.63,10.63,0,0,0-3.9,1.84c-1.16.86-1.74,2.82-1.74,5.85V155.35q0,5.85,1.09,7.81t4.55,3.46c3.18,1.31,6.9,3.07,11.16,5.32s8.6,4.36,13,6.39,8.67,3.79,12.79,5.31a31.36,31.36,0,0,0,10.51,2.28q8.25,0,13.66-3.36a10.72,10.72,0,0,0,5.42-9.65,19.84,19.84,0,0,0-1.08-2.6,3.7,3.7,0,0,0-.87-2.06c-.58-.8-1.19-1.63-1.84-2.49s-1.27-1.77-1.84-2.71a4.91,4.91,0,0,1-.87-2.5q0-7.14,7.8-7.15a11.36,11.36,0,0,1,10,5.64q3.69,5.63,3.69,14.3,0,13.44-9.43,20.27t-24.39,6.83h-.37q-13.26,0-42.12-15.18-12.14-6.3-19.73-8T8.37,174.86c-2.89-.43-4.84-1.05-5.85-1.84S1,170.16,1,166.84q0-3.9,2-4.66A23,23,0,0,1,7.4,161a14.2,14.2,0,0,0,4.44-1.52q2-1.08,1.95-5.64V20.51a10.54,10.54,0,0,0-1.08-5.42,10,10,0,0,0-2.39-2.71c-.87-.65-1.66-1.3-2.38-2A4.33,4.33,0,0,1,6.85,7.07Q6.85,1,24,1m0-1C11.78,0,5.85,2.31,5.85,7.07a5.21,5.21,0,0,0,1.42,4.1c.73.67,1.56,1.34,2.45,2a9,9,0,0,1,2.14,2.44,9.67,9.67,0,0,1,.93,4.89V153.83c0,2.6-.5,4.24-1.44,4.77A13.15,13.15,0,0,1,7.22,160a24.08,24.08,0,0,0-4.63,1.25C.87,161.91,0,163.8,0,166.84c0,3.73.6,5.95,1.9,7s3.23,1.58,6.32,2c2.88.43,6.87,1.23,11.85,2.37s11.51,3.8,19.49,7.94c19.29,10.14,33.62,15.29,42.58,15.29h.39c10.12,0,18.53-2.36,25-7s9.84-11.82,9.84-21.08c0-6-1.29-10.94-3.85-14.85a12.37,12.37,0,0,0-10.81-6.09c-7.27,0-8.8,4.43-8.8,8.15a5.84,5.84,0,0,0,1,3c.58,1,1.22,1.89,1.9,2.79s1.26,1.69,1.83,2.48a2.77,2.77,0,0,1,.68,1.47v.22l.09.19c.72,1.6.93,2.13,1,2.31a9.68,9.68,0,0,1-5,8.68c-3.43,2.13-7.85,3.21-13.13,3.21a30.53,30.53,0,0,1-10.16-2.22c-4.08-1.5-8.36-3.27-12.72-5.28s-8.75-4.16-13-6.37-8-4-11.25-5.35c-2.08-.91-3.45-1.93-4.06-3-.44-.78-1-2.69-1-7.32V21.16c0-3.35.73-4.6,1.34-5.05a9.71,9.71,0,0,1,3.54-1.67A20.71,20.71,0,0,0,39.17,13c1.52-.76,2.29-2.59,2.29-5.45C41.46,0,28.3,0,24,0Z"/><path class="cls-3" d="M81.67,137.44c-4,0-13.24,0-13.24-5.89a4.8,4.8,0,0,1,2.72-4.28c.89-.5,1.89-1.09,3-1.76a7.73,7.73,0,0,0,2.29-2.19,7,7,0,0,0,.86-3.9V36.57a9.57,9.57,0,0,0-.7-4.37,4.44,4.44,0,0,0-1.34-1.64,9.27,9.27,0,0,0-1.79-.87A3.84,3.84,0,0,1,70.65,26c0-4.7,4.4-7.09,13.07-7.09,6.81,0,14.61.69,14.61,6.07A4.88,4.88,0,0,1,96,29.27c-.69.42-1.51,1-2.42,1.61a7.28,7.28,0,0,0-1.87,2A6.6,6.6,0,0,0,91,36.4v83.53c0,2.83.55,3.63.66,3.77a4.78,4.78,0,0,0,1.71,1.38,20.29,20.29,0,0,0,2.4.83A4.2,4.2,0,0,1,99,130.18C99,136.69,89.12,137.44,81.67,137.44Z"/><path class="cls-2" d="M83.72,19.39c6.57,0,14.11.63,14.11,5.57a4.39,4.39,0,0,1-2.13,3.88c-.71.44-1.54,1-2.45,1.63a7.85,7.85,0,0,0-2,2.15,7,7,0,0,0-.76,3.78v83.53c0,2.84.55,3.81.78,4.09a5.11,5.11,0,0,0,1.9,1.52,19.57,19.57,0,0,0,2.46.85,3.74,3.74,0,0,1,2.89,3.79c0,6.06-9.62,6.76-16.85,6.76-3.81,0-12.74,0-12.74-5.39a4.34,4.34,0,0,1,2.47-3.85c.89-.5,1.9-1.09,3-1.76a8.57,8.57,0,0,0,2.44-2.32,7.42,7.42,0,0,0,1-4.2V36.57a9.85,9.85,0,0,0-.76-4.6,4.84,4.84,0,0,0-1.52-1.84,10.23,10.23,0,0,0-1.89-.91A3.38,3.38,0,0,1,71.15,26c0-4.37,4.23-6.59,12.57-6.59m0-1c-9,0-13.57,2.55-13.57,7.59a4.39,4.39,0,0,0,3.18,4.19A8.72,8.72,0,0,1,75,31a3.68,3.68,0,0,1,1.16,1.45,9.05,9.05,0,0,1,.64,4.13v82.85a6.23,6.23,0,0,1-.76,3.61,7.51,7.51,0,0,1-2.15,2c-1.1.67-2.11,1.26-3,1.75a5.3,5.3,0,0,0-3,4.72c0,6.39,9.63,6.39,13.74,6.39,4.88,0,17.85,0,17.85-7.76a4.75,4.75,0,0,0-3.63-4.76,19.15,19.15,0,0,1-2.34-.8A4.28,4.28,0,0,1,92,123.38s-.55-.69-.55-3.45V36.4a6,6,0,0,1,.6-3.23,6.76,6.76,0,0,1,1.74-1.88c.9-.64,1.7-1.17,2.39-1.6A5.34,5.34,0,0,0,98.83,25c0-6.57-10.58-6.57-15.11-6.57Z"/><path class="cls-3" d="M155.05,110.87c-1.36,0-2.74-.05-4.12-.16a44.4,44.4,0,0,1-14.17-3.49,45.69,45.69,0,0,1-14.53-9.94C107.29,82,104.65,57.37,116,38.69a43.47,43.47,0,0,1,23.32-18.78,39.41,39.41,0,0,1,12.16-1.86,45.08,45.08,0,0,1,18.69,4.13c1.22.56,2.47,1,3.52,1.39.4.14.81.33,1.24.53a6.15,6.15,0,0,0,1.16.46,5.93,5.93,0,0,0,.95-.67,6.54,6.54,0,0,1,4.08-1.76,5.31,5.31,0,0,1,1.82.33c3.8,1.4,3.59,5.78,3.53,7.21,0,.74-.12,1.51-.2,2.18a11.06,11.06,0,0,0,0,3.94c.16.56.38,1.14.59,1.7s.5,1.33.7,2c1,3.42.17,7.39-3.23,8.37a5.19,5.19,0,0,1-1.45.21c-3.3,0-4.92-3.06-5.78-4.7-.33-.62-.6-1.16-.87-1.7a21,21,0,0,0-2.92-4.77,20.22,20.22,0,0,0-5.57-4.3A31.7,31.7,0,0,0,152.74,29a31.3,31.3,0,0,0-15.08,3.71c-8.27,4.55-14.32,13.52-16.18,24a37.92,37.92,0,0,0,7.07,29.81c6.37,8.25,16,13.24,25.83,13.34h.32c10.22,0,19.47-5.11,24.16-13.35A24.71,24.71,0,0,0,182,72.08l0-.15a10.89,10.89,0,0,0-.25-1.76h-8.8c-.5,0-1,0-1.55,0-.7,0-1.35,0-2,0a13.94,13.94,0,0,1-3.76-.43,5.42,5.42,0,0,1-3.79-7.06c.58-1.8,2.24-4,6.86-4.1.72,0,1.44,0,2.17,0h12c2.82,0,7.54,0,9.58,4.4a17.89,17.89,0,0,1,1.24,7.68,36.67,36.67,0,0,1-.77,6.55l-.14.8c-.33,1.91-.68,3.87-1.2,5.8a37.4,37.4,0,0,1-3.76,8.28c-.29.51-.54,1-.79,1.42a34.58,34.58,0,0,1-14.69,13.67A40.07,40.07,0,0,1,155.05,110.87Z"/><path class="cls-2" d="M151.44,18.55a44.53,44.53,0,0,1,18.48,4.08c1.23.57,2.49,1,3.56,1.41.38.14.79.32,1.2.51a4.92,4.92,0,0,0,1.37.51,3.38,3.38,0,0,0,1.26-.78,6,6,0,0,1,3.77-1.65,4.8,4.8,0,0,1,1.65.3c3.45,1.28,3.26,5.37,3.2,6.72,0,.7-.11,1.42-.2,2.15a11.18,11.18,0,0,0,0,4.13c.16.57.38,1.14.6,1.74s.49,1.3.69,2c.91,3.18.2,6.86-2.89,7.75a4.61,4.61,0,0,1-1.31.19h0c-3,0-4.52-2.88-5.34-4.44-.33-.62-.61-1.18-.88-1.73a21.5,21.5,0,0,0-3-4.83,20.76,20.76,0,0,0-5.72-4.41,32.16,32.16,0,0,0-15.18-3.67,31.77,31.77,0,0,0-15.32,3.77C129,36.92,122.87,46,121,56.64a38.47,38.47,0,0,0,7.18,30.2,34,34,0,0,0,26.21,13.53h.32c10.4,0,19.83-5.22,24.6-13.61A25.14,25.14,0,0,0,182.46,72v-.14a8.23,8.23,0,0,0-.41-2.23h-9.15c-.5,0-1,0-1.6,0s-1.29,0-1.94,0a13,13,0,0,1-3.63-.42,4.9,4.9,0,0,1-3.44-6.42c.52-1.64,2.06-3.63,6.39-3.75.72,0,1.43,0,2.15,0h12.05c2.7,0,7.22,0,9.13,4.11a17.42,17.42,0,0,1,1.19,7.47,36.81,36.81,0,0,1-.76,6.46l-.14.8c-.33,1.89-.68,3.84-1.2,5.76a36.33,36.33,0,0,1-3.71,8.17c-.27.47-.53,1-.79,1.42a34,34,0,0,1-14.46,13.46,39.61,39.61,0,0,1-17.08,3.55c-1.34,0-2.72-.05-4.09-.16a43.67,43.67,0,0,1-14-3.45,45.13,45.13,0,0,1-14.37-9.83c-14.79-15.11-17.4-39.49-6.2-58a43,43,0,0,1,23-18.57,39.2,39.2,0,0,1,12-1.83m0-1v0a40.14,40.14,0,0,0-12.32,1.88,44,44,0,0,0-23.59,19c-11.42,18.87-8.76,43.77,6.34,59.2a46.09,46.09,0,0,0,14.69,10.05,44.8,44.8,0,0,0,14.33,3.53c1.39.11,2.79.16,4.16.16a40.46,40.46,0,0,0,17.5-3.65,35,35,0,0,0,14.9-13.85c.26-.48.51-.93.77-1.38l0-.06a37.59,37.59,0,0,0,3.81-8.4c.53-2,.88-3.93,1.21-5.84l.15-.8a37.47,37.47,0,0,0,.77-6.64,18.35,18.35,0,0,0-1.28-7.89c-2.18-4.69-7.29-4.69-10-4.69H170.82c-.73,0-1.45,0-2.18,0-5.17.14-6.8,2.85-7.32,4.45a5.92,5.92,0,0,0,4.13,7.69,14.22,14.22,0,0,0,3.9.45c.69,0,1.38,0,2,0h.08c.51,0,1,0,1.48,0h8.41c0,.28.1.69.15,1.29l0,.15a24.13,24.13,0,0,1-3.05,14.15c-4.59,8.09-13.68,13.11-23.73,13.11h-.31A33.06,33.06,0,0,1,129,86.23a37.43,37.43,0,0,1-7-29.42c1.83-10.32,7.79-19.15,15.93-23.63a30.8,30.8,0,0,1,14.84-3.65,31.2,31.2,0,0,1,14.71,3.55,19.75,19.75,0,0,1,5.44,4.19,20.36,20.36,0,0,1,2.82,4.62c.28.55.56,1.12.9,1.75.85,1.61,2.61,5,6.22,5a5.46,5.46,0,0,0,1.59-.23c3.72-1.07,4.61-5.33,3.57-9-.21-.75-.46-1.42-.71-2.07s-.43-1.14-.58-1.68a10.68,10.68,0,0,1,0-3.74c.07-.69.16-1.46.2-2.21.19-4.1-1.11-6.69-3.86-7.7a5.6,5.6,0,0,0-2-.37,6.9,6.9,0,0,0-4.39,1.87c-.2.16-.52.41-.71.53-.25-.09-.68-.29-.88-.38a13,13,0,0,0-1.28-.55,37.33,37.33,0,0,1-3.48-1.38,45.57,45.57,0,0,0-18.9-4.17Z"/><path class="cls-3" d="M183,157.91c-4.52,0-6.13-2.8-6.13-5.41,0-1.47.53-6.28,7.44-6.28h11.6a8.1,8.1,0,0,0,4.44-1.39,16.52,16.52,0,0,0,4.24-4,23.46,23.46,0,0,0,3-5.66,16.87,16.87,0,0,0,1.13-5.89V34.16c0-2.71-.55-3.38-.55-3.38a3.28,3.28,0,0,0-1.51-1c-1-.28-1.86-.51-2.64-.7a4.28,4.28,0,0,1-3.27-4.46c0-5.56,8.77-5.56,12.51-5.56,6.58,0,12.66.62,12.66,5.12a4.55,4.55,0,0,1-2,4.05,12.85,12.85,0,0,0-1.4,1,5.28,5.28,0,0,0-1.07,1.39,6.39,6.39,0,0,0-.44,2.95V77a86.1,86.1,0,0,1,21-18.27,68,68,0,0,1,27.36-9.57V33.87a8,8,0,0,0-.32-2.91h0A7,7,0,0,0,267,29.79c-2.9-1.34-3.5-3.17-3.5-4.48,0-4.26,4-6.42,11.79-6.42,3.18,0,11.64,0,11.64,5.55a4.18,4.18,0,0,1-2.17,3.78,11.6,11.6,0,0,0-1.4.93,4.67,4.67,0,0,0-1.06,1.33,6.85,6.85,0,0,0-.44,3.1v71.5c0,2.81.51,3.49.51,3.5a2.73,2.73,0,0,0,1.12,1,8.92,8.92,0,0,0,1.79.46,3.69,3.69,0,0,1,3.39,3.79c0,6.57-10.25,6.57-14.11,6.57-3,0-11.06,0-11.06-5.41a4.17,4.17,0,0,1,2.64-4.15,16.89,16.89,0,0,0,1.74-.8,3.75,3.75,0,0,0,1.09-1.12c.05-.07.48-.77.48-3.36V60.82C251.72,63.65,235.45,75.74,221,96.76v32.53a28.16,28.16,0,0,1-2.32,11.37,29.76,29.76,0,0,1-6.14,9.07,28.39,28.39,0,0,1-8.88,6,26.67,26.67,0,0,1-10.55,2.17Z"/><path class="cls-2" d="M275.24,19.39c3.05,0,11.14,0,11.14,5.05a3.69,3.69,0,0,1-1.91,3.34,11,11,0,0,0-1.47,1,4.91,4.91,0,0,0-1.18,1.47,7.05,7.05,0,0,0-.51,3.35v71.5c0,2.87.52,3.68.62,3.81a3.28,3.28,0,0,0,1.35,1.12,9.05,9.05,0,0,0,1.88.47,3.23,3.23,0,0,1,3,3.3c0,6.07-9.88,6.07-13.61,6.07-2.89,0-10.56,0-10.56-4.91a3.68,3.68,0,0,1,2.32-3.68,16.18,16.18,0,0,0,1.79-.83,4,4,0,0,0,1.27-1.28c.13-.19.56-1,.56-3.64V60.24c-18.08,2.68-34.67,14.9-49.35,36.36v32.69a27.72,27.72,0,0,1-2.28,11.17,29.21,29.21,0,0,1-6,8.92,27.71,27.71,0,0,1-8.72,5.9,26.2,26.2,0,0,1-10.35,2.13H183c-5.23,0-5.63-3.76-5.63-4.91,0-1.74.67-5.78,6.94-5.78h11.6a8.57,8.57,0,0,0,4.71-1.47,16.72,16.72,0,0,0,4.37-4.12,23.87,23.87,0,0,0,3.12-5.77,17.43,17.43,0,0,0,1.16-6.07V34.16c0-2.8-.57-3.59-.68-3.72a3.69,3.69,0,0,0-1.74-1.17c-1-.28-1.87-.52-2.66-.7a3.77,3.77,0,0,1-2.89-4c0-5.06,8.42-5.06,12-5.06,6.32,0,12.16.56,12.16,4.62a4.05,4.05,0,0,1-1.79,3.63,15.66,15.66,0,0,0-1.45,1.07,5.84,5.84,0,0,0-1.18,1.53,6.72,6.72,0,0,0-.51,3.2V78.36a86.46,86.46,0,0,1,21.75-19.22,67.52,67.52,0,0,1,27.6-9.54V33.87a7.69,7.69,0,0,0-.37-3.16,5.92,5.92,0,0,0-2.37-1.38c-2.66-1.23-3.2-2.86-3.2-4,0-3.93,3.8-5.92,11.29-5.92m0-1c-8.16,0-12.29,2.33-12.29,6.92,0,1.45.66,3.48,3.78,4.92a8.29,8.29,0,0,1,1.94,1,10.53,10.53,0,0,1,.22,2.6V48.71a68.53,68.53,0,0,0-27.11,9.58,85.55,85.55,0,0,0-20.24,17.35V33.58a6.06,6.06,0,0,1,.37-2.7,5,5,0,0,1,1-1.26,13.66,13.66,0,0,1,1.35-1,5,5,0,0,0,2.25-4.47c0-5.62-8.56-5.62-13.16-5.62-3.89,0-13,0-13,6.06A4.77,4.77,0,0,0,204,29.54c.81.19,1.69.42,2.61.69a2.7,2.7,0,0,1,1.27.88h0a6.51,6.51,0,0,1,.43,3v95.13a16.31,16.31,0,0,1-1.1,5.71,22.32,22.32,0,0,1-3,5.54,15.5,15.5,0,0,1-4.1,3.87,7.6,7.6,0,0,1-4.17,1.31h-11.6c-7.37,0-7.94,5.19-7.94,6.78,0,2.86,1.74,5.91,6.63,5.91h10.15a27.16,27.16,0,0,0,10.75-2.22,28.57,28.57,0,0,0,9-6.1,30,30,0,0,0,6.24-9.23,28.61,28.61,0,0,0,2.37-11.57V96.91c14.15-20.59,30.08-32.53,47.35-35.5v44.1a7.18,7.18,0,0,1-.39,3.08,2.83,2.83,0,0,1-.91,1,15.26,15.26,0,0,1-1.68.79,4.7,4.7,0,0,0-3,4.61c0,5.91,8.7,5.91,11.56,5.91,4,0,14.61,0,14.61-7.07a4.22,4.22,0,0,0-3.82-4.29,7.92,7.92,0,0,1-1.69-.43,2.24,2.24,0,0,1-.89-.79h0a7.38,7.38,0,0,1-.41-3.19V33.58a6.73,6.73,0,0,1,.37-2.85,4.12,4.12,0,0,1,.93-1.18,11.37,11.37,0,0,1,1.33-.89,4.65,4.65,0,0,0,2.44-4.22c0-6.05-8.82-6.05-12.14-6.05Z"/><path class="cls-3" d="M333.07,109.83c-2.38,0-9.63,0-9.63-5.11a5.17,5.17,0,0,1,2.14-4.23,27.09,27.09,0,0,1,2.64-1.79,11.12,11.12,0,0,0,1.93-1.46c.07-.06.27-.25.27-.91V30.14h-.32c-11.51,0-20.12,1.34-25.58,4-4.9,2.38-7.29,5.66-7.29,10a5.78,5.78,0,0,0,.71,3A14.46,14.46,0,0,0,300,49.83c.84.84,1.63,1.57,2.34,2.16a5.11,5.11,0,0,1,2.12,3.91c0,3.71-2.31,6-6,6a8.8,8.8,0,0,1-5.16-1.79,16.42,16.42,0,0,1-3.84-3.91A20,20,0,0,1,286.83,51a18.58,18.58,0,0,1-1-5.81c0-9.35,3.82-16.21,11.37-20.4,7.14-4,18-5.89,33.13-5.89h3.16c1.19,0,2.48,0,3.94.13.17,0,.64,0,2.55.2,1.53.13,3.36.26,5.49.38l6.58.39c2.19.13,4,.19,5.4.19a31.15,31.15,0,0,0,7.37-.76,35.38,35.38,0,0,0,5.34-1.73c1.51-.66,2.77-1.26,3.72-1.77a7.86,7.86,0,0,1,3.72-1.16c3.71,0,6,2.35,6,6.14A6.41,6.41,0,0,1,380.88,26a18.65,18.65,0,0,1-5.8,2.83A47.33,47.33,0,0,1,367,30.57a76.21,76.21,0,0,1-9.9.6c-1.24,0-2.58,0-4-.07s-2.94-.11-4.52-.19l-6.5-.36V95.94a4.55,4.55,0,0,0,.32,2.2,3.07,3.07,0,0,0,1.09.82c.73.28,1.4.53,2,.73a4,4,0,0,1,2.79,4C348.25,109.13,340.14,109.83,333.07,109.83Z"/><path class="cls-2" d="M377.63,15.26c3.45,0,5.51,2.1,5.51,5.64a5.9,5.9,0,0,1-2.57,4.73,18.07,18.07,0,0,1-5.64,2.74,46.28,46.28,0,0,1-8,1.7,75.26,75.26,0,0,1-9.84.6c-1.23,0-2.57,0-4-.07s-2.94-.1-4.51-.19l-7-.39V95.94c0,2,.41,2.49.43,2.51a3.43,3.43,0,0,0,1.3,1c.74.29,1.41.54,2,.74a3.53,3.53,0,0,1,2.44,3.53c0,5-7.84,5.64-14.68,5.64-2.26,0-9.13,0-9.13-4.61a4.72,4.72,0,0,1,1.95-3.84,29.21,29.21,0,0,1,2.59-1.75,12.06,12.06,0,0,0,2-1.53,1.55,1.55,0,0,0,.42-1.27V29.64h-.82c-11.59,0-20.26,1.36-25.8,4-5.09,2.47-7.57,5.9-7.57,10.46a6.27,6.27,0,0,0,.79,3.28,14.32,14.32,0,0,0,2.13,2.76c.86.85,1.66,1.59,2.38,2.19A4.64,4.64,0,0,1,304,55.9c0,3.45-2.06,5.51-5.52,5.51a8.31,8.31,0,0,1-4.86-1.69,16.09,16.09,0,0,1-3.74-3.8,19.25,19.25,0,0,1-2.54-5.09,17.86,17.86,0,0,1-.95-5.65c0-9.16,3.74-15.87,11.11-20,7.07-3.92,17.83-5.82,32.89-5.82h3.16c1.19,0,2.46,0,3.91.13.17,0,.64,0,2.54.2,1.53.13,3.37.25,5.5.38l6.58.39c2.19.13,4,.19,5.43.19A31,31,0,0,0,365,19.9a34.43,34.43,0,0,0,5.41-1.76c1.54-.66,2.81-1.26,3.77-1.78a7.38,7.38,0,0,1,3.48-1.1m0-1a8.28,8.28,0,0,0-3.95,1.22c-.94.5-2.18,1.09-3.69,1.75a34,34,0,0,1-5.26,1.7,30.13,30.13,0,0,1-7.25.75c-1.39,0-3.2-.06-5.37-.19l-6.58-.39c-2.1-.12-3.94-.25-5.48-.38-1.89-.16-2.38-.19-2.58-.2-1.45-.09-2.75-.13-4-.13h-3.16c-15.24,0-26.15,1.94-33.37,5.95-7.72,4.28-11.63,11.29-11.63,20.84a18.79,18.79,0,0,0,1,6A20.47,20.47,0,0,0,289,56.5a16.72,16.72,0,0,0,4,4,9.24,9.24,0,0,0,5.44,1.88c4,0,6.52-2.49,6.52-6.51a5.6,5.6,0,0,0-2.3-4.3c-.7-.57-1.47-1.29-2.31-2.13a13.39,13.39,0,0,1-2-2.57,5.32,5.32,0,0,1-.64-2.76c0-4.14,2.29-7.27,7-9.56,5.37-2.6,13.84-3.93,25.18-3.94V96.33a1.07,1.07,0,0,1-.09.53A11,11,0,0,1,328,98.27a30.59,30.59,0,0,0-2.68,1.82,5.66,5.66,0,0,0-2.34,4.63c0,3.72,3.41,5.61,10.13,5.61,4.69,0,15.68,0,15.68-6.64a4.56,4.56,0,0,0-3.13-4.48c-.59-.2-1.24-.43-2-.72a2.37,2.37,0,0,1-.86-.64,5.3,5.3,0,0,1-.23-1.91V31.07l6,.34c1.56.08,3.09.15,4.53.19s2.76.07,4,.07a77.25,77.25,0,0,0,10-.61,47.84,47.84,0,0,0,8.17-1.74,19.11,19.11,0,0,0,5.94-2.9,6.86,6.86,0,0,0,3-5.52c0-4.1-2.49-6.64-6.51-6.64Z"/><path class="cls-3" d="M409.78,160.92a54,54,0,0,1-17.68-2.86,50.89,50.89,0,0,1-14.49-7.68,38.85,38.85,0,0,1-10-11.36,27.78,27.78,0,0,1-3.8-14,24.33,24.33,0,0,1,2.4-10.79,26.5,26.5,0,0,1,6.52-8.4,29.62,29.62,0,0,1,9.67-5.49,35.65,35.65,0,0,1,11.67-1.91,34.07,34.07,0,0,1,8.91,1.2,35.89,35.89,0,0,1,7.93,3.09A25.94,25.94,0,0,1,416.8,107a8.36,8.36,0,0,1,2.83,5.84c0,4.09-2.53,6.62-6.61,6.62-2.13,0-4.58-1.34-7.94-4.34-3.77-3.26-7.52-4.91-11.16-4.91a20.54,20.54,0,0,0-7,1.17,18.21,18.21,0,0,0-5.58,3.13,14.41,14.41,0,0,0-3.66,4.66,12.91,12.91,0,0,0-1.34,5.86,17,17,0,0,0,2.55,8.91,26,26,0,0,0,7.28,7.66A39.6,39.6,0,0,0,397.28,147a46.29,46.29,0,0,0,13.83,2,47.5,47.5,0,0,0,15.16-2.28,33.37,33.37,0,0,0,11.37-6.32,27.47,27.47,0,0,0,7.1-9.58,30.14,30.14,0,0,0,2.49-12.35c0-5-2-10.18-6-15.26s-11.08-9.91-20.89-14L399.8,80.52c-9.35-4-16.21-8.42-20.37-13.27A27.13,27.13,0,0,1,372.91,49,25.49,25.49,0,0,1,376,36.72a32.65,32.65,0,0,1,8.31-9.84,40.53,40.53,0,0,1,12.34-6.61,48,48,0,0,1,15.46-2.41c2.06,0,3.8,0,5.17.07a23,23,0,0,1,4.58.66,35.23,35.23,0,0,1,5.18,1.83c1.89.82,4.33,2,7.26,3.44,2.24,1.17,3.95,2,5.1,2.52l.58.26a5.67,5.67,0,0,1,4-1.74c3.54,0,5.74,2.37,5.74,6.18a9.18,9.18,0,0,1-.11,1.6,2.62,2.62,0,0,0,0,.31v4a10.39,10.39,0,0,0,.06,1,11,11,0,0,0,.19,1.22l.69,2.92c.28.92.54,1.77.78,2.53a7.64,7.64,0,0,1,.49,2.26c0,4.56-2.74,6.18-5.3,6.18-2.18,0-5.11-1.12-6.66-6.46a17.14,17.14,0,0,0-3.64-6.57,27.18,27.18,0,0,0-6.55-5.41A34.82,34.82,0,0,0,421,31.07a37.93,37.93,0,0,0-9.87-1.3,31.34,31.34,0,0,0-10.57,1.68,27,27,0,0,0-8.09,4.47,20.05,20.05,0,0,0-5.13,6.22,15.37,15.37,0,0,0-1.76,7.15,14.18,14.18,0,0,0,4.82,11.14c3.61,3.38,9.93,6.91,18.78,10.49l16,6.62c11.61,4.84,20.38,10.75,26.06,17.56A38.12,38.12,0,0,1,460,120.23a35.56,35.56,0,0,1-3.81,16.33,39.78,39.78,0,0,1-10.62,12.9,50.34,50.34,0,0,1-16,8.46A63.67,63.67,0,0,1,409.78,160.92Z"/><path class="cls-2" d="M412.13,18.35c2.06,0,3.79,0,5.15.08a22,22,0,0,1,4.48.65,34.6,34.6,0,0,1,5.11,1.8c1.86.81,4.3,2,7.23,3.43,2.25,1.17,4,2,5.11,2.52l.89.4.18-.17A5.2,5.2,0,0,1,444,25.4c3.28,0,5.24,2.13,5.24,5.68a9.42,9.42,0,0,1-.1,1.52,2.43,2.43,0,0,0-.05.39v4a9.14,9.14,0,0,0,.07,1.1,11.66,11.66,0,0,0,.19,1.26l.7,3c.28.95.54,1.8.78,2.56a7.39,7.39,0,0,1,.47,2.11c0,5.27-3.67,5.68-4.8,5.68-2,0-4.71-1.06-6.18-6.1a17.52,17.52,0,0,0-3.74-6.75,27.61,27.61,0,0,0-6.68-5.52,35.33,35.33,0,0,0-8.78-3.66,38.15,38.15,0,0,0-10-1.32A31.88,31.88,0,0,0,400.37,31a27.69,27.69,0,0,0-8.24,4.55,20.64,20.64,0,0,0-5.25,6.38,15.83,15.83,0,0,0-1.82,7.38,14.62,14.62,0,0,0,5,11.5c3.66,3.43,10,7,18.94,10.59L425,78c11.53,4.81,20.24,10.67,25.87,17.42a37.65,37.65,0,0,1,8.65,24.81,35,35,0,0,1-3.76,16.1,39.22,39.22,0,0,1-10.48,12.74,49.6,49.6,0,0,1-15.81,8.38,63.18,63.18,0,0,1-19.68,3,53.5,53.5,0,0,1-17.52-2.84,49.77,49.77,0,0,1-14.35-7.6,38.36,38.36,0,0,1-9.88-11.2,27.29,27.29,0,0,1-3.73-13.71,23.69,23.69,0,0,1,2.35-10.56,26,26,0,0,1,6.4-8.25,29.12,29.12,0,0,1,9.51-5.4A35.15,35.15,0,0,1,394.07,99a33.93,33.93,0,0,1,8.78,1.18,35.58,35.58,0,0,1,7.82,3,25.42,25.42,0,0,1,5.78,4.19,7.86,7.86,0,0,1,2.68,5.48c0,3.84-2.28,6.12-6.11,6.12-2,0-4.34-1.3-7.61-4.22-3.86-3.33-7.73-5-11.49-5a21.24,21.24,0,0,0-7.2,1.19,18.77,18.77,0,0,0-5.73,3.23A14.92,14.92,0,0,0,377.2,119a13.45,13.45,0,0,0-1.39,6.08,17.49,17.49,0,0,0,2.62,9.17,26.63,26.63,0,0,0,7.42,7.81,39.92,39.92,0,0,0,11.28,5.42,46.92,46.92,0,0,0,14,2,47.89,47.89,0,0,0,15.32-2.31A33.78,33.78,0,0,0,438,140.78,27.89,27.89,0,0,0,445.2,131a30.83,30.83,0,0,0,2.53-12.56c0-5.16-2.05-10.4-6.08-15.57s-11.21-10-21.09-14.17L400,80.06c-9.28-3.93-16.07-8.35-20.18-13.13A26.68,26.68,0,0,1,373.41,49a25,25,0,0,1,3-12,32.17,32.17,0,0,1,8.18-9.69,40,40,0,0,1,12.19-6.52,47.33,47.33,0,0,1,15.3-2.4m0-1a48.44,48.44,0,0,0-15.62,2.45A40.85,40.85,0,0,0,384,26.49a33,33,0,0,0-8.44,10A26,26,0,0,0,372.41,49a27.67,27.67,0,0,0,6.64,18.58c4.22,4.9,11.13,9.41,20.55,13.4l20.57,8.67c9.73,4.08,16.69,8.74,20.69,13.87s5.87,10,5.87,15a29.7,29.7,0,0,1-2.45,12.15,26.89,26.89,0,0,1-7,9.41,33.06,33.06,0,0,1-11.2,6.22,47.34,47.34,0,0,1-15,2.25,45.89,45.89,0,0,1-13.68-2,39.5,39.5,0,0,1-11-5.29,25.46,25.46,0,0,1-7.13-7.51,16.43,16.43,0,0,1-2.48-8.65,12.42,12.42,0,0,1,1.28-5.63,14.1,14.1,0,0,1,3.54-4.51,17.75,17.75,0,0,1,5.43-3,20,20,0,0,1,6.86-1.14c3.51,0,7.16,1.61,10.84,4.79,3.45,3.08,6,4.46,8.26,4.46,4.39,0,7.11-2.72,7.11-7.12a8.81,8.81,0,0,0-3-6.19,26.1,26.1,0,0,0-6-4.36,36.89,36.89,0,0,0-8-3.14,35.06,35.06,0,0,0-9-1.21,35.84,35.84,0,0,0-11.83,1.94,30.18,30.18,0,0,0-9.84,5.58,27.09,27.09,0,0,0-6.64,8.56,24.71,24.71,0,0,0-2.45,11,28.2,28.2,0,0,0,3.87,14.2,39,39,0,0,0,10.13,11.5,51.11,51.11,0,0,0,14.63,7.76,54.45,54.45,0,0,0,17.85,2.89,64.34,64.34,0,0,0,20-3,50.84,50.84,0,0,0,16.12-8.55,40.23,40.23,0,0,0,10.74-13.06,36,36,0,0,0,3.87-16.56,38.65,38.65,0,0,0-8.88-25.45C445.9,87.91,437.07,82,425.38,77.07l-16-6.61c-8.81-3.56-15.08-7.06-18.64-10.4a13.68,13.68,0,0,1-4.66-10.75,14.93,14.93,0,0,1,1.7-6.94,19.61,19.61,0,0,1,5-6.06,26.27,26.27,0,0,1,7.94-4.39,31.09,31.09,0,0,1,10.4-1.65,37.3,37.3,0,0,1,9.74,1.28,34.32,34.32,0,0,1,8.54,3.56,26.67,26.67,0,0,1,6.44,5.31,16.65,16.65,0,0,1,3.53,6.37c1.73,5.94,5.21,6.83,7.14,6.83,2.8,0,5.8-1.75,5.8-6.68a8.36,8.36,0,0,0-.51-2.41q-.36-1.12-.78-2.52l-.69-2.92c-.07-.36-.13-.75-.17-1.13a9.49,9.49,0,0,1-.06-1V33c0-.05,0-.13,0-.22a11.67,11.67,0,0,0,.11-1.69c0-4.12-2.39-6.68-6.24-6.68A6.12,6.12,0,0,0,439.9,26l-.17-.07-.11,0c-1.14-.5-2.84-1.34-5.06-2.5-3-1.48-5.42-2.64-7.3-3.46A35.75,35.75,0,0,0,422,18.11a23.49,23.49,0,0,0-4.69-.68c-1.37-.05-3.12-.08-5.19-.08Z"/><path class="cls-4" d="M278,156.53c-5.24,0-9.43-1.26-12.45-3.73s-4.59-6-4.59-10.54a11.12,11.12,0,0,1,1.46-5.7,13.2,13.2,0,0,1,3.76-4.11,16.44,16.44,0,0,1,5.3-2.45,23.74,23.74,0,0,1,6.22-.81c5.25,0,9.3,1.22,12,3.64a11.87,11.87,0,0,1,4.13,9.24,13.43,13.43,0,0,1-1.34,6.06,13.58,13.58,0,0,1-3.6,4.52A17.16,17.16,0,0,1,278,156.53Zm-.39-22.68a12.93,12.93,0,0,0-4.06.67,12.79,12.79,0,0,0-3.62,1.81,9.86,9.86,0,0,0-2.55,2.69,5.77,5.77,0,0,0-1,3.14,8.5,8.5,0,0,0,3.23,7.09,12.73,12.73,0,0,0,8.15,2.61,12.55,12.55,0,0,0,4.05-.66,9.61,9.61,0,0,0,3.34-1.93,10.26,10.26,0,0,0,2.27-3,8.64,8.64,0,0,0,.84-3.84,7.41,7.41,0,0,0-3-6.24A12.29,12.29,0,0,0,277.58,133.85Z"/><path class="cls-2" d="M277.67,129.69q7.72,0,11.69,3.51a11.36,11.36,0,0,1,4,8.86,12.8,12.8,0,0,1-4.75,10.2,16.81,16.81,0,0,1-4.9,2.78,16.59,16.59,0,0,1-5.7,1q-7.73,0-12.13-3.62t-4.41-10.15a10.63,10.63,0,0,1,1.39-5.44,12.37,12.37,0,0,1,3.62-4,16,16,0,0,1,5.14-2.38,23.12,23.12,0,0,1,6.09-.79m.1,22.67a13,13,0,0,0,4.21-.69,10,10,0,0,0,3.52-2,10.52,10.52,0,0,0,2.38-3.12,9,9,0,0,0,.89-4.06,8,8,0,0,0-3.22-6.63,12.71,12.71,0,0,0-8-2.48,14.09,14.09,0,0,0-8,2.58,10.21,10.21,0,0,0-2.67,2.82,6.3,6.3,0,0,0-1,3.41,9,9,0,0,0,3.42,7.48,13.11,13.11,0,0,0,8.46,2.72m-.1-23.67a24.25,24.25,0,0,0-6.35.82,17.13,17.13,0,0,0-5.46,2.53,13.51,13.51,0,0,0-3.9,4.27,11.63,11.63,0,0,0-1.53,5.95c0,4.65,1.61,8.33,4.78,10.93S272.61,157,278,157a17.7,17.7,0,0,0,11.23-4,14.15,14.15,0,0,0,3.73-4.69,14,14,0,0,0,1.39-6.29,12.35,12.35,0,0,0-4.3-9.61c-2.81-2.5-7-3.76-12.35-3.76Zm.1,22.67a12.23,12.23,0,0,1-7.84-2.5,8,8,0,0,1-3-6.7,5.3,5.3,0,0,1,.88-2.88,9.75,9.75,0,0,1,2.42-2.55,13.14,13.14,0,0,1,7.39-2.38,11.76,11.76,0,0,1,7.36,2.27,6.94,6.94,0,0,1,2.83,5.84,8,8,0,0,1-.79,3.61,9.74,9.74,0,0,1-2.15,2.83,9.11,9.11,0,0,1-3.17,1.82,11.84,11.84,0,0,1-3.89.64Z"/><path class="cls-4" d="M304,156.23c-2.76,0-3.18-1.62-3.18-2.58a1.53,1.53,0,0,1,1-1.6l1.38-.55a3.63,3.63,0,0,0,1.22-.83,2.91,2.91,0,0,0,.49-2V136.12c0-.91-.39-1-.78-1h-1.49c-1.88,0-2.08-1.25-2.08-1.79,0-2.54,1.13-3.07,2.08-3.07H307c1.16,0,1.95.82,2.33,2.44a21.74,21.74,0,0,1,11.93-3.53,12,12,0,0,1,4.29.77,11,11,0,0,1,3.52,2.18,10.34,10.34,0,0,1,3.28,7.65c0,1.41-.63,3.36-1.93,6L329,148.53a4.59,4.59,0,0,0-.64,2.05h0a1,1,0,0,0,.28.32c.29.26.6.52.92.77l1,.81a1.5,1.5,0,0,1,.61,1.07c0,2.38-4,2.38-5.35,2.38-3.6,0-4.36-1.45-4.36-2.68,0-.17,0-.4,1.24-3.08l3.07-6.34a17.23,17.23,0,0,0,1-2.45,14.73,14.73,0,0,0,.38-1.58,5.54,5.54,0,0,0-1.73-4.25,5.8,5.8,0,0,0-4.11-1.6A20.06,20.06,0,0,0,310,137.77V149a3.11,3.11,0,0,0,.43,2,2.73,2.73,0,0,0,1.05.8l1.25.55a1.5,1.5,0,0,1,.84,1.5C313.53,155.52,310.68,156.23,304,156.23Z"/><path class="cls-2" d="M321.25,129.69a11.27,11.27,0,0,1,4.11.74,10.23,10.23,0,0,1,3.36,2.08,9.7,9.7,0,0,1,2.28,3.22,9.84,9.84,0,0,1,.84,4.06,14.51,14.51,0,0,1-1.88,5.74l-1.39,2.77a5,5,0,0,0-.69,2.28,1,1,0,0,0,.45.69c.29.27.61.53.94.8s.64.53.94.79a1,1,0,0,1,.44.69c0,1.26-1.61,1.88-4.85,1.88-2.57,0-3.86-.72-3.86-2.18a18.58,18.58,0,0,1,1.19-2.87l3.07-6.33a18.86,18.86,0,0,0,1-2.53,13.83,13.83,0,0,0,.39-1.63,6.08,6.08,0,0,0-1.88-4.71,6.37,6.37,0,0,0-4.45-1.73,20.51,20.51,0,0,0-11.79,4.06V149a3.63,3.63,0,0,0,.55,2.32,3.18,3.18,0,0,0,1.24.94l1.23.55a1,1,0,0,1,.55,1c0,1.25-3,1.88-9,1.88-1.79,0-2.68-.69-2.68-2.08a1.09,1.09,0,0,1,.65-1.14l1.38-.54a4.12,4.12,0,0,0,1.39-.94,3.28,3.28,0,0,0,.64-2.33V136.12c0-1-.43-1.48-1.28-1.48h-1.49c-1.06,0-1.58-.43-1.58-1.29,0-1.72.52-2.57,1.58-2.57H307c1.05,0,1.71.92,2,2.77a21.25,21.25,0,0,1,12.28-3.86m0-1a22.27,22.27,0,0,0-11.64,3.25,2.72,2.72,0,0,0-2.62-2.16h-4.36c-.78,0-2.58.34-2.58,3.57,0,1.43,1,2.29,2.58,2.29h1.49a.52.52,0,0,1,.21,0,.89.89,0,0,1,.07.45V148.7c0,1.18-.27,1.54-.35,1.62A3.19,3.19,0,0,1,303,151l-1.37.54a2.06,2.06,0,0,0-1.29,2.07c0,.93.36,3.08,3.68,3.08,7.11,0,10-.83,10-2.88a2,2,0,0,0-1.13-1.95l-1.26-.55a2.38,2.38,0,0,1-.87-.67c-.07-.09-.31-.46-.31-1.68V138a19.42,19.42,0,0,1,10.79-3.59,5.35,5.35,0,0,1,3.78,1.47,5,5,0,0,1,1.55,3.88c-.06.35-.18.84-.35,1.45a16.82,16.82,0,0,1-.94,2.37L322.23,150c-1.29,2.79-1.29,3-1.29,3.3,0,1.45.84,3.18,4.86,3.18,1.45,0,5.85,0,5.85-2.88a2,2,0,0,0-.78-1.44c-.31-.27-.63-.55-1-.82s-.59-.49-.9-.76l-.1-.1a4.11,4.11,0,0,1,.57-1.65l1.4-2.8c1.33-2.68,2-4.7,2-6.19a10.81,10.81,0,0,0-.93-4.47,10.7,10.7,0,0,0-2.51-3.54,11,11,0,0,0-3.68-2.28,12.35,12.35,0,0,0-4.47-.81Z"/><g id="Snowflake"><path class="cls-5" d="M439.47,278.58a4,4,0,0,1-4-3.3l-1.2-6.69-3,5.57a4,4,0,0,1-2.82,2.06,4.25,4.25,0,0,1-.71.06,4.09,4.09,0,0,1-1.9-.48,4,4,0,0,1-1.94-2.38,4,4,0,0,1,.31-3.05l7.56-14.07c.07-.13.15-.25.23-.37l-2-10.94-10.28,16.77a4,4,0,0,1-2.71,1.85,4.34,4.34,0,0,1-.71.06,4,4,0,0,1-3.42-6.11l15-24.44-2.27-12.64-11.16,9.43-4,28.38a4,4,0,0,1-3.26,3.38,4.05,4.05,0,0,1-.7.07,3.66,3.66,0,0,1-.57-.05,4,4,0,0,1-3.41-4.53l2.78-19.47-8.49,7.17a3.18,3.18,0,0,1-.06.43L393.61,261a4,4,0,0,1-3.22,3.16,4.17,4.17,0,0,1-.71.06,4.23,4.23,0,0,1-.79-.08,4,4,0,0,1-2.55-1.71,3.91,3.91,0,0,1-.59-3l1.24-6.21-5.19,4.38a4,4,0,0,1-1.88.89,4.17,4.17,0,0,1-.71.06,4,4,0,0,1-2.59-7.08l4.92-4.15-6,.18a4,4,0,0,1-.12-8l16-.49,9.29-7.84-20.63-.55a4,4,0,0,1-2.81-1.24,4.07,4.07,0,0,1-1.1-2.87,4,4,0,0,1,4-3.91l29.75.79,11-9.26-13.21-4.77L381.05,220a3.56,3.56,0,0,1-.79.22,3.33,3.33,0,0,1-.7.07,4,4,0,0,1-1.5-7.74l18.25-7.33-10.46-3.76a2.78,2.78,0,0,1-.4.16l-15.13,5.1a3.1,3.1,0,0,1-.58.15,4.25,4.25,0,0,1-.71.06,4,4,0,0,1-1.28-7.81l6-2-6.4-2.31a4,4,0,0,1,1.36-7.78,4.22,4.22,0,0,1,1.36.23l6.06,2.19-3.09-5a4,4,0,0,1,1.3-5.52,4,4,0,0,1,5.52,1.3l8.41,13.59,11.44,4.12-9.85-18.14a4,4,0,1,1,7.05-3.82l14.14,26,12.08,4.36-2.59-14.47L398,174.17a4,4,0,0,1,2.48-7.17,4,4,0,0,1,2.47.86L418.41,180l-2-10.94a3.54,3.54,0,0,1-.35-.26l-12-10.55a3.94,3.94,0,0,1-1.35-2.76,4,4,0,0,1,1-2.91,4,4,0,0,1,3-1.36,4,4,0,0,1,2.65,1l4.76,4.18L413,149.71a4,4,0,0,1,3.24-4.66,4.37,4.37,0,0,1,.72-.06,4,4,0,0,1,3.94,3.3l1.14,6.34,2.78-5.17a4,4,0,0,1,3.54-2.12,4,4,0,0,1,3.53,5.91l-7.57,14.08,2.15,12,10.78-17.6a4,4,0,0,1,3.43-1.91,4,4,0,0,1,2.09.59,4,4,0,0,1,1.33,5.52l-15.5,25.27,2.76,15.38,10.67-9,4.19-29.35a4,4,0,0,1,4-3.44,3.64,3.64,0,0,1,.57,0,4,4,0,0,1,3.4,4.53l-2.91,20.44,9.28-7.85s3.16-15.67,3.16-15.67a4,4,0,0,1,3.93-3.22,4.23,4.23,0,0,1,.79.08,4,4,0,0,1,3.14,4.73l-1.16,5.76,4.92-4.16a4.05,4.05,0,0,1,2.59-1,4,4,0,0,1,2.59,7.08L475.27,180l6.45-.2a4,4,0,0,1,.71,8,3.81,3.81,0,0,1-.59.07l-16,.48-.42,0L457,195.42l19.66.51a4,4,0,0,1,.61,8,4.17,4.17,0,0,1-.71.07l-28.77-.76L437,212.26l13.5,4.87,27.51-11a4,4,0,0,1,1.49-.29,4,4,0,0,1,1.5,7.74l-19.16,7.69,11.44,4.12,15.15-5.11a4,4,0,0,1,1.28-.21,4,4,0,0,1,1.28,7.82l-5.57,1.87,6.06,2.19A4,4,0,0,1,493.9,237a4,4,0,0,1-3.06,2.59,4.25,4.25,0,0,1-.71.06,4,4,0,0,1-1.36-.24l-6.4-2.3,3.33,5.39a4,4,0,0,1-1.3,5.52,3.92,3.92,0,0,1-1.4.54,4.14,4.14,0,0,1-.7.06,4,4,0,0,1-3.42-1.9l-8.4-13.58a3.6,3.6,0,0,1-.2-.39L459.82,229l9.38,17.28a4,4,0,0,1-2.82,5.87,4.14,4.14,0,0,1-.7.06,4,4,0,0,1-3.53-2.1l-13.68-25.2-14.79-5.33,2,11.39L459,249.28a4,4,0,0,1-1.76,7.11,4.37,4.37,0,0,1-.72.06,4,4,0,0,1-2.47-.85l-16.24-12.74,2.15,12,12,10.56a4,4,0,0,1-1.94,7,3.51,3.51,0,0,1-.72.07,4,4,0,0,1-2.65-1l-4.41-3.88,1.14,6.34a4,4,0,0,1-3.24,4.66A4.25,4.25,0,0,1,439.47,278.58Z"/><path class="cls-2" d="M416.93,145.49a3.52,3.52,0,0,1,3.45,2.89l1.39,7.75,3.46-6.44a3.5,3.5,0,0,1,3.1-1.85,3.52,3.52,0,0,1,3.09,5.18l-7.56,14.06-.1.14,2.42,13.46L437.65,162a3.52,3.52,0,0,1,3-1.67,3.47,3.47,0,0,1,1.83.51,3.51,3.51,0,0,1,1.16,4.83l-15.59,25.44L431,207.49l11.48-9.69,4.22-29.54a3.51,3.51,0,0,1,3.47-3l.5,0a3.52,3.52,0,0,1,3,4L450.54,191,461,182.17c0-.06,0-.12,0-.17l3.15-15.66a3.51,3.51,0,0,1,3.44-2.82,4,4,0,0,1,.69.07,3.52,3.52,0,0,1,2.75,4.14l-1.44,7.16,6-5.08a3.51,3.51,0,0,1,4.53,5.37l-6.29,5.31,7.76-.23h.11a3.51,3.51,0,0,1,.62,7,4.18,4.18,0,0,1-.51.06l-16,.48h-.06a4.06,4.06,0,0,1-.51,0l-9.66,8.16,21,.55a3.51,3.51,0,0,1,.53,7,3.18,3.18,0,0,1-.62.06h-.1l-28.85-.76L436,212.44l14.5,5.22,27.68-11.12a3.58,3.58,0,0,1,1.31-.25,3.51,3.51,0,0,1,1.31,6.77l-20.37,8.18,12.86,4.64.15-.07,15.14-5.1a3.38,3.38,0,0,1,1.12-.19,3.51,3.51,0,0,1,1.12,6.84l-6.93,2.34,7.41,2.67a3.51,3.51,0,0,1-.57,6.76,4.32,4.32,0,0,1-.62.05,3.28,3.28,0,0,1-1.19-.21l-7.75-2.79,4.09,6.61a3.51,3.51,0,0,1-1.14,4.83,3.37,3.37,0,0,1-1.23.47,3.15,3.15,0,0,1-.61.06,3.49,3.49,0,0,1-3-1.67l-8.4-13.58a2.53,2.53,0,0,1-.26-.52l-11.89-4.28,10,18.43a3.51,3.51,0,0,1-1.41,4.76,3.46,3.46,0,0,1-1.06.38,4.18,4.18,0,0,1-.61.05,3.49,3.49,0,0,1-3.09-1.84l-13.77-25.36L433,218.83l2.23,12.43,23.47,18.42a3.51,3.51,0,0,1-1.54,6.22,4.46,4.46,0,0,1-.63,0,3.46,3.46,0,0,1-2.16-.75l-17.27-13.55,2.42,13.46.13.09,12,10.56a3.51,3.51,0,0,1-1.7,6.09,3.36,3.36,0,0,1-.63.06A3.51,3.51,0,0,1,447,271l-5.48-4.83,1.39,7.75a3.52,3.52,0,0,1-2.84,4.08,4.21,4.21,0,0,1-.62.05,3.5,3.5,0,0,1-3.45-2.89l-1.46-8.1-3.68,6.84a3.47,3.47,0,0,1-2.47,1.79,3.18,3.18,0,0,1-.62.06,3.56,3.56,0,0,1-1.66-.42,3.51,3.51,0,0,1-1.43-4.76l7.56-14.06a3.34,3.34,0,0,1,.32-.48l-2.23-12.45-11,17.89a3.51,3.51,0,0,1-2.37,1.62,4.46,4.46,0,0,1-.63.05,3.52,3.52,0,0,1-3-5.35l15.09-24.6L426,219.54l-12,10.11L410,258.22a3.52,3.52,0,0,1-2.86,3,3.08,3.08,0,0,1-.61.06,4,4,0,0,1-.5,0,3.5,3.5,0,0,1-3-4l3-20.77-9.66,8.16a3.94,3.94,0,0,1-.06.58l-3.15,15.65a3.51,3.51,0,0,1-2.82,2.77,4.21,4.21,0,0,1-.62.05,3.23,3.23,0,0,1-.69-.07,3.49,3.49,0,0,1-2.75-4.13l1.53-7.62-6.29,5.31a3.61,3.61,0,0,1-1.64.78,4.46,4.46,0,0,1-.63.05A3.51,3.51,0,0,1,377,251.8l6-5.08-7.3.22h-.11a3.51,3.51,0,0,1-.11-7l16-.49h.17L402,230.62,380.07,230a3.51,3.51,0,0,1,.09-7h.1l29.82.79,11.77-9.94-14.2-5.12L380.86,219.5a3.4,3.4,0,0,1-.69.2,3.15,3.15,0,0,1-.61.06,3.51,3.51,0,0,1-1.31-6.77l19.46-7.82-11.89-4.29a3.18,3.18,0,0,1-.53.24l-15.13,5.1a3.76,3.76,0,0,1-1.13.19,3.52,3.52,0,0,1-1.12-6.85l7.37-2.48-7.75-2.79a3.51,3.51,0,0,1,1.19-6.81,3.54,3.54,0,0,1,1.19.2l7.41,2.67-3.85-6.21a3.52,3.52,0,0,1,1.14-4.84,3.58,3.58,0,0,1,1.85-.52,3.53,3.53,0,0,1,3,1.66l8.4,13.58s0,.11.07.16l12.86,4.63-10.47-19.29a3.53,3.53,0,0,1,1.41-4.77,3.6,3.6,0,0,1,1.67-.42,3.49,3.49,0,0,1,3.09,1.84l14.24,26.22,13.07,4.71L421,191.59l-22.7-17.82a3.51,3.51,0,0,1,4.34-5.52l16.5,12.95-2.24-12.46a4.87,4.87,0,0,1-.47-.32l-12-10.56a3.51,3.51,0,0,1-.32-5,3.55,3.55,0,0,1,2.64-1.19,3.49,3.49,0,0,1,2.32.88l5.83,5.14-1.46-8.11a3.52,3.52,0,0,1,2.84-4.08,4.46,4.46,0,0,1,.63,0m0-1h0a4.43,4.43,0,0,0-.81.07,4.52,4.52,0,0,0-3.64,5.24l.95,5.28-3.68-3.24a4.48,4.48,0,0,0-3-1.13,4.5,4.5,0,0,0-4.5,4.8,4.43,4.43,0,0,0,1.52,3.1l12,10.56.22.17,1.7,9.45-14.44-11.33a4.51,4.51,0,0,0-5.57,7.1l22.41,17.59,2.41,13.42-11.09-4-14.05-25.89a4.51,4.51,0,0,0-7.93,4.3l9.22,17-10-3.62-8.31-13.44a4.51,4.51,0,0,0-7.68,4.74l2.34,3.78-4.71-1.7a4.68,4.68,0,0,0-1.53-.26,4.51,4.51,0,0,0-1.53,8.75l5.05,1.82-4.65,1.57a4.51,4.51,0,0,0,1.44,8.79,4.26,4.26,0,0,0,.8-.08,3.63,3.63,0,0,0,.65-.16l15.13-5.1.26-.1,9,3.25-17,6.84a4.51,4.51,0,0,0,1.69,8.7,5.27,5.27,0,0,0,.79-.07,4.76,4.76,0,0,0,.89-.26l26.43-10.61,12.22,4.4-10.16,8.58L380.28,222h-.12a4.51,4.51,0,0,0-.11,9l19.31.51-8.15,6.89-15.8.48a4.51,4.51,0,0,0,.14,9h.14l4.44-.14L376.3,251a4.51,4.51,0,0,0,2.91,8,4.25,4.25,0,0,0,.8-.07,4.48,4.48,0,0,0,2.11-1l4.1-3.47-1,4.81a4.47,4.47,0,0,0,.66,3.39,4.51,4.51,0,0,0,2.87,1.92,4.41,4.41,0,0,0,.89.09,4.33,4.33,0,0,0,.8-.07,4.49,4.49,0,0,0,3.62-3.55l3.15-15.66a2.74,2.74,0,0,0,.05-.28l7.33-6.19L402,257.09a4.5,4.5,0,0,0,3.82,5.1,4.74,4.74,0,0,0,.65.05,5.27,5.27,0,0,0,.79-.07,4.52,4.52,0,0,0,3.67-3.81l4-28.19,10.35-8.75,2.09,11.6L412.54,257.3a4.51,4.51,0,0,0,3.84,6.87,4.43,4.43,0,0,0,.81-.07,4.57,4.57,0,0,0,3.05-2.08l9.59-15.65,1.69,9.45c0,.08-.1.16-.14.24l-7.56,14.07a4.51,4.51,0,0,0,1.83,6.11,4.59,4.59,0,0,0,2.14.54,5.4,5.4,0,0,0,.8-.07,4.49,4.49,0,0,0,3.17-2.31l2.32-4.31.95,5.28a4.51,4.51,0,0,0,4.44,3.71,4.25,4.25,0,0,0,.8-.07,4.51,4.51,0,0,0,3.65-5.24l-.89-4.92,3.33,2.93a4.52,4.52,0,0,0,3,1.13,5.29,5.29,0,0,0,.8-.07,4.52,4.52,0,0,0,2.19-7.83l-11.87-10.45-1.88-10.5L453.78,256a4.47,4.47,0,0,0,2.78,1,4.25,4.25,0,0,0,.8-.07,4.5,4.5,0,0,0,2-8l-23.17-18.18-1.86-10.36,13.8,5,13.59,25a4.5,4.5,0,0,0,4,2.36,4.22,4.22,0,0,0,.79-.07,4.69,4.69,0,0,0,1.36-.48,4.51,4.51,0,0,0,1.81-6.11l-8.75-16.13,9,3.25c0,.08.08.17.13.25L478.46,247a4.47,4.47,0,0,0,3.84,2.14,4.22,4.22,0,0,0,.79-.07,4.52,4.52,0,0,0,3-6.82l-2.58-4.16,5.05,1.82a4.68,4.68,0,0,0,1.53.26,4.15,4.15,0,0,0,.79-.07,4.51,4.51,0,0,0,.74-8.68l-4.71-1.7,4.21-1.42a4.51,4.51,0,1,0-2.89-8.55l-15,5.05-10-3.62,17.93-7.2a4.51,4.51,0,0,0-1.68-8.7,4.41,4.41,0,0,0-1.68.33l-27.33,11L438,212.08l9.92-8.38,28.47.75h.13a5.27,5.27,0,0,0,.79-.07,4.52,4.52,0,0,0-.68-9L458.28,195l7.33-6.19h.28l16-.48a4.93,4.93,0,0,0,.66-.07,4.52,4.52,0,0,0-.8-9h-.14l-4.9.15,4.1-3.47a4.49,4.49,0,0,0,.54-6.35,4.5,4.5,0,0,0-6.36-.54l-3.82,3.23.87-4.35a4.51,4.51,0,1,0-8.84-1.78l-3.12,15.49-8.15,6.89,2.73-19.13a4.52,4.52,0,0,0-3.83-5.11,4.58,4.58,0,0,0-.64,0,4.52,4.52,0,0,0-4.46,3.87l-4.17,29.16-9.86,8.33-2.57-14.34,15.39-25.11a4.51,4.51,0,0,0-7.69-4.72l-10.1,16.47-1.89-10.5,7.49-13.92a4.53,4.53,0,0,0-1.84-6.11,4.55,4.55,0,0,0-2.13-.54,4.51,4.51,0,0,0-4,2.38l-2.1,3.91-.89-4.93a4.49,4.49,0,0,0-4.43-3.71Z"/></g></g></g></g></g></svg>
